<svg width="138" height="142" viewBox="0 0 138 142" fill="none" xmlns="http://www.w3.org/2000/svg">
<path d="M13.3621 111.275C20.5481 121.593 29.8466 129.378 41.2576 134.631C47.7477 137.618 54.0753 139.378 60.2404 139.909C65.007 140.32 69.4798 140.402 73.6588 140.156C82.831 139.611 91.5928 137.201 99.9442 132.927C111.601 126.955 120.69 118.292 127.209 106.937" stroke="#9E919B" stroke-width="2"/>
<path d="M127.21 106.937C133.214 96.6781 136.332 85.1818 136.566 72.4478C136.874 55.4889 132.213 40.5111 122.581 27.5146" stroke="#B9B8CB" stroke-width="2"/>
<path d="M122.581 27.5146C117.318 20.2859 110.727 14.3867 102.805 9.81702C102.47 9.62334 102.122 9.54454 101.761 9.58066" stroke="#E1D7DE" stroke-width="2"/>
<path d="M101.761 9.58064C101.581 9.25236 101.21 8.94214 100.648 8.64997C91.8309 4.06391 82.5865 1.546 72.9154 1.09626C69.5702 0.94197 66.2891 0.973157 63.0719 1.18982C56.7558 1.61987 50.6121 2.98058 44.6407 5.27197C29.8582 10.9512 18.5047 20.6322 10.58 34.3149C4.5331 44.7607 1.34879 56.2407 1.02708 68.7547C0.623296 84.476 4.73499 98.6495 13.3622 111.275" stroke="#B9B8CB" stroke-width="2"/>
<path d="M101.761 9.58069C102.92 11.9673 103.565 14.129 103.696 16.0659C103.857 18.4689 104.145 20.2334 104.558 21.3594C106.127 25.6369 109.164 27.6065 113.668 27.2684C117.069 27.0123 120.04 27.0944 122.581 27.5146" stroke="#9C91AA" stroke-width="2"/>
<path d="M127.209 106.937C126.832 106.934 126.33 106.814 125.703 106.577C122.627 105.422 115.537 102.833 104.435 98.812" stroke="#584A68" stroke-width="2"/>
<path d="M104.435 98.812C112.301 97.558 117.888 93.3331 121.197 86.1372C123.278 81.6102 123.608 76.9404 122.187 72.1278C121.031 68.2213 118.71 65.2258 115.224 63.1412C113.816 62.2975 112.23 61.8297 110.467 61.7378C108.507 61.636 106.909 62.135 105.671 63.2347C104.43 64.341 103.829 65.7379 103.869 67.4252C103.915 69.2603 104.821 70.7458 106.587 71.8816C107.411 72.4101 108.238 72.9321 109.069 73.4475C110.874 74.5735 112.163 76.0409 112.934 77.8497C113.63 79.4911 113.852 81.3394 113.599 83.3944C113.248 86.2077 112.03 88.5812 109.945 90.5148C106.774 93.4463 102.815 94.9351 98.0681 94.981" stroke="#9D91AB" stroke-width="2"/>
<path d="M98.068 94.981C96.6991 94.5083 94.841 93.768 92.4938 92.7602C92.2968 92.6749 92.1261 92.7159 91.9817 92.8833" stroke="#9088A8" stroke-width="2"/>
<path d="M91.9818 92.8832L88.4512 91.8984" stroke="#504864" stroke-width="2"/>
<path d="M88.4512 91.8984L88.5004 78.1992" stroke="#B897A1" stroke-width="2"/>
<path d="M88.5005 78.1993C90.4209 76.072 91.629 73.9907 92.1247 71.9554C93.0701 68.0719 93.2146 63.6073 92.558 58.5616C92.5502 58.5016 92.5594 58.4348 92.5849 58.3659C92.6104 58.297 92.6516 58.2276 92.7057 58.1627C92.7878 58.0643 92.8403 57.9494 92.8633 57.8181" stroke="#614858" stroke-width="2"/>
<path d="M92.8633 57.8181L94.375 57.887" stroke="#B77A85" stroke-width="2"/>
<path d="M94.375 57.887C99.9558 56.8102 102.57 53.4158 102.219 47.7038C101.976 43.7381 99.8835 41.5288 95.9409 41.0758" stroke="#B5929E" stroke-width="2"/>
<path d="M95.9409 41.0758L94.114 40.933" stroke="#B6A4B2" stroke-width="2"/>
<path d="M94.1138 40.933C94.36 39.6658 94.2714 38.4282 93.8479 37.2201" stroke="#B895A0" stroke-width="2"/>
<path d="M93.8482 37.2202C95.9689 35.2374 97.4905 32.8722 98.4129 30.1245C99.3584 27.3177 98.7724 24.9623 96.655 23.0583C96.0936 22.556 95.9377 21.9503 96.1872 21.2412C96.5811 20.1087 96.7846 18.958 96.7978 17.7894C96.8109 16.4697 96.5269 15.3749 95.9459 14.5049C95.0628 13.1852 93.712 12.5139 91.8933 12.4909C91.867 12.4909 91.6126 12.5106 91.13 12.55C90.0598 12.6386 89.4066 12.0871 89.1702 10.8955C88.8222 9.1359 87.6929 7.81622 85.7823 6.93643C82.8442 5.58391 80.0473 5.77104 77.3915 7.49779C77.2258 7.60467 77.027 7.64852 76.8311 7.62144C76.6352 7.59435 76.455 7.4981 76.323 7.35006C74.3894 5.15387 71.9815 4.68936 69.0992 5.95652C68.4623 6.23884 67.8107 6.27495 67.1443 6.06485C65.8443 5.6545 64.4475 5.4526 62.9538 5.45917C61.3748 5.46902 60.014 5.74314 58.8716 6.28151C56.7805 7.26635 55.3525 8.95863 54.5876 11.3584C54.3643 12.0609 53.8867 12.3662 53.1546 12.2743C51.9695 12.12 50.8074 12.0461 49.6683 12.0527C48.3421 12.0625 47.2177 12.2808 46.2952 12.7076C44.3945 13.5939 43.1881 15.0302 42.6759 17.0163C42.2853 18.5198 42.1852 20.1086 42.3756 21.7829C42.5791 23.5687 43.2915 25.0591 44.5127 26.254C46.223 27.925 46.5923 29.9554 45.6206 32.3453C45.1545 33.491 45.1873 34.7122 45.7191 36.0089" stroke="#614858" stroke-width="2"/>
<path d="M45.719 36.0088L45.4875 41.3023" stroke="#B895A0" stroke-width="2"/>
<path d="M45.4876 41.3023L44.7292 41.5682" stroke="#B6A4B2" stroke-width="2"/>
<path d="M44.7293 41.5683C40.6652 41.3385 38.3672 43.1374 37.8354 46.9652C37.6352 48.4063 37.7369 49.9082 38.1407 51.4708C38.5675 53.1286 39.2503 54.427 40.1892 55.3658C41.9488 57.1254 44.2812 57.544 47.1865 56.6215" stroke="#B796A0" stroke-width="2"/>
<path d="M47.1865 56.6215L47.9301 58.7635" stroke="#B6A4B2" stroke-width="2"/>
<path d="M47.93 58.7635C47.5919 62.5617 47.5508 65.8511 47.8069 68.6316C48.1155 71.9767 49.4762 74.9214 51.889 77.4656" stroke="#614858" stroke-width="2"/>
<path d="M51.8888 77.4655L51.8691 91.918" stroke="#B897A1" stroke-width="2"/>
<path d="M51.8693 91.9181L47.9299 93.3954" stroke="#4B455E" stroke-width="2"/>
<path d="M47.9298 93.3954C45.1919 94.7348 42.5247 96.2235 39.928 97.8616" stroke="#7B789C" stroke-width="2"/>
<path d="M39.9281 97.8616C32.8504 100.967 25.341 104.601 17.3999 108.764C15.8439 109.578 14.4979 110.415 13.3621 111.275" stroke="#584A68" stroke-width="2"/>
<path d="M94.375 57.887C95.4288 57.4045 95.8243 56.5838 95.5617 55.4249C95.5392 55.3206 95.5436 55.2122 95.5746 55.1097C95.6056 55.0072 95.6622 54.914 95.739 54.8389C98.2339 52.4195 99.3271 49.7949 99.0185 46.9652C98.8084 45.0349 97.7136 43.899 95.7341 43.5576" stroke="#F99B8B" stroke-width="2"/>
<path d="M51.9727 102.116C49.9472 99.5293 48.5996 96.6224 47.9299 93.3954" stroke="#534B63" stroke-width="2"/>
<path d="M92.8632 57.818L92.4939 57.7786" stroke="#A45145" stroke-width="2"/>
<path d="M44.9361 43.6856C43.7149 43.7447 42.6661 44.1272 41.7896 44.833C40.9754 45.4928 40.4994 46.412 40.3616 47.5905C40.0366 50.3579 41.3677 52.2587 44.3551 53.2927" stroke="#F8A090" stroke-width="2"/>
<path d="M57.2859 108.867L53.6519 117.465" stroke="#524661" stroke-width="2"/>
<path d="M53.6517 117.465C46.5707 112.692 41.9961 106.157 39.928 97.8616" stroke="#60516D" stroke-width="2"/>
<path d="M91.9817 92.8832C91.3842 96.1332 90.1942 99.1452 88.4116 101.919" stroke="#6C5F74" stroke-width="2"/>
<path d="M88.5003 78.1992L87.1807 79.4648" stroke="#A66E62" stroke-width="2"/>
<path d="M87.1808 79.4648C84.3346 82.2092 81.5409 84.4974 78.7998 86.3292C72.1784 90.7445 65.8787 90.3342 59.9007 85.0981C57.048 82.5966 54.7878 80.4316 53.1201 78.6031" stroke="#A0524A" stroke-width="2"/>
<path d="M53.12 78.603L51.8889 77.4655" stroke="#A66E62" stroke-width="2"/>
<path d="M64.3915 65.0862C62.343 65.6968 61.4698 67.046 61.7718 69.1339C61.867 69.7904 62.1264 70.946 62.5499 72.6005C63.1506 74.9674 64.6492 76.3839 67.0457 76.8501C67.1129 76.8627 67.1822 76.8595 67.2482 76.8405C67.3143 76.8216 67.3756 76.7875 67.4276 76.7407C67.4795 76.694 67.5208 76.6357 67.5485 76.5703C67.5761 76.5049 67.5894 76.4339 67.5873 76.3626L67.3805 70.9607C67.3782 70.8774 67.4138 70.7963 67.4793 70.7354C67.5448 70.6745 67.635 70.6387 67.7301 70.6358L72.6986 70.5028C72.7623 70.5009 72.8256 70.5108 72.8849 70.5321C72.9441 70.5534 72.998 70.5856 73.0431 70.6266C73.0883 70.6676 73.1239 70.7167 73.1476 70.7707C73.1714 70.8248 73.1828 70.8828 73.1812 70.9411L73.0778 75.4959C73.0772 75.526 73.0833 75.5559 73.0956 75.5832C73.108 75.6105 73.1263 75.6346 73.1491 75.6536C73.1719 75.6726 73.1987 75.6861 73.2273 75.6929C73.2559 75.6997 73.2856 75.6997 73.3141 75.6929C74.6338 75.3975 75.6006 74.7983 76.2145 73.8956C77.3897 72.1655 77.9577 70.0416 77.9183 67.5237C77.9117 67.0838 77.7985 66.7341 77.5785 66.4748C77.5414 66.4301 77.4886 66.4014 77.4315 66.395C77.3744 66.3885 77.3176 66.4048 77.2732 66.4403C75.8124 67.5598 74.2235 68.1704 72.5066 68.2721C72.1619 68.2918 71.8303 68.3657 71.5119 68.4937C70.9276 68.7334 70.6584 68.6628 70.7043 68.282" stroke="#A56B60" stroke-width="2"/>
<path d="M70.7043 68.282C71.9814 67.8323 73.2846 67.4859 74.6142 67.243C75.0015 67.174 75.3216 67.0444 75.5744 66.854C75.8567 66.6472 76.1243 66.4157 76.377 66.1597C76.4021 66.1342 76.4213 66.1035 76.4333 66.0698C76.4453 66.0361 76.4498 66.0002 76.4465 65.9646C76.4433 65.9289 76.4323 65.8945 76.4143 65.8635C76.3963 65.8326 76.3719 65.8059 76.3426 65.7854C75.3643 65.0829 74.3466 64.753 73.2895 64.7957" stroke="#A47B77" stroke-width="2"/>
<path d="M93.8481 37.2202C91.2415 35.7593 89.5131 33.5927 88.6629 30.7202C88.4232 29.9061 88.2 29.3218 87.9932 28.9672C87.5828 28.2713 87.0757 28.1892 86.4716 28.721C83.1297 31.6624 79.4579 32.4798 75.4562 31.1733C71.7138 29.9521 68.4573 27.943 65.6866 25.1461C63.9763 23.4193 62.8486 22.4542 62.3037 22.2506C60.4522 21.5612 59.0357 22.0126 58.0541 23.6048C57.1513 25.0722 56.4029 26.9089 55.8087 29.115C55.3031 30.9862 54.0212 32.6177 51.9629 34.0096C50.4561 35.0273 48.3748 35.6937 45.719 36.0088" stroke="#A66C60" stroke-width="2"/>
<path d="M94.1139 40.933C92.5743 41.816 91.1726 41.6864 89.9087 40.5439" stroke="#FBC8BA" stroke-width="2"/>
<path d="M89.9088 40.5441C90.4176 39.6085 90.3782 38.7828 89.7906 38.0672C89.698 37.9523 89.5577 37.8674 89.3917 37.8259C85.4064 36.8345 81.3538 36.3388 77.2339 36.3388" stroke="#906966" stroke-width="2"/>
<path d="M77.2338 36.3387C73.8591 35.8266 70.4696 35.7429 67.0654 36.0876C66.875 36.1072 66.591 36.1105 66.2135 36.0974C65.4092 36.0678 65.2155 36.3436 65.6324 36.9247C65.6753 36.9856 65.7337 37.0357 65.803 37.0707C65.8724 37.1058 65.9506 37.1249 66.0313 37.1265L76.0323 37.2398" stroke="#F9A99A" stroke-width="2"/>
<path d="M76.0323 37.2398C75.3462 38.8976 75.7861 39.7643 77.352 39.8398C80.1522 39.9711 82.9426 40.2058 85.7231 40.544" stroke="#906966" stroke-width="2"/>
<path d="M85.7233 40.5439L85.1865 40.5833C85.1472 40.5869 85.0909 40.613 85.0234 40.6588C84.9559 40.7047 84.8797 40.7687 84.8025 40.8443C84.5825 41.0676 84.2739 41.1792 83.8767 41.1792C80.456 41.1825 76.7957 41.578 72.8958 42.3659" stroke="#FBC8BA" stroke-width="2"/>
<path d="M72.8954 42.3659C71.8023 43.0093 70.5384 43.2292 69.1038 43.0257C68.8707 42.9929 68.6656 43.1094 68.4883 43.3753" stroke="#FC9E8D" stroke-width="2"/>
<path d="M68.4883 43.3754C67.7727 43.185 67.1227 43.3147 66.5383 43.7645" stroke="#FBC8BA" stroke-width="2"/>
<path d="M66.5383 43.7644C66.4103 43.6134 66.2461 43.5313 66.0459 43.5182" stroke="#FC9E8D" stroke-width="2"/>
<path d="M66.0459 43.5182C65.9015 43.295 65.4944 43.0389 64.8247 42.75C62.228 41.6306 59.8381 41.0938 57.6551 41.1398C56.6801 41.1595 55.7773 40.933 54.9468 40.4603" stroke="#FBC8BA" stroke-width="2"/>
<path d="M54.9467 40.4603L63.9432 39.5789C64.6655 39.5067 65.0331 39.0996 65.0463 38.3577C65.0725 36.8312 64.2502 36.1024 62.5792 36.1713C60.2189 36.2665 57.8701 36.4898 55.5327 36.841C53.1593 37.1956 51.3472 37.6158 50.0964 38.1016C50.0224 38.1311 49.9562 38.1755 49.9025 38.2317C49.8489 38.2879 49.8091 38.3545 49.7862 38.4266C49.4612 39.4541 49.7862 40.2141 50.7612 40.7065" stroke="#916667" stroke-width="2"/>
<path d="M50.7614 40.7065C49.0674 41.455 47.3095 41.6536 45.4875 41.3023" stroke="#FBC8BA" stroke-width="2"/>
<path d="M53.12 78.6031C53.0117 78.8263 52.9543 79.0446 52.9477 79.258C52.9411 79.4386 53.0117 79.6421 53.1594 79.8686C55.2538 83.0398 57.7635 85.8006 60.6885 88.1511C62.5893 89.6809 64.4014 90.7183 66.1248 91.2632C68.2258 91.9296 70.3596 92.1003 72.5263 91.7753C74.821 91.4339 77.1271 90.4097 79.4448 88.7026C81.5228 87.1696 83.3628 85.3673 84.9648 83.2959C85.2701 82.9019 85.6575 82.444 86.1269 81.922C86.465 81.5445 86.8541 81.0849 87.2939 80.5432C87.6255 80.1329 87.5878 79.7734 87.1807 79.4648" stroke="#F7A093" stroke-width="2"/>
<path d="M88.4511 91.8984C88.2311 95.1943 88.218 98.5346 88.4117 101.919" stroke="#956D6E" stroke-width="2"/>
<path d="M88.4116 101.919C86.5666 104.969 84.1866 107.531 81.2715 109.606" stroke="#D5AEB2" stroke-width="2"/>
<path d="M81.2716 109.606C80.7201 109.941 79.9158 110.326 78.8587 110.763C77.8969 111.164 77.2338 111.92 76.8694 113.033" stroke="#8E6765" stroke-width="2"/>
<path d="M76.8693 113.033C75.3888 116.122 74.2579 119.325 73.4766 122.64" stroke="#FBCABC" stroke-width="2"/>
<path d="M73.4765 122.64C72.3604 125.923 70.9865 129.247 69.355 132.612C69.2499 132.832 69.1465 132.832 69.0448 132.612C66.7435 127.756 64.6294 122.796 62.7024 117.731" stroke="#9D7072" stroke-width="2"/>
<path d="M62.7025 117.731L61.1563 111.704C61.1018 111.489 60.9953 111.281 60.843 111.092C60.6906 110.903 60.4957 110.738 60.2699 110.606L57.2859 108.867" stroke="#8F6566" stroke-width="2"/>
<path d="M57.2859 108.867C56.5275 107.955 55.7249 107.081 54.8779 106.247C53.6567 105.043 52.6883 103.666 51.9727 102.116" stroke="#C09DA6" stroke-width="2"/>
<path d="M51.9725 102.116L51.8691 91.9181" stroke="#906A68" stroke-width="2"/>
<path d="M53.6519 117.465C54.7319 118.233 55.8792 118.895 57.0939 119.449C57.1201 119.459 57.3811 119.599 57.8768 119.868C58.6089 120.268 59.1276 120.083 59.4329 119.311C59.5806 118.937 59.6577 118.742 59.6643 118.725C60.1666 117.639 60.6179 116.529 61.0184 115.397C61.0775 115.236 61.1547 115.224 61.2499 115.362C61.5453 115.782 61.7243 116.262 61.7866 116.8C61.8556 117.401 62.1609 117.711 62.7025 117.731" stroke="#2F192D" stroke-width="2"/>
<path d="M73.4766 122.64L74.6436 120.439" stroke="#9B7D82" stroke-width="2"/>
<path d="M74.6436 120.439C74.9029 120.495 75.1212 120.455 75.2985 120.321C75.4134 120.232 75.502 120.055 75.5644 119.789C75.827 118.686 76.4327 117.893 77.3814 117.411C79.6006 116.288 81.4439 114.842 82.9113 113.072" stroke="#2E1A2B" stroke-width="2"/>
<path d="M99.6389 97.4135C99.1432 100.046 98.2765 102.51 97.0389 104.805C94.347 109.808 90.5931 113.98 85.7773 117.322C85.7089 117.37 85.631 117.402 85.5489 117.417C85.4669 117.432 85.3826 117.429 85.3018 117.408C85.221 117.388 85.1455 117.35 85.0806 117.298C85.0156 117.246 84.9627 117.18 84.9254 117.105L82.9114 113.072" stroke="#756178" stroke-width="2"/>
<path d="M82.9112 113.073L81.2715 109.606" stroke="#65586B" stroke-width="2"/>
<path d="M104.435 98.8119L99.6389 97.4135" stroke="#826A7C" stroke-width="2"/>
<path d="M99.6389 97.4135L98.0681 94.981" stroke="#B9A8BC" stroke-width="2"/>
<path d="M95.9408 41.0758L95.926 42.6269C95.9245 42.6855 95.9044 42.7503 95.8669 42.8167C95.8295 42.8831 95.7757 42.9495 95.7093 43.011C95.5321 43.1719 95.5403 43.3541 95.734 43.5576" stroke="#F8C5B8" stroke-width="2"/>
<path d="M95.734 43.5576L95.2859 53.15C95.2826 53.2174 95.2651 53.2833 95.2347 53.3435C95.2043 53.4036 95.1617 53.4566 95.1095 53.499C95.0574 53.5413 94.9971 53.572 94.9324 53.5891C94.8677 53.6062 94.8003 53.6092 94.7344 53.5981C94.4882 53.5554 94.2469 53.5784 94.0106 53.667C93.8136 53.7392 93.6429 53.8902 93.4984 54.12C92.7959 55.2296 92.4611 56.4492 92.4939 57.7787" stroke="#FAAD9F" stroke-width="2"/>
<path d="M92.4939 57.7786C92.0081 58.6289 91.5157 59.0868 91.0167 59.1525C89.7364 59.3166 88.4643 59.5284 87.2004 59.7877" stroke="#A47B72" stroke-width="2"/>
<path d="M87.2003 59.7877C85.7033 59.4529 84.2228 59.5038 82.7586 59.9404C82.6056 59.9848 82.4424 59.9761 82.2958 59.9158C81.6458 59.6433 80.9712 59.448 80.2719 59.3298C78.7224 59.0639 77.4274 58.3482 76.3867 57.1828" stroke="#FBBEB0" stroke-width="2"/>
<path d="M76.3869 57.1828C74.8407 55.0523 73.8969 52.6706 73.5555 50.0378C73.3848 48.6984 73.1829 47.364 72.9498 46.0344C72.9268 45.8933 72.8776 45.7866 72.8021 45.7144C72.674 45.5831 72.546 45.5502 72.418 45.6159" stroke="#DF9383" stroke-width="2"/>
<path d="M72.4179 45.6159L69.3501 45.5076" stroke="#FAC7BA" stroke-width="2"/>
<path d="M69.35 45.5076C67.968 45.5535 67.0307 44.9725 66.5383 43.7644" stroke="#FAAD9F" stroke-width="2"/>
<path d="M68.4883 43.3753C69.8014 44.1632 71.1621 44.283 72.5704 43.7348C72.6548 43.7013 72.7277 43.6517 72.7802 43.5922C72.8328 43.5327 72.8626 43.4658 72.8659 43.4L72.8954 42.3659" stroke="#FAAD9F" stroke-width="2"/>
<path d="M66.0459 43.5182C66.1378 46.7485 65.7669 49.9147 64.9331 53.017C64.4505 54.8159 64.091 55.9419 63.8547 56.395C63.2703 57.5111 62.3413 58.3335 61.0676 58.862C60.0729 59.2723 59.0585 59.622 58.0244 59.9108" stroke="#FAAD9F" stroke-width="2"/>
<path d="M58.0243 59.9108C57.4137 59.9568 56.941 59.8386 56.6061 59.5563C56.071 59.1 55.6738 59.1984 55.4145 59.8517C54.9286 61.0631 54.9861 62.304 55.5868 63.5744" stroke="#FAC7BA" stroke-width="2"/>
<path d="M55.587 63.5744C54.658 62.5075 54.0048 61.329 53.6272 60.0389C53.6082 59.9721 53.5692 59.9115 53.5144 59.8638C53.4597 59.816 53.3914 59.7828 53.317 59.768L47.9299 58.7635" stroke="#A47B72" stroke-width="2"/>
<path d="M47.1864 56.6215C47.0485 54.8061 46.1047 53.6965 44.355 53.2928" stroke="#FAC9BA" stroke-width="2"/>
<path d="M44.355 53.2927C44.9131 52.4228 45.1921 51.8631 45.1921 51.6136C45.1987 49.0333 45.1133 46.3907 44.936 43.6856" stroke="#F7AEA2" stroke-width="2"/>
<path d="M44.9361 43.6856C45.4121 42.9503 45.3431 42.2445 44.7292 41.5682" stroke="#FAC9BA" stroke-width="2"/>
<path d="M70.7044 68.282L69.4783 68.607" stroke="#FAC6BE" stroke-width="2"/>
<path d="M69.4782 68.607L64.6919 66.1843" stroke="#EB817B" stroke-width="2"/>
<path d="M64.6919 66.1843L65.0415 65.4506" stroke="#FAC6BE" stroke-width="2"/>
<path d="M64.6919 66.1843C64.2849 65.6295 63.9024 65.6016 63.5446 66.1006C63.5155 66.1411 63.4947 66.187 63.4837 66.2356C63.4726 66.2841 63.4714 66.3343 63.4801 66.3831C63.4889 66.4319 63.5074 66.4782 63.5345 66.5194C63.5617 66.5605 63.5969 66.5957 63.6382 66.6226C65.4765 67.8175 67.4232 68.479 69.4783 68.607" stroke="#EC7164" stroke-width="2"/>
<path d="M76.3869 57.1828C76.2786 57.672 76.3164 58.1316 76.5002 58.5616C76.5323 58.6337 76.5485 58.7103 76.5477 58.7854C76.5468 58.8605 76.5289 58.9322 76.4953 58.9949C76.1309 59.6843 75.9405 60.3737 75.9241 61.0631" stroke="#E17967" stroke-width="2"/>
<path d="M75.9239 61.0631C74.8537 61.2109 73.7375 61.6655 72.5754 62.4271C72.5349 62.4536 72.4896 62.4715 72.4422 62.48C72.3948 62.4885 72.3463 62.4872 72.2997 62.4764C71.8663 62.3746 71.7629 62.4846 71.9894 62.8063C72.4457 63.453 72.8791 64.1161 73.2894 64.7957" stroke="#8A3729" stroke-width="2"/>
<path d="M73.2895 64.7956C71.4118 65.0418 69.5242 65.1206 67.6267 65.032C66.7338 64.9893 65.8721 65.1288 65.0415 65.4505" stroke="#DF9288" stroke-width="2"/>
<path d="M65.0416 65.4506L64.3916 65.0862" stroke="#E08271" stroke-width="2"/>
<path d="M64.3916 65.0862C65.7277 64.0816 67.2575 63.6171 68.981 63.6926C69.0549 63.6958 69.1271 63.6761 69.186 63.6368C69.245 63.5975 69.2872 63.5408 69.3059 63.476C69.4471 62.9835 69.4208 62.4928 69.2272 62.0036" stroke="#8A3729" stroke-width="2"/>
<path d="M72.4179 45.6159C72.3752 49.9853 73.0384 54.3498 74.4073 58.7093C74.475 58.9251 74.4866 59.1545 74.4409 59.3759C74.3952 59.5974 74.2938 59.8035 74.1463 59.9749C72.8989 61.4094 71.2591 62.0857 69.2271 62.0036" stroke="#E08271" stroke-width="2"/>
<path d="M69.2269 62.0037C68.3078 61.764 67.4099 61.4604 66.5334 61.0927C65.3286 60.5871 64.1485 60.6167 62.9929 61.1813C60.8689 62.2154 59.2505 63.7649 58.1377 65.8298C58.105 65.8906 58.052 65.9376 57.989 65.9613C57.9261 65.985 57.8579 65.9837 57.7979 65.9578C56.685 65.4785 55.948 64.6841 55.5869 63.5745" stroke="#A56B60" stroke-width="2"/>
<path d="M87.2005 59.7878C86.7114 60.6281 86.2649 61.4915 85.8611 62.3779C85.047 64.1571 83.77 65.4473 82.0301 66.2483C81.9749 66.2735 81.915 66.2869 81.8542 66.2875C81.7935 66.2881 81.7333 66.2759 81.6776 66.2518C81.6219 66.2276 81.5719 66.1921 81.5308 66.1474C81.4898 66.1026 81.4585 66.0498 81.4392 65.9922C80.5528 63.3266 78.7144 61.6836 75.9241 61.0631" stroke="#A66256" stroke-width="2"/>
<path d="M69.3501 45.5076C68.838 50.3989 67.1572 54.7962 64.3077 58.6995C63.6676 59.5694 62.9339 60.1767 62.1066 60.5214C60.8756 61.0303 59.6691 61.1993 58.4873 61.0286C57.5222 60.8907 57.3679 60.5182 58.0245 59.9108" stroke="#FB9D8D" stroke-width="2"/>
<path d="M77.234 36.3388L76.0325 37.2399" stroke="#8C5858" stroke-width="2"/>
<path d="M54.9468 40.4603L50.7612 40.7065" stroke="#8F7579" stroke-width="2"/>
<path d="M89.9087 40.5439H85.7231" stroke="#8E7878" stroke-width="2"/>
<path d="M74.6436 120.439C75.6087 118.059 76.3506 115.59 76.8693 113.033" stroke="#8C7475" stroke-width="2"/>
<path d="M125.499 43.7558C125.419 43.4609 125.209 43.2143 124.915 43.0702C124.622 42.926 124.268 42.8962 123.933 42.9873C123.598 43.0784 123.308 43.2829 123.128 43.5558C122.947 43.8287 122.891 44.1478 122.971 44.4427C123.051 44.7376 123.261 44.9842 123.555 45.1283C123.849 45.2724 124.202 45.3022 124.537 45.2112C124.872 45.1201 125.162 44.9156 125.343 44.6427C125.523 44.3697 125.579 44.0507 125.499 43.7558Z" stroke="#9088A8" stroke-width="2"/>
<path d="M125.328 53.2829C125.328 52.5999 125.057 51.9448 124.574 51.4619C124.091 50.9789 123.436 50.7076 122.753 50.7076C122.07 50.7076 121.415 50.9789 120.932 51.4619C120.449 51.9448 120.178 52.5999 120.178 53.2829C120.178 53.9659 120.449 54.621 120.932 55.104C121.415 55.5869 122.07 55.8583 122.753 55.8583C123.436 55.8583 124.091 55.5869 124.574 55.104C125.057 54.621 125.328 53.9659 125.328 53.2829Z" stroke="#948DAA" stroke-width="2"/>
<path d="M129.282 60.8908C129.282 60.7343 129.252 60.5794 129.192 60.4348C129.132 60.2902 129.044 60.1588 128.933 60.0482C128.823 59.9375 128.691 59.8498 128.547 59.7899C128.402 59.73 128.247 59.6992 128.091 59.6992C127.775 59.6992 127.472 59.8247 127.248 60.0482C127.025 60.2717 126.899 60.5748 126.899 60.8908C126.899 61.2069 127.025 61.51 127.248 61.7335C127.472 61.9569 127.775 62.0825 128.091 62.0825C128.247 62.0825 128.402 62.0516 128.547 61.9918C128.691 61.9319 128.823 61.8441 128.933 61.7335C129.044 61.6228 129.132 61.4914 129.192 61.3468C129.252 61.2023 129.282 61.0473 129.282 60.8908Z" stroke="#948DAA" stroke-width="2"/>
<path d="M26.9627 79.5416C27.6169 79.644 28.307 79.3414 28.8813 78.7004C29.4556 78.0594 29.867 77.1325 30.025 76.1235C30.1032 75.6239 30.1169 75.1192 30.0652 74.6382C30.0135 74.1572 29.8975 73.7094 29.7238 73.3203C29.5501 72.9311 29.3221 72.6083 29.0527 72.3703C28.7834 72.1322 28.4781 71.9836 28.1542 71.9329C27.5 71.8305 26.8099 72.133 26.2356 72.774C25.6613 73.415 25.2499 74.342 25.0919 75.351C25.0137 75.8506 25 76.3553 25.0517 76.8362C25.1034 77.3172 25.2194 77.7651 25.3931 78.1542C25.5668 78.5433 25.7949 78.8661 26.0642 79.1042C26.3335 79.3422 26.6388 79.4909 26.9627 79.5416Z" stroke="#948BA5" stroke-width="2"/>
<path d="M99.757 84.1279C98.782 84.1148 98.411 84.7435 98.6441 86.0139C98.8148 86.9528 99.2318 87.3796 99.8949 87.2942C100.368 87.2351 100.755 86.9725 101.057 86.5063C101.444 85.9089 101.446 85.3377 101.062 84.7927C100.757 84.3528 100.322 84.1312 99.757 84.1279Z" stroke="#9088A8" stroke-width="2"/>
<path d="M105.666 86.1322C105.666 85.7835 105.528 85.4491 105.281 85.2026C105.034 84.956 104.7 84.8175 104.351 84.8175C104.003 84.8175 103.668 84.956 103.422 85.2026C103.175 85.4491 103.037 85.7835 103.037 86.1322C103.037 86.3049 103.071 86.4759 103.137 86.6354C103.203 86.7949 103.3 86.9398 103.422 87.0619C103.544 87.184 103.689 87.2809 103.848 87.3469C104.008 87.413 104.179 87.447 104.351 87.447C104.7 87.447 105.034 87.3085 105.281 87.0619C105.528 86.8153 105.666 86.4809 105.666 86.1322Z" stroke="#9088A8" stroke-width="2"/>
<path d="M53.2236 43.0455L50.0574 43.1538" stroke="#F7BEAC" stroke-width="2"/>
<path d="M50.0574 43.1538L47.4377 43.3951C47.3061 43.4068 47.183 43.4755 47.0922 43.5882C47.0013 43.7008 46.949 43.8495 46.9453 44.0057C46.8534 48.1814 47.3261 52.2882 48.3635 56.326C48.695 57.6195 49.6585 58.3154 51.254 58.4139C54.7108 58.624 57.621 58.4057 59.9846 57.759C61.4126 57.3683 62.3498 56.3868 62.7963 54.8143C63.6892 51.6563 64.1176 48.6328 64.0815 45.7439C64.0716 44.9955 63.9584 44.4374 63.7417 44.0697C63.4134 43.5215 62.903 43.1735 62.2103 43.0258C59.3116 42.4119 56.316 42.4185 53.2237 43.0455" stroke="#F8AB9C" stroke-width="2"/>
<path d="M50.0571 43.1538C50.415 45.6881 50.4133 47.9943 50.0522 50.0723C50.0128 50.3054 50.0407 50.4646 50.1359 50.5499C50.1569 50.5683 50.1828 50.5787 50.2112 50.5802C50.2396 50.5818 50.2697 50.5745 50.2989 50.5589C50.328 50.5434 50.3554 50.52 50.3785 50.491C50.4016 50.462 50.4197 50.4281 50.4314 50.3924C51.3112 47.6118 53.0231 45.5125 55.5673 44.0943C55.6441 44.0517 55.7086 43.9973 55.7538 43.9374C55.799 43.8774 55.8231 43.8141 55.8234 43.7546C55.8266 43.6561 55.7987 43.574 55.7396 43.5083C55.6609 43.4263 55.5328 43.3984 55.3556 43.4246C54.8796 43.5001 54.4101 43.5871 53.9472 43.6856C53.4154 43.7972 53.1741 43.5838 53.2234 43.0455" stroke="#F6917C" stroke-width="2"/>
<path d="M87.3726 42.819C86.2827 42.5367 85.1174 42.4481 83.8765 42.5531" stroke="#F9C1B3" stroke-width="2"/>
<path d="M83.8767 42.5531C81.5295 42.3561 78.9788 42.4628 76.2245 42.8731C75.6336 42.9618 75.3119 43.3032 75.2594 43.8974C75.1346 45.2532 75.0509 46.7271 75.0082 48.3193C74.9163 51.5725 75.9208 54.3252 78.0218 56.5772C78.5405 57.132 79.1954 57.5111 79.9866 57.7147C83.4926 58.6043 86.9182 58.6732 90.2634 57.9215C90.9265 57.7737 91.3648 57.3782 91.5781 56.7347C92.4744 54.0232 92.9815 51.3001 93.0997 48.5655C93.1719 46.9241 93.2589 45.2499 93.3607 43.5428C93.3647 43.477 93.3421 43.4123 93.2979 43.3626C93.2537 43.3128 93.1914 43.2821 93.1244 43.2769L87.3729 42.819" stroke="#FAAD9F" stroke-width="2"/>
<path d="M83.8766 42.5531C83.5548 42.819 83.3661 43.1325 83.3103 43.4936C83.3001 43.5578 83.3147 43.6257 83.3519 43.6877C83.389 43.7496 83.4469 43.8023 83.5171 43.8383C84.3247 44.2486 84.9221 44.9167 85.3095 45.8424" stroke="#F99786" stroke-width="2"/>
<path d="M85.3096 45.8424C83.7896 44.7296 82.163 44.3996 80.4297 44.8527" stroke="#E06956" stroke-width="2"/>
<path d="M80.4294 44.8526C79.7171 45.1711 79.3002 45.7111 79.1787 46.4727" stroke="#B15B4E" stroke-width="2"/>
<path d="M79.1787 46.4727C79.0212 46.6073 78.9046 46.778 78.8291 46.9848" stroke="#C56E5D" stroke-width="2"/>
<path d="M78.8291 46.9848C78.5403 46.9356 78.3712 47.3312 78.3219 48.1716C78.299 48.5294 78.2202 48.8741 78.0856 49.2056C77.5078 50.6369 77.4783 52.0305 77.997 53.3863C78.0429 53.5045 78.0987 53.5012 78.1644 53.3764L79.292 51.2196C79.3354 51.1389 79.3629 51.0562 79.3708 50.9823C79.3787 50.9084 79.3667 50.847 79.3364 50.806L79.1 50.4859C78.9588 50.2922 78.8817 50.156 78.8685 50.0772C78.8226 49.7096 78.9736 49.593 79.3216 49.7276C79.4102 49.7604 79.5415 49.8441 79.7155 49.9787C80.2637 50.4121 80.871 50.4679 81.5375 50.1462" stroke="#FC9483" stroke-width="2"/>
<path d="M81.5376 50.1461C82.6899 50.2906 83.7732 50.0887 84.7876 49.5405C84.8269 49.5175 85.0715 49.4092 85.5213 49.2155C86.1023 48.9627 86.3403 48.4588 86.2353 47.7037" stroke="#F6A597" stroke-width="2"/>
<path d="M86.2351 47.7037C86.4879 48.1994 87.0706 48.4243 87.9832 48.3783" stroke="#E06956" stroke-width="2"/>
<path d="M87.9834 48.3784C88.6728 46.4842 88.4693 44.6311 87.3728 42.819" stroke="#F99786" stroke-width="2"/>
<path d="M87.9834 48.3784L85.3096 45.8424" stroke="#DF7C6A" stroke-width="2"/>
<path d="M81.9067 45.345C82.2055 45.4796 82.4172 45.6914 82.5419 45.9803" stroke="#AD7D73" stroke-width="2"/>
<path d="M82.5419 45.9803C82.5386 46.3874 82.4664 46.581 82.3252 46.5613C82.1828 46.54 82.0372 46.5684 81.9127 46.6418C81.7882 46.7153 81.6922 46.8294 81.6408 46.9651C81.2272 48.0649 80.761 48.2848 80.2423 47.625C79.9206 47.2179 79.5661 46.8338 79.1787 46.4727" stroke="#7C4639" stroke-width="2"/>
<path d="M81.5374 49.9049C79.9256 49.5832 79.0228 48.6098 78.8291 46.9848" stroke="#C77F6D" stroke-width="2"/>
<path d="M81.5376 50.1461V49.9048" stroke="#F8B6A7" stroke-width="2"/>
<path d="M81.5376 49.9049C82.7818 48.7953 83.1166 47.4871 82.5421 45.9803" stroke="#C19081" stroke-width="2"/>
<path d="M86.2352 47.7038C84.9878 46.5286 83.6681 45.6668 82.2762 45.1186C82.0004 45.0103 81.8773 45.0858 81.9069 45.3451" stroke="#DC8B7B" stroke-width="2"/>
<path d="M81.9069 45.3451L80.4297 44.8526" stroke="#964132" stroke-width="2"/>
<path d="M56.9166 45.0151C56.1879 44.979 55.8251 45.2597 55.8284 45.8571" stroke="#DE6653" stroke-width="2"/>
<path d="M55.8284 45.8572L53.7307 48.3587C53.7118 48.3797 53.6992 48.4055 53.694 48.4333C53.6889 48.4612 53.6914 48.4902 53.7013 48.5176C53.7112 48.5449 53.7283 48.5696 53.7507 48.5892C53.7731 48.6088 53.8002 48.6227 53.8292 48.6295C55.0143 48.9381 56.2174 49.0776 57.4386 49.0481" stroke="#EF9889" stroke-width="2"/>
<path d="M57.4385 49.0481C58.4299 49.4453 59.1767 49.3271 59.679 48.6935C60.0434 48.2339 60.1911 47.6184 60.1222 46.8469C59.9777 45.1464 58.9092 44.5358 56.9165 45.0151" stroke="#A95F55" stroke-width="2"/>
<path d="M57.4385 49.0481C56.7787 48.0731 56.5702 47.0915 56.8131 46.1034" stroke="#A17973" stroke-width="2"/>
<path d="M56.8132 46.1034C56.9478 45.7686 56.9823 45.4058 56.9166 45.0152" stroke="#90473C" stroke-width="2"/>
<path d="M56.8132 46.1034C56.6392 45.6471 56.3109 45.565 55.8284 45.8572" stroke="#D68071" stroke-width="2"/>
<path d="M60.3486 52.9529C60.9231 53.3501 61.3072 53.2139 61.5009 52.5442C61.6683 51.9664 61.7438 51.456 61.7274 51.0128C61.7011 50.3201 61.4352 50.2101 60.9297 50.6829C59.8332 51.7038 59.6395 52.4605 60.3486 52.9529Z" stroke="#F7B9AE" stroke-width="2"/>
<path d="M68.1437 103.416C68.1437 103.304 68.0991 103.196 68.0197 103.117C67.9403 103.037 67.8326 102.993 67.7203 102.993H67.7006C67.5883 102.993 67.4806 103.037 67.4011 103.117C67.3217 103.196 67.2771 103.304 67.2771 103.416V109.483C67.2771 109.595 67.3217 109.703 67.4011 109.782C67.4806 109.862 67.5883 109.906 67.7006 109.906H67.7203C67.8326 109.906 67.9403 109.862 68.0197 109.782C68.0991 109.703 68.1437 109.595 68.1437 109.483V103.416Z" stroke="#FCA294" stroke-width="2"/>
<path d="M101.761 9.58064C102.92 11.9672 103.565 14.129 103.697 16.0658C103.857 18.4688 104.145 20.2333 104.558 21.3593C106.127 25.6368 109.164 27.6065 113.668 27.2684C117.069 27.0123 120.04 27.0944 122.581 27.5146C132.213 40.5112 136.874 55.4889 136.566 72.4478C136.332 85.1818 133.214 96.6781 127.21 106.937C126.832 106.934 126.33 106.814 125.703 106.577C122.627 105.422 115.538 102.833 104.435 98.812C112.301 97.5579 117.888 93.333 121.197 86.1371C123.278 81.6101 123.608 76.9403 122.187 72.1278C121.031 68.2212 118.71 65.2257 115.224 63.1411C113.816 62.2974 112.23 61.8296 110.467 61.7377C108.507 61.636 106.909 62.1349 105.671 63.2347C104.43 64.341 103.829 65.7378 103.869 67.4252C103.915 69.2602 104.821 70.7457 106.587 71.8815C107.411 72.4101 108.238 72.9321 109.069 73.4475C110.874 74.5735 112.163 76.0408 112.934 77.8497C113.63 79.4911 113.852 81.3393 113.599 83.3943C113.248 86.2077 112.03 88.5811 109.945 90.5147C106.774 93.4463 102.815 94.935 98.0682 94.981C96.6993 94.5082 94.8412 93.768 92.494 92.7601C92.297 92.6748 92.1263 92.7158 91.9819 92.8832L88.4512 91.8984L88.5005 78.1993C90.4209 76.072 91.629 73.9908 92.1247 71.9554C93.0701 68.0719 93.2146 63.6073 92.558 58.5616C92.5502 58.5016 92.5594 58.4348 92.5849 58.3659C92.6104 58.297 92.6516 58.2276 92.7057 58.1627C92.7878 58.0643 92.8403 57.9494 92.8633 57.8181L94.375 57.887C99.9558 56.8102 102.571 53.4158 102.219 47.7038C101.976 43.7381 99.8836 41.5288 95.9409 41.0758L94.114 40.933C94.3603 39.6658 94.2716 38.4282 93.8482 37.2201C95.9688 35.2373 97.4904 32.8721 98.4129 30.1244C99.3583 27.3176 98.7724 24.9622 96.6549 23.0582C96.0936 22.5559 95.9377 21.9502 96.1871 21.2411C96.5811 20.1086 96.7846 18.958 96.7977 17.7893C96.8109 16.4696 96.5269 15.3748 95.9459 14.5048C95.0628 13.1852 93.7119 12.5138 91.8933 12.4908C91.867 12.4908 91.6126 12.5105 91.13 12.5499C90.0598 12.6386 89.4065 12.0871 89.1702 10.8954C88.8222 9.13583 87.6929 7.81614 85.7823 6.93635C82.8442 5.58384 80.0473 5.77096 77.3915 7.49771C77.2258 7.60459 77.027 7.64845 76.8311 7.62136C76.6352 7.59427 76.455 7.49802 76.3229 7.34998C74.3894 5.15379 71.9814 4.68928 69.0991 5.95644C68.4623 6.23876 67.8106 6.27487 67.1442 6.06477C65.8443 5.65442 64.4474 5.45253 62.9538 5.45909C61.3747 5.46894 60.014 5.74306 58.8716 6.28144C56.7805 7.26628 55.3524 8.95856 54.5875 11.3583C54.3643 12.0608 53.8867 12.3661 53.1546 12.2742C51.9695 12.1199 50.8074 12.046 49.6683 12.0526C48.342 12.0624 47.2177 12.2807 46.2952 12.7075C44.3945 13.5939 43.188 15.0301 42.6759 17.0162C42.2853 18.5197 42.1851 20.1086 42.3755 21.7828C42.5791 23.5686 43.2914 25.059 44.5126 26.254C46.223 27.9249 46.5923 29.9553 45.6206 32.3452C45.1544 33.4909 45.1873 34.7121 45.7191 36.0088L45.4876 41.3023L44.7293 41.5682C40.6652 41.3384 38.3672 43.1374 37.8354 46.9651C37.6352 48.4063 37.7369 49.9082 38.1407 51.4708C38.5675 53.1286 39.2503 54.4269 40.1892 55.3658C41.9488 57.1254 44.2812 57.5439 47.1865 56.6215L47.93 58.7635C47.5919 62.5617 47.5509 65.8511 47.8069 68.6316C48.1155 71.9768 49.4762 74.9214 51.8891 77.4656L51.8694 91.9181L47.93 93.3954C45.1922 94.7347 42.5249 96.2235 39.9282 97.8616C32.8505 100.967 25.3411 104.601 17.4 108.764C15.844 109.578 14.498 110.415 13.3622 111.275C4.73499 98.6495 0.623296 84.476 1.02708 68.7547C1.34879 56.2407 4.5331 44.7607 10.58 34.3149C18.5047 20.6322 29.8582 10.9512 44.6407 5.27197C50.6121 2.98058 56.7558 1.61987 63.0719 1.18982C66.2891 0.973157 69.5702 0.94197 72.9154 1.09626C82.5865 1.546 91.8309 4.06391 100.648 8.64997C101.21 8.94214 101.581 9.25236 101.761 9.58064ZM125.499 43.7558C125.419 43.4609 125.209 43.2143 124.916 43.0702C124.622 42.926 124.268 42.8962 123.933 42.9873C123.598 43.0784 123.308 43.2829 123.128 43.5558C122.948 43.8288 122.891 44.1478 122.971 44.4427C123.052 44.7376 123.261 44.9842 123.555 45.1283C123.849 45.2725 124.202 45.3023 124.537 45.2112C124.873 45.1201 125.162 44.9156 125.343 44.6427C125.523 44.3697 125.579 44.0507 125.499 43.7558ZM125.329 53.2829C125.329 52.5998 125.057 51.9448 124.574 51.4618C124.091 50.9789 123.436 50.7075 122.753 50.7075C122.07 50.7075 121.415 50.9789 120.932 51.4618C120.449 51.9448 120.178 52.5998 120.178 53.2829C120.178 53.9659 120.449 54.621 120.932 55.1039C121.415 55.5869 122.07 55.8582 122.753 55.8582C123.436 55.8582 124.091 55.5869 124.574 55.1039C125.057 54.621 125.329 53.9659 125.329 53.2829ZM129.283 60.8908C129.283 60.7343 129.252 60.5793 129.192 60.4347C129.132 60.2902 129.044 60.1588 128.934 60.0481C128.823 59.9375 128.692 59.8497 128.547 59.7898C128.402 59.7299 128.247 59.6991 128.091 59.6991C127.775 59.6991 127.472 59.8246 127.248 60.0481C127.025 60.2716 126.899 60.5747 126.899 60.8908C126.899 61.2068 127.025 61.5099 127.248 61.7334C127.472 61.9569 127.775 62.0824 128.091 62.0824C128.247 62.0824 128.402 62.0516 128.547 61.9917C128.692 61.9318 128.823 61.844 128.934 61.7334C129.044 61.6227 129.132 61.4914 129.192 61.3468C129.252 61.2022 129.283 61.0472 129.283 60.8908ZM26.9629 79.5415C27.6171 79.644 28.3072 79.3414 28.8815 78.7004C29.4558 78.0594 29.8672 77.1324 30.0252 76.1235C30.1034 75.6239 30.1171 75.1192 30.0654 74.6382C30.0137 74.1572 29.8977 73.7094 29.724 73.3202C29.5503 72.9311 29.3222 72.6083 29.0529 72.3702C28.7836 72.1322 28.4783 71.9836 28.1544 71.9329C27.5002 71.8304 26.8101 72.133 26.2358 72.774C25.6615 73.415 25.2501 74.342 25.0921 75.351C25.0139 75.8506 25.0002 76.3552 25.0519 76.8362C25.1036 77.3172 25.2196 77.7651 25.3933 78.1542C25.567 78.5433 25.795 78.8661 26.0644 79.1042C26.3337 79.3422 26.639 79.4908 26.9629 79.5415ZM99.7572 84.128C98.7822 84.1149 98.4112 84.7435 98.6443 86.014C98.815 86.9529 99.2319 87.3797 99.8951 87.2943C100.368 87.2352 100.755 86.9726 101.057 86.5064C101.445 85.9089 101.446 85.3377 101.062 84.7928C100.757 84.3529 100.322 84.1313 99.7572 84.128ZM105.666 86.1322C105.666 85.7835 105.528 85.4491 105.281 85.2025C105.035 84.9559 104.7 84.8174 104.351 84.8174C104.003 84.8174 103.668 84.9559 103.422 85.2025C103.175 85.4491 103.037 85.7835 103.037 86.1322C103.037 86.3048 103.071 86.4758 103.137 86.6353C103.203 86.7948 103.3 86.9398 103.422 87.0619C103.544 87.1839 103.689 87.2808 103.848 87.3469C104.008 87.4129 104.179 87.4469 104.351 87.4469C104.7 87.4469 105.035 87.3084 105.281 87.0619C105.528 86.8153 105.666 86.4809 105.666 86.1322Z" fill="#737197"/>
<path d="M93.8482 37.2202C91.2416 35.7594 89.5132 33.5927 88.663 30.7203C88.4233 29.9062 88.2001 29.3218 87.9933 28.9673C87.583 28.2713 87.0758 28.1893 86.4717 28.7211C83.1299 31.6625 79.4581 32.4799 75.4563 31.1733C71.7139 29.9521 68.4574 27.943 65.6867 25.1461C63.9764 23.4194 62.8487 22.4542 62.3038 22.2507C60.4523 21.5613 59.0358 22.0127 58.0542 23.6048C57.1514 25.0722 56.403 26.909 55.8088 29.115C55.3032 30.9862 54.0213 32.6177 51.963 34.0097C50.4562 35.0273 48.3749 35.6937 45.7191 36.0089C45.1873 34.7122 45.1545 33.491 45.6206 32.3453C46.5923 29.9554 46.223 27.925 44.5127 26.254C43.2915 25.0591 42.5791 23.5687 42.3756 21.7829C42.1852 20.1086 42.2853 18.5198 42.6759 17.0163C43.1881 15.0302 44.3945 13.5939 46.2952 12.7076C47.2177 12.2808 48.3421 12.0625 49.6683 12.0527C50.8074 12.0461 51.9695 12.12 53.1546 12.2743C53.8867 12.3662 54.3643 12.0609 54.5876 11.3584C55.3525 8.95863 56.7805 7.26635 58.8716 6.28151C60.014 5.74314 61.3748 5.46902 62.9538 5.45917C64.4475 5.4526 65.8443 5.6545 67.1443 6.06485C67.8107 6.27495 68.4623 6.23884 69.0992 5.95652C71.9815 4.68936 74.3894 5.15387 76.323 7.35006C76.455 7.4981 76.6352 7.59435 76.8311 7.62144C77.027 7.64852 77.2258 7.60467 77.3915 7.49779C80.0473 5.77104 82.8442 5.58391 85.7823 6.93643C87.6929 7.81622 88.8222 9.1359 89.1702 10.8955C89.4066 12.0871 90.0598 12.6386 91.13 12.55C91.6126 12.5106 91.867 12.4909 91.8933 12.4909C93.712 12.5139 95.0628 13.1852 95.9459 14.5049C96.5269 15.3749 96.8109 16.4697 96.7978 17.7894C96.7846 18.958 96.5811 20.1087 96.1872 21.2412C95.9377 21.9503 96.0936 22.556 96.655 23.0583C98.7724 24.9623 99.3584 27.3177 98.4129 30.1245C97.4905 32.8722 95.9689 35.2374 93.8482 37.2202Z" fill="#4E1F18"/>
<path d="M101.761 9.58066C102.122 9.54454 102.47 9.62334 102.805 9.81702C110.727 14.3867 117.318 20.2859 122.581 27.5146C120.04 27.0944 117.069 27.0123 113.668 27.2684C109.164 27.6065 106.127 25.6368 104.558 21.3593C104.145 20.2333 103.857 18.4688 103.696 16.0658C103.565 14.129 102.92 11.9672 101.761 9.58066Z" fill="#C4B0BD"/>
<path d="M93.8481 37.2202C94.2715 38.4282 94.3602 39.6659 94.114 40.933C92.5743 41.8161 91.1726 41.6864 89.9087 40.544C90.4175 39.6084 90.3782 38.7828 89.7905 38.0671C89.698 37.9522 89.5576 37.8673 89.3917 37.8259C85.4064 36.8345 81.3537 36.3388 77.2338 36.3388C73.8591 35.8266 70.4696 35.7429 67.0654 36.0876C66.875 36.1073 66.591 36.1106 66.2135 36.0975C65.4092 36.0679 65.2155 36.3437 65.6324 36.9247C65.6753 36.9857 65.7337 37.0357 65.803 37.0708C65.8723 37.1059 65.9506 37.125 66.0313 37.1266L76.0323 37.2399C75.3462 38.8977 75.7861 39.7643 77.352 39.8399C80.1522 39.9712 82.9426 40.2059 85.7231 40.544L85.1864 40.5834C85.147 40.587 85.0908 40.613 85.0233 40.6589C84.9558 40.7047 84.8796 40.7688 84.8023 40.8444C84.5824 41.0676 84.2738 41.1792 83.8766 41.1792C80.4559 41.1825 76.7956 41.5781 72.8956 42.366C71.8024 43.0094 70.5386 43.2293 69.104 43.0258C68.8709 42.993 68.6657 43.1095 68.4885 43.3754C67.7728 43.185 67.1228 43.3147 66.5385 43.7644C66.4105 43.6134 66.2463 43.5314 66.0461 43.5182C65.9016 43.295 65.4945 43.0389 64.8249 42.7501C62.2282 41.6306 59.8383 41.0939 57.6552 41.1398C56.6802 41.1595 55.7775 40.933 54.9469 40.4603L63.9434 39.5789C64.6656 39.5066 65.0333 39.0996 65.0465 38.3577C65.0727 36.8312 64.2504 36.1024 62.5794 36.1713C60.2191 36.2665 57.8703 36.4898 55.5329 36.841C53.1594 37.1956 51.3473 37.6158 50.0966 38.1016C50.0226 38.131 49.9563 38.1755 49.9027 38.2317C49.849 38.2879 49.8093 38.3545 49.7864 38.4266C49.4614 39.4541 49.7864 40.2141 50.7614 40.7065C49.0674 41.455 47.3095 41.6536 45.4875 41.3023L45.719 36.0088C48.3748 35.6937 50.4561 35.0273 51.9629 34.0096C54.0212 32.6177 55.3031 30.9861 55.8087 29.115C56.4028 26.9089 57.1513 25.0722 58.0541 23.6048C59.0356 22.0126 60.4522 21.5612 62.3037 22.2506C62.8486 22.4542 63.9763 23.4193 65.6866 25.1461C68.4573 27.943 71.7138 29.9521 75.4562 31.1733C79.4579 32.4798 83.1297 31.6624 86.4716 28.721C87.0757 28.1892 87.5828 28.2713 87.9932 28.9672C88.2 29.3218 88.4232 29.9061 88.6629 30.7202C89.5131 33.5927 91.2415 35.7593 93.8481 37.2202Z" fill="#FDB9A8"/>
<path d="M77.2338 36.3387L76.0323 37.2398L66.0313 37.1265C65.9506 37.1249 65.8724 37.1058 65.803 37.0707C65.7337 37.0357 65.6753 36.9856 65.6324 36.9247C65.2155 36.3436 65.4092 36.0678 66.2135 36.0974C66.591 36.1105 66.875 36.1072 67.0654 36.0876C70.4696 35.7429 73.8591 35.8266 77.2338 36.3387Z" fill="#F5988B"/>
<path d="M54.9467 40.4603L50.7612 40.7065C49.7862 40.2141 49.4612 39.4541 49.7862 38.4266C49.8091 38.3545 49.8489 38.2879 49.9025 38.2317C49.9562 38.1755 50.0224 38.1311 50.0964 38.1016C51.3472 37.6158 53.1593 37.1956 55.5327 36.841C57.8701 36.4898 60.2189 36.2665 62.5792 36.1713C64.2502 36.1024 65.0725 36.8312 65.0463 38.3577C65.0331 39.0996 64.6655 39.5067 63.9432 39.5789L54.9467 40.4603Z" fill="#241225"/>
<path d="M77.2338 36.3388C81.3537 36.3388 85.4063 36.8345 89.3916 37.8259C89.5576 37.8674 89.698 37.9523 89.7905 38.0672C90.3781 38.7828 90.4175 39.6085 89.9087 40.5441H85.7231C82.9426 40.2059 80.1522 39.9712 77.352 39.8399C75.7861 39.7644 75.3462 38.8977 76.0323 37.2399L77.2338 36.3388Z" fill="#221824"/>
<path d="M54.9469 40.4603C55.7775 40.933 56.6802 41.1595 57.6552 41.1398C59.8383 41.0938 62.2282 41.6306 64.8249 42.75C65.4946 43.0389 65.9016 43.295 66.0461 43.5182C66.138 46.7485 65.767 49.9147 64.9332 53.017C64.4506 54.8159 64.0912 55.9419 63.8548 56.395C63.2705 57.5111 62.3414 58.3335 61.0677 58.862C60.073 59.2723 59.0586 59.622 58.0246 59.9108C57.4139 59.9568 56.9412 59.8386 56.6064 59.5563C56.0713 59.1 55.6741 59.1985 55.4147 59.8517C54.9289 61.0631 54.9863 62.304 55.5871 63.5744C54.658 62.5075 54.0048 61.329 53.6272 60.0389C53.6082 59.9721 53.5692 59.9115 53.5145 59.8638C53.4597 59.816 53.3914 59.7828 53.317 59.768L47.93 58.7635L47.1864 56.6215C47.0485 54.8061 46.1047 53.6965 44.355 53.2927C44.9131 52.4228 45.1921 51.8631 45.1921 51.6136C45.1987 49.0333 45.1133 46.3906 44.936 43.6856C45.4121 42.9503 45.3431 42.2445 44.7292 41.5682L45.4876 41.3023C47.3095 41.6536 49.0674 41.455 50.7614 40.7065L54.9469 40.4603ZM53.2235 43.0455L50.0572 43.1538L47.4375 43.3951C47.3059 43.4067 47.1828 43.4755 47.092 43.5881C47.0011 43.7008 46.9488 43.8495 46.9451 44.0057C46.8532 48.1814 47.3259 52.2882 48.3633 56.326C48.6948 57.6194 49.6583 58.3154 51.2538 58.4139C54.7106 58.624 57.6208 58.4057 59.9844 57.759C61.4124 57.3683 62.3496 56.3868 62.7961 54.8143C63.689 51.6562 64.1174 48.6328 64.0813 45.7439C64.0715 44.9954 63.9582 44.4374 63.7415 44.0697C63.4133 43.5215 62.9028 43.1735 62.2101 43.0258C59.3114 42.4119 56.3159 42.4185 53.2235 43.0455Z" fill="#F9D7CC"/>
<path d="M85.723 40.5439H89.9086C91.1724 41.6864 92.5742 41.816 94.1138 40.933L95.9407 41.0758L95.9259 42.6269C95.9245 42.6855 95.9043 42.7503 95.8668 42.8167C95.8294 42.8831 95.7756 42.9494 95.7093 43.011C95.532 43.1718 95.5402 43.354 95.7339 43.5575L95.2858 53.1499C95.2824 53.2173 95.265 53.2832 95.2346 53.3434C95.2042 53.4036 95.1615 53.4565 95.1094 53.4989C95.0573 53.5412 94.9969 53.572 94.9323 53.589C94.8676 53.6061 94.8001 53.6092 94.7343 53.598C94.4881 53.5553 94.2468 53.5783 94.0104 53.6669C93.8134 53.7391 93.6427 53.8902 93.4983 54.12C92.7958 55.2295 92.4609 56.4491 92.4938 57.7786C92.0079 58.6289 91.5155 59.0868 91.0165 59.1525C89.7362 59.3166 88.4641 59.5284 87.2002 59.7877C85.7033 59.4529 84.2227 59.5037 82.7586 59.9404C82.6056 59.9848 82.4424 59.9761 82.2957 59.9157C81.6457 59.6433 80.9711 59.4479 80.2719 59.3297C78.7224 59.0638 77.4274 58.3482 76.3867 57.1828C74.8405 55.0523 73.8967 52.6706 73.5553 50.0378C73.3846 48.6984 73.1827 47.364 72.9496 46.0344C72.9266 45.8933 72.8774 45.7866 72.8019 45.7143C72.6739 45.583 72.5458 45.5502 72.4178 45.6159L69.35 45.5075C67.968 45.5535 67.0307 44.9724 66.5383 43.7644C67.1227 43.3146 67.7727 43.185 68.4883 43.3754C69.8014 44.1632 71.1621 44.2831 72.5705 43.7348C72.6548 43.7014 72.7277 43.6518 72.7803 43.5922C72.8328 43.5327 72.8626 43.4659 72.8659 43.4L72.8955 42.3659C76.7954 41.578 80.4557 41.1825 83.8764 41.1792C84.2736 41.1792 84.5822 41.0676 84.8022 40.8443C84.8794 40.7687 84.9557 40.7047 85.0231 40.6588C85.0906 40.613 85.1469 40.5869 85.1862 40.5833L85.723 40.5439ZM87.3726 42.8189C86.2827 42.5366 85.1173 42.448 83.8764 42.553C81.5292 42.3561 78.9785 42.4627 76.2242 42.8731C75.6333 42.9617 75.3116 43.3031 75.2591 43.8973C75.1343 45.2531 75.0506 46.7271 75.0079 48.3193C74.916 51.5725 75.9206 54.3251 78.0215 56.5771C78.5402 57.1319 79.1951 57.5111 79.9863 57.7146C83.4923 58.6042 86.9179 58.6732 90.2631 57.9214C90.9262 57.7737 91.3645 57.3781 91.5779 56.7347C92.4741 54.0231 92.9812 51.3 93.0994 48.5655C93.1716 46.9241 93.2587 45.2498 93.3604 43.5428C93.3644 43.477 93.3418 43.4123 93.2976 43.3625C93.2534 43.3128 93.1911 43.282 93.1241 43.2769L87.3726 42.8189Z" fill="#F9D7CC"/>
<path d="M95.9409 41.0758C99.8835 41.5288 101.976 43.7381 102.219 47.7038C102.57 53.4158 99.9558 56.8102 94.375 57.887C95.4288 57.4044 95.8243 56.5837 95.5617 55.4249C95.5392 55.3206 95.5436 55.2121 95.5746 55.1096C95.6056 55.0072 95.6622 54.914 95.739 54.8389C98.2339 52.4195 99.3271 49.7949 99.0185 46.9651C98.8084 45.0349 97.7136 43.899 95.7341 43.5576C95.5404 43.3541 95.5322 43.1719 95.7095 43.011C95.7758 42.9495 95.8296 42.8831 95.867 42.8167C95.9045 42.7503 95.9247 42.6855 95.9261 42.6269L95.9409 41.0758Z" fill="#F7B3A4"/>
<path d="M44.7293 41.5683C45.3432 42.2445 45.4121 42.9503 44.9361 43.6857C43.7149 43.7447 42.6661 44.1272 41.7895 44.833C40.9754 45.4928 40.4994 46.412 40.3615 47.5905C40.0365 50.3579 41.3677 52.2587 44.3551 53.2928C46.1048 53.6965 47.0486 54.8061 47.1865 56.6215C44.2812 57.544 41.9488 57.1254 40.1892 55.3658C39.2503 54.427 38.5675 53.1286 38.1407 51.4708C37.7369 49.9082 37.6352 48.4063 37.8354 46.9652C38.3672 43.1374 40.6652 41.3385 44.7293 41.5683Z" fill="#FBBBA8"/>
<path d="M72.8954 42.3659L72.8659 43.4C72.8626 43.4658 72.8328 43.5327 72.7802 43.5922C72.7277 43.6517 72.6548 43.7013 72.5704 43.7348C71.1621 44.283 69.8014 44.1632 68.4883 43.3753C68.6656 43.1094 68.8707 42.9929 69.1038 43.0257C70.5384 43.2292 71.8023 43.0093 72.8954 42.3659Z" fill="#FA8372"/>
<path d="M83.8767 42.5531C83.555 42.819 83.3662 43.1325 83.3104 43.4936C83.3003 43.5578 83.3149 43.6257 83.352 43.6877C83.3892 43.7496 83.447 43.8023 83.5172 43.8383C84.3248 44.2486 84.9223 44.9167 85.3096 45.8424C83.7897 44.7296 82.1631 44.3996 80.4298 44.8527C79.7174 45.1711 79.3005 45.7111 79.179 46.4727C79.0215 46.6073 78.9049 46.778 78.8294 46.9848C78.5405 46.9356 78.3714 47.3312 78.3222 48.1716C78.2992 48.5294 78.2204 48.8741 78.0858 49.2056C77.5081 50.6369 77.4785 52.0305 77.9972 53.3863C78.0432 53.5045 78.099 53.5012 78.1646 53.3764L79.2923 51.2197C79.3357 51.1389 79.3632 51.0562 79.3711 50.9823C79.379 50.9085 79.367 50.847 79.3366 50.806L79.1002 50.4859C78.9591 50.2923 78.8819 50.156 78.8688 50.0772C78.8228 49.7096 78.9738 49.593 79.3218 49.7276C79.4105 49.7604 79.5418 49.8442 79.7158 49.9787C80.264 50.4121 80.8713 50.4679 81.5377 50.1462C82.69 50.2906 83.7733 50.0887 84.7877 49.5405C84.8271 49.5175 85.0717 49.4092 85.5214 49.2155C86.1025 48.9627 86.3404 48.4588 86.2354 47.7038C86.4882 48.1995 87.0709 48.4243 87.9835 48.3784C88.6729 46.4842 88.4693 44.6311 87.3729 42.819L93.1244 43.2769C93.1914 43.2821 93.2537 43.3128 93.2979 43.3626C93.3421 43.4123 93.3647 43.477 93.3607 43.5428C93.2589 45.2499 93.1719 46.9241 93.0997 48.5655C92.9815 51.3001 92.4744 54.0232 91.5781 56.7347C91.3648 57.3782 90.9265 57.7737 90.2634 57.9215C86.9182 58.6732 83.4926 58.6043 79.9866 57.7147C79.1954 57.5111 78.5405 57.132 78.0218 56.5772C75.9208 54.3252 74.9163 51.5725 75.0082 48.3193C75.0509 46.7271 75.1346 45.2532 75.2594 43.8974C75.3119 43.3032 75.6336 42.9618 76.2245 42.8731C78.9788 42.4628 81.5295 42.3561 83.8767 42.5531Z" fill="#FA8372"/>
<path d="M50.0574 43.1538C50.4152 45.6881 50.4136 47.9943 50.0525 50.0723C50.0131 50.3054 50.041 50.4646 50.1362 50.55C50.1572 50.5683 50.183 50.5787 50.2114 50.5803C50.2398 50.5818 50.27 50.5745 50.2991 50.5589C50.3283 50.5434 50.3556 50.5201 50.3787 50.491C50.4019 50.462 50.42 50.4281 50.4316 50.3924C51.3114 47.6119 53.0234 45.5125 55.5676 44.0943C55.6443 44.0517 55.7089 43.9974 55.7541 43.9374C55.7993 43.8774 55.8233 43.8141 55.8236 43.7546C55.8269 43.6561 55.799 43.574 55.7399 43.5084C55.6611 43.4263 55.5331 43.3984 55.3558 43.4246C54.8798 43.5002 54.4104 43.5871 53.9475 43.6856C53.4157 43.7972 53.1744 43.5839 53.2237 43.0455C56.316 42.4185 59.3116 42.4119 62.2103 43.0258C62.903 43.1735 63.4134 43.5215 63.7417 44.0697C63.9584 44.4374 64.0716 44.9955 64.0815 45.7439C64.1176 48.6328 63.6892 51.6563 62.7963 54.8143C62.3498 56.3868 61.4126 57.3683 59.9846 57.759C57.621 58.4057 54.7108 58.624 51.254 58.4139C49.6585 58.3154 48.695 57.6195 48.3635 56.326C47.3261 52.2882 46.8534 48.1814 46.9453 44.0057C46.949 43.8495 47.0013 43.7008 47.0922 43.5882C47.183 43.4755 47.3061 43.4068 47.4377 43.3951L50.0574 43.1538ZM56.9168 45.0152C56.188 44.9791 55.8253 45.2597 55.8286 45.8572L53.7308 48.3587C53.7119 48.3798 53.6993 48.4055 53.6941 48.4334C53.689 48.4612 53.6915 48.4903 53.7014 48.5176C53.7114 48.5449 53.7284 48.5696 53.7508 48.5892C53.7732 48.6088 53.8003 48.6227 53.8293 48.6295C55.0144 48.9381 56.2176 49.0776 57.4388 49.0481C58.4302 49.4453 59.177 49.3271 59.6793 48.6935C60.0437 48.234 60.1914 47.6184 60.1225 46.847C59.978 45.1465 58.9095 44.5359 56.9168 45.0152ZM60.349 52.953C60.9235 53.3502 61.3075 53.2139 61.5012 52.5443C61.6686 51.9665 61.7441 51.456 61.7277 51.0128C61.7015 50.3202 61.4356 50.2102 60.93 50.6829C59.8336 51.7039 59.6399 52.4605 60.349 52.953Z" fill="#F77E6B"/>
<path d="M83.8766 42.5531C85.1174 42.4481 86.2828 42.5367 87.3727 42.819C88.4692 44.6311 88.6727 46.4843 87.9833 48.3784L85.3095 45.8425C84.9221 44.9167 84.3247 44.2487 83.5171 43.8383C83.4469 43.8024 83.389 43.7497 83.3519 43.6877C83.3147 43.6258 83.3001 43.5578 83.3103 43.4936C83.3661 43.1325 83.5548 42.819 83.8766 42.5531Z" fill="#F8AA9A"/>
<path d="M124.537 45.2112C125.236 45.0216 125.666 44.37 125.499 43.7559C125.332 43.1417 124.631 42.7977 123.933 42.9873C123.235 43.177 122.804 43.8286 122.971 44.4427C123.138 45.0568 123.839 45.4009 124.537 45.2112Z" fill="#AC9FB8"/>
<path d="M53.2234 43.0455C53.1741 43.5838 53.4154 43.7972 53.9472 43.6856C54.4101 43.5871 54.8796 43.5001 55.3556 43.4246C55.5328 43.3984 55.6609 43.4263 55.7396 43.5083C55.7987 43.574 55.8266 43.6561 55.8234 43.7546C55.8231 43.8141 55.799 43.8774 55.7538 43.9374C55.7086 43.9973 55.6441 44.0517 55.5673 44.0943C53.0231 45.5125 51.3112 47.6118 50.4314 50.3924C50.4197 50.4281 50.4016 50.462 50.3785 50.491C50.3554 50.52 50.328 50.5434 50.2989 50.5589C50.2697 50.5745 50.2396 50.5818 50.2112 50.5802C50.1828 50.5787 50.1569 50.5683 50.1359 50.5499C50.0407 50.4646 50.0128 50.3054 50.0522 50.0723C50.4133 47.9943 50.415 45.6881 50.0571 43.1538L53.2234 43.0455Z" fill="#F5A48C"/>
<path d="M94.3749 57.887L92.8632 57.8181L92.4939 57.7787C92.4611 56.4492 92.7959 55.2296 93.4984 54.12C93.6429 53.8902 93.8136 53.7392 94.0106 53.667C94.2469 53.5784 94.4882 53.5554 94.7344 53.5981C94.8003 53.6092 94.8677 53.6062 94.9324 53.5891C94.9971 53.572 95.0574 53.5413 95.1095 53.499C95.1617 53.4566 95.2043 53.4036 95.2347 53.3435C95.2651 53.2833 95.2826 53.2174 95.2859 53.15L95.734 43.5576C97.7136 43.899 98.8084 45.0349 99.0185 46.9652C99.327 49.7949 98.2339 52.4195 95.739 54.8389C95.6621 54.914 95.6056 55.0072 95.5746 55.1097C95.5436 55.2122 95.5391 55.3206 95.5617 55.4249C95.8243 56.5838 95.4287 57.4045 94.3749 57.887Z" fill="#FA8372"/>
<path d="M44.9361 43.6856C45.1134 46.3907 45.1988 49.0333 45.1922 51.6136C45.1922 51.8631 44.9131 52.4228 44.3551 53.2927C41.3677 52.2587 40.0366 50.3579 40.3616 47.5905C40.4994 46.412 40.9754 45.4928 41.7896 44.833C42.6661 44.1272 43.7149 43.7447 44.9361 43.6856Z" fill="#F58477"/>
<path d="M66.046 43.5182C66.2462 43.5313 66.4104 43.6134 66.5384 43.7644C67.0308 44.9725 67.968 45.5535 69.3501 45.5076C68.838 50.3989 67.1572 54.7962 64.3077 58.6995C63.6676 59.5694 62.9339 60.1767 62.1066 60.5214C60.8756 61.0303 59.6691 61.1993 58.4873 61.0286C57.5222 60.8907 57.3679 60.5182 58.0245 59.9108C59.0585 59.622 60.0729 59.2723 61.0676 58.862C62.3413 58.3335 63.2704 57.5111 63.8547 56.395C64.0911 55.9419 64.4505 54.8159 64.9331 53.017C65.7669 49.9147 66.1379 46.7485 66.046 43.5182Z" fill="#FA8372"/>
<path d="M85.3096 45.8424L87.9834 48.3784C87.0708 48.4243 86.4881 48.1995 86.2353 47.7038C84.9878 46.5285 83.6682 45.6668 82.2763 45.1186C82.0005 45.0102 81.8774 45.0857 81.9069 45.3451L80.4297 44.8527C82.163 44.3996 83.7896 44.7296 85.3096 45.8424Z" fill="#C54E3A"/>
<path d="M57.4385 49.0481C56.7787 48.0731 56.5702 47.0915 56.8131 46.1034C56.9477 45.7685 56.9822 45.4058 56.9165 45.0151C58.9092 44.5358 59.9778 45.1464 60.1222 46.8469C60.1911 47.6184 60.0434 48.2339 59.679 48.6935C59.1767 49.3271 58.4299 49.4453 57.4385 49.0481Z" fill="#5A403E"/>
<path d="M80.4294 44.8526L81.9067 45.3451C82.2054 45.4796 82.4172 45.6914 82.5419 45.9803C82.5386 46.3873 82.4664 46.581 82.3252 46.5613C82.1828 46.5399 82.0372 46.5683 81.9127 46.6418C81.7882 46.7153 81.6922 46.8294 81.6408 46.9651C81.2272 48.0649 80.761 48.2848 80.2423 47.625C79.9206 47.2179 79.5661 46.8338 79.1787 46.4727C79.3002 45.7111 79.7171 45.1711 80.4294 44.8526Z" fill="#67332A"/>
<path d="M56.9166 45.0151C56.9823 45.4058 56.9478 45.7685 56.8132 46.1034C56.6392 45.647 56.311 45.565 55.8284 45.8571C55.8251 45.2597 56.1879 44.979 56.9166 45.0151Z" fill="#C54E3A"/>
<path d="M86.2353 47.7038C86.3403 48.4588 86.1023 48.9627 85.5213 49.2155C85.0715 49.4092 84.8269 49.5175 84.7876 49.5405C83.7732 50.0887 82.6899 50.2906 81.5376 50.1462V49.9049C82.7818 48.7953 83.1166 47.4871 82.5421 45.9803C82.4174 45.6914 82.2056 45.4797 81.9069 45.3451C81.8774 45.0858 82.0005 45.0103 82.2762 45.1186C83.6681 45.6668 84.9878 46.5286 86.2353 47.7038Z" fill="#F2C7BB"/>
<path d="M69.35 45.5076L72.4177 45.6159C72.375 49.9853 73.0382 54.3498 74.4071 58.7093C74.4748 58.9251 74.4863 59.1545 74.4407 59.3759C74.395 59.5974 74.2936 59.8035 74.1461 59.9749C72.8987 61.4094 71.2589 62.0857 69.2268 62.0036C68.3077 61.764 67.4098 61.4603 66.5333 61.0926C65.3285 60.5871 64.1484 60.6166 62.9928 61.1813C60.8688 62.2154 59.2504 63.7648 58.1376 65.8297C58.1049 65.8906 58.0519 65.9375 57.9889 65.9612C57.926 65.9849 57.8578 65.9837 57.7978 65.9577C56.6849 65.4785 55.9479 64.684 55.5868 63.5744C54.9861 62.304 54.9286 61.0631 55.4145 59.8517C55.6738 59.1985 56.071 59.1 56.6061 59.5563C56.941 59.8386 57.4137 59.9568 58.0243 59.9108C57.3677 60.5182 57.522 60.8907 58.4872 61.0286C59.669 61.1993 60.8754 61.0303 62.1065 60.5214C62.9337 60.1767 63.6674 59.5694 64.3076 58.6995C67.1571 54.7962 68.8378 50.3989 69.35 45.5076Z" fill="#FBB6A7"/>
<path d="M72.418 45.6159C72.5461 45.5502 72.6741 45.5831 72.8021 45.7144C72.8776 45.7866 72.9269 45.8933 72.9499 46.0344C73.1829 47.364 73.3848 48.6984 73.5555 50.0378C73.8969 52.6706 74.8407 55.0523 76.3869 57.1828C76.2786 57.672 76.3164 58.1315 76.5002 58.5616C76.5323 58.6337 76.5485 58.7103 76.5477 58.7854C76.5468 58.8605 76.5289 58.9322 76.4953 58.9949C76.1309 59.6843 75.9405 60.3737 75.9241 61.0631C74.8539 61.2108 73.7377 61.6655 72.5756 62.4271C72.5351 62.4535 72.4898 62.4715 72.4424 62.48C72.395 62.4884 72.3465 62.4872 72.2999 62.4763C71.8665 62.3746 71.7631 62.4846 71.9896 62.8063C72.4459 63.453 72.8793 64.1161 73.2896 64.7956C71.4119 65.0418 69.5243 65.1206 67.6268 65.032C66.7339 64.9893 65.8721 65.1288 65.0416 65.4506L64.3916 65.0862C65.7277 64.0816 67.2575 63.6171 68.981 63.6926C69.0549 63.6957 69.1271 63.6761 69.186 63.6368C69.245 63.5975 69.2872 63.5408 69.3059 63.4759C69.4471 62.9835 69.4208 62.4928 69.2272 62.0036C71.2592 62.0857 72.899 61.4094 74.1464 59.9749C74.2939 59.8035 74.3953 59.5974 74.441 59.3759C74.4867 59.1545 74.4751 58.9251 74.4074 58.7093C73.0385 54.3498 72.3754 49.9853 72.418 45.6159Z" fill="#C54E3A"/>
<path d="M56.8133 46.1034C56.5704 47.0915 56.7788 48.0731 57.4386 49.0481C56.2174 49.0776 55.0143 48.9381 53.8292 48.6295C53.8002 48.6227 53.7731 48.6088 53.7507 48.5892C53.7283 48.5696 53.7112 48.5449 53.7013 48.5176C53.6914 48.4902 53.6889 48.4612 53.694 48.4333C53.6992 48.4055 53.7118 48.3797 53.7307 48.3587L55.8284 45.8572C56.311 45.565 56.6393 45.6471 56.8133 46.1034Z" fill="#E7B1A7"/>
<path d="M82.5419 45.9803C83.1164 47.4871 82.7816 48.7953 81.5374 49.9049C79.9256 49.5832 79.0228 48.6098 78.8291 46.9848C78.9046 46.778 79.0212 46.6073 79.1787 46.4727C79.5661 46.8338 79.9206 47.2179 80.2423 47.625C80.761 48.2848 81.2272 48.0649 81.6408 46.9651C81.6922 46.8294 81.7882 46.7153 81.9127 46.6418C82.0372 46.5684 82.1828 46.54 82.3253 46.5613C82.4664 46.581 82.5387 46.3874 82.5419 45.9803Z" fill="#905947"/>
<path d="M78.8291 46.9848C79.0228 48.6098 79.9256 49.5832 81.5375 49.9049V50.1462C80.871 50.4679 80.2637 50.4121 79.7155 49.9787C79.5415 49.8441 79.4102 49.7604 79.3216 49.7276C78.9736 49.593 78.8226 49.7096 78.8685 50.0772C78.8817 50.156 78.9588 50.2922 79.1 50.4859L79.3364 50.806C79.3667 50.847 79.3787 50.9084 79.3708 50.9823C79.3629 51.0562 79.3354 51.1389 79.292 51.2196L78.1644 53.3764C78.0987 53.5012 78.0429 53.5045 77.997 53.3863C77.4783 52.0305 77.5078 50.6369 78.0856 49.2056C78.2202 48.8741 78.299 48.5294 78.3219 48.1716C78.3712 47.3312 78.5403 46.9356 78.8291 46.9848Z" fill="#FDA493"/>
<path d="M60.3486 52.9529C59.6395 52.4605 59.8332 51.7038 60.9297 50.6829C61.4352 50.2101 61.7011 50.3201 61.7274 51.0128C61.7438 51.456 61.6683 51.9664 61.5009 52.5442C61.3072 53.2139 60.9231 53.3501 60.3486 52.9529Z" fill="#F6F3F1"/>
<path d="M122.753 55.8583C124.175 55.8583 125.328 54.7052 125.328 53.2829C125.328 51.8606 124.175 50.7076 122.753 50.7076C121.331 50.7076 120.178 51.8606 120.178 53.2829C120.178 54.7052 121.331 55.8583 122.753 55.8583Z" fill="#B5A9BC"/>
<path d="M76.3869 57.1828C77.4276 58.3482 78.7227 59.0639 80.2721 59.3298C80.9714 59.448 81.646 59.6433 82.296 59.9158C82.4427 59.9761 82.6059 59.9848 82.7589 59.9404C84.223 59.5038 85.7035 59.4529 87.2005 59.7877C86.7114 60.6281 86.2649 61.4915 85.8611 62.3779C85.047 64.1571 83.77 65.4473 82.0301 66.2483C81.9749 66.2735 81.915 66.2869 81.8542 66.2875C81.7935 66.2881 81.7333 66.2759 81.6776 66.2518C81.6219 66.2276 81.5719 66.192 81.5308 66.1473C81.4898 66.1026 81.4585 66.0498 81.4392 65.9922C80.5528 63.3266 78.7144 61.6835 75.9241 61.0631C75.9405 60.3737 76.1309 59.6843 76.4953 58.9949C76.5289 58.9322 76.5468 58.8605 76.5477 58.7854C76.5485 58.7103 76.5323 58.6337 76.5002 58.5616C76.3164 58.1316 76.2786 57.672 76.3869 57.1828Z" fill="#FDA493"/>
<path d="M92.4939 57.7786L92.8633 57.818C92.8403 57.9493 92.7878 58.0642 92.7057 58.1627C92.6516 58.2276 92.6103 58.2969 92.5848 58.3658C92.5593 58.4347 92.5501 58.5015 92.558 58.5616C93.2145 63.6072 93.0701 68.0718 92.1246 71.9554C91.6289 73.9907 90.4209 76.072 88.5004 78.1993L87.1807 79.4648C84.3346 82.2092 81.5409 84.4973 78.7998 86.3291C72.1784 90.7445 65.8787 90.3341 59.9007 85.0981C57.0479 82.5966 54.7877 80.4316 53.1201 78.6031L51.889 77.4656C49.4762 74.9214 48.1155 71.9767 47.8069 68.6316C47.5508 65.851 47.5919 62.5617 47.93 58.7635L53.3171 59.768C53.3914 59.7828 53.4598 59.8159 53.5145 59.8637C53.5692 59.9115 53.6083 59.9721 53.6273 60.0388C54.0048 61.329 54.6581 62.5075 55.5871 63.5744C55.9482 64.684 56.6852 65.4784 57.7981 65.9577C57.8581 65.9837 57.9263 65.9849 57.9892 65.9612C58.0521 65.9375 58.1052 65.8906 58.1378 65.8297C59.2507 63.7648 60.8691 62.2153 62.9931 61.1812C64.1486 60.6166 65.3288 60.5871 66.5336 61.0926C67.4101 61.4603 68.3079 61.7639 69.2271 62.0036C69.4208 62.4927 69.4471 62.9835 69.3059 63.4759C69.2872 63.5408 69.245 63.5974 69.186 63.6367C69.1271 63.676 69.0548 63.6957 68.9809 63.6926C67.2574 63.6171 65.7277 64.0816 64.3916 65.0861C62.3431 65.6967 61.4699 67.046 61.7719 69.1338C61.8671 69.7904 62.1264 70.9459 62.5499 72.6005C63.1507 74.9674 64.6493 76.3839 67.0457 76.85C67.113 76.8627 67.1822 76.8594 67.2483 76.8405C67.3144 76.8216 67.3757 76.7875 67.4276 76.7407C67.4796 76.6939 67.5209 76.6357 67.5485 76.5703C67.5762 76.5048 67.5894 76.4338 67.5874 76.3625L67.3805 70.9607C67.3783 70.8773 67.4138 70.7963 67.4793 70.7354C67.5449 70.6744 67.6351 70.6386 67.7302 70.6357L72.6987 70.5027C72.7623 70.5008 72.8257 70.5108 72.8849 70.5321C72.9442 70.5534 72.998 70.5855 73.0432 70.6265C73.0884 70.6676 73.1239 70.7166 73.1477 70.7707C73.1714 70.8248 73.1828 70.8827 73.1813 70.941L73.0778 75.4959C73.0772 75.5259 73.0833 75.5558 73.0957 75.5831C73.1081 75.6105 73.1263 75.6346 73.1492 75.6536C73.172 75.6726 73.1987 75.686 73.2273 75.6928C73.2559 75.6996 73.2857 75.6997 73.3142 75.6929C74.6339 75.3974 75.6007 74.7983 76.2146 73.8955C77.3898 72.1655 77.9577 70.0415 77.9183 67.5236C77.9118 67.0837 77.7985 66.7341 77.5786 66.4748C77.5415 66.43 77.4887 66.4013 77.4316 66.3949C77.3745 66.3885 77.3176 66.4047 77.2733 66.4403C75.8124 67.5597 74.2235 68.1703 72.5066 68.2721C72.1619 68.2918 71.8304 68.3656 71.512 68.4937C70.9276 68.7333 70.6584 68.6627 70.7044 68.2819C71.9814 67.8322 73.2847 67.4859 74.6142 67.2429C75.0016 67.174 75.3216 67.0443 75.5744 66.8539C75.8567 66.6471 76.1243 66.4157 76.3771 66.1596C76.4021 66.1341 76.4213 66.1034 76.4333 66.0697C76.4453 66.036 76.4499 66.0001 76.4466 65.9645C76.4433 65.9289 76.4323 65.8944 76.4143 65.8635C76.3964 65.8325 76.3719 65.8059 76.3426 65.7854C75.3643 65.0829 74.3466 64.7529 73.2896 64.7956C72.8792 64.1161 72.4459 63.453 71.9896 62.8062C71.7631 62.4845 71.8665 62.3745 72.2998 62.4763C72.3465 62.4872 72.3949 62.4884 72.4423 62.4799C72.4897 62.4715 72.535 62.4535 72.5756 62.4271C73.7377 61.6655 74.8538 61.2108 75.924 61.0631C78.7144 61.6835 80.5528 63.3266 81.4391 65.9922C81.4585 66.0497 81.4897 66.1026 81.5308 66.1473C81.5719 66.192 81.6219 66.2276 81.6776 66.2517C81.7333 66.2759 81.7935 66.2881 81.8542 66.2875C81.9149 66.2869 81.9748 66.2735 82.03 66.2482C83.7699 65.4472 85.0469 64.1571 85.8611 62.3778C86.2649 61.4915 86.7113 60.6281 87.2004 59.7877C88.4643 59.5284 89.7364 59.3166 91.0167 59.1525C91.5157 59.0868 92.0081 58.6289 92.4939 57.7786Z" fill="#4E1F18"/>
<path d="M128.091 62.0825C128.749 62.0825 129.282 61.549 129.282 60.8908C129.282 60.2327 128.749 59.6992 128.091 59.6992C127.433 59.6992 126.899 60.2327 126.899 60.8908C126.899 61.549 127.433 62.0825 128.091 62.0825Z" fill="#B5A9BC"/>
<path d="M104.435 98.812L99.6389 97.4136L98.0681 94.981C102.815 94.9351 106.774 93.4463 109.945 90.5148C112.03 88.5812 113.248 86.2077 113.599 83.3944C113.852 81.3393 113.63 79.4911 112.934 77.8497C112.163 76.0409 110.874 74.5735 109.069 73.4475C108.238 72.9321 107.411 72.4101 106.587 71.8816C104.821 70.7458 103.915 69.2603 103.869 67.4252C103.829 65.7379 104.43 64.341 105.671 63.2347C106.909 62.135 108.507 61.636 110.467 61.7378C112.23 61.8297 113.816 62.2975 115.224 63.1412C118.71 65.2258 121.031 68.2213 122.187 72.1278C123.608 76.9404 123.278 81.6102 121.197 86.1372C117.888 93.333 112.301 97.558 104.435 98.812Z" fill="#C6B1BF"/>
<path d="M73.2895 64.7957C74.3466 64.753 75.3643 65.0829 76.3425 65.7854C76.3718 65.8059 76.3963 65.8326 76.4143 65.8635C76.4322 65.8945 76.4433 65.9289 76.4465 65.9646C76.4498 66.0002 76.4453 66.0361 76.4333 66.0698C76.4213 66.1035 76.4021 66.1342 76.377 66.1597C76.1242 66.4157 75.8567 66.6472 75.5744 66.854C75.3216 67.0444 75.0015 67.174 74.6141 67.243C73.2846 67.4859 71.9813 67.8323 70.7043 68.282L69.4782 68.607L64.6919 66.1843L65.0415 65.4506C65.8721 65.1289 66.7338 64.9893 67.6267 65.032C69.5242 65.1207 71.4118 65.0419 73.2895 64.7957Z" fill="#F9D6D5"/>
<path d="M64.3915 65.0862L65.0415 65.4506L64.6919 66.1843C64.2848 65.6295 63.9024 65.6016 63.5445 66.1006C63.5154 66.1411 63.4947 66.187 63.4836 66.2355C63.4725 66.2841 63.4713 66.3343 63.4801 66.383C63.4888 66.4318 63.5073 66.4782 63.5345 66.5193C63.5617 66.5605 63.5969 66.5956 63.6381 66.6225C65.4765 67.8175 67.4232 68.479 69.4782 68.607L70.7043 68.282C70.6584 68.6628 70.9276 68.7334 71.5119 68.4937C71.8303 68.3657 72.1619 68.2918 72.5066 68.2721C74.2235 68.1704 75.8124 67.5598 77.2732 66.4403C77.3176 66.4048 77.3744 66.3885 77.4315 66.395C77.4886 66.4014 77.5414 66.4301 77.5785 66.4748C77.7985 66.7341 77.9117 67.0838 77.9183 67.5237C77.9577 70.0416 77.3897 72.1655 76.2145 73.8956C75.6006 74.7983 74.6338 75.3975 73.3141 75.6929C73.2856 75.6997 73.2559 75.6997 73.2273 75.6929C73.1987 75.6861 73.1719 75.6727 73.1491 75.6536C73.1263 75.6346 73.108 75.6105 73.0956 75.5832C73.0833 75.5559 73.0772 75.526 73.0778 75.4959L73.1812 70.9411C73.1828 70.8828 73.1714 70.8248 73.1476 70.7707C73.1239 70.7167 73.0883 70.6676 73.0431 70.6266C72.998 70.5856 72.9441 70.5534 72.8849 70.5321C72.8256 70.5108 72.7623 70.5009 72.6986 70.5028L67.7301 70.6358C67.635 70.6387 67.5448 70.6745 67.4793 70.7354C67.4138 70.7963 67.3782 70.8774 67.3805 70.9607L67.5873 76.3626C67.5894 76.4339 67.5761 76.5049 67.5485 76.5703C67.5208 76.6357 67.4795 76.694 67.4276 76.7407C67.3756 76.7875 67.3143 76.8216 67.2482 76.8405C67.1822 76.8595 67.1129 76.8627 67.0457 76.8501C64.6492 76.3839 63.1506 74.9674 62.5499 72.6005C62.1264 70.946 61.867 69.7904 61.7718 69.1339C61.4698 67.046 62.343 65.6968 64.3915 65.0862Z" fill="#FBB6A7"/>
<path d="M64.6919 66.1843L69.4783 68.607C67.4232 68.479 65.4765 67.8175 63.6382 66.6226C63.5969 66.5957 63.5617 66.5605 63.5345 66.5194C63.5074 66.4782 63.4889 66.4319 63.4801 66.3831C63.4714 66.3343 63.4726 66.2841 63.4837 66.2356C63.4947 66.187 63.5155 66.1411 63.5446 66.1006C63.9024 65.6016 64.2849 65.6295 64.6919 66.1843Z" fill="#DC2C21"/>
<path d="M25.0918 75.351C24.7628 77.452 25.6004 79.3282 26.9626 79.5416C28.3248 79.7549 29.6958 78.2245 30.0249 76.1234C30.3539 74.0224 29.5163 72.1462 28.1541 71.9328C26.7919 71.7195 25.4209 73.2499 25.0918 75.351Z" fill="#B4A4B3"/>
<path d="M51.8888 77.4655L53.1199 78.603C53.0116 78.8263 52.9541 79.0446 52.9475 79.258C52.941 79.4385 53.0116 79.642 53.1593 79.8686C55.2537 83.0397 57.7634 85.8006 60.6884 88.1511C62.5891 89.6808 64.4012 90.7182 66.1247 91.2631C68.2257 91.9296 70.3595 92.1003 72.5261 91.7753C74.8208 91.4338 77.127 90.4096 79.4446 88.7026C81.5226 87.1695 83.3627 85.3672 84.9647 83.2958C85.27 82.9019 85.6573 82.4439 86.1268 81.9219C86.4649 81.5444 86.8539 81.0848 87.2938 80.5432C87.6254 80.1328 87.5876 79.7734 87.1806 79.4648L88.5002 78.1992L88.451 91.8984C88.231 95.1943 88.2179 98.5345 88.4116 101.919C86.5667 104.969 84.1866 107.531 81.2715 109.606C80.72 109.941 79.9157 110.326 78.8587 110.763C77.8968 111.163 77.2337 111.92 76.8693 113.033C75.3887 116.122 74.2578 119.324 73.4765 122.64C72.3604 125.923 70.9865 129.247 69.355 132.612C69.2499 132.832 69.1465 132.832 69.0447 132.612C66.7435 127.756 64.6294 122.796 62.7024 117.731L61.1562 111.703C61.1017 111.489 60.9951 111.281 60.8428 111.092C60.6905 110.903 60.4956 110.738 60.2698 110.605L57.2858 108.867C56.5274 107.955 55.7248 107.081 54.8778 106.247C53.6566 105.043 52.6882 103.666 51.9725 102.116L51.8691 91.918L51.8888 77.4655ZM68.1436 103.416C68.1436 103.304 68.099 103.196 68.0196 103.117C67.9401 103.037 67.8324 102.993 67.7201 102.993H67.7004C67.5881 102.993 67.4804 103.037 67.401 103.117C67.3216 103.196 67.277 103.304 67.277 103.416V109.483C67.277 109.595 67.3216 109.703 67.401 109.782C67.4804 109.862 67.5881 109.906 67.7004 109.906H67.7201C67.8324 109.906 67.9401 109.862 68.0196 109.782C68.099 109.703 68.1436 109.595 68.1436 109.483V103.416Z" fill="#FDBCAB"/>
<path d="M53.12 78.6031C54.7877 80.4316 57.0479 82.5966 59.9006 85.0981C65.8786 90.3342 72.1783 90.7445 78.7997 86.3292C81.5408 84.4974 84.3345 82.2092 87.1807 79.4648C87.5878 79.7734 87.6255 80.1329 87.2939 80.5432C86.854 81.0849 86.465 81.5445 86.1269 81.922C85.6575 82.444 85.2701 82.9019 84.9648 83.2959C83.3628 85.3673 81.5228 87.1696 79.4448 88.7026C77.1271 90.4097 74.821 91.4339 72.5263 91.7753C70.3596 92.1003 68.2258 91.9296 66.1248 91.2632C64.4014 90.7183 62.5893 89.6809 60.6885 88.1511C57.7635 85.8006 55.2538 83.0398 53.1594 79.8686C53.0117 79.6421 52.9411 79.4386 52.9477 79.258C52.9543 79.0446 53.0117 78.8263 53.12 78.6031Z" fill="#F1847B"/>
<path d="M101.062 84.7927C101.446 85.3377 101.444 85.9089 101.057 86.5063C100.755 86.9725 100.368 87.2351 99.8949 87.2942C99.2318 87.3796 98.8148 86.9528 98.6441 86.0139C98.411 84.7435 98.782 84.1148 99.757 84.1279C100.322 84.1312 100.757 84.3528 101.062 84.7927Z" fill="#AC9FB8"/>
<path d="M104.351 87.447C105.078 87.447 105.666 86.8583 105.666 86.1322C105.666 85.4061 105.078 84.8175 104.351 84.8175C103.625 84.8175 103.037 85.4061 103.037 86.1322C103.037 86.8583 103.625 87.447 104.351 87.447Z" fill="#AC9FB8"/>
<path d="M51.8693 91.9181L51.9727 102.116C49.9472 99.5293 48.5996 96.6224 47.9299 93.3954L51.8693 91.9181Z" fill="#221824"/>
<path d="M88.4511 91.8984L91.9817 92.8832C91.3843 96.1332 90.1942 99.1452 88.4117 101.919C88.218 98.5346 88.2311 95.1943 88.4511 91.8984Z" fill="#2C1E30"/>
<path d="M98.0679 94.981L99.6387 97.4136C99.143 100.046 98.2764 102.51 97.0387 104.805C94.3468 109.808 90.593 113.98 85.7771 117.322C85.7087 117.37 85.6308 117.402 85.5488 117.417C85.4667 117.432 85.3825 117.429 85.3016 117.409C85.2208 117.388 85.1454 117.35 85.0804 117.298C85.0155 117.246 84.9625 117.18 84.9252 117.105L82.9112 113.073L81.2715 109.606C84.1866 107.531 86.5666 104.969 88.4116 101.919C90.1941 99.1452 91.3841 96.1333 91.9816 92.8833C92.1261 92.7159 92.2967 92.6749 92.4937 92.7602C94.8409 93.768 96.699 94.5083 98.0679 94.981Z" fill="#AC9FB8"/>
<path d="M47.9298 93.3954C48.5995 96.6224 49.9471 99.5293 51.9726 102.116C52.6882 103.666 53.6566 105.043 54.8778 106.248C55.7248 107.081 56.5274 107.955 57.2858 108.867L53.6517 117.465C46.5707 112.692 41.9961 106.157 39.928 97.8616C42.5247 96.2235 45.1919 94.7348 47.9298 93.3954Z" fill="#837EA1"/>
<path d="M104.435 98.8119C115.537 102.833 122.627 105.422 125.703 106.577C126.33 106.814 126.832 106.934 127.209 106.937C120.69 118.292 111.601 126.955 99.9442 132.927C91.5928 137.201 82.831 139.611 73.6588 140.155C69.4798 140.402 65.007 140.32 60.2404 139.909C54.0753 139.377 47.7477 137.618 41.2576 134.631C29.8466 129.378 20.5481 121.593 13.3621 111.275C14.4979 110.415 15.8439 109.578 17.3999 108.764C25.341 104.601 32.8504 100.967 39.9281 97.8616C41.9963 106.157 46.5708 112.692 53.6518 117.465C54.7319 118.233 55.8792 118.894 57.0938 119.449C57.1201 119.459 57.3811 119.599 57.8768 119.868C58.6089 120.268 59.1275 120.083 59.4328 119.311C59.5806 118.937 59.6577 118.742 59.6643 118.725C60.1665 117.639 60.6179 116.529 61.0184 115.397C61.0775 115.236 61.1547 115.224 61.2499 115.362C61.5453 115.782 61.7242 116.262 61.7866 116.8C61.8555 117.401 62.1608 117.711 62.7025 117.731C64.6295 122.796 66.7436 127.756 69.0449 132.612C69.1466 132.832 69.25 132.832 69.3551 132.612C70.9866 129.247 72.3605 125.923 73.4766 122.64L74.6437 120.439C74.903 120.495 75.1213 120.455 75.2986 120.321C75.4135 120.232 75.5021 120.055 75.5645 119.789C75.8271 118.686 76.4328 117.893 77.3815 117.411C79.6007 116.288 81.444 114.842 82.9114 113.072L84.9254 117.105C84.9627 117.18 85.0156 117.246 85.0806 117.298C85.1455 117.35 85.221 117.388 85.3018 117.408C85.3826 117.429 85.4669 117.432 85.5489 117.417C85.631 117.402 85.7089 117.37 85.7773 117.322C90.5931 113.98 94.347 109.808 97.0389 104.805C98.2765 102.51 99.1432 100.046 99.6389 97.4135L104.435 98.8119Z" fill="#3D2338"/>
<path d="M67.7203 102.993H67.7006C67.4667 102.993 67.2771 103.182 67.2771 103.416V109.483C67.2771 109.717 67.4667 109.906 67.7006 109.906H67.7203C67.9542 109.906 68.1437 109.717 68.1437 109.483V103.416C68.1437 103.182 67.9542 102.993 67.7203 102.993Z" fill="#FB887C"/>
<path d="M57.2859 108.867L60.27 110.606C60.4958 110.738 60.6907 110.903 60.843 111.092C60.9953 111.281 61.1019 111.489 61.1563 111.704L62.7025 117.731C62.1609 117.711 61.8556 117.401 61.7866 116.8C61.7243 116.262 61.5453 115.782 61.2499 115.362C61.1547 115.224 61.0775 115.236 61.0184 115.397C60.6179 116.529 60.1666 117.639 59.6643 118.725C59.6577 118.742 59.5806 118.937 59.4329 119.311C59.1276 120.083 58.6089 120.268 57.8768 119.868C57.3811 119.599 57.1201 119.459 57.0939 119.449C55.8792 118.895 54.7319 118.233 53.6519 117.465L57.2859 108.867Z" fill="#200E21"/>
<path d="M81.2715 109.606L82.9113 113.073C81.4439 114.842 79.6006 116.288 77.3814 117.411C76.4327 117.893 75.827 118.686 75.5644 119.789C75.502 120.055 75.4134 120.232 75.2985 120.321C75.1212 120.456 74.9029 120.495 74.6436 120.439C75.6087 118.059 76.3506 115.59 76.8693 113.033C77.2337 111.92 77.8968 111.164 78.8587 110.763C79.9157 110.326 80.72 109.941 81.2715 109.606Z" fill="#1E111E"/>
<path d="M76.8693 113.033C76.3507 115.59 75.6087 118.059 74.6436 120.439L73.4766 122.64C74.2579 119.325 75.3888 116.122 76.8693 113.033Z" fill="#F9D7CC"/>
</svg>
