<svg width="139" height="140" viewBox="0 0 139 140" fill="none" xmlns="http://www.w3.org/2000/svg">
<path d="M22.0364 119.043C32.4166 129.463 44.9503 135.772 59.6375 137.972C60.4352 138.093 61.1837 137.95 61.883 137.543C63.1337 136.821 64.1924 135.593 65.0591 133.86C67.5047 128.985 67.1748 124.327 64.0693 119.885" stroke="#FEC8A3" stroke-width="2"/>
<path d="M64.0696 119.885C69.6667 122.961 75.3345 123.964 81.0728 122.894C86.8604 121.81 91.4662 118.613 94.8901 113.301" stroke="#D5A99D" stroke-width="2"/>
<path d="M94.89 113.301L94.6438 133.757C94.6436 133.795 94.6527 133.833 94.6704 133.867C94.688 133.901 94.7136 133.93 94.7448 133.951C94.7761 133.973 94.812 133.986 94.8494 133.99C94.8867 133.994 94.9244 133.988 94.959 133.973C104.44 130.178 112.655 124.515 119.605 116.985C119.719 116.857 119.764 116.743 119.738 116.645" stroke="#ACCDCB" stroke-width="2"/>
<path d="M119.738 116.645C120 116.54 120.22 116.384 120.397 116.177C129.35 105.804 134.922 93.8279 137.115 80.2503C138.412 72.2271 138.216 64.2417 136.529 56.2941C133.223 40.6975 125.564 27.7157 113.553 17.3486C103.859 8.98404 92.7808 3.79723 80.3193 1.78816C77.2795 1.29902 74.0131 1.03803 70.5202 1.0052C66.4758 0.962525 62.6989 1.18249 59.1896 1.66506C54.5182 2.3052 49.8714 3.5264 45.2492 5.32866C33.0536 10.0756 23.0887 17.5177 15.3544 27.655C13.3913 30.232 11.5989 32.9813 9.97722 35.903C2.79446 48.8503 0.0352723 62.7152 1.69965 77.4977C3.51175 93.5801 10.2907 107.429 22.0366 119.043" stroke="#FEF3F0" stroke-width="2"/>
<path d="M119.737 116.645L94.8259 106.014" stroke="#ABC2BC" stroke-width="2"/>
<path d="M94.8258 106.014C92.1864 105.295 90.7666 103.501 90.5664 100.632C90.4121 98.4222 90.2873 96.2096 90.1921 93.9937" stroke="#D59E8F" stroke-width="2"/>
<path d="M90.1921 93.9937V92.3934" stroke="#C59089" stroke-width="2"/>
<path d="M90.1921 92.3934C97.3847 87.4396 101.483 80.311 102.488 71.0076C102.495 70.9403 102.517 70.8753 102.552 70.8175C102.587 70.7597 102.635 70.7104 102.692 70.6732C102.749 70.636 102.814 70.6118 102.882 70.6024C102.949 70.5929 103.018 70.5985 103.084 70.6186C103.442 70.7302 103.931 70.6481 104.551 70.3724C107.233 69.1873 108.909 67.3062 109.579 64.7292C110.022 63.0255 110.099 61.4366 109.81 59.9626C109.479 58.2786 108.561 56.8735 107.058 55.7475C105.452 54.5427 103.75 54.2637 101.951 54.9104C101.904 54.9272 101.853 54.9322 101.803 54.925C101.753 54.9178 101.706 54.8985 101.665 54.869C101.625 54.8394 101.592 54.8004 101.569 54.7553C101.547 54.7102 101.536 54.6603 101.537 54.61C101.708 48.6649 101.687 42.7214 101.473 36.7795C101.457 36.2904 101.349 35.8291 101.148 35.3958" stroke="#D59E8F" stroke-width="2"/>
<path d="M101.149 35.3958C101.139 35.1594 101.278 34.9641 101.567 34.8098C104.384 33.3161 106.861 31.1971 108.998 28.4527C110.035 27.1199 110.79 25.6689 111.263 24.0997C111.795 22.3401 111.865 20.7512 111.475 19.3331C110.835 17.0285 109.113 15.8188 106.309 15.7039C106.299 15.7039 105.751 15.763 104.664 15.8812C103.834 15.9731 103.081 15.7466 102.404 15.2017C99.8667 13.1565 97.3948 13.0564 94.9885 14.9013C94.24 15.4791 93.741 15.7926 93.4915 15.8418C92.8316 15.9731 92.2211 15.6892 91.6597 14.9899C90.6289 13.7064 89.2025 13.2894 87.3806 13.7392C86.573 13.9362 85.8097 14.2267 85.0908 14.6108C84.6411 14.8537 84.5098 14.7372 84.6969 14.2612C85.2156 12.9677 85.2041 11.8171 84.6624 10.8093C84.2159 9.97874 83.4117 9.31563 82.2496 8.81992C80.7789 8.19619 79.1654 7.98608 77.4091 8.18961C75.1013 8.4588 73.0019 9.03329 71.111 9.91308C71.0979 9.91965 70.7286 10.115 70.0031 10.4991C67.9218 11.5955 65.5073 11.9747 62.7596 11.6365C60.8687 11.4035 59.4144 11.9533 58.3968 13.2861C57.8879 13.9526 57.558 14.9735 57.407 16.349C57.2855 17.4389 57.1706 18.5288 57.0623 19.6187C56.9835 20.4 56.7898 20.9351 56.4813 21.2239C55.956 21.7164 55.2584 21.6803 54.3885 21.1156C52.9178 20.1603 51.7311 20.2522 50.8283 21.3914C50.4737 21.8378 50.2833 22.3762 50.2571 23.0065C50.2275 23.6368 50.3014 24.2277 50.4787 24.7792C51.1943 26.9787 52.5041 28.8351 54.4082 30.3485" stroke="#947F85" stroke-width="2"/>
<path d="M54.4082 30.3485C52.5994 31.5336 51.3864 33.1701 50.7692 35.2579C50.3753 36.5875 50.1455 38.3569 50.0798 40.5662C49.9452 45.0801 49.9058 49.7744 49.9616 54.6494C49.9625 54.709 49.9493 54.768 49.9231 54.8217C49.8969 54.8753 49.8583 54.9221 49.8106 54.9585C49.7628 54.9948 49.7071 55.0195 49.6478 55.0309C49.5886 55.0422 49.5274 55.0397 49.4692 55.0236C47.2435 54.3704 45.3986 54.679 43.9344 55.9494C42.7362 56.9933 41.9549 58.4788 41.5905 60.4058C41.2721 62.0964 41.4001 63.751 41.9746 65.3694C42.5983 67.1322 43.5208 68.4306 44.742 69.2644C46.1306 70.2099 47.8639 70.5546 49.9419 70.2985C49.9996 70.2916 50.058 70.2966 50.1136 70.313C50.1691 70.3294 50.2207 70.3569 50.265 70.3938C50.3094 70.4308 50.3455 70.4763 50.3713 70.5277C50.397 70.5791 50.4118 70.6351 50.4147 70.6924C50.7856 77.4648 53.1771 83.0981 57.5892 87.5923C58.144 88.1569 58.4116 88.7987 58.3919 89.5176C58.3754 90.2103 58.3672 90.5698 58.3672 90.596C58.6069 94.0298 58.5937 97.1321 58.3278 99.9028C58.1177 102.089 57.041 103.803 55.0976 105.044C54.6642 105.319 53.6892 105.869 52.1726 106.693" stroke="#D59E8F" stroke-width="2"/>
<path d="M52.1725 106.693C50.5409 106.953 49.085 107.593 47.8047 108.614C47.7461 108.66 47.6777 108.693 47.6038 108.711C47.5299 108.729 47.4523 108.731 47.3763 108.717C46.142 108.491 45.1588 108.802 44.4267 109.653C44.3172 109.781 44.1782 109.881 44.0214 109.944C43.8647 110.007 43.6946 110.032 43.5256 110.017C42.1829 109.896 41.1537 110.344 40.4381 111.361C40.3342 111.51 40.1789 111.614 40.0023 111.654C39.8257 111.694 39.6405 111.667 39.4828 111.578C39.148 111.388 38.7146 111.416 38.1828 111.662C33.0157 114.058 27.8043 116.355 22.5485 118.551C22.368 118.626 22.1972 118.79 22.0364 119.043" stroke="#FDBD95" stroke-width="2"/>
<path d="M101.149 35.3958C100.971 35.2973 100.804 35.2858 100.646 35.3613C96.1752 37.5378 91.4907 38.0811 86.5928 36.9912C81.813 35.9276 77.849 34.5341 74.7008 32.8106C71.3327 30.969 67.7199 30.1712 63.8627 30.4175C60.3665 30.6407 58.0702 30.8229 56.9737 30.964C55.9626 31.0953 55.1074 30.8902 54.4082 30.3485" stroke="#6C3533" stroke-width="2"/>
<path d="M90.1925 92.3933C88.0882 93.5915 85.8871 94.5205 83.5891 95.1804C81.3043 95.8369 78.962 96.116 76.5623 96.0175C70.7353 95.7778 65.4254 93.8705 60.6325 90.2956C60.585 90.2599 60.5347 90.2343 60.487 90.2212C60.4393 90.2082 60.396 90.2084 60.3617 90.2217C60.2665 90.2546 60.2993 90.3497 60.4602 90.5073C63.7233 93.777 67.4673 96.1882 71.6923 97.7409C74.6008 98.8079 77.3173 99.187 79.8418 98.8784C83.1115 98.4812 86.084 97.1829 88.7595 94.9834C88.8116 94.9405 88.8538 94.8819 88.8827 94.812C88.9117 94.7421 88.9268 94.6627 88.9269 94.5796C88.9269 94.2382 89.1091 94.125 89.4735 94.2399C89.8018 94.3449 90.0415 94.2628 90.1925 93.9936" stroke="#9C4637" stroke-width="2"/>
<path d="M94.8259 106.014C95.0393 108.604 95.0607 111.033 94.8899 113.301" stroke="#83786A" stroke-width="2"/>
<path d="M64.0694 119.885C62.8876 118.93 61.5384 117.613 60.0218 115.936C56.8276 112.41 54.2112 109.329 52.1726 106.693" stroke="#D57342" stroke-width="2"/>
<path d="M28.9599 32.328C29.5278 32.6497 29.9496 32.5151 30.2254 31.9242C31.463 29.2881 32.6268 26.6225 33.7166 23.9273C33.9005 23.471 34.017 23.0623 34.0662 22.7012C34.2763 21.2436 33.8397 20.9482 32.7564 21.8148C32.4478 22.0643 32.154 22.3926 31.875 22.7997C30.2402 25.1863 29.0731 27.7895 28.3739 30.6095C28.1736 31.417 28.369 31.9899 28.9599 32.328Z" stroke="#FABE99" stroke-width="2"/>
<path d="M27.6846 113.114C28.9222 113.351 29.5624 112.806 29.605 111.479C30.1139 95.594 30.667 79.7119 31.2645 63.833C31.3072 62.7661 30.9641 62.1128 30.2353 61.8732C29.6576 61.6795 29.0634 61.7763 28.4528 62.1637C27.8947 62.5149 27.4794 63.0123 27.207 63.6557C26.882 64.4206 26.7096 65.2167 26.6899 66.0439C26.3518 80.0385 26.2714 94.0331 26.4486 108.028C26.4683 109.479 26.6358 110.935 26.9509 112.395C26.9891 112.573 27.0789 112.737 27.2094 112.864C27.3398 112.992 27.505 113.079 27.6846 113.114Z" stroke="#FABE99" stroke-width="2"/>
<path d="M23.376 102.586C24.1015 103.069 24.5086 102.879 24.5972 102.015C24.7088 100.896 24.7663 99.7812 24.7695 98.6717C24.7859 89.7654 24.891 80.8625 25.0847 71.9628C25.111 70.7712 24.9583 69.6107 24.6267 68.4814C24.4232 67.7756 24.136 67.7132 23.765 68.2943C23.2693 69.0756 22.9919 69.9291 22.9328 70.8549C22.4535 78.1493 22.1351 85.4518 21.9775 92.7626C21.8856 96.9646 21.9792 99.6729 22.2582 100.888C22.4289 101.639 22.8015 102.206 23.376 102.586Z" stroke="#FABE99" stroke-width="2"/>
<path d="M32.4956 73.2677C32.2789 73.6124 32.1492 73.9883 32.1066 74.3954C31.6437 79.0799 31.4369 83.7661 31.4861 88.4539C31.4893 88.6283 31.5453 88.7858 31.6437 88.8971C32.0015 89.3075 32.3774 89.3304 32.7713 88.966C32.8761 88.8708 32.9478 88.7222 32.9732 88.5475C33.6495 83.597 33.9384 78.6253 33.8399 73.6321C33.8333 73.2645 33.7447 72.9985 33.574 72.8344C33.2424 72.516 32.8829 72.6604 32.4956 73.2677Z" stroke="#FCC19D" stroke-width="2"/>
<path d="M18.2942 106.708C18.918 107.473 19.4137 107.397 19.7813 106.481C20.3197 105.139 20.5298 103.726 20.4116 102.242C20.2672 100.456 20.1589 95.5727 20.0867 87.5922C20.0735 86.2397 19.4087 85.6767 18.0923 85.9032C17.3504 86.0313 16.9286 86.4679 16.8268 87.2131C16.1374 92.1668 16.126 97.1501 16.7924 102.163C16.9696 103.492 17.0927 104.284 17.1617 104.536C17.3784 105.328 17.7559 106.051 18.2942 106.708Z" stroke="#FDBD95" stroke-width="2"/>
<path d="M77.5026 42.2799C82.8207 42.549 87.786 43.698 92.3983 45.7268C92.7266 45.8712 93.063 45.9878 93.4077 46.0764C94.4943 46.3456 94.908 46.2209 94.6486 45.7022C94.585 45.5722 94.4585 45.4615 94.2941 45.3919C90.161 43.5766 85.8901 42.2848 81.4813 41.5166C78.517 41.0012 75.6265 40.8059 72.8098 40.9306C69.898 41.0619 67.0141 41.4624 64.158 42.1321C62.2671 42.572 60.4797 43.268 58.7956 44.22C58.3721 44.4596 57.9913 44.8798 57.6532 45.4806C57.3479 46.0255 57.4808 46.1716 58.052 45.9188C64.2499 43.1514 70.7335 41.9384 77.5026 42.2799Z" stroke="#A24A38" stroke-width="2"/>
<path d="M86.7058 50.1487C86.8254 50.287 86.9722 50.3994 87.1374 50.479C87.3025 50.5586 87.4824 50.6037 87.666 50.6115C91.7892 50.7822 95.4249 51.4568 98.5731 52.6354C98.6043 52.6469 98.6374 52.6522 98.6705 52.6513C98.7036 52.6503 98.7359 52.6429 98.7657 52.6297C98.7955 52.6164 98.8221 52.5974 98.844 52.5739C98.8659 52.5503 98.8826 52.5227 98.8932 52.4926C99.1361 51.8229 99.1181 51.1532 98.839 50.4835C98.7816 50.3432 98.6707 50.2202 98.5239 50.1339C95.333 48.3152 91.9123 47.4518 88.2619 47.5437C87.5495 47.5602 87.0078 47.7325 86.6369 48.0608C85.9836 48.6385 86.0066 49.3345 86.7058 50.1487Z" stroke="#67352C" stroke-width="2"/>
<path d="M70.5841 48.1446C70.4432 47.9495 70.256 47.7924 70.0394 47.6876C69.8228 47.5827 69.5836 47.5333 69.3432 47.5438C66.0308 47.685 63.0895 48.1643 60.519 48.9817C59.37 49.3461 58.5477 49.8139 58.052 50.3851C57.4742 51.0449 57.4726 51.7327 58.0471 52.4483C58.091 52.5021 58.1519 52.5412 58.2221 52.5605C58.2922 52.5798 58.3684 52.5784 58.441 52.5566C61.8223 51.5291 65.2742 50.8758 68.7966 50.5968C69.5451 50.5377 70.0884 50.3949 70.4265 50.1684C71.1553 49.6727 71.2078 48.9981 70.5841 48.1446Z" stroke="#65332D" stroke-width="2"/>
<path d="M81.0086 54.7036C80.0665 59.4308 80.311 64.0923 81.7423 68.6882C81.7555 68.7276 81.8605 68.9919 82.0575 69.481C82.4285 70.3904 82.2118 71.1569 81.4075 71.7807C80.3997 72.5652 79.2589 73.2054 77.9852 73.7011C77.7554 73.7897 77.762 73.8603 78.0049 73.9128C79.666 74.2641 81.2926 74.1951 82.8848 73.706C83.7777 73.4302 84.4096 72.9723 84.7806 72.3322C85.1712 71.6461 85.3715 70.8319 85.3813 69.8898" stroke="#964332" stroke-width="2"/>
<path d="M85.3813 69.8897C85.7983 69.3612 86.4171 69.2709 87.2378 69.6189" stroke="#A44D38" stroke-width="2"/>
<path d="M87.2378 69.619C87.8747 73.7521 90.2202 75.6807 94.2745 75.405C97.0878 75.2146 99.0558 73.8949 100.179 71.4459C100.632 70.4578 100.814 69.5386 100.725 68.6883C100.63 67.7593 100.275 66.8483 99.6615 65.9554C98.5027 64.2746 96.9943 63.3144 95.1362 63.0748C91.5054 62.6053 88.9957 64.0071 87.6071 67.28" stroke="#9F4837" stroke-width="2"/>
<path d="M87.607 67.2799C87.4691 67.3948 87.3444 67.4342 87.2327 67.3981C87.1766 67.3803 87.1321 67.3307 87.1083 67.2594C87.0846 67.188 87.0833 67.1003 87.1047 67.014C87.4067 65.806 87.4986 64.7867 87.3805 63.9561C87.0883 61.9011 87.0128 60.2186 87.1539 58.9088" stroke="#A44D38" stroke-width="2"/>
<path d="M87.1541 58.9087C88.3293 57.8484 89.6769 57.2575 91.1968 57.136" stroke="#964332" stroke-width="2"/>
<path d="M91.1968 57.1361C91.466 59.7853 92.6543 60.6667 94.7619 59.7804C94.9871 59.6859 95.1787 59.526 95.3122 59.3215C95.4456 59.117 95.5146 58.8772 95.5104 58.633C95.494 57.6646 95.2609 56.7979 94.8111 56.033" stroke="#7C3A2C" stroke-width="2"/>
<path d="M94.8111 56.033L98.8145 58.6773C98.8751 58.7158 98.9364 58.7436 98.9913 58.7575C99.0461 58.7715 99.0924 58.771 99.1247 58.7561C99.2232 58.7134 99.2248 58.6182 99.1296 58.4705C97.5342 56.0642 95.2592 54.8151 92.3047 54.7232C90.2661 54.6608 88.8709 54.7084 88.1191 54.866" stroke="#964332" stroke-width="2"/>
<path d="M88.1193 54.8661C87.6794 54.8365 87.3068 54.5821 87.0015 54.1028C86.7061 53.6367 86.281 53.397 85.7262 53.3839C84.587 53.3576 83.9814 52.9949 83.9091 52.2956C83.8983 52.2053 83.8744 52.1221 83.8393 52.0528C83.8043 51.9835 83.759 51.9301 83.7072 51.8968C83.3297 51.6571 83.0031 51.7474 82.7273 52.1676C82.1857 52.9883 81.6128 53.8336 81.0088 54.7036" stroke="#A44D38" stroke-width="2"/>
<path d="M88.1192 54.8661C88.1684 55.3749 88.3884 55.8148 88.7791 56.1858C88.8612 56.2627 88.9242 56.3578 88.9632 56.4633C89.0022 56.5689 89.016 56.6821 89.0036 56.794C88.9912 56.9058 88.9528 57.0133 88.8916 57.1077C88.8304 57.2021 88.748 57.281 88.651 57.338C87.8796 57.7911 87.3806 58.3147 87.1541 58.9089" stroke="#8E3C2E" stroke-width="2"/>
<path d="M87.6071 67.28L87.2378 69.619" stroke="#974133" stroke-width="2"/>
<path d="M85.3814 69.8898C82.1281 65.4022 80.6706 60.3401 81.0087 54.7036" stroke="#8E3C2E" stroke-width="2"/>
<path d="M94.8111 56.033C93.0483 55.5603 91.8435 55.928 91.1968 57.1361" stroke="#652922" stroke-width="2"/>
<path d="M62.0209 57.6975C61.9093 58.7217 62.1703 59.4341 62.8039 59.8346C63.339 60.1695 63.897 60.2252 64.4781 60.002C65.0821 59.7689 65.4531 59.2404 65.591 58.4164C65.7387 57.5366 65.8191 56.8473 65.8322 56.3483" stroke="#7A3E33" stroke-width="2"/>
<path d="M65.8323 56.3482C67.4901 56.3121 68.8869 56.9194 70.0228 58.1702C70.3018 58.4755 70.3839 58.4344 70.269 58.0471C69.6026 55.7787 68.273 54.5246 66.2804 54.285C64.9673 54.1274 63.6082 54.2095 62.2031 54.5312C60.0759 55.0138 58.6068 56.4697 57.796 58.899C57.6712 59.2732 57.7976 59.3848 58.1752 59.2338L62.021 57.6974" stroke="#984534" stroke-width="2"/>
<path d="M65.8323 56.3483C64.0301 55.6983 62.7596 56.148 62.021 57.6975" stroke="#662F2B" stroke-width="2"/>
<path d="M105.088 57.2641C103.585 56.8275 102.701 57.182 102.439 58.3277C102.436 58.3573 102.37 59.1336 102.242 60.6569C102.12 62.1276 102.157 63.5211 102.35 64.8375C102.468 65.6483 102.926 65.9684 103.724 65.7977C105.411 65.4399 106.413 64.5601 106.728 63.1584C106.898 62.4066 106.928 61.5383 106.816 60.5535C106.718 59.6967 106.45 58.8513 106.014 58.0175C105.917 57.8366 105.785 57.6768 105.626 57.5475C105.467 57.4181 105.284 57.3218 105.088 57.2641Z" stroke="#A64A39" stroke-width="2"/>
<path d="M46.7262 65.0937C47.4977 65.7043 48.2773 65.811 49.0652 65.4138C49.6463 65.1216 50.078 64.5865 50.3603 63.8085C50.8855 62.3443 50.8904 60.8392 50.375 59.293C50.35 59.2181 50.3106 59.149 50.2591 59.0898C50.2075 59.0306 50.1448 58.9825 50.0747 58.9483C48.952 58.4033 47.9195 58.3672 46.9774 58.8399C46.0779 59.2897 45.505 60.0775 45.2588 61.2035C44.9174 62.7596 45.4065 64.0563 46.7262 65.0937Z" stroke="#A24A38" stroke-width="2"/>
<path d="M67.3874 68.3399C67.2876 67.5384 67.0202 66.7658 66.6007 66.0661C66.1811 65.3664 65.6175 64.7533 64.9421 64.2619C64.2666 63.7705 63.4926 63.4104 62.6641 63.2022C61.8356 62.9939 60.969 62.9415 60.1136 63.0481C58.3861 63.2633 56.8094 64.1126 55.7304 65.4093C54.6514 66.706 54.1585 68.3439 54.3601 69.9625C54.46 70.764 54.7273 71.5366 55.1469 72.2363C55.5665 72.936 56.13 73.5491 56.8055 74.0405C57.4809 74.5319 58.255 74.892 59.0835 75.1003C59.9119 75.3085 60.7786 75.3609 61.634 75.2544C63.3615 75.0392 64.9381 74.1898 66.0171 72.8931C67.0961 71.5964 67.589 69.9586 67.3874 68.3399Z" stroke="#9F4837" stroke-width="2"/>
<path d="M74.1838 83.0128L76.3948 83.5249C76.4564 83.5396 76.5119 83.5746 76.5535 83.625C76.595 83.6754 76.6205 83.7386 76.6262 83.8056C76.6459 84.0485 76.774 84.2537 77.0103 84.4211C78.4121 85.4256 79.8089 85.4453 81.2008 84.4802C81.6079 84.1979 81.5652 84.0452 81.0728 84.0222C80.39 83.9894 79.7039 84.0354 79.0145 84.1601C78.44 84.2619 77.9311 84.1798 77.488 83.9139C77.3402 83.8253 77.3517 83.7514 77.5224 83.6923C78.6747 83.282 79.4888 83.1556 79.9648 83.3132C81.0777 83.6841 81.9558 83.4789 82.5993 82.6976" stroke="#973D32" stroke-width="2"/>
<path d="M82.5991 82.6976C85.616 81.4567 87.8549 79.446 89.3157 76.6654C89.5127 76.2945 89.406 76.1517 88.9956 76.237C81.9672 77.7274 74.9108 77.7209 67.8265 76.2173C67.0518 76.0532 66.8252 76.3322 67.147 77.0544C68.5618 80.2289 70.9074 82.215 74.1837 83.0127" stroke="#D5A99D" stroke-width="2"/>
<path d="M82.5993 82.6976C79.7925 82.6122 76.9873 82.7173 74.1838 83.0127" stroke="#C09193" stroke-width="2"/>
<path d="M73.3473 111.729C73.3482 111.673 73.3381 111.617 73.3175 111.565C73.2969 111.512 73.2662 111.465 73.2271 111.424C73.188 111.384 73.1413 111.351 73.0897 111.329C73.0381 111.306 72.9826 111.294 72.9264 111.293L72.8969 111.293C72.7833 111.291 72.6735 111.334 72.5918 111.413C72.5101 111.492 72.463 111.6 72.4611 111.714L72.3316 119.128C72.3306 119.185 72.3407 119.24 72.3613 119.293C72.382 119.345 72.4127 119.393 72.4518 119.433C72.4909 119.474 72.5375 119.506 72.5891 119.529C72.6407 119.551 72.6962 119.563 72.7525 119.564L72.782 119.565C72.8956 119.567 73.0053 119.523 73.0871 119.444C73.1688 119.366 73.2158 119.257 73.2178 119.144L73.3473 111.729Z" stroke="#9F4837" stroke-width="2"/>
<path d="M53.1328 124.066C53.4808 124.289 53.6531 124.194 53.6498 123.78C53.6465 123.255 53.5481 122.748 53.3544 122.259C52.2579 119.475 51.0778 116.725 49.8139 114.011C49.7088 113.787 49.6071 113.602 49.5086 113.454C48.9604 112.643 48.7043 112.763 48.7404 113.814C48.747 114.024 48.788 114.244 48.8635 114.473C49.8615 117.415 51.0088 120.296 52.3055 123.115C52.4894 123.513 52.7651 123.829 53.1328 124.066Z" stroke="#ED7A3D" stroke-width="2"/>
<path d="M50.1734 126.03C50.7052 126.398 50.8792 126.306 50.6953 125.755C49.4577 122.039 47.9739 118.426 46.2439 114.917C46.083 114.588 45.9221 114.347 45.7613 114.193C45.3017 113.743 44.9587 113.866 44.7322 114.562C44.6846 114.705 44.6933 114.87 44.7568 115.025C46.0141 118.042 47.3534 121.023 48.7749 123.967C48.7913 123.997 48.8882 124.228 49.0654 124.662C49.2952 125.226 49.6645 125.683 50.1734 126.03Z" stroke="#ED7A3D" stroke-width="2"/>
<path d="M36.1298 119.203C36.2124 119.132 36.2768 119.042 36.3192 118.937C36.3616 118.832 36.3812 118.715 36.377 118.592C36.3727 118.468 36.3447 118.342 36.2944 118.219C36.2442 118.096 36.1727 117.979 36.0841 117.876C35.9051 117.666 35.6672 117.522 35.4227 117.474C35.1782 117.427 34.9471 117.48 34.7802 117.623C34.6976 117.693 34.6333 117.784 34.5909 117.888C34.5484 117.993 34.5288 118.111 34.533 118.234C34.5373 118.357 34.5653 118.484 34.6156 118.607C34.6659 118.73 34.7373 118.846 34.826 118.95C35.0049 119.16 35.2428 119.304 35.4873 119.351C35.7318 119.399 35.9629 119.345 36.1298 119.203Z" stroke="#E77948" stroke-width="2"/>
<path d="M119.738 116.645L94.826 106.014C92.1866 105.295 90.7668 103.501 90.5666 100.632C90.4123 98.4222 90.2876 96.2096 90.1924 93.9937V92.3933C97.385 87.4396 101.484 80.311 102.488 71.0076C102.495 70.9402 102.517 70.8753 102.552 70.8175C102.588 70.7597 102.636 70.7104 102.693 70.6732C102.75 70.636 102.814 70.6118 102.882 70.6024C102.95 70.5929 103.019 70.5985 103.084 70.6186C103.442 70.7302 103.931 70.6481 104.551 70.3724C107.233 69.1873 108.909 67.3062 109.579 64.7292C110.022 63.0255 110.099 61.4366 109.81 59.9626C109.479 58.2785 108.561 56.8735 107.058 55.7475C105.452 54.5427 103.75 54.2637 101.951 54.9104C101.904 54.9272 101.853 54.9322 101.803 54.925C101.754 54.9177 101.706 54.8985 101.666 54.869C101.625 54.8394 101.592 54.8004 101.57 54.7553C101.547 54.7102 101.536 54.6603 101.538 54.61C101.708 48.6649 101.687 42.7213 101.474 36.7795C101.457 36.2904 101.349 35.8291 101.149 35.3958C101.139 35.1594 101.278 34.9641 101.567 34.8098C104.384 33.3161 106.861 31.1971 108.998 28.4527C110.035 27.1199 110.79 25.6689 111.263 24.0997C111.795 22.3401 111.865 20.7512 111.475 19.3331C110.835 17.0285 109.113 15.8188 106.309 15.7039C106.299 15.7039 105.751 15.763 104.665 15.8812C103.834 15.9731 103.081 15.7466 102.404 15.2017C99.8668 13.1565 97.3948 13.0564 94.9885 14.9013C94.24 15.4791 93.741 15.7926 93.4915 15.8418C92.8317 15.9731 92.2211 15.6892 91.6598 14.9899C90.629 13.7064 89.2026 13.2894 87.3806 13.7392C86.5731 13.9362 85.8098 14.2267 85.0909 14.6108C84.6411 14.8537 84.5098 14.7372 84.6969 14.2612C85.2156 12.9677 85.2041 11.8171 84.6625 10.8093C84.216 9.97874 83.4117 9.31563 82.2496 8.81993C80.7789 8.19619 79.1654 7.98608 77.4091 8.18961C75.1013 8.4588 73.002 9.03329 71.1111 9.91308C71.098 9.91965 70.7287 10.115 70.0032 10.4991C67.9219 11.5955 65.5074 11.9747 62.7597 11.6366C60.8688 11.4035 59.4145 11.9533 58.3968 13.2861C57.888 13.9526 57.5581 14.9735 57.4071 16.349C57.2856 17.4389 57.1707 18.5288 57.0624 19.6187C56.9836 20.4 56.7899 20.9351 56.4813 21.2239C55.9561 21.7164 55.2585 21.6803 54.3885 21.1156C52.9178 20.1603 51.7311 20.2522 50.8283 21.3914C50.4738 21.8378 50.2834 22.3762 50.2571 23.0065C50.2276 23.6368 50.3014 24.2277 50.4787 24.7792C51.1944 26.9787 52.5042 28.8351 54.4082 30.3485C52.5994 31.5336 51.3864 33.17 50.7693 35.2579C50.3753 36.5874 50.1455 38.3569 50.0799 40.5662C49.9453 45.08 49.9059 49.7744 49.9617 54.6494C49.9626 54.709 49.9493 54.768 49.9231 54.8217C49.8969 54.8753 49.8584 54.9221 49.8106 54.9584C49.7628 54.9947 49.7071 55.0195 49.6479 55.0308C49.5886 55.0422 49.5275 55.0397 49.4693 55.0236C47.2435 54.3703 45.3986 54.6789 43.9345 55.9494C42.7363 56.9933 41.9549 58.4788 41.5906 60.4058C41.2721 62.0964 41.4001 63.7509 41.9746 65.3694C42.5984 67.1322 43.5208 68.4306 44.742 69.2644C46.1306 70.2099 47.864 70.5545 49.942 70.2985C49.9996 70.2916 50.058 70.2965 50.1136 70.3129C50.1692 70.3293 50.2208 70.3568 50.2651 70.3938C50.3094 70.4307 50.3456 70.4763 50.3713 70.5277C50.397 70.5791 50.4118 70.6351 50.4147 70.6924C50.7857 77.4648 53.1772 83.0981 57.5893 87.5923C58.144 88.1569 58.4116 88.7987 58.3919 89.5176C58.3755 90.2103 58.3673 90.5697 58.3673 90.596C58.6069 94.0298 58.5938 97.1321 58.3279 99.9027C58.1178 102.089 57.041 103.803 55.0976 105.044C54.6643 105.319 53.6893 105.869 52.1726 106.693C50.5411 106.953 49.0852 107.593 47.8049 108.614C47.7463 108.66 47.6778 108.693 47.604 108.711C47.5301 108.729 47.4525 108.731 47.3765 108.717C46.1422 108.491 45.159 108.802 44.4269 109.653C44.3174 109.781 44.1784 109.881 44.0216 109.944C43.8649 110.007 43.6948 110.032 43.5258 110.017C42.1831 109.896 41.1539 110.344 40.4383 111.361C40.3344 111.51 40.1791 111.614 40.0025 111.654C39.8259 111.694 39.6407 111.667 39.483 111.578C39.1481 111.388 38.7148 111.416 38.183 111.662C33.0159 114.058 27.8045 116.354 22.5487 118.551C22.3681 118.626 22.1974 118.79 22.0366 119.043C10.2907 107.429 3.51175 93.5801 1.69965 77.4977C0.0352722 62.7152 2.79446 48.8503 9.97722 35.903C11.5989 32.9813 13.3913 30.232 15.3544 27.655C23.0887 17.5177 33.0536 10.0756 45.2492 5.32866C49.8714 3.5264 54.5182 2.3052 59.1896 1.66506C62.6989 1.18249 66.4758 0.962525 70.5202 1.0052C74.0131 1.03803 77.2795 1.29902 80.3193 1.78816C92.7808 3.79723 103.859 8.98404 113.553 17.3486C125.564 27.7157 133.223 40.6975 136.529 56.2941C138.216 64.2417 138.412 72.2271 137.115 80.2503C134.922 93.8279 129.35 105.804 120.397 116.177C120.22 116.384 120 116.54 119.738 116.645ZM28.96 32.328C29.5279 32.6497 29.9498 32.5151 30.2255 31.9242C31.4631 29.2882 32.6269 26.6225 33.7168 23.9274C33.9006 23.471 34.0171 23.0623 34.0664 22.7012C34.2765 21.2436 33.8399 20.9482 32.7565 21.8149C32.448 22.0643 32.1542 22.3926 31.8751 22.7997C30.2403 25.1863 29.0732 27.7896 28.374 30.6095C28.1738 31.4171 28.3691 31.9899 28.96 32.328ZM27.6846 113.114C28.9222 113.351 29.5624 112.806 29.6051 111.48C30.1139 95.5941 30.667 79.7119 31.2645 63.833C31.3072 62.7661 30.9641 62.1128 30.2354 61.8732C29.6576 61.6795 29.0634 61.7763 28.4528 62.1637C27.8947 62.515 27.4794 63.0123 27.207 63.6558C26.882 64.4206 26.7096 65.2167 26.6899 66.044C26.3518 80.0385 26.2714 94.0331 26.4487 108.028C26.4684 109.479 26.6358 110.935 26.9509 112.395C26.9891 112.574 27.079 112.737 27.2094 112.864C27.3398 112.992 27.505 113.079 27.6846 113.114ZM23.376 102.586C24.1015 103.069 24.5085 102.879 24.5972 102.015C24.7088 100.896 24.7662 99.7813 24.7695 98.6717C24.7859 89.7655 24.891 80.8625 25.0846 71.9629C25.1109 70.7712 24.9583 69.6107 24.6267 68.4815C24.4232 67.7757 24.1359 67.7133 23.765 68.2943C23.2693 69.0756 22.9919 69.9292 22.9328 70.8549C22.4535 78.1493 22.1351 85.4519 21.9775 92.7627C21.8856 96.9646 21.9791 99.6729 22.2582 100.888C22.4289 101.639 22.8015 102.206 23.376 102.586ZM32.4956 73.2678C32.2789 73.6124 32.1492 73.9883 32.1066 74.3954C31.6437 79.08 31.4369 83.7662 31.4861 88.454C31.4893 88.6284 31.5453 88.7859 31.6437 88.8972C32.0015 89.3075 32.3774 89.3305 32.7713 88.9661C32.8761 88.8709 32.9478 88.7222 32.9732 88.5475C33.6495 83.5971 33.9384 78.6253 33.8399 73.6322C33.8333 73.2645 33.7447 72.9986 33.574 72.8345C33.2424 72.516 32.8829 72.6604 32.4956 73.2678ZM18.2942 106.708C18.9179 107.473 19.4136 107.397 19.7813 106.481C20.3197 105.139 20.5298 103.726 20.4116 102.242C20.2671 100.456 20.1588 95.5727 20.0866 87.5923C20.0735 86.2397 19.4087 85.6767 18.0923 85.9033C17.3504 86.0313 16.9285 86.4679 16.8268 87.2131C16.1374 92.1668 16.1259 97.1501 16.7923 102.163C16.9696 103.492 17.0927 104.284 17.1616 104.536C17.3783 105.328 17.7558 106.051 18.2942 106.708Z" fill="#FDE8E1"/>
<path d="M101.149 35.3958C100.971 35.2973 100.804 35.2858 100.646 35.3613C96.1752 37.5378 91.4906 38.0811 86.5927 36.9912C81.813 35.9276 77.849 34.5341 74.7008 32.8106C71.3326 30.9689 67.7199 30.1712 63.8626 30.4174C60.3664 30.6407 58.0701 30.8229 56.9737 30.964C55.9626 31.0953 55.1074 30.8902 54.4082 30.3485C52.5041 28.8351 51.1943 26.9787 50.4787 24.7792C50.3014 24.2277 50.2275 23.6368 50.2571 23.0065C50.2833 22.3762 50.4737 21.8378 50.8283 21.3914C51.7311 20.2522 52.9178 20.1603 54.3885 21.1156C55.2584 21.6803 55.956 21.7164 56.4813 21.2239C56.7898 20.9351 56.9835 20.4 57.0623 19.6187C57.1706 18.5288 57.2855 17.4389 57.407 16.349C57.558 14.9735 57.8879 13.9526 58.3968 13.2861C59.4144 11.9533 60.8687 11.4035 62.7596 11.6365C65.5073 11.9747 67.9218 11.5955 70.0031 10.4991C70.7286 10.115 71.0979 9.91965 71.111 9.91308C73.0019 9.03329 75.1013 8.4588 77.4091 8.18961C79.1654 7.98608 80.7789 8.19619 82.2496 8.81992C83.4117 9.31563 84.216 9.97874 84.6624 10.8093C85.2041 11.8171 85.2156 12.9677 84.6969 14.2612C84.5098 14.7372 84.6411 14.8537 85.0908 14.6108C85.8097 14.2267 86.573 13.9362 87.3806 13.7392C89.2025 13.2894 90.6289 13.7064 91.6597 14.9899C92.2211 15.6892 92.8316 15.9731 93.4915 15.8418C93.741 15.7926 94.24 15.4791 94.9885 14.9013C97.3948 13.0564 99.8667 13.1565 102.404 15.2017C103.081 15.7466 103.834 15.9731 104.664 15.8812C105.751 15.763 106.299 15.7039 106.309 15.7039C109.113 15.8188 110.835 17.0285 111.475 19.3331C111.865 20.7512 111.795 22.3401 111.263 24.0997C110.79 25.6689 110.035 27.1199 108.998 28.4527C106.861 31.1971 104.384 33.3161 101.567 34.8098C101.278 34.9641 101.139 35.1594 101.149 35.3958Z" fill="#2B1529"/>
<path d="M28.9599 32.328C28.369 31.9899 28.1736 31.417 28.3739 30.6095C29.0731 27.7895 30.2402 25.1863 31.875 22.7997C32.154 22.3926 32.4478 22.0643 32.7564 21.8148C33.8397 20.9482 34.2763 21.2436 34.0662 22.7012C34.017 23.0623 33.9005 23.471 33.7166 23.9273C32.6268 26.6225 31.463 29.2881 30.2254 31.9242C29.9496 32.5151 29.5278 32.6497 28.9599 32.328Z" fill="#599B97"/>
<path d="M54.4082 30.3485C55.1074 30.8902 55.9626 31.0953 56.9737 30.964C58.0701 30.8229 60.3665 30.6407 63.8626 30.4175C67.7199 30.1712 71.3326 30.969 74.7008 32.8106C77.849 34.5341 81.813 35.9276 86.5927 36.9912C91.4907 38.0811 96.1752 37.5378 100.646 35.3613C100.804 35.2858 100.971 35.2973 101.149 35.3958C101.349 35.8291 101.457 36.2904 101.474 36.7795C101.687 42.7214 101.708 48.6649 101.538 54.61C101.536 54.6603 101.547 54.7102 101.57 54.7553C101.592 54.8004 101.625 54.8394 101.665 54.869C101.706 54.8985 101.753 54.9178 101.803 54.925C101.853 54.9322 101.904 54.9272 101.951 54.9104C103.75 54.2637 105.452 54.5427 107.058 55.7475C108.561 56.8735 109.479 58.2786 109.81 59.9626C110.099 61.4366 110.022 63.0255 109.579 64.7292C108.909 67.3062 107.233 69.1873 104.551 70.3724C103.931 70.6481 103.442 70.7302 103.084 70.6186C103.018 70.5985 102.949 70.5929 102.882 70.6024C102.814 70.6118 102.749 70.636 102.692 70.6732C102.636 70.7104 102.588 70.7597 102.552 70.8175C102.517 70.8753 102.495 70.9403 102.488 71.0076C101.483 80.311 97.3849 87.4396 90.1923 92.3934C88.088 93.5916 85.8869 94.5206 83.589 95.1804C81.3041 95.837 78.9619 96.1161 76.5621 96.0176C70.7352 95.7779 65.4252 93.8706 60.6324 90.2957C60.5848 90.26 60.5346 90.2343 60.4869 90.2213C60.4392 90.2083 60.3959 90.2085 60.3615 90.2218C60.2663 90.2546 60.2992 90.3498 60.46 90.5074C63.7231 93.7771 67.4672 96.1883 71.6921 97.741C74.6007 98.8079 77.3172 99.1871 79.8417 98.8785C83.1113 98.4813 86.0839 97.183 88.7594 94.9835C88.8115 94.9406 88.8536 94.882 88.8826 94.8121C88.9116 94.7422 88.9267 94.6628 88.9268 94.5797C88.9268 94.2383 89.109 94.125 89.4734 94.2399C89.8017 94.345 90.0413 94.2629 90.1923 93.9937C90.2875 96.2096 90.4122 98.4222 90.5665 100.632C90.7668 103.501 92.1866 105.295 94.826 106.014C95.0394 108.604 95.0607 111.033 94.89 113.302C91.466 118.613 86.8603 121.811 81.0727 122.894C75.3344 123.964 69.6666 122.961 64.0694 119.885C62.8876 118.93 61.5384 117.613 60.0218 115.936C56.8276 112.41 54.2112 109.329 52.1726 106.693C53.6892 105.869 54.6642 105.319 55.0976 105.044C57.041 103.803 58.1177 102.089 58.3278 99.9028C58.5937 97.1321 58.6069 94.0298 58.3672 90.596C58.3672 90.5698 58.3754 90.2103 58.3919 89.5176C58.4116 88.7987 58.144 88.1569 57.5892 87.5923C53.1771 83.0981 50.7856 77.4648 50.4147 70.6924C50.4118 70.6351 50.397 70.5791 50.3713 70.5277C50.3455 70.4763 50.3094 70.4308 50.265 70.3938C50.2207 70.3569 50.1691 70.3294 50.1136 70.313C50.058 70.2966 49.9996 70.2916 49.9419 70.2985C47.8639 70.5546 46.1306 70.2099 44.742 69.2644C43.5208 68.4306 42.5983 67.1322 41.9746 65.3694C41.4001 63.751 41.2721 62.0964 41.5905 60.4058C41.9549 58.4788 42.7362 56.9933 43.9344 55.9494C45.3986 54.679 47.2435 54.3704 49.4692 55.0236C49.5274 55.0397 49.5886 55.0422 49.6478 55.0309C49.7071 55.0195 49.7628 54.9948 49.8106 54.9585C49.8583 54.9221 49.8969 54.8753 49.9231 54.8217C49.9493 54.768 49.9625 54.709 49.9616 54.6494C49.9058 49.7744 49.9452 45.0801 50.0798 40.5662C50.1455 38.3569 50.3753 36.5875 50.7692 35.2579C51.3864 33.1701 52.5993 31.5336 54.4082 30.3485ZM77.5027 42.2798C82.8208 42.549 87.786 43.698 92.3983 45.7268C92.7266 45.8712 93.0631 45.9878 93.4078 46.0764C94.4944 46.3456 94.9081 46.2208 94.6487 45.7021C94.5851 45.5721 94.4586 45.4615 94.2942 45.3919C90.1611 43.5765 85.8902 42.2848 81.4814 41.5166C78.5171 41.0012 75.6265 40.8059 72.8099 40.9306C69.898 41.0619 67.0141 41.4624 64.1581 42.1321C62.2672 42.572 60.4797 43.2679 58.7956 44.22C58.3722 44.4596 57.9914 44.8798 57.6532 45.4806C57.3479 46.0255 57.4809 46.1716 58.0521 45.9188C64.25 43.1514 70.7335 41.9384 77.5027 42.2798ZM86.706 50.1487C86.8255 50.287 86.9724 50.3994 87.1375 50.479C87.3026 50.5586 87.4826 50.6037 87.6662 50.6116C91.7894 50.7823 95.4251 51.4569 98.5733 52.6354C98.6045 52.6469 98.6376 52.6523 98.6707 52.6513C98.7037 52.6503 98.7361 52.643 98.7658 52.6297C98.7956 52.6164 98.8222 52.5975 98.8441 52.5739C98.866 52.5504 98.8827 52.5227 98.8934 52.4926C99.1363 51.8229 99.1182 51.1532 98.8392 50.4836C98.7817 50.3432 98.6709 50.2202 98.524 50.1339C95.3332 48.3153 91.9125 47.4519 88.262 47.5438C87.5496 47.5602 87.008 47.7325 86.637 48.0608C85.9838 48.6386 86.0067 49.3346 86.706 50.1487ZM70.5842 48.1446C70.4433 47.9495 70.2561 47.7924 70.0395 47.6876C69.8229 47.5827 69.5837 47.5333 69.3433 47.5438C66.0309 47.685 63.0895 48.1643 60.5191 48.9817C59.3701 49.3461 58.5478 49.8139 58.0521 50.3851C57.4743 51.0449 57.4727 51.7326 58.0472 52.4483C58.0911 52.5021 58.152 52.5412 58.2222 52.5605C58.2923 52.5798 58.3685 52.5784 58.4411 52.5566C61.8224 51.5291 65.2742 50.8758 68.7967 50.5968C69.5452 50.5377 70.0885 50.3949 70.4266 50.1684C71.1554 49.6727 71.2079 48.9981 70.5842 48.1446ZM81.0087 54.7036C80.0665 59.4308 80.3111 64.0924 81.7424 68.6883C81.7555 68.7277 81.8606 68.9919 82.0575 69.4811C82.4285 70.3904 82.2118 71.157 81.4075 71.7807C80.3997 72.5653 79.2589 73.2054 77.9852 73.7011C77.7554 73.7897 77.762 73.8603 78.0049 73.9128C79.666 74.2641 81.2926 74.1952 82.8848 73.706C83.7777 73.4303 84.4096 72.9723 84.7806 72.3322C85.1713 71.6461 85.3715 70.832 85.3814 69.8898C85.7983 69.3613 86.4171 69.271 87.2378 69.619C87.8747 73.752 90.2202 75.6806 94.2745 75.4049C97.0878 75.2145 99.0559 73.8948 100.179 71.4459C100.632 70.4577 100.814 69.5385 100.725 68.6883C100.63 67.7593 100.275 66.8483 99.6615 65.9554C98.5027 64.2746 96.9943 63.3144 95.1362 63.0747C91.5054 62.6053 88.9957 64.007 87.6071 67.28C87.4692 67.3949 87.3445 67.4343 87.2329 67.3981C87.1767 67.3804 87.1323 67.3307 87.1085 67.2594C87.0847 67.188 87.0834 67.1003 87.1048 67.0141C87.4069 65.806 87.4988 64.7867 87.3806 63.9561C87.0884 61.9011 87.0129 60.2187 87.1541 58.9088C88.3293 57.8485 89.6769 57.2576 91.1968 57.1361C91.466 59.7854 92.6544 60.6668 94.762 59.7804C94.9871 59.6859 95.1788 59.5261 95.3122 59.3216C95.4457 59.1171 95.5147 58.8772 95.5104 58.6331C95.494 57.6647 95.261 56.798 94.8112 56.0331L98.8146 58.6774C98.8752 58.7159 98.9365 58.7437 98.9913 58.7576C99.0462 58.7716 99.0925 58.7711 99.1248 58.7562C99.2233 58.7135 99.2249 58.6183 99.1297 58.4706C97.5343 56.0643 95.2593 54.8152 92.3048 54.7233C90.2662 54.6609 88.871 54.7085 88.1192 54.8661C87.6793 54.8365 87.3067 54.5821 87.0014 54.1028C86.706 53.6367 86.2809 53.397 85.7261 53.3839C84.5869 53.3576 83.9813 52.9949 83.909 52.2957C83.8982 52.2053 83.8743 52.1221 83.8392 52.0528C83.8042 51.9835 83.7589 51.9301 83.7071 51.8968C83.3296 51.6571 83.003 51.7474 82.7272 52.1676C82.1856 52.9883 81.6127 53.8336 81.0087 54.7036ZM62.021 57.6975C61.9094 58.7217 62.1704 59.4341 62.8039 59.8346C63.339 60.1694 63.8971 60.2252 64.4782 60.002C65.0822 59.7689 65.4532 59.2404 65.591 58.4164C65.7388 57.5366 65.8192 56.8472 65.8323 56.3483C67.4901 56.3121 68.887 56.9195 70.0228 58.1702C70.3018 58.4755 70.3839 58.4345 70.269 58.0471C69.6026 55.7787 68.2731 54.5247 66.2804 54.285C64.9673 54.1274 63.6082 54.2095 62.2032 54.5312C60.0759 55.0138 58.6069 56.4697 57.796 58.899C57.6713 59.2732 57.7977 59.3848 58.1752 59.2338L62.021 57.6975ZM105.088 57.2641C103.584 56.8275 102.701 57.1821 102.439 58.3278C102.436 58.3573 102.37 59.1337 102.242 60.6569C102.12 62.1276 102.156 63.5212 102.35 64.8376C102.468 65.6484 102.926 65.9685 103.724 65.7978C105.411 65.44 106.413 64.5602 106.728 63.1584C106.898 62.4067 106.928 61.5384 106.816 60.5535C106.718 59.6967 106.45 58.8514 106.014 58.0176C105.917 57.8367 105.785 57.6769 105.626 57.5475C105.467 57.4182 105.284 57.3218 105.088 57.2641ZM46.7264 65.0936C47.4979 65.7042 48.2776 65.8109 49.0654 65.4137C49.6465 65.1215 50.0782 64.5864 50.3605 63.8084C50.8857 62.3443 50.8907 60.8391 50.3753 59.2929C50.3503 59.218 50.3108 59.149 50.2593 59.0898C50.2077 59.0306 50.145 58.9825 50.0749 58.9482C48.9522 58.4033 47.9197 58.3672 46.9776 58.8399C46.0781 59.2896 45.5052 60.0775 45.259 61.2035C44.9176 62.7595 45.4068 64.0563 46.7264 65.0936ZM67.3873 68.3399C67.2875 67.5384 67.0201 66.7657 66.6005 66.066C66.181 65.3663 65.6174 64.7533 64.9419 64.2619C64.2665 63.7705 63.4925 63.4104 62.664 63.2021C61.8355 62.9938 60.9688 62.9415 60.1135 63.048C58.3859 63.2632 56.8093 64.1126 55.7303 65.4093C54.6513 66.706 54.1584 68.3438 54.36 69.9625C54.4599 70.7639 54.7272 71.5366 55.1468 72.2363C55.5663 72.936 56.1299 73.549 56.8054 74.0404C57.4808 74.5318 58.2549 74.8919 59.0833 75.1002C59.9118 75.3085 60.7785 75.3609 61.6339 75.2543C63.3614 75.0391 64.938 74.1898 66.017 72.8931C67.096 71.5963 67.5889 69.9585 67.3873 68.3399ZM74.1838 83.0128L76.3947 83.5249C76.4563 83.5396 76.5118 83.5746 76.5534 83.625C76.5949 83.6754 76.6204 83.7386 76.6261 83.8056C76.6458 84.0485 76.7739 84.2537 77.0102 84.4211C78.412 85.4256 79.8088 85.4453 81.2007 84.4802C81.6078 84.1979 81.5651 84.0452 81.0727 84.0222C80.3899 83.9894 79.7038 84.0354 79.0144 84.1601C78.4399 84.2619 77.931 84.1798 77.4879 83.9139C77.3401 83.8253 77.3516 83.7514 77.5223 83.6923C78.6746 83.282 79.4888 83.1556 79.9648 83.3131C81.0776 83.6841 81.9558 83.4789 82.5992 82.6976C85.6161 81.4567 87.855 79.446 89.3158 76.6655C89.5128 76.2945 89.4061 76.1517 88.9957 76.2371C81.9673 77.7275 74.9109 77.7209 67.8266 76.2174C67.0519 76.0533 66.8253 76.3323 67.1471 77.0545C68.5619 80.229 70.9075 82.2151 74.1838 83.0128ZM73.3473 111.729C73.3483 111.673 73.3382 111.617 73.3175 111.565C73.2969 111.512 73.2662 111.465 73.2271 111.424C73.188 111.384 73.1414 111.351 73.0898 111.329C73.0382 111.306 72.9827 111.294 72.9264 111.293L72.8969 111.293C72.7833 111.291 72.6735 111.334 72.5918 111.413C72.5101 111.492 72.4631 111.6 72.4611 111.714L72.3316 119.128C72.3306 119.185 72.3407 119.24 72.3613 119.293C72.382 119.345 72.4127 119.393 72.4518 119.433C72.4909 119.474 72.5375 119.506 72.5891 119.529C72.6407 119.551 72.6962 119.563 72.7525 119.564L72.782 119.565C72.8956 119.567 73.0054 119.523 73.0871 119.445C73.1688 119.366 73.2158 119.257 73.2178 119.144L73.3473 111.729Z" fill="#AC543C"/>
<path d="M77.5026 42.2799C70.7335 41.9384 64.2499 43.1514 58.052 45.9188C57.4808 46.1716 57.3479 46.0255 57.6532 45.4806C57.9913 44.8798 58.3721 44.4596 58.7956 44.22C60.4797 43.268 62.2671 42.572 64.158 42.1321C67.0141 41.4624 69.898 41.0619 72.8098 40.9306C75.6265 40.8059 78.517 41.0012 81.4813 41.5166C85.8901 42.2848 90.161 43.5766 94.2941 45.3919C94.4585 45.4615 94.585 45.5722 94.6486 45.7022C94.908 46.2209 94.4943 46.3456 93.4077 46.0764C93.063 45.9878 92.7266 45.8712 92.3983 45.7268C87.786 43.698 82.8207 42.549 77.5026 42.2799Z" fill="#973F33"/>
<path d="M86.7058 50.1487C86.0066 49.3345 85.9836 48.6385 86.6369 48.0608C87.0078 47.7325 87.5495 47.5602 88.2619 47.5437C91.9123 47.4518 95.333 48.3152 98.5239 50.1339C98.6707 50.2202 98.7816 50.3432 98.839 50.4835C99.1181 51.1532 99.1361 51.8229 98.8932 52.4926C98.8826 52.5227 98.8659 52.5503 98.844 52.5739C98.8221 52.5974 98.7955 52.6164 98.7657 52.6297C98.7359 52.6429 98.7036 52.6503 98.6705 52.6513C98.6374 52.6522 98.6043 52.6469 98.5731 52.6354C95.4249 51.4568 91.7892 50.7822 87.666 50.6115C87.4824 50.6037 87.3025 50.5586 87.1374 50.479C86.9722 50.3994 86.8254 50.287 86.7058 50.1487Z" fill="#22151C"/>
<path d="M70.5841 48.1446C71.2078 48.9981 71.1553 49.6727 70.4265 50.1684C70.0884 50.3949 69.5451 50.5377 68.7966 50.5968C65.2742 50.8758 61.8223 51.5291 58.441 52.5566C58.3684 52.5784 58.2922 52.5798 58.2221 52.5605C58.1519 52.5412 58.091 52.5021 58.0471 52.4483C57.4726 51.7327 57.4742 51.0449 58.052 50.3851C58.5477 49.8139 59.37 49.3461 60.519 48.9817C63.0895 48.1643 66.0308 47.685 69.3432 47.5438C69.5836 47.5333 69.8228 47.5827 70.0394 47.6876C70.256 47.7924 70.4432 47.9495 70.5841 48.1446Z" fill="#1E111E"/>
<path d="M88.1192 54.8661C88.1685 55.3749 88.3884 55.8148 88.7791 56.1857C88.8612 56.2627 88.9243 56.3577 88.9632 56.4633C89.0022 56.5689 89.0161 56.6821 89.0036 56.794C88.9912 56.9058 88.9528 57.0132 88.8916 57.1077C88.8304 57.2021 88.7481 57.281 88.6511 57.338C87.8796 57.791 87.3806 58.3147 87.1541 58.9088C87.0129 60.2187 87.0884 61.9011 87.3806 63.9561C87.4988 64.7867 87.4069 65.806 87.1048 67.0141C87.0834 67.1003 87.0847 67.188 87.1085 67.2594C87.1323 67.3307 87.1767 67.3804 87.2329 67.3981C87.3445 67.4343 87.4692 67.3949 87.6071 67.28L87.2378 69.619C86.4171 69.271 85.7983 69.3613 85.3814 69.8898C82.1281 65.4022 80.6706 60.3401 81.0087 54.7036C81.6127 53.8336 82.1856 52.9883 82.7272 52.1676C83.003 51.7474 83.3296 51.6571 83.7071 51.8968C83.7589 51.9301 83.8042 51.9835 83.8392 52.0528C83.8743 52.1221 83.8982 52.2053 83.909 52.2956C83.9813 52.9949 84.5869 53.3576 85.7261 53.3839C86.2809 53.397 86.706 53.6367 87.0014 54.1028C87.3067 54.5821 87.6793 54.8365 88.1192 54.8661Z" fill="#9C4534"/>
<path d="M65.8323 56.3482C64.03 55.6982 62.7596 56.148 62.021 57.6974L58.1752 59.2338C57.7976 59.3848 57.6712 59.2732 57.796 58.899C58.6068 56.4697 60.0759 55.0138 62.2031 54.5312C63.6082 54.2095 64.9673 54.1274 66.2804 54.285C68.273 54.5246 69.6026 55.7787 70.269 58.0471C70.3839 58.4344 70.3018 58.4755 70.0228 58.1702C68.8869 56.9194 67.4901 56.3121 65.8323 56.3482Z" fill="#84362C"/>
<path d="M94.8112 56.033C93.0483 55.5603 91.8435 55.928 91.1968 57.1361C89.6769 57.2575 88.3293 57.8484 87.1541 58.9088C87.3806 58.3146 87.8796 57.791 88.651 57.3379C88.748 57.2809 88.8304 57.202 88.8916 57.1076C88.9528 57.0131 88.9912 56.9057 89.0036 56.7939C89.016 56.682 89.0022 56.5688 88.9632 56.4632C88.9242 56.3576 88.8612 56.2626 88.7791 56.1857C88.3884 55.8147 88.1684 55.3748 88.1192 54.866C88.871 54.7084 90.2662 54.6608 92.3048 54.7232C95.2593 54.8151 97.5343 56.0642 99.1297 58.4705C99.2249 58.6182 99.2233 58.7134 99.1248 58.7561C99.0925 58.771 99.0462 58.7715 98.9913 58.7575C98.9364 58.7436 98.8752 58.7158 98.8145 58.6773L94.8112 56.033Z" fill="#7F3228"/>
<path d="M81.0086 54.7036C80.6705 60.3401 82.1281 65.4022 85.3813 69.8898C85.3715 70.8319 85.1712 71.6461 84.7806 72.3322C84.4096 72.9723 83.7777 73.4302 82.8848 73.706C81.2926 74.1951 79.666 74.2641 78.0049 73.9128C77.762 73.8603 77.7554 73.7897 77.9852 73.7011C79.2589 73.2054 80.3997 72.5652 81.4075 71.7807C82.2118 71.1569 82.4285 70.3904 82.0575 69.481C81.8605 68.9919 81.7555 68.7276 81.7423 68.6882C80.311 64.0923 80.0665 59.4308 81.0086 54.7036Z" fill="#7F3228"/>
<path d="M94.8111 56.033C95.2609 56.7979 95.494 57.6646 95.5104 58.633C95.5146 58.8772 95.4456 59.117 95.3122 59.3215C95.1787 59.5261 94.9871 59.6859 94.7619 59.7804C92.6543 60.6667 91.466 59.7853 91.1968 57.1361C91.8435 55.928 93.0483 55.5603 94.8111 56.033Z" fill="#4B1F1C"/>
<path d="M65.8322 56.3483C65.8191 56.8472 65.7387 57.5366 65.591 58.4164C65.4531 59.2404 65.0821 59.7689 64.4781 60.002C63.897 60.2252 63.339 60.1694 62.8039 59.8346C62.1703 59.4341 61.9093 58.7217 62.0209 57.6975C62.7596 56.148 64.03 55.6983 65.8322 56.3483Z" fill="#482729"/>
<path d="M105.088 57.2641C105.284 57.3218 105.467 57.4181 105.626 57.5475C105.785 57.6768 105.917 57.8366 106.014 58.0175C106.45 58.8513 106.718 59.6967 106.816 60.5535C106.928 61.5383 106.898 62.4066 106.728 63.1584C106.413 64.5601 105.411 65.4399 103.724 65.7977C102.926 65.9684 102.468 65.6483 102.35 64.8375C102.157 63.5211 102.12 62.1276 102.242 60.6569C102.37 59.1336 102.436 58.3573 102.439 58.3277C102.701 57.182 103.585 56.8275 105.088 57.2641Z" fill="#9F4035"/>
<path d="M46.7262 65.0937C45.4065 64.0563 44.9174 62.7596 45.2588 61.2035C45.505 60.0775 46.0779 59.2897 46.9774 58.8399C47.9195 58.3672 48.952 58.4033 50.0747 58.9483C50.1448 58.9825 50.2075 59.0306 50.2591 59.0898C50.3106 59.149 50.35 59.2181 50.375 59.293C50.8904 60.8392 50.8855 62.3443 50.3603 63.8085C50.078 64.5865 49.6463 65.1216 49.0652 65.4138C48.2773 65.811 47.4977 65.7043 46.7262 65.0937Z" fill="#973F33"/>
<path d="M27.6846 113.114C27.505 113.079 27.3398 112.992 27.2094 112.864C27.0789 112.737 26.9891 112.573 26.9509 112.395C26.6358 110.935 26.4683 109.479 26.4486 108.028C26.2714 94.0331 26.3518 80.0385 26.6899 66.0439C26.7096 65.2167 26.882 64.4206 27.207 63.6557C27.4794 63.0123 27.8947 62.5149 28.4528 62.1637C29.0634 61.7763 29.6576 61.6795 30.2353 61.8732C30.9641 62.1128 31.3072 62.7661 31.2645 63.833C30.667 79.7119 30.1139 95.594 29.605 111.479C29.5624 112.806 28.9222 113.351 27.6846 113.114Z" fill="#599B97"/>
<path d="M61.6338 75.2543C65.2312 74.8062 67.8071 71.7105 67.3873 68.3398C66.9674 64.9692 63.7108 62.5999 60.1135 63.048C56.5161 63.4961 53.9402 66.5918 54.36 69.9625C54.7799 73.3332 58.0365 75.7024 61.6338 75.2543Z" fill="#913C32"/>
<path d="M87.2378 69.619L87.6071 67.28C88.9957 64.0071 91.5054 62.6053 95.1362 63.0748C96.9943 63.3144 98.5027 64.2746 99.6615 65.9554C100.275 66.8483 100.63 67.7593 100.725 68.6883C100.814 69.5386 100.632 70.4578 100.179 71.4459C99.0558 73.8949 97.0878 75.2146 94.2745 75.405C90.2202 75.6807 87.8747 73.7521 87.2378 69.619Z" fill="#913C32"/>
<path d="M23.376 102.586C22.8015 102.206 22.4289 101.639 22.2582 100.888C21.9792 99.6729 21.8856 96.9646 21.9775 92.7626C22.1351 85.4518 22.4535 78.1493 22.9328 70.8549C22.9919 69.9291 23.2693 69.0756 23.765 68.2943C24.136 67.7132 24.4232 67.7756 24.6267 68.4814C24.9583 69.6107 25.111 70.7712 25.0847 71.9628C24.891 80.8625 24.7859 89.7654 24.7695 98.6717C24.7663 99.7812 24.7088 100.896 24.5972 102.015C24.5086 102.879 24.1015 103.069 23.376 102.586Z" fill="#599B97"/>
<path d="M32.4956 73.2677C32.8829 72.6604 33.2424 72.516 33.574 72.8344C33.7447 72.9985 33.8333 73.2645 33.8399 73.6321C33.9384 78.6253 33.6495 83.597 32.9732 88.5475C32.9478 88.7222 32.8761 88.8708 32.7713 88.966C32.3774 89.3304 32.0015 89.3075 31.6437 88.8971C31.5453 88.7858 31.4893 88.6283 31.4861 88.4539C31.4369 83.7661 31.6437 79.0799 32.1066 74.3954C32.1492 73.9883 32.2789 73.6124 32.4956 73.2677Z" fill="#599B97"/>
<path d="M82.5991 82.6976C79.7923 82.6122 76.9872 82.7173 74.1837 83.0127C70.9074 82.215 68.5618 80.2289 67.147 77.0544C66.8252 76.3322 67.0518 76.0532 67.8265 76.2173C74.9108 77.7209 81.9672 77.7274 88.9956 76.237C89.406 76.1517 89.5127 76.2945 89.3157 76.6654C87.8549 79.446 85.616 81.4567 82.5991 82.6976Z" fill="#FDFDFD"/>
<path d="M82.5993 82.6976C81.9558 83.4789 81.0777 83.6841 79.9648 83.3131C79.4888 83.1555 78.6747 83.2819 77.5224 83.6923C77.3517 83.7514 77.3402 83.8252 77.488 83.9139C77.9311 84.1798 78.44 84.2618 79.0145 84.1601C79.7039 84.0353 80.39 83.9894 81.0728 84.0222C81.5652 84.0452 81.6079 84.1978 81.2008 84.4801C79.8089 85.4453 78.4121 85.4256 77.0103 84.421C76.774 84.2536 76.6459 84.0485 76.6262 83.8055C76.6205 83.7385 76.595 83.6753 76.5535 83.625C76.5119 83.5746 76.4564 83.5395 76.3948 83.5248L74.1838 83.0127C76.9873 82.7173 79.7925 82.6122 82.5993 82.6976Z" fill="#822528"/>
<path d="M18.2942 106.708C17.7559 106.051 17.3784 105.328 17.1617 104.536C17.0927 104.284 16.9696 103.492 16.7924 102.163C16.126 97.1501 16.1374 92.1668 16.8268 87.2131C16.9286 86.4679 17.3504 86.0313 18.0923 85.9032C19.4087 85.6767 20.0735 86.2397 20.0867 87.5922C20.1589 95.5727 20.2672 100.456 20.4116 102.242C20.5298 103.726 20.3197 105.139 19.7813 106.481C19.4137 107.397 18.918 107.473 18.2942 106.708Z" fill="#599B97"/>
<path d="M90.1925 92.3933V93.9936C90.0415 94.2628 89.8018 94.3449 89.4735 94.2399C89.1091 94.125 88.9269 94.2382 88.9269 94.5796C88.9268 94.6627 88.9117 94.7421 88.8827 94.812C88.8538 94.8819 88.8116 94.9405 88.7595 94.9834C86.084 97.1829 83.1115 98.4812 79.8418 98.8784C77.3173 99.187 74.6008 98.8079 71.6923 97.7409C67.4673 96.1882 63.7233 93.777 60.4602 90.5073C60.2993 90.3497 60.2665 90.2546 60.3617 90.2217C60.396 90.2084 60.4393 90.2082 60.487 90.2212C60.5347 90.2343 60.585 90.2599 60.6325 90.2956C65.4254 93.8705 70.7353 95.7778 76.5623 96.0175C78.962 96.116 81.3043 95.8369 83.5891 95.1804C85.8871 94.5205 88.0882 93.5915 90.1925 92.3933Z" fill="#8C3831"/>
<path d="M94.826 106.014L119.738 116.645C119.764 116.743 119.719 116.857 119.605 116.985C112.655 124.515 104.44 130.178 94.959 133.973C94.9244 133.988 94.8867 133.994 94.8494 133.99C94.812 133.986 94.7761 133.972 94.7448 133.951C94.7136 133.93 94.688 133.901 94.6704 133.867C94.6527 133.833 94.6436 133.795 94.6438 133.757L94.89 113.301C95.0607 111.033 95.0394 108.604 94.826 106.014Z" fill="#599B97"/>
<path d="M52.1725 106.693C54.2111 109.329 56.8275 112.41 60.0216 115.936C61.5383 117.613 62.8875 118.93 64.0693 119.885C67.1748 124.327 67.5047 128.985 65.0591 133.86C64.1924 135.593 63.1337 136.821 61.883 137.543C61.1837 137.95 60.4352 138.093 59.6375 137.972C44.9503 135.772 32.4166 129.463 22.0364 119.043C22.1972 118.79 22.368 118.626 22.5485 118.551C27.8043 116.355 33.0157 114.058 38.1828 111.662C38.7146 111.416 39.148 111.388 39.4828 111.578C39.6405 111.667 39.8257 111.694 40.0023 111.654C40.1789 111.614 40.3342 111.51 40.4381 111.361C41.1537 110.344 42.1829 109.896 43.5256 110.017C43.6946 110.032 43.8647 110.007 44.0214 109.944C44.1782 109.881 44.3172 109.781 44.4267 109.653C45.1588 108.802 46.142 108.491 47.3763 108.717C47.4523 108.731 47.5299 108.729 47.6038 108.711C47.6777 108.693 47.7461 108.66 47.8047 108.614C49.085 107.593 50.5409 106.953 52.1725 106.693ZM53.1327 124.066C53.4807 124.289 53.653 124.194 53.6497 123.78C53.6464 123.255 53.548 122.748 53.3543 122.259C52.2578 119.475 51.0777 116.725 49.8138 114.011C49.7087 113.787 49.607 113.602 49.5085 113.454C48.9603 112.643 48.7042 112.763 48.7403 113.814C48.7469 114.024 48.7879 114.244 48.8634 114.473C49.8614 117.415 51.0087 120.296 52.3054 123.115C52.4893 123.513 52.765 123.829 53.1327 124.066ZM50.1732 126.031C50.705 126.398 50.879 126.306 50.6952 125.755C49.4576 122.039 47.9738 118.426 46.2437 114.917C46.0829 114.588 45.922 114.347 45.7611 114.193C45.3016 113.743 44.9585 113.866 44.732 114.562C44.6845 114.705 44.6932 114.87 44.7566 115.025C46.0139 118.042 47.3533 121.023 48.7747 123.967C48.7912 123.997 48.888 124.228 49.0653 124.662C49.2951 125.226 49.6644 125.683 50.1732 126.031ZM36.1296 119.203C36.2122 119.132 36.2766 119.042 36.319 118.937C36.3614 118.832 36.381 118.715 36.3768 118.592C36.3725 118.468 36.3445 118.342 36.2942 118.219C36.244 118.096 36.1725 117.979 36.0839 117.876C35.9049 117.666 35.667 117.522 35.4225 117.474C35.178 117.427 34.9469 117.48 34.78 117.623C34.6974 117.693 34.6331 117.784 34.5907 117.888C34.5483 117.993 34.5286 118.111 34.5328 118.234C34.5371 118.357 34.5651 118.484 34.6154 118.607C34.6657 118.73 34.7371 118.846 34.8258 118.95C35.0047 119.16 35.2426 119.304 35.4871 119.351C35.7316 119.399 35.9627 119.345 36.1296 119.203Z" fill="#FD9148"/>
<path d="M72.9264 111.293L72.8968 111.293C72.6603 111.289 72.4652 111.477 72.461 111.714L72.3316 119.128C72.3275 119.365 72.5159 119.56 72.7525 119.564L72.782 119.565C73.0186 119.569 73.2137 119.38 73.2178 119.144L73.3472 111.729C73.3514 111.493 73.163 111.298 72.9264 111.293Z" fill="#913C32"/>
<path d="M53.1328 124.066C52.7651 123.829 52.4894 123.513 52.3055 123.115C51.0088 120.296 49.8615 117.415 48.8635 114.473C48.788 114.244 48.747 114.024 48.7404 113.814C48.7043 112.763 48.9604 112.643 49.5086 113.454C49.6071 113.602 49.7088 113.787 49.8139 114.011C51.0778 116.725 52.2579 119.475 53.3544 122.259C53.5481 122.748 53.6465 123.255 53.6498 123.78C53.6531 124.194 53.4808 124.289 53.1328 124.066Z" fill="#DC6232"/>
<path d="M50.1734 126.03C49.6645 125.683 49.2952 125.226 49.0654 124.662C48.8882 124.228 48.7913 123.997 48.7749 123.967C47.3534 121.023 46.0141 118.042 44.7568 115.025C44.6933 114.87 44.6846 114.705 44.7322 114.562C44.9587 113.866 45.3017 113.743 45.7613 114.193C45.9221 114.347 46.083 114.588 46.2439 114.917C47.9739 118.426 49.4577 122.039 50.6953 125.755C50.8792 126.306 50.7052 126.398 50.1734 126.03Z" fill="#DC6232"/>
<path d="M34.8258 118.95C35.1985 119.386 35.7823 119.5 36.1297 119.203C36.4771 118.906 36.4566 118.312 36.084 117.876C35.7113 117.439 35.1275 117.326 34.7801 117.623C34.4327 117.919 34.4532 118.514 34.8258 118.95Z" fill="#D16047"/>
</svg>
