<svg width="138" height="140" viewBox="0 0 138 140" fill="none" xmlns="http://www.w3.org/2000/svg">
<path d="M14.2417 111.154C16.9434 114.548 19.8126 117.773 22.8492 120.83C22.9078 120.888 22.982 120.928 23.0625 120.944C23.143 120.961 23.2263 120.954 23.3022 120.923C27.0774 119.413 30.8724 117.964 34.687 116.575C36.1117 116.053 36.8027 116.569 36.76 118.121C36.7207 119.53 36.7305 123.704 36.7896 130.644C36.7894 130.721 36.8108 130.796 36.8512 130.859C36.8915 130.922 36.9489 130.97 37.0161 130.998L45.9978 134.75C46.0405 134.768 46.0869 134.775 46.1329 134.77C46.179 134.765 46.2232 134.749 46.2616 134.723C46.3001 134.696 46.3317 134.661 46.3535 134.619C46.3754 134.578 46.3868 134.531 46.3868 134.484C46.5575 125.289 46.551 116.183 46.3672 107.165C46.3659 107.087 46.342 107.012 46.2992 106.953C46.2565 106.893 46.1973 106.852 46.1308 106.835L42.7873 105.934C42.6824 105.906 42.5842 105.856 42.4994 105.79C42.4146 105.723 42.3453 105.641 42.2962 105.548C42.2471 105.456 42.2193 105.355 42.2149 105.253C42.2104 105.152 42.2293 105.051 42.2702 104.959C43.5801 101.985 45.205 99.1287 47.1452 96.3908C47.7164 95.5833 48.5732 95.4306 49.7156 95.9329C51.3734 96.6584 53.0444 97.3921 54.7284 98.134" stroke="#FEC8A3" stroke-width="2"/>
<path d="M54.7285 98.134L61.2383 101.256" stroke="#FEDDD5" stroke-width="2"/>
<path d="M61.2383 101.256C62.0885 106.423 63.0898 110.722 64.242 114.152C65.1908 116.976 66.7107 120.168 68.8019 123.73" stroke="#FAC1BB" stroke-width="2"/>
<path d="M68.8017 123.73C68.4833 128.129 68.3864 132.515 68.5112 136.887C68.5112 136.914 68.503 137.122 68.4865 137.513C68.4603 138.146 68.764 138.36 69.3975 138.153C69.5486 138.104 69.7078 138.084 69.8752 138.094C70.128 138.11 70.3692 138.081 70.599 138.005C70.6665 137.982 70.7252 137.937 70.7667 137.876C70.8082 137.815 70.8305 137.742 70.8305 137.665C70.8666 133.779 70.8764 129.89 70.86 126C70.8567 124.94 70.7271 124.078 70.471 123.415" stroke="#FBC5A1" stroke-width="2"/>
<path d="M70.4709 123.415L70.6334 123.169" stroke="#FAC1BB" stroke-width="2"/>
<path d="M70.6335 123.169C72.2881 120.887 73.5864 118.415 74.5286 115.753C76.1667 111.144 77.1105 106.533 77.36 101.921C77.3994 101.241 77.7441 100.744 78.3941 100.429L85.7558 96.8438" stroke="#FEDDD5" stroke-width="2"/>
<path d="M85.7559 96.8437L88.4691 95.9278C88.6921 95.8523 88.9313 95.8469 89.1518 95.9124C89.3723 95.978 89.5627 96.111 89.6952 96.2922C91.9374 99.3551 93.8299 102.454 95.3728 105.589C95.4075 105.661 95.4243 105.739 95.4217 105.816C95.4191 105.892 95.3972 105.965 95.358 106.027C94.9904 106.605 94.4257 106.884 93.6641 106.864C92.6038 106.841 92.1163 107.257 92.2016 108.11C92.2542 108.619 92.2804 108.893 92.2804 108.933C92.3198 117.402 92.2903 125.849 92.1918 134.273C92.1917 134.313 92.2012 134.352 92.2195 134.388C92.2378 134.423 92.2643 134.454 92.2966 134.476C92.3288 134.499 92.3659 134.513 92.4044 134.517C92.4428 134.521 92.4814 134.515 92.5168 134.499L101.676 130.486C101.811 130.428 101.925 130.328 102.006 130.199C102.086 130.071 102.129 129.919 102.129 129.762C102.129 126.729 102.129 123.777 102.129 120.908C102.129 119.543 102.132 118.835 102.139 118.786C102.28 117.673 102.884 117.153 103.951 117.225C104.407 117.255 105.223 117.512 106.398 117.998C108.837 119.003 111.316 120.005 113.834 121.007C113.925 121.042 114.024 121.05 114.12 121.03C114.216 121.01 114.305 120.963 114.375 120.893C117.842 117.433 121.057 113.683 124.022 109.642" stroke="#FEC8A3" stroke-width="2"/>
<path d="M124.022 109.642C128.092 104.035 131.126 97.9879 133.122 91.501C138.098 75.3004 137.589 59.4725 131.595 44.017C130.38 40.8951 128.97 37.9357 127.365 35.1387C121.285 24.5615 112.875 16.1576 102.134 9.92686C92.689 4.44459 82.1414 1.48513 70.4908 1.04852C62.4184 0.746502 54.6628 1.85445 47.2239 4.37235C34.7526 8.59403 24.4282 15.7489 16.2508 25.8369C14.2023 28.3581 12.3409 31.0582 10.6667 33.9372C3.33624 46.5399 0.174898 60.28 1.18272 75.1576C2.07892 88.3873 6.4319 100.386 14.2417 111.153" stroke="#DFD6DE" stroke-width="2"/>
<path d="M124.022 109.642C122.344 108.966 121.09 107.941 120.26 106.569C119.679 105.611 119.526 104.652 119.802 103.693C120.097 102.663 120.736 101.812 121.717 101.143C123.191 100.141 124.385 98.9071 125.297 97.4397C125.97 96.3596 126.359 95.2977 126.464 94.2537C126.582 93.0555 126.39 91.9016 125.888 90.792C125.366 89.6397 124.641 88.5892 123.712 87.6405C123.521 87.4501 122.52 86.6819 120.708 85.336C119.894 84.732 119.134 84.0656 118.428 83.3368C117.804 82.6966 117.466 82.0614 117.413 81.4311C117.338 80.5382 117.67 79.8111 118.408 79.2497C121.136 77.1881 122.727 74.6587 123.18 71.6615C123.459 69.8461 123.259 68.1916 122.579 66.6979C121.85 65.0894 120.672 63.7844 119.043 62.7832C116.732 61.3683 114.433 59.9304 112.145 58.4696C108.573 56.1946 106.754 53.0595 106.689 49.0644C106.672 48.0861 106.859 46.7008 107.25 44.9084C107.545 43.5427 107.847 42.1771 108.156 40.8114C108.734 38.2508 108.921 35.664 108.717 33.0509C108.323 28.0479 106.433 23.7245 103.045 20.0806C100.097 16.9094 96.4266 15.286 92.0342 15.2105C91.5451 15.2007 91.0756 15.199 90.6259 15.2056C90.5613 15.2058 90.4976 15.1917 90.4397 15.1644C90.3818 15.1371 90.331 15.0974 90.2911 15.048C87.8125 12.0837 84.9237 9.95641 81.6245 8.66627C79.2444 7.73724 76.1159 7.29573 72.2389 7.34169C65.6175 7.42048 59.1619 8.46931 52.8721 10.4882C49.3792 11.6077 46.3886 12.9421 43.9002 14.4916C36.5402 19.0744 31.6094 25.745 29.1079 34.5035C27.8966 38.7383 27.7505 42.9912 28.6697 47.2621C28.6762 47.2818 28.8683 47.9597 29.2458 49.2958C29.9024 51.6069 29.7546 53.8014 28.8026 55.8795C28.3069 56.9661 27.5453 57.9575 26.5178 58.8537C25.7135 59.5562 24.7057 60.3227 23.4943 61.1533C21.1439 62.7684 19.6666 63.9174 19.0626 64.6002C17.5426 66.327 16.7941 68.2458 16.8171 70.3566C16.8532 73.4753 18.1401 76.0441 20.6777 78.063C21.8726 79.0117 22.5555 79.6847 22.7262 80.0819C23.1595 81.093 23.1086 82.068 22.5735 83.0069C22.3372 83.4205 21.5755 84.0951 20.2887 85.0307C19.2021 85.8251 18.1828 86.6951 17.2308 87.6405C16.1376 88.7238 15.3546 89.794 14.8819 90.8511C13.49 93.9632 14.1154 96.8783 16.758 99.5965C17.3654 100.223 18.0071 100.813 18.6834 101.364C20.64 102.96 21.0897 104.576 20.0326 106.215C19.6945 106.74 18.7523 107.584 17.2061 108.746C16.1885 109.511 15.2003 110.313 14.2418 111.154" stroke="#DFA083" stroke-width="2"/>
<path d="M85.7559 96.8438C85.2208 95.8032 85.0632 94.6887 85.2831 93.5003" stroke="#FDA77A" stroke-width="2"/>
<path d="M85.283 93.5003C89.613 91.8852 92.7563 88.9979 94.7128 84.8386" stroke="#E1743E" stroke-width="2"/>
<path d="M94.7129 84.8386C95.271 84.6384 95.8914 84.4332 96.5742 84.2231C97.3884 83.9736 97.3211 83.6453 96.3723 83.2383" stroke="#F9C095" stroke-width="2"/>
<path d="M96.3723 83.2382C97.7938 82.2337 99.248 81.2636 100.735 80.3281C101.717 79.7076 102.408 79.0527 102.808 78.3633C103.557 77.0699 103.934 75.6172 103.941 74.0054" stroke="#E1743E" stroke-width="2"/>
<path d="M103.941 74.0054C104.138 74.2188 104.478 74.3977 104.96 74.5422C105.817 74.7949 106.055 74.5881 105.674 73.9217C105.589 73.7707 105.543 73.618 105.536 73.4638C105.389 70.739 104.304 68.4608 102.281 66.629" stroke="#FC9C52" stroke-width="2"/>
<path d="M102.281 66.6289C101.372 64.8201 99.8832 63.9272 97.8151 63.9502C97.6524 63.9502 97.4983 63.9 97.3768 63.8074L96.9583 63.4824" stroke="#E1743E" stroke-width="2"/>
<path d="M96.9584 63.4825C96.5645 63.3413 96.3249 63.5399 96.2395 64.0783" stroke="#F9C095" stroke-width="2"/>
<path d="M96.2394 64.0782C95.8652 63.0146 95.765 61.8082 95.939 60.4589" stroke="#E1743E" stroke-width="2"/>
<path d="M95.9392 60.4589L97.0324 61.3207C97.092 61.3665 97.1635 61.3974 97.2412 61.4111C97.3189 61.4247 97.4008 61.4207 97.4804 61.3994C100.809 60.5098 102.17 58.289 101.563 54.737C101.021 51.5855 99.1448 49.9802 95.9342 49.9211C95.8296 49.9198 95.7283 49.8838 95.6463 49.8188C95.5644 49.7537 95.5063 49.6633 95.4812 49.5617C95.0906 47.9236 94.5637 46.3363 93.9005 44.8C93.3031 43.4081 92.9961 42.6924 92.9797 42.653C90.5439 36.7112 87.7552 30.9334 84.6135 25.3199C84.2393 24.6534 83.7764 24.5862 83.2249 25.118C79.0656 29.1558 74.2465 32.2121 68.7675 34.2868C65.8852 35.38 62.2577 36.3074 57.885 37.069C57.8554 37.0723 56.6539 37.2249 54.2805 37.527C52.8984 37.7009 51.2751 38.0062 49.4105 38.4428C45.4153 39.3752 43.3324 41.8455 43.1617 45.8538C43.0927 47.4984 42.9942 49.1431 42.8662 50.7878C42.8071 51.5593 42.5773 51.7152 42.1768 51.2556C42.0553 51.1145 41.929 51.0209 41.7977 50.9749C40.5272 50.5121 39.329 50.4891 38.203 50.906C37.1689 51.2901 36.3466 52.0221 35.736 53.1022C35.1713 54.1067 34.8611 55.2212 34.8053 56.4457C34.6838 59.2328 36.0495 60.9809 38.9022 61.69C38.9759 61.7081 39.0529 61.7071 39.1261 61.6873C39.1993 61.6675 39.2663 61.6295 39.3208 61.5767C40.0102 60.9136 40.803 60.4195 41.6992 60.0945C41.7658 60.0701 41.8386 60.0702 41.9039 60.0947C41.9692 60.1192 42.0225 60.1664 42.0537 60.2275C42.3426 60.7626 42.4181 61.3486 42.2802 61.9854" stroke="#FDA87C" stroke-width="2"/>
<path d="M42.2801 61.9855C41.6169 62.0971 41.1311 62.3958 40.8225 62.8817" stroke="#E3753C" stroke-width="2"/>
<path d="M40.8225 62.8817C40.642 62.1594 40.3908 61.9904 40.0691 62.3745C40.0233 62.4294 39.9647 62.4728 39.898 62.501C39.8312 62.5293 39.7583 62.5416 39.685 62.537C39.2189 62.5041 39.0022 62.7192 39.035 63.182C39.0445 63.3647 39.0153 63.5277 38.9513 63.6498C37.5955 66.2465 36.6304 68.9795 36.0559 71.8486C36.0198 72.0259 35.9311 72.2212 35.79 72.4346C35.5208 72.8449 35.5979 73.0879 36.0214 73.1634C36.0892 73.1762 36.1508 73.2097 36.1962 73.2588C36.2417 73.3078 36.2686 73.3696 36.2726 73.4342C36.3021 74.0481 36.4958 74.5832 36.8536 75.0395" stroke="#FC9B5F" stroke-width="2"/>
<path d="M36.8535 75.0394C37.2376 77.3636 38.1404 79.4236 39.5618 81.2193C40.3694 82.2402 41.4396 82.7638 42.7724 82.7901" stroke="#E3753C" stroke-width="2"/>
<path d="M42.7725 82.7902C43.626 84.6319 44.816 84.8781 46.3425 83.5289" stroke="#F9C095" stroke-width="2"/>
<path d="M46.3425 83.5288C47.2716 86.0106 48.3139 88.1346 49.4694 89.9007C50.6479 91.6931 52.355 92.893 54.5906 93.5003" stroke="#E3753C" stroke-width="2"/>
<path d="M54.5906 93.5003C54.8499 94.9973 54.8959 96.5418 54.7285 98.134" stroke="#FDA77A" stroke-width="2"/>
<path d="M96.9582 63.4824C95.4021 68.5608 94.0693 73.6968 92.9597 78.8902C92.707 80.0654 92.6856 80.9551 92.8957 81.5591C93.4801 83.2432 94.6389 83.8029 96.3722 83.2382" stroke="#DDA38B" stroke-width="2"/>
<path d="M96.2394 64.0782C94.0531 69.5178 92.5693 74.7293 91.788 79.7126C91.4236 82.0368 92.3986 83.7455 94.7129 84.8386" stroke="#DDA38B" stroke-width="2"/>
<path d="M85.2831 93.5002L85.1206 80.9287" stroke="#E18A6F" stroke-width="2"/>
<path d="M85.1206 80.9288C85.2453 80.5348 85.1698 80.218 84.894 79.9784" stroke="#DD6F58" stroke-width="2"/>
<path d="M70.6336 123.168C69.849 121.219 69.2779 119.896 68.92 119.2C67.7185 116.856 66.8371 114.398 66.2757 111.828C66.0459 110.781 66.0148 109.514 66.1822 108.027C66.4021 106.06 65.8375 104.245 64.4883 102.58C63.7726 101.694 62.6893 101.253 61.2383 101.256" stroke="#F9A091" stroke-width="2"/>
<path d="M95.939 60.4589C95.2266 62.4188 94.5176 64.3654 93.8118 66.299C92.9188 68.7414 92.085 70.6339 91.3103 71.9766C89.5934 74.9508 87.4546 77.6181 84.894 79.9784" stroke="#E18B71" stroke-width="2"/>
<path d="M84.8942 79.9784C82.4879 81.7872 80.5084 83.0839 78.9556 83.8685C69.9509 88.4021 61.8243 87.2367 54.5759 80.3724" stroke="#F9A296" stroke-width="2"/>
<path d="M54.576 80.3724C52.6982 78.6883 51.1602 77.1043 49.962 75.6205C47.7232 72.84 45.9997 69.5982 44.7916 65.8952C44.0661 63.6662 43.687 61.6801 43.6541 59.937C43.6541 59.8057 43.6377 59.6973 43.6049 59.612C43.4736 59.2738 43.3258 59.3264 43.1617 59.7695C42.9319 60.3867 43.0074 61.9871 43.3882 64.5706" stroke="#E38B6F" stroke-width="2"/>
<path d="M43.3881 64.5707L42.5264 65.0631" stroke="#F9D6C9" stroke-width="2"/>
<path d="M42.5262 65.0631L42.28 61.9855" stroke="#E38B6F" stroke-width="2"/>
<path d="M102.281 66.629C103.421 69.0385 103.974 71.4973 103.941 74.0054" stroke="#E07F48" stroke-width="2"/>
<path d="M54.576 80.3723C54.2379 80.9468 54.2198 81.3292 54.5218 81.5196" stroke="#DE6F56" stroke-width="2"/>
<path d="M54.5217 81.5197L54.5907 93.5003" stroke="#E38A6D" stroke-width="2"/>
<path d="M46.3425 83.5288C46.8743 81.523 46.8874 79.5107 46.3819 77.4918C45.3018 73.2044 44.3038 68.8974 43.3879 64.5707" stroke="#DEA389" stroke-width="2"/>
<path d="M42.5264 65.0631C43.4882 69.984 44.2745 73.6772 44.8851 76.1425C45.3447 78.0072 45.5909 79.7963 45.6237 81.5099C45.6335 82.068 45.5449 82.4915 45.3578 82.7804C45.0032 83.3384 44.4764 83.3828 43.7771 82.9133C43.4094 82.6671 43.0746 82.6261 42.7726 82.7902" stroke="#DEA389" stroke-width="2"/>
<path d="M36.8535 75.0394C37.3131 70.7226 38.6361 66.6699 40.8224 62.8816" stroke="#E17F52" stroke-width="2"/>
<path d="M85.1207 80.9287C84.7629 81.8577 84.2835 82.6883 83.6828 83.4204C82.5535 84.7893 81.3586 86.0991 80.098 87.3499C78.1546 89.2867 75.9387 90.6639 73.4503 91.4813C70.8701 92.3315 68.3817 92.4809 65.9853 91.9294C63.405 91.3352 61.1645 89.981 59.2637 87.8669C58.2756 86.7672 57.2973 85.6576 56.3289 84.5382C55.935 84.0818 55.6018 83.5976 55.3293 83.0855C55.0535 82.5701 54.7844 82.0482 54.5217 81.5196" stroke="#F9A194" stroke-width="2"/>
<path d="M70.4713 123.415C70.0052 123.743 69.4487 123.848 68.802 123.73" stroke="#F7885E" stroke-width="2"/>
<path d="M13.6911 52.4054C13.9385 52.5078 14.2132 52.5374 14.4995 52.4923C14.7859 52.4473 15.0784 52.3286 15.3602 52.1429C15.642 51.9572 15.9076 51.7082 16.142 51.4102C16.3763 51.1122 16.5748 50.7709 16.726 50.4059C16.8772 50.0408 16.9782 49.6592 17.0232 49.2827C17.0682 48.9063 17.0564 48.5424 16.9885 48.2118C16.9205 47.8813 16.7976 47.5905 16.627 47.3562C16.4564 47.1218 16.2412 46.9485 15.9939 46.8461C15.7465 46.7436 15.4718 46.714 15.1855 46.7591C14.8991 46.8041 14.6067 46.9229 14.3249 47.1085C14.043 47.2942 13.7774 47.5432 13.543 47.8412C13.3087 48.1393 13.1103 48.4805 12.9591 48.8456C12.8079 49.2106 12.7068 49.5922 12.6618 49.9687C12.6168 50.3451 12.6286 50.709 12.6966 51.0396C12.7645 51.3702 12.8874 51.6609 13.058 51.8952C13.2287 52.1296 13.4438 52.3029 13.6911 52.4054Z" stroke="#A69BB2" stroke-width="2"/>
<path d="M119.389 56.322C119.911 56.5416 120.521 56.4945 121.083 56.191C121.645 55.8874 122.115 55.3523 122.387 54.7034C122.66 54.0545 122.714 53.3449 122.538 52.7308C122.361 52.1166 121.968 51.6482 121.446 51.4285C120.923 51.2089 120.314 51.256 119.751 51.5596C119.189 51.8631 118.72 52.3982 118.447 53.0471C118.174 53.696 118.12 54.4056 118.297 55.0198C118.473 55.6339 118.866 56.1023 119.389 56.322Z" stroke="#A69BB2" stroke-width="2"/>
<path d="M34.879 36.2319C34.5245 36.7145 34.6065 36.8047 35.1252 36.5027C38.303 34.6348 41.6695 33.1264 45.2247 31.9774C46.2326 31.6524 47.1353 31.1403 47.9331 30.441C50.2047 28.4353 52.5011 26.4623 54.822 24.5222C56.1056 23.4487 57.1955 22.6855 58.0917 22.2324C59.2866 21.6284 60.5472 21.1737 61.8734 20.8684C62.9469 20.6222 63.6347 20.3251 63.9367 19.9771C64.2026 19.6686 64.0893 19.5586 63.5969 19.6472C63.2292 19.7096 62.8681 19.8032 62.5136 19.9279C62.1032 20.0691 61.7487 20.1692 61.45 20.2283C58.2558 20.8454 55.4851 22.2915 53.1379 24.5665C50.1079 27.4947 48.3319 29.2478 47.8099 29.8255C47.0286 30.6823 46.3721 31.1748 45.8403 31.3028C42.8004 32.0283 39.8738 33.0673 37.0604 34.4198C36.1806 34.8433 35.4535 35.4473 34.879 36.2319Z" stroke="#FC9B5F" stroke-width="2"/>
<path d="M95.2793 25.1082C97.3179 28.67 99.0463 32.373 100.464 36.2171C100.537 36.4108 100.625 36.5651 100.73 36.68C101.059 37.0346 101.267 36.987 101.356 36.5372C101.389 36.3731 101.369 36.1893 101.297 35.9857C100.02 32.309 98.3356 28.6897 96.2444 25.1279C96.1688 24.9989 96.0627 24.8905 95.9356 24.8124C95.8085 24.7342 95.6643 24.6887 95.5157 24.6798C95.1808 24.6568 95.102 24.7996 95.2793 25.1082Z" stroke="#FAAF79" stroke-width="2"/>
<path d="M90.7343 26.9843C93.1899 32.1383 95.391 37.3989 97.3377 42.7663C97.3935 42.9239 97.4198 42.919 97.4165 42.7516C97.3902 41.2841 97.0636 39.7445 96.4366 38.1327C94.7689 33.8585 93.0569 30.0816 91.3006 26.8021C91.2317 26.6741 91.1562 26.5641 91.0741 26.4722C90.6605 26.0191 90.5045 26.0684 90.6063 26.6199C90.6293 26.7315 90.672 26.853 90.7343 26.9843Z" stroke="#FAA970" stroke-width="2"/>
<path d="M55.009 35.7346C54.7004 35.6722 54.3918 35.6394 54.0832 35.6361C51.4406 35.6 48.8488 35.8692 46.3079 36.4437C43.1499 37.156 40.7862 38.1573 39.2171 39.4474C36.7123 41.509 35.5436 44.4652 35.711 48.3159C35.7504 49.2154 35.9129 49.3155 36.1985 48.6162C36.2445 48.5079 36.2675 48.3865 36.2675 48.2519C36.2609 45.0905 37.2835 42.5365 39.3353 40.5898C40.4416 39.5426 41.9812 38.6907 43.9541 38.0342C45.6546 37.4695 47.3962 37.0772 49.1787 36.8573C50.0979 36.7457 51.0598 36.5914 52.0643 36.3944C53.0262 36.2073 53.9979 36.0793 54.9794 36.0103C55.6787 35.9611 55.6885 35.8692 55.009 35.7346Z" stroke="#FAA970" stroke-width="2"/>
<path d="M33.5052 75.9357C31.2696 78.8705 29.2523 81.9481 27.4534 85.1685C25.4213 88.8059 25.2916 92.5171 27.0643 96.3021C28.1477 98.6132 28.9487 100.744 29.4674 102.694C29.6545 103.4 29.8071 104.59 29.9253 106.264C30.0107 107.469 30.1879 108.664 30.4571 109.849C30.4965 110.019 30.5408 110.021 30.5901 109.854C30.8461 108.944 30.8511 107.761 30.6048 106.303C29.9483 102.41 28.9782 99.1861 27.6946 96.6321C26.2338 93.7268 25.9121 90.8297 26.7295 87.9409C27.0479 86.8182 27.8621 85.3081 29.1719 83.4106C30.9282 80.8697 32.5959 78.2697 34.1749 75.6107C34.1932 75.5791 34.2055 75.5442 34.2109 75.5087C34.2163 75.4732 34.2147 75.438 34.2062 75.4058C34.1976 75.3735 34.1824 75.345 34.1616 75.3225C34.1409 75.3 34.1151 75.2841 34.0863 75.2758C33.9451 75.2364 33.8285 75.3169 33.7366 75.5171C33.6381 75.7206 33.561 75.8602 33.5052 75.9357Z" stroke="#F78241" stroke-width="2"/>
<path d="M105.546 88.7928C104.742 91.5438 104.479 94.1421 104.758 96.5878C104.88 97.6482 104.986 98.7101 105.078 99.7737C105.193 101.113 105.075 102.159 104.724 102.91C104.146 104.132 103.173 105.036 101.804 105.624C101.105 105.922 101.07 106.103 101.7 106.165C101.819 106.178 101.938 106.162 102.06 106.116C105.182 104.951 106.477 102.715 105.945 99.4094C105.298 95.4044 105.323 91.7489 106.019 88.4432C106.065 88.2199 106.006 88.1691 105.842 88.2905C105.714 88.3824 105.615 88.5499 105.546 88.7928Z" stroke="#F9A367" stroke-width="2"/>
<path d="M35.5981 107.677C35.6146 107.352 35.6014 107.019 35.5587 106.677L33.5546 90.201C33.5355 90.0315 33.4716 89.8812 33.3724 89.7726C32.9883 89.359 32.8291 89.533 32.8947 90.2946C33.4167 96.3087 34.1127 102.303 34.9826 108.278C35.0351 108.636 35.1188 108.862 35.2337 108.957C35.4241 109.121 35.5456 108.695 35.5981 107.677Z" stroke="#F9A367" stroke-width="2"/>
<path d="M25.646 103.989C25.6694 104.091 25.6652 104.208 25.6338 104.333C25.6024 104.458 25.5444 104.587 25.4638 104.713C25.0404 105.373 25.0223 105.555 25.4097 105.259C25.4885 105.197 25.5492 105.12 25.5919 105.028C25.9661 104.194 25.9645 103.296 25.5869 102.334C25.5278 102.18 25.4622 102.086 25.39 102.054C25.2554 101.998 25.216 102.09 25.2718 102.329L25.646 103.989Z" stroke="#F0813F" stroke-width="2"/>
<path d="M21.244 109.854C20.6072 110.756 20.0179 111.69 19.4763 112.655C19.4467 112.711 19.4287 112.769 19.4221 112.828C19.3991 113.123 19.4927 113.105 19.7028 112.774C20.3922 111.697 21.0602 110.607 21.7069 109.504C21.8284 109.297 21.7906 109.245 21.5937 109.346C21.5083 109.392 21.4427 109.463 21.3967 109.558C21.3113 109.735 21.2605 109.834 21.244 109.854Z" stroke="#F78241" stroke-width="2"/>
<path d="M77.8327 42.53C78.4531 42.7368 79.2886 42.8615 80.3391 42.9042C83.8057 43.0454 87.059 43.9383 90.0989 45.583C90.785 45.9539 90.9918 45.775 90.7193 45.0462C90.1448 43.5164 88.9367 42.3904 87.0951 41.6682C84.5673 40.6768 81.9575 40.0465 79.2656 39.7774C78.5139 39.7051 77.9427 39.802 77.552 40.0679C76.8659 40.5406 76.8347 41.2628 77.4585 42.2345C77.5477 42.3747 77.6798 42.479 77.8327 42.53Z" stroke="#906B6A" stroke-width="2"/>
<path d="M59.8152 40.1466C55.8298 39.8511 52.227 40.8754 49.0065 43.2193C47.9889 43.9612 47.2782 44.9017 46.8744 46.0408C46.7037 46.5333 46.858 46.6794 47.3373 46.4791C47.9216 46.2329 48.478 45.944 49.0065 45.6124C49.8535 45.0839 50.3903 44.7671 50.6168 44.6621C52.1892 43.9202 53.8487 43.4638 55.5951 43.2931C56.6981 43.1848 57.7995 43.0732 58.8993 42.9583C59.6116 42.8861 60.1155 42.676 60.411 42.328C60.9034 41.747 60.841 41.0871 60.2239 40.3485C60.1226 40.2315 59.9757 40.159 59.8152 40.1466Z" stroke="#8B6865" stroke-width="2"/>
<path d="M75.7547 42.722C73.4634 42.9386 71.881 44.1927 71.0078 46.4841" stroke="#FBA696" stroke-width="2"/>
<path d="M71.0078 46.4841C70.0032 51.2639 70.0361 55.8155 71.1063 60.1389C71.4313 61.4553 71.1375 62.4402 70.2249 63.0934" stroke="#F49F92" stroke-width="2"/>
<path d="M70.2249 63.0934L67.3442 64.1669C67.1177 64.2522 67.1193 64.3359 67.3491 64.418C68.741 64.9367 70.1412 65.26 71.5495 65.3881C73.181 65.5358 74.5466 65.2666 75.6464 64.5805C77.6981 63.2937 77.9903 61.2797 76.5229 58.5385C75.5939 56.8019 75.0539 55.2426 74.9029 53.8605" stroke="#FBA696" stroke-width="2"/>
<path d="M74.9028 53.8605C75.0079 53.5848 75.2278 53.4781 75.5627 53.5405" stroke="#FDB6A7" stroke-width="2"/>
<path d="M75.5625 53.5404C77.6077 52.224 79.4592 50.663 81.117 48.8575" stroke="#EE9583" stroke-width="2"/>
<path d="M81.1171 48.8575C80.8479 50.8141 81.6161 51.8284 83.4216 51.9007C84.7282 51.9499 85.342 51.3721 85.2633 50.1673C85.2107 49.3663 85.2239 48.8033 85.3027 48.4783" stroke="#BE786C" stroke-width="2"/>
<path d="M85.3027 48.4783C87.0229 49.0463 88.4969 49.8866 89.7247 50.9995C89.9709 51.2195 90.2138 51.3015 90.4534 51.2457C90.4822 51.2392 90.5086 51.2252 90.5304 51.2049C90.5522 51.1845 90.5688 51.1584 90.5789 51.1287C90.589 51.0989 90.5922 51.0664 90.5884 51.0337C90.5846 51.001 90.5738 50.969 90.5568 50.9404C90.0283 50.0738 89.3718 49.3171 88.5872 48.6704" stroke="#EE9583" stroke-width="2"/>
<path d="M88.5871 48.6704C89.201 48.2831 89.3947 47.766 89.1681 47.1193C89.0106 46.6728 88.8694 46.2198 88.7447 45.7602C88.723 45.6842 88.6869 45.6139 88.6386 45.5537C88.5903 45.4936 88.5308 45.4449 88.464 45.4106C86.5009 44.4291 84.9317 43.8907 83.7565 43.7955C82.1643 43.6674 80.3785 43.5181 78.3989 43.3474C78.1462 43.3244 77.9098 43.2522 77.6898 43.1307C77.03 42.763 76.3849 42.6268 75.7546 42.722" stroke="#FDB6A7" stroke-width="2"/>
<path d="M88.587 48.6704C86.2135 47.1964 83.6185 46.5333 80.8019 46.681C79.6562 46.7401 78.7124 47.3179 77.9704 48.4143C76.7657 50.1903 75.963 51.899 75.5625 53.5404" stroke="#EE8D7B" stroke-width="2"/>
<path d="M74.9028 53.8605C74.6303 52.9971 74.5745 52.1338 74.7353 51.2704C74.9159 50.302 75.0061 49.8062 75.0061 49.7833C75.2655 47.482 75.515 45.1283 75.7546 42.722" stroke="#FB9E8E" stroke-width="2"/>
<path d="M85.3028 48.4784C83.8091 47.244 82.4139 47.3704 81.1172 48.8575" stroke="#AF4F40" stroke-width="2"/>
<path d="M70.2249 63.0934C70.8978 63.205 71.3837 63.0343 71.6824 62.5813C71.8531 62.322 71.9401 61.8854 71.9434 61.2715C71.9795 56.3079 71.6676 51.3788 71.0078 46.4841" stroke="#F28779" stroke-width="2"/>
<path d="M52.5174 49.8178C52.4255 50.645 52.6176 51.2917 53.0936 51.7579C53.5302 52.1814 54.0981 52.3111 54.7973 52.1469C56.2713 51.8055 56.8589 50.6943 56.5602 48.8132" stroke="#B2796D" stroke-width="2"/>
<path d="M56.5602 48.8132C57.5746 49.0266 58.5085 49.4206 59.3621 49.995C59.4901 50.0804 59.5935 50.2035 59.6723 50.3644C59.9973 51.0308 60.2238 51.0554 60.3518 50.4382C60.3879 50.2642 60.3879 50.082 60.3518 49.8916C60.0203 48.0565 58.845 47.0405 56.8261 46.8435C52.634 46.4365 49.8321 48.1534 48.4205 51.9943C48.2202 52.5425 48.3581 52.6541 48.8341 52.3291L52.5174 49.8177" stroke="#E18675" stroke-width="2"/>
<path d="M56.5603 48.8132C56.301 48.3405 55.8463 48.1665 55.1963 48.2913C53.9784 48.5178 53.0855 49.0266 52.5176 49.8178" stroke="#964132" stroke-width="2"/>
<path d="M95.8799 58.8782C96.5431 59.5676 97.3129 59.6185 98.1894 59.0309C98.9214 58.5384 99.4401 57.9558 99.7454 57.2828C100.054 56.5934 100.084 55.863 99.8341 55.0915C99.45 53.8769 98.5324 53.1005 97.0814 52.7624C96.3855 52.5982 95.834 52.81 95.4269 53.3976C94.081 55.3377 94.232 57.1646 95.8799 58.8782Z" stroke="#F9A193" stroke-width="2"/>
<path d="M39.3056 58.9465C39.615 59.0016 39.9331 58.9903 40.2417 58.9133C40.5503 58.8364 40.8435 58.6951 41.1043 58.4978C41.3652 58.3004 41.5888 58.0507 41.7622 57.763C41.9356 57.4754 42.0555 57.1553 42.115 56.821C42.2352 56.146 42.1023 55.4544 41.7455 54.8984C41.3887 54.3424 40.8372 53.9675 40.2123 53.8562C39.9029 53.8011 39.5848 53.8123 39.2762 53.8893C38.9675 53.9663 38.6744 54.1075 38.4135 54.3049C38.1526 54.5023 37.9291 54.7519 37.7557 55.0396C37.5823 55.3273 37.4624 55.6474 37.4028 55.9816C37.2826 56.6566 37.4155 57.3482 37.7724 57.9042C38.1292 58.4603 38.6807 58.8352 39.3056 58.9465Z" stroke="#FCAA9A" stroke-width="2"/>
<path d="M81.9347 65.1861C83.7271 66.6699 85.7395 67.0803 87.9718 66.4172C90.8409 65.5636 92.4889 63.63 92.9156 60.6164C93.0338 59.7793 92.7499 58.7896 92.0638 57.6472C90.5537 55.126 88.4117 54.0065 85.6377 54.2889C82.4698 54.6139 80.574 56.3242 79.9503 59.4199C79.4775 61.7769 80.139 63.699 81.9347 65.1861Z" stroke="#FCA694" stroke-width="2"/>
<path d="M58.8046 60.5448C58.6463 58.9305 57.8248 57.448 56.5209 56.4234C55.2169 55.3989 53.5373 54.9161 51.8516 55.0814C51.0169 55.1633 50.2057 55.4017 49.4646 55.7832C48.7234 56.1647 48.0667 56.6818 47.5318 57.3048C46.997 57.9279 46.5946 58.6448 46.3476 59.4146C46.1006 60.1844 46.0138 60.992 46.0922 61.7913C46.2505 63.4056 47.0719 64.8881 48.3759 65.9127C49.6798 66.9373 51.3594 67.42 53.0452 67.2547C53.8799 67.1728 54.691 66.9344 55.4322 66.5529C56.1733 66.1714 56.8301 65.6543 57.3649 65.0313C57.8997 64.4082 58.3021 63.6913 58.5491 62.9215C58.7961 62.1517 58.8829 61.3441 58.8046 60.5448Z" stroke="#FCA694" stroke-width="2"/>
<path d="M61.4941 69.8444C62.8302 71.975 64.5258 73.5129 66.5808 74.4584C68.6194 75.3973 70.7779 75.6451 73.0562 75.2019C76.3127 74.5716 78.76 72.602 80.3981 69.2929" stroke="#F3978B" stroke-width="2"/>
<path d="M80.3981 69.293C73.9376 69.2798 67.6363 69.4637 61.4941 69.8445" stroke="#FDDED6" stroke-width="2"/>
<path d="M80.3981 69.2929C79.0259 70.7472 77.5749 71.9667 76.0451 72.9516C73.3533 74.6882 70.4857 75.0033 67.4426 73.897C65.7782 73.2897 63.7954 71.9388 61.4941 69.8444" stroke="#F3B7B2" stroke-width="2"/>
<path d="M124.022 109.642C122.344 108.966 121.09 107.941 120.26 106.569C119.679 105.61 119.526 104.652 119.802 103.693C120.097 102.663 120.736 101.812 121.717 101.143C123.191 100.141 124.384 98.907 125.297 97.4396C125.97 96.3596 126.359 95.2976 126.464 94.2537C126.582 93.0555 126.39 91.9015 125.888 90.792C125.366 89.6397 124.64 88.5892 123.711 87.6405C123.521 87.4501 122.52 86.6819 120.708 85.3359C119.894 84.7319 119.134 84.0655 118.428 83.3367C117.804 82.6966 117.466 82.0614 117.413 81.4311C117.338 80.5381 117.669 79.811 118.408 79.2496C121.136 77.188 122.727 74.6587 123.18 71.6615C123.459 69.8461 123.258 68.1916 122.579 66.6979C121.85 65.0893 120.672 63.7844 119.043 62.7831C116.732 61.3683 114.433 59.9304 112.145 58.4695C108.573 56.1946 106.754 53.0595 106.689 49.0643C106.672 48.0861 106.859 46.7007 107.25 44.9083C107.545 43.5427 107.847 42.177 108.156 40.8114C108.734 38.2508 108.921 35.664 108.717 33.0509C108.323 28.0479 106.432 23.7244 103.045 20.0805C100.097 16.9094 96.4265 15.286 92.0341 15.2105C91.545 15.2007 91.0755 15.199 90.6258 15.2056C90.5612 15.2057 90.4976 15.1916 90.4396 15.1644C90.3817 15.1371 90.3309 15.0973 90.291 15.048C87.8124 12.0836 84.9236 9.95637 81.6244 8.66623C79.2443 7.7372 76.1158 7.2957 72.2388 7.34165C65.6174 7.42044 59.1618 8.46927 52.872 10.4882C49.3791 11.6076 46.3885 12.9421 43.9001 14.4916C36.5401 19.0743 31.6093 25.745 29.1078 34.5035C27.8965 38.7383 27.7504 42.9912 28.6696 47.2621C28.6761 47.2818 28.8682 47.9597 29.2457 49.2958C29.9023 51.6069 29.7545 53.8014 28.8025 55.8794C28.3068 56.966 27.5452 57.9574 26.5177 58.8536C25.7134 59.5562 24.7056 60.3227 23.4942 61.1532C21.1438 62.7684 19.6665 63.9173 19.0625 64.6002C17.5425 66.3269 16.7941 68.2457 16.817 70.3566C16.8531 73.4752 18.14 76.044 20.6776 78.0629C21.8725 79.0117 22.5554 79.6846 22.7261 80.0818C23.1594 81.0929 23.1085 82.0679 22.5734 83.0068C22.3371 83.4204 21.5754 84.095 20.2886 85.0306C19.202 85.8251 18.1827 86.695 17.2307 87.6405C16.1375 88.7238 15.3546 89.794 14.8818 90.8511C13.4899 93.9631 14.1153 96.8783 16.7579 99.5964C17.3653 100.223 18.0071 100.813 18.6833 101.364C20.6399 102.96 21.0896 104.576 20.0325 106.215C19.6944 106.74 18.7522 107.583 17.2061 108.746C16.1884 109.51 15.2003 110.313 14.2417 111.153C6.4319 100.386 2.07892 88.3873 1.18272 75.1576C0.174898 60.28 3.33624 46.5399 10.6667 33.9372C12.3409 31.0582 14.2023 28.3581 16.2508 25.8369C24.4282 15.7489 34.7526 8.59403 47.2239 4.37235C54.6628 1.85445 62.4184 0.746502 70.4908 1.04852C82.1414 1.48513 92.689 4.44459 102.134 9.92686C112.875 16.1576 121.285 24.5615 127.365 35.1387C128.97 37.9356 130.38 40.8951 131.595 44.017C137.589 59.4725 138.098 75.3004 133.122 91.501C131.126 97.9879 128.092 104.035 124.022 109.642ZM13.6911 52.4054C13.9384 52.5078 14.2131 52.5374 14.4995 52.4923C14.7858 52.4473 15.0783 52.3285 15.3601 52.1429C15.6419 51.9572 15.9076 51.7082 16.1419 51.4102C16.3763 51.1121 16.5747 50.7709 16.7259 50.4058C16.8771 50.0408 16.9781 49.6592 17.0231 49.2827C17.0682 48.9063 17.0564 48.5424 16.9884 48.2118C16.9204 47.8812 16.7976 47.5905 16.6269 47.3562C16.4563 47.1218 16.2411 46.9485 15.9938 46.8461C15.7465 46.7436 15.4718 46.714 15.1854 46.7591C14.899 46.8041 14.6066 46.9229 14.3248 47.1085C14.043 47.2942 13.7773 47.5432 13.543 47.8412C13.3086 48.1392 13.1102 48.4805 12.959 48.8455C12.8078 49.2106 12.7068 49.5922 12.6617 49.9687C12.6167 50.3451 12.6285 50.709 12.6965 51.0396C12.7645 51.3701 12.8873 51.6609 13.0579 51.8952C13.2286 52.1296 13.4437 52.3029 13.6911 52.4054ZM119.389 56.322C119.911 56.5416 120.521 56.4945 121.083 56.191C121.645 55.8875 122.115 55.3523 122.387 54.7034C122.66 54.0545 122.714 53.3449 122.538 52.7308C122.361 52.1166 121.968 51.6482 121.446 51.4286C120.923 51.2089 120.314 51.2561 119.751 51.5596C119.189 51.8631 118.72 52.3982 118.447 53.0471C118.174 53.696 118.12 54.4056 118.297 55.0198C118.473 55.6339 118.866 56.1024 119.389 56.322Z" fill="#C0AEBD"/>
<path d="M124.022 109.642C121.057 113.683 117.842 117.434 114.375 120.894C114.305 120.963 114.216 121.01 114.12 121.03C114.024 121.05 113.925 121.042 113.834 121.007C111.316 120.006 108.837 119.003 106.398 117.998C105.223 117.512 104.407 117.255 103.951 117.225C102.884 117.153 102.28 117.673 102.139 118.786C102.132 118.835 102.129 119.543 102.129 120.908C102.129 123.778 102.129 126.729 102.129 129.762C102.129 129.919 102.086 130.071 102.006 130.199C101.925 130.328 101.811 130.428 101.676 130.486L92.5168 134.499C92.4814 134.515 92.4428 134.521 92.4044 134.517C92.3659 134.513 92.3288 134.499 92.2966 134.477C92.2643 134.454 92.2378 134.424 92.2195 134.388C92.2012 134.352 92.1917 134.313 92.1918 134.273C92.2903 125.849 92.3198 117.402 92.2804 108.933C92.2804 108.893 92.2542 108.619 92.2016 108.11C92.1163 107.257 92.6038 106.842 93.6641 106.865C94.4257 106.884 94.9904 106.605 95.358 106.027C95.3972 105.965 95.4191 105.893 95.4217 105.816C95.4243 105.739 95.4075 105.661 95.3728 105.589C93.8299 102.454 91.9374 99.3552 89.6952 96.2923C89.5627 96.1111 89.3723 95.9781 89.1518 95.9126C88.9313 95.847 88.6921 95.8524 88.4691 95.9279L85.7559 96.8438C85.2208 95.8032 85.0632 94.6887 85.2831 93.5003C89.6131 91.8852 92.7564 88.9979 94.713 84.8386C95.271 84.6384 95.8915 84.4332 96.5743 84.2231C97.3884 83.9736 97.3211 83.6453 96.3724 83.2383C97.7939 82.2337 99.2481 81.2637 100.735 80.3281C101.717 79.7076 102.408 79.0527 102.808 78.3633C103.557 77.0699 103.934 75.6173 103.941 74.0054C104.138 74.2188 104.478 74.3977 104.96 74.5422C105.817 74.7949 106.055 74.5881 105.674 73.9217C105.589 73.7707 105.543 73.6181 105.536 73.4638C105.389 70.739 104.304 68.4608 102.281 66.629C101.372 64.8202 99.8834 63.9272 97.8152 63.9502C97.6525 63.9502 97.4985 63.9 97.3769 63.8074L96.9584 63.4824C96.5645 63.3412 96.3248 63.5399 96.2395 64.0782C95.8652 63.0146 95.7651 61.8082 95.9391 60.459L97.0323 61.3207C97.0919 61.3665 97.1634 61.3974 97.2411 61.4111C97.3188 61.4248 97.4007 61.4208 97.4804 61.3995C100.809 60.5098 102.17 58.2891 101.563 54.7371C101.021 51.5856 99.1447 49.9803 95.9342 49.9212C95.8295 49.9199 95.7282 49.8839 95.6463 49.8188C95.5643 49.7538 95.5062 49.6633 95.4811 49.5617C95.0905 47.9236 94.5636 46.3364 93.9005 44.8C93.303 43.4081 92.9961 42.6925 92.9796 42.6531C90.5438 36.7112 87.7551 30.9335 84.6134 25.3199C84.2392 24.6535 83.7763 24.5862 83.2248 25.118C79.0655 29.1559 74.2464 32.2121 68.7674 34.2869C65.8851 35.38 62.2576 36.3074 57.8849 37.0691C57.8554 37.0723 56.6539 37.225 54.2804 37.527C52.8983 37.701 51.275 38.0063 49.4104 38.4429C45.4152 39.3752 43.3323 41.8455 43.1616 45.8538C43.0926 47.4985 42.9941 49.1432 42.8661 50.7878C42.807 51.5593 42.5772 51.7152 42.1767 51.2557C42.0553 51.1145 41.9289 51.0209 41.7976 50.975C40.5271 50.5121 39.3289 50.4891 38.2029 50.906C37.1688 51.2901 36.3465 52.0222 35.7359 53.1022C35.1713 54.1068 34.861 55.2213 34.8052 56.4457C34.6837 59.2328 36.0494 60.9809 38.9021 61.69C38.9758 61.7081 39.0528 61.7072 39.126 61.6874C39.1992 61.6676 39.2662 61.6295 39.3207 61.5767C40.0101 60.9136 40.8029 60.4196 41.6991 60.0946C41.7657 60.0702 41.8385 60.0703 41.9038 60.0948C41.9692 60.1193 42.0224 60.1665 42.0536 60.2275C42.3425 60.7626 42.418 61.3486 42.2801 61.9855C41.617 62.0971 41.1312 62.3958 40.8226 62.8817C40.642 62.1595 40.3909 61.9904 40.0692 62.3745C40.0234 62.4294 39.9648 62.4728 39.898 62.5011C39.8313 62.5293 39.7583 62.5416 39.6851 62.537C39.2189 62.5041 39.0023 62.7192 39.0351 63.182C39.0446 63.3647 39.0154 63.5277 38.9514 63.6498C37.5956 66.2465 36.6305 68.9795 36.056 71.8486C36.0199 72.0259 35.9312 72.2212 35.7901 72.4346C35.5209 72.8449 35.598 73.0879 36.0215 73.1634C36.0893 73.1762 36.1508 73.2097 36.1963 73.2588C36.2418 73.3079 36.2687 73.3696 36.2726 73.4342C36.3022 74.0481 36.4959 74.5832 36.8537 75.0395C37.2378 77.3637 38.1405 79.4237 39.562 81.2194C40.3696 82.2403 41.4397 82.7639 42.7726 82.7902C43.6261 84.6318 44.8161 84.8781 46.3426 83.5288C47.2716 86.0106 48.3139 88.1346 49.4695 89.9007C50.648 91.6931 52.355 92.893 54.5906 93.5003C54.85 94.9973 54.8959 96.5418 54.7285 98.134C53.0444 97.3921 51.3735 96.6584 49.7157 95.9329C48.5733 95.4306 47.7164 95.5832 47.1452 96.3908C45.2051 99.1287 43.5801 101.985 42.2703 104.959C42.2293 105.051 42.2104 105.152 42.2149 105.253C42.2194 105.355 42.2472 105.456 42.2963 105.548C42.3454 105.641 42.4147 105.723 42.4995 105.79C42.5842 105.856 42.6824 105.906 42.7873 105.934L46.1309 106.835C46.1973 106.852 46.2566 106.893 46.2993 106.953C46.342 107.012 46.3659 107.087 46.3672 107.165C46.5511 116.183 46.5576 125.289 46.3869 134.484C46.3869 134.531 46.3755 134.578 46.3536 134.619C46.3318 134.661 46.3002 134.696 46.2617 134.723C46.2232 134.749 46.179 134.765 46.133 134.77C46.087 134.775 46.0406 134.768 45.9979 134.75L37.0162 130.998C36.949 130.97 36.8916 130.922 36.8512 130.859C36.8109 130.796 36.7894 130.721 36.7897 130.644C36.7306 123.704 36.7207 119.53 36.7601 118.121C36.8028 116.569 36.1118 116.053 34.687 116.575C30.8724 117.964 27.0775 119.413 23.3023 120.923C23.2264 120.954 23.1431 120.961 23.0626 120.944C22.9821 120.928 22.9079 120.888 22.8493 120.83C19.8127 117.773 16.9435 114.548 14.2418 111.154C15.2003 110.313 16.1885 109.511 17.2061 108.746C18.7523 107.584 19.6945 106.74 20.0326 106.215C21.0897 104.576 20.64 102.96 18.6834 101.364C18.0071 100.813 17.3654 100.223 16.758 99.5965C14.1154 96.8783 13.49 93.9632 14.8819 90.8511C15.3546 89.794 16.1376 88.7238 17.2308 87.6405C18.1828 86.6951 19.2021 85.8251 20.2887 85.0307C21.5755 84.0951 22.3372 83.4205 22.5735 83.0069C23.1086 82.068 23.1595 81.093 22.7262 80.0819C22.5555 79.6847 21.8726 79.0117 20.6777 78.063C18.1401 76.0441 16.8532 73.4753 16.8171 70.3566C16.7941 68.2458 17.5426 66.327 19.0626 64.6002C19.6666 63.9174 21.1439 62.7684 23.4943 61.1533C24.7057 60.3227 25.7135 59.5562 26.5178 58.8537C27.5453 57.9575 28.3069 56.9661 28.8026 55.8795C29.7546 53.8014 29.9024 51.6069 29.2458 49.2958C28.8683 47.9597 28.6762 47.2818 28.6697 47.2621C27.7505 42.9912 27.8966 38.7383 29.1079 34.5035C31.6094 25.745 36.5402 19.0744 43.9002 14.4916C46.3886 12.9421 49.3792 11.6077 52.8721 10.4882C59.1619 8.46931 65.6175 7.42048 72.2389 7.34169C76.1159 7.29573 79.2444 7.73724 81.6245 8.66627C84.9237 9.95641 87.8125 12.0837 90.2911 15.048C90.331 15.0974 90.3818 15.1371 90.4397 15.1644C90.4977 15.1917 90.5613 15.2058 90.6259 15.2056C91.0756 15.199 91.5451 15.2007 92.0342 15.2105C96.4266 15.286 100.097 16.9094 103.045 20.0806C106.433 23.7245 108.323 28.0479 108.717 33.0509C108.921 35.664 108.734 38.2508 108.156 40.8114C107.847 42.1771 107.545 43.5427 107.25 44.9084C106.859 46.7008 106.672 48.0861 106.689 49.0644C106.754 53.0595 108.573 56.1946 112.145 58.4696C114.433 59.9304 116.732 61.3683 119.043 62.7832C120.672 63.7844 121.85 65.0894 122.579 66.6979C123.259 68.1916 123.459 69.8461 123.18 71.6615C122.727 74.6587 121.136 77.1881 118.408 79.2497C117.67 79.8111 117.338 80.5382 117.413 81.4311C117.466 82.0614 117.804 82.6966 118.428 83.3368C119.134 84.0656 119.894 84.732 120.708 85.336C122.52 86.6819 123.521 87.4501 123.712 87.6405C124.641 88.5892 125.366 89.6397 125.888 90.792C126.39 91.9016 126.582 93.0555 126.464 94.2537C126.359 95.2977 125.97 96.3596 125.297 97.4397C124.385 98.9071 123.191 100.141 121.717 101.143C120.736 101.812 120.097 102.663 119.802 103.693C119.526 104.652 119.679 105.611 120.26 106.569C121.09 107.941 122.344 108.966 124.022 109.642ZM34.8791 36.2319C34.5245 36.7145 34.6066 36.8048 35.1253 36.5028C38.303 34.6348 41.6695 33.1264 45.2248 31.9774C46.2326 31.6524 47.1354 31.1403 47.9331 30.4411C50.2048 28.4353 52.5011 26.4623 54.8221 24.5222C56.1056 23.4487 57.1955 22.6855 58.0917 22.2324C59.2867 21.6284 60.5473 21.1737 61.8735 20.8684C62.947 20.6222 63.6347 20.3251 63.9368 19.9772C64.2027 19.6686 64.0894 19.5586 63.597 19.6472C63.2293 19.7096 62.8682 19.8032 62.5137 19.9279C62.1033 20.0691 61.7488 20.1692 61.45 20.2283C58.2559 20.8455 55.4852 22.2915 53.138 24.5665C50.108 27.4948 48.332 29.2478 47.81 29.8256C47.0287 30.6824 46.3721 31.1748 45.8403 31.3028C42.8005 32.0283 39.8738 33.0673 37.0605 34.4198C36.1807 34.8433 35.4536 35.4473 34.8791 36.2319ZM95.2793 25.1082C97.3179 28.67 99.0463 32.373 100.464 36.2171C100.537 36.4108 100.625 36.5651 100.73 36.68C101.059 37.0346 101.267 36.987 101.356 36.5372C101.389 36.3731 101.369 36.1893 101.297 35.9857C100.02 32.309 98.3355 28.6897 96.2444 25.1279C96.1687 24.9989 96.0626 24.8905 95.9355 24.8124C95.8084 24.7342 95.6642 24.6887 95.5156 24.6798C95.1808 24.6568 95.102 24.7996 95.2793 25.1082ZM90.7342 26.9843C93.1897 32.1383 95.3909 37.3989 97.3376 42.7663C97.3934 42.9239 97.4196 42.919 97.4163 42.7516C97.3901 41.2842 97.0635 39.7445 96.4364 38.1327C94.7688 33.8585 93.0568 30.0816 91.3005 26.8021C91.2316 26.6741 91.1561 26.5641 91.074 26.4722C90.6603 26.0191 90.5044 26.0684 90.6062 26.6199C90.6292 26.7315 90.6718 26.853 90.7342 26.9843ZM55.0092 35.7346C54.7006 35.6722 54.392 35.6394 54.0834 35.6361C51.4408 35.6 48.849 35.8692 46.3081 36.4437C43.1501 37.156 40.7865 38.1573 39.2173 39.4474C36.7125 41.509 35.5438 44.4652 35.7113 48.3159C35.7507 49.2154 35.9131 49.3155 36.1988 48.6163C36.2447 48.5079 36.2677 48.3865 36.2677 48.2519C36.2611 45.0905 37.2837 42.5365 39.3355 40.5898C40.4418 39.5426 41.9814 38.6907 43.9544 38.0342C45.6548 37.4695 47.3964 37.0772 49.1789 36.8573C50.0981 36.7457 51.06 36.5914 52.0645 36.3944C53.0264 36.2073 53.9981 36.0793 54.9796 36.0103C55.6789 35.9611 55.6887 35.8692 55.0092 35.7346ZM33.5052 75.9357C31.2696 78.8705 29.2524 81.9482 27.4534 85.1686C25.4213 88.8059 25.2917 92.5171 27.0644 96.3022C28.1477 98.6133 28.9487 100.744 29.4674 102.694C29.6545 103.4 29.8072 104.59 29.9253 106.264C30.0107 107.469 30.188 108.664 30.4572 109.849C30.4965 110.019 30.5409 110.021 30.5901 109.854C30.8462 108.944 30.8511 107.761 30.6049 106.303C29.9483 102.41 28.9782 99.1861 27.6947 96.6321C26.2338 93.7268 25.9121 90.8298 26.7295 87.9409C27.048 86.8182 27.8621 85.3081 29.1719 83.4106C30.9282 80.8698 32.5959 78.2698 34.1749 75.6107C34.1932 75.5791 34.2055 75.5443 34.211 75.5088C34.2164 75.4733 34.2148 75.438 34.2062 75.4058C34.1977 75.3735 34.1824 75.3451 34.1617 75.3226C34.1409 75.3001 34.1151 75.2841 34.0863 75.2759C33.9451 75.2365 33.8286 75.3169 33.7367 75.5171C33.6382 75.7207 33.561 75.8602 33.5052 75.9357ZM105.546 88.7928C104.742 91.5438 104.479 94.1421 104.758 96.5878C104.88 97.6481 104.986 98.7101 105.078 99.7737C105.193 101.113 105.075 102.159 104.724 102.91C104.146 104.132 103.173 105.036 101.804 105.624C101.105 105.922 101.07 106.103 101.7 106.165C101.819 106.178 101.938 106.162 102.06 106.116C105.182 104.951 106.477 102.715 105.945 99.4093C105.298 95.4043 105.323 91.7489 106.019 88.4432C106.065 88.2199 106.006 88.169 105.842 88.2905C105.714 88.3824 105.615 88.5499 105.546 88.7928ZM35.598 107.677C35.6144 107.352 35.6013 107.019 35.5586 106.677L33.5545 90.2011C33.5354 90.0316 33.4715 89.8813 33.3723 89.7727C32.9882 89.3591 32.829 89.5331 32.8946 90.2947C33.4166 96.3087 34.1126 102.303 34.9825 108.278C35.035 108.636 35.1187 108.862 35.2336 108.957C35.424 109.122 35.5455 108.695 35.598 107.677ZM25.6462 103.989C25.6696 104.091 25.6654 104.208 25.634 104.333C25.6026 104.458 25.5446 104.587 25.464 104.713C25.0405 105.373 25.0225 105.555 25.4099 105.259C25.4886 105.197 25.5494 105.12 25.592 105.028C25.9663 104.194 25.9646 103.296 25.5871 102.334C25.528 102.18 25.4624 102.086 25.3902 102.054C25.2556 101.998 25.2162 102.09 25.272 102.329L25.6462 103.989ZM21.244 109.854C20.6071 110.756 20.0179 111.69 19.4762 112.655C19.4466 112.711 19.4286 112.769 19.422 112.828C19.3991 113.123 19.4926 113.105 19.7027 112.774C20.3921 111.697 21.0601 110.607 21.7069 109.504C21.8283 109.297 21.7906 109.245 21.5936 109.346C21.5083 109.392 21.4426 109.463 21.3966 109.558C21.3113 109.735 21.2604 109.834 21.244 109.854Z" fill="#FD9148"/>
<path d="M34.879 36.2319C35.4535 35.4473 36.1806 34.8433 37.0604 34.4198C39.8738 33.0673 42.8004 32.0283 45.8403 31.3028C46.3721 31.1748 47.0286 30.6823 47.8099 29.8255C48.3319 29.2478 50.1079 27.4947 53.1379 24.5665C55.4851 22.2915 58.2558 20.8454 61.45 20.2283C61.7487 20.1692 62.1032 20.0691 62.5136 19.9279C62.8681 19.8032 63.2292 19.7096 63.5969 19.6472C64.0893 19.5586 64.2026 19.6686 63.9367 19.9771C63.6347 20.3251 62.9469 20.6222 61.8734 20.8684C60.5472 21.1737 59.2866 21.6284 58.0917 22.2324C57.1955 22.6855 56.1056 23.4487 54.822 24.5222C52.5011 26.4623 50.2047 28.4353 47.9331 30.441C47.1353 31.1403 46.2326 31.6524 45.2247 31.9774C41.6695 33.1264 38.303 34.6348 35.1252 36.5027C34.6065 36.8047 34.5245 36.7145 34.879 36.2319Z" fill="#FAA575"/>
<path d="M95.2793 25.1082C95.102 24.7996 95.1808 24.6568 95.5157 24.6798C95.6643 24.6887 95.8085 24.7342 95.9356 24.8124C96.0627 24.8905 96.1688 24.9989 96.2444 25.1279C98.3356 28.6897 100.02 32.309 101.297 35.9857C101.369 36.1893 101.389 36.3731 101.356 36.5372C101.267 36.987 101.059 37.0346 100.73 36.68C100.625 36.5651 100.537 36.4108 100.464 36.2171C99.0463 32.373 97.3179 28.67 95.2793 25.1082Z" fill="#F6CDAA"/>
<path d="M95.9392 60.4589C95.2268 62.4188 94.5177 64.3655 93.8119 66.299C92.919 68.7414 92.0852 70.6339 91.3104 71.9766C89.5935 74.9508 87.4548 77.6181 84.8942 79.9784C82.4879 81.7872 80.5084 83.084 78.9556 83.8685C69.9509 88.4021 61.8243 87.2367 54.5759 80.3724C52.6982 78.6883 51.1602 77.1043 49.962 75.6205C47.7231 72.84 45.9996 69.5982 44.7916 65.8952C44.0661 63.6662 43.6869 61.6801 43.6541 59.937C43.6541 59.8057 43.6377 59.6973 43.6048 59.612C43.4735 59.2738 43.3258 59.3264 43.1617 59.7695C42.9319 60.3867 43.0074 61.9871 43.3882 64.5706L42.5264 65.063L42.2802 61.9854C42.4181 61.3486 42.3426 60.7626 42.0537 60.2275C42.0225 60.1664 41.9692 60.1192 41.9039 60.0947C41.8386 60.0702 41.7658 60.0701 41.6992 60.0945C40.803 60.4195 40.0102 60.9136 39.3208 61.5767C39.2663 61.6295 39.1993 61.6675 39.1261 61.6873C39.0529 61.7071 38.9759 61.7081 38.9022 61.69C36.0495 60.9809 34.6838 59.2328 34.8053 56.4457C34.8611 55.2212 35.1713 54.1067 35.736 53.1022C36.3466 52.0221 37.1689 51.2901 38.203 50.906C39.329 50.4891 40.5272 50.5121 41.7977 50.9749C41.929 51.0209 42.0553 51.1145 42.1768 51.2556C42.5773 51.7152 42.8071 51.5593 42.8662 50.7878C42.9942 49.1431 43.0927 47.4984 43.1617 45.8538C43.3324 41.8455 45.4153 39.3752 49.4105 38.4428C51.2751 38.0062 52.8984 37.7009 54.2805 37.527C56.6539 37.2249 57.8554 37.0723 57.885 37.069C62.2577 36.3074 65.8852 35.38 68.7675 34.2868C74.2465 32.2121 79.0656 29.1558 83.2249 25.118C83.7764 24.5862 84.2393 24.6534 84.6135 25.3199C87.7552 30.9334 90.5439 36.7112 92.9797 42.653C92.9961 42.6924 93.3031 43.4081 93.9005 44.8C94.5637 46.3363 95.0906 47.9236 95.4812 49.5617C95.5063 49.6633 95.5644 49.7537 95.6463 49.8188C95.7283 49.8838 95.8296 49.9198 95.9342 49.9211C99.1448 49.9802 101.021 51.5855 101.563 54.737C102.17 58.289 100.809 60.5098 97.4804 61.3994C97.4008 61.4207 97.3189 61.4247 97.2412 61.4111C97.1635 61.3974 97.092 61.3665 97.0324 61.3207L95.9392 60.4589ZM77.8329 42.5299C78.4533 42.7367 79.2888 42.8615 80.3393 42.9042C83.806 43.0453 87.0592 43.9382 90.0991 45.5829C90.7852 45.9539 90.992 45.775 90.7195 45.0462C90.145 43.5164 88.937 42.3904 87.0953 41.6682C84.5676 40.6768 81.9577 40.0465 79.2659 39.7773C78.5141 39.7051 77.9429 39.8019 77.5522 40.0678C76.8661 40.5405 76.8349 41.2628 77.4587 42.2345C77.5479 42.3747 77.68 42.479 77.8329 42.5299ZM59.8153 40.1466C55.83 39.8512 52.2271 40.8754 49.0067 43.2193C47.989 43.9612 47.2783 44.9017 46.8745 46.0409C46.7038 46.5333 46.8581 46.6794 47.3374 46.4791C47.9217 46.2329 48.4781 45.944 49.0067 45.6125C49.8536 45.0839 50.3904 44.7672 50.6169 44.6621C52.1893 43.9202 53.8488 43.4639 55.5952 43.2932C56.6983 43.1848 57.7996 43.0732 58.8994 42.9583C59.6117 42.8861 60.1157 42.676 60.4111 42.328C60.9035 41.747 60.8411 41.0871 60.224 40.3485C60.1228 40.2316 59.9759 40.159 59.8153 40.1466ZM75.7549 42.722C73.4635 42.9386 71.8812 44.1927 71.008 46.4841C70.0034 51.2638 70.0363 55.8154 71.1065 60.1388C71.4315 61.4552 71.1377 62.4401 70.225 63.0934L67.3444 64.1668C67.1179 64.2522 67.1195 64.3359 67.3493 64.418C68.7412 64.9367 70.1413 65.26 71.5496 65.388C73.1812 65.5358 74.5468 65.2666 75.6466 64.5805C77.6983 63.2936 77.9905 61.2796 76.5231 58.5385C75.594 56.8019 75.054 55.2426 74.903 53.8605C75.0081 53.5847 75.228 53.478 75.5628 53.5404C77.608 52.224 79.4595 50.6631 81.1174 48.8575C80.8482 50.8141 81.6163 51.8285 83.4219 51.9007C84.7284 51.9499 85.3423 51.3721 85.2635 50.1674C85.211 49.3664 85.2241 48.8034 85.3029 48.4784C87.0231 49.0463 88.4971 49.8867 89.7248 50.9995C89.971 51.2195 90.214 51.3016 90.4536 51.2458C90.4824 51.2392 90.5088 51.2252 90.5306 51.2049C90.5524 51.1846 90.569 51.1585 90.5791 51.1287C90.5892 51.099 90.5924 51.0664 90.5886 51.0337C90.5848 51.001 90.5739 50.9691 90.557 50.9405C90.0285 50.0738 89.3719 49.3171 88.5873 48.6704C89.2012 48.283 89.3949 47.766 89.1684 47.1193C89.0108 46.6728 88.8697 46.2198 88.7449 45.7602C88.7232 45.6841 88.6871 45.6139 88.6388 45.5537C88.5905 45.4936 88.5311 45.4449 88.4642 45.4106C86.5011 44.429 84.932 43.8906 83.7567 43.7954C82.1646 43.6674 80.3787 43.5181 78.3992 43.3474C78.1464 43.3244 77.9101 43.2522 77.6901 43.1307C77.0303 42.763 76.3852 42.6268 75.7549 42.722ZM52.5176 49.8177C52.4257 50.645 52.6178 51.2917 53.0938 51.7579C53.5304 52.1813 54.0983 52.311 54.7975 52.1469C56.2715 51.8055 56.8591 50.6942 56.5604 48.8132C57.5748 49.0266 58.5087 49.4205 59.3622 49.995C59.4903 50.0804 59.5937 50.2035 59.6725 50.3643C59.9975 51.0307 60.224 51.0553 60.352 50.4382C60.3881 50.2642 60.3881 50.082 60.352 49.8916C60.0205 48.0565 58.8452 47.0405 56.8263 46.8435C52.6342 46.4365 49.8323 48.1534 48.4207 51.9942C48.2204 52.5425 48.3583 52.6541 48.8343 52.3291L52.5176 49.8177ZM95.8801 58.8783C96.5432 59.5676 97.313 59.6185 98.1895 59.0309C98.9216 58.5385 99.4403 57.9558 99.7456 57.2828C100.054 56.5934 100.084 55.863 99.8342 55.0915C99.4501 53.8769 98.5326 53.1005 97.0816 52.7624C96.3856 52.5983 95.8341 52.81 95.4271 53.3976C94.0811 55.3378 94.2321 57.1646 95.8801 58.8783ZM39.3057 58.9465C39.6151 59.0016 39.9332 58.9904 40.2418 58.9134C40.5504 58.8364 40.8436 58.6952 41.1045 58.4978C41.3653 58.3005 41.5889 58.0508 41.7623 57.7631C41.9357 57.4754 42.0556 57.1553 42.1151 56.8211C42.2353 56.1461 42.1024 55.4545 41.7456 54.8985C41.3888 54.3425 40.8373 53.9676 40.2124 53.8563C39.903 53.8011 39.5849 53.8124 39.2763 53.8894C38.9676 53.9664 38.6745 54.1076 38.4136 54.305C38.1527 54.5023 37.9292 54.752 37.7558 55.0397C37.5824 55.3274 37.4625 55.6475 37.403 55.9817C37.2827 56.6567 37.4156 57.3483 37.7725 57.9043C38.1293 58.4603 38.6808 58.8352 39.3057 58.9465ZM81.9348 65.1861C83.7272 66.67 85.7395 67.0803 87.9718 66.4172C90.841 65.5637 92.4889 63.6301 92.9157 60.6165C93.0339 59.7794 92.7499 58.7896 92.0638 57.6472C90.5537 55.126 88.4117 54.0066 85.6378 54.2889C82.4699 54.6139 80.5741 56.3242 79.9503 59.4199C79.4776 61.777 80.1391 63.699 81.9348 65.1861ZM58.8049 60.5447C58.6466 58.9305 57.8251 57.448 56.5212 56.4234C55.2172 55.3988 53.5376 54.9161 51.8519 55.0814C51.0172 55.1632 50.2061 55.4017 49.4649 55.7832C48.7237 56.1647 48.067 56.6817 47.5322 57.3048C46.9974 57.9279 46.5949 58.6448 46.3479 59.4146C46.1009 60.1843 46.0141 60.992 46.0925 61.7913C46.2508 63.4055 47.0722 64.8881 48.3762 65.9126C49.6801 66.9372 51.3597 67.4199 53.0455 67.2546C53.8802 67.1728 54.6913 66.9343 55.4325 66.5528C56.1737 66.1713 56.8304 65.6543 57.3652 65.0312C57.9 64.4081 58.3024 63.6912 58.5494 62.9215C58.7965 62.1517 58.8833 61.3441 58.8049 60.5447ZM61.4944 69.8444C62.8305 71.975 64.5261 73.513 66.5811 74.4584C68.6197 75.3973 70.7782 75.6452 73.0564 75.202C76.313 74.5717 78.7603 72.602 80.3984 69.2929C73.9379 69.2798 67.6365 69.4636 61.4944 69.8444Z" fill="#FDBEAF"/>
<path d="M90.6063 26.6199C90.5045 26.0684 90.6605 26.0191 91.0741 26.4722C91.1562 26.5641 91.2317 26.6741 91.3006 26.8021C93.0569 30.0816 94.7689 33.8585 96.4366 38.1327C97.0636 39.7445 97.3902 41.2841 97.4165 42.7516C97.4198 42.919 97.3935 42.9239 97.3377 42.7663C95.391 37.3989 93.1899 32.1383 90.7343 26.9843C90.672 26.853 90.6293 26.7315 90.6063 26.6199Z" fill="#F6C197"/>
<path d="M55.009 35.7346C55.6885 35.8692 55.6787 35.9611 54.9794 36.0103C53.9979 36.0793 53.0262 36.2073 52.0643 36.3944C51.0598 36.5914 50.0979 36.7457 49.1787 36.8573C47.3962 37.0772 45.6546 37.4695 43.9541 38.0342C41.9812 38.6907 40.4416 39.5426 39.3353 40.5898C37.2835 42.5365 36.2609 45.0905 36.2675 48.2519C36.2675 48.3865 36.2445 48.5079 36.1985 48.6162C35.9129 49.3155 35.7504 49.2154 35.711 48.3159C35.5436 44.4652 36.7123 41.509 39.2171 39.4474C40.7862 38.1573 43.1499 37.156 46.3079 36.4437C48.8488 35.8692 51.4406 35.6 54.0832 35.6361C54.3918 35.6394 54.7004 35.6722 55.009 35.7346Z" fill="#F6C197"/>
<path d="M77.4585 42.2345C76.8347 41.2628 76.8659 40.5406 77.552 40.0679C77.9427 39.802 78.5139 39.7051 79.2656 39.7774C81.9575 40.0465 84.5673 40.6768 87.0951 41.6682C88.9367 42.3904 90.1448 43.5164 90.7193 45.0462C90.9918 45.775 90.785 45.9539 90.0989 45.583C87.059 43.9383 83.8057 43.0454 80.3391 42.9042C79.2886 42.8615 78.4531 42.7368 77.8327 42.53C77.6798 42.479 77.5477 42.3747 77.4585 42.2345Z" fill="#221824"/>
<path d="M60.2239 40.3485C60.841 41.0871 60.9034 41.747 60.411 42.328C60.1155 42.676 59.6116 42.8861 58.8993 42.9583C57.7995 43.0732 56.6981 43.1848 55.5951 43.2931C53.8487 43.4638 52.1892 43.9202 50.6168 44.6621C50.3903 44.7671 49.8535 45.0839 49.0065 45.6124C48.478 45.944 47.9216 46.2329 47.3373 46.4791C46.858 46.6794 46.7037 46.5333 46.8744 46.0408C47.2782 44.9017 47.9889 43.9612 49.0065 43.2193C52.227 40.8754 55.8298 39.8511 59.8152 40.1466C59.9757 40.159 60.1226 40.2315 60.2239 40.3485Z" fill="#18111A"/>
<path d="M88.5871 48.6704C86.2136 47.1965 83.6186 46.5333 80.8019 46.681C79.6562 46.7401 78.7124 47.3179 77.9705 48.4144C76.7657 50.1904 75.9631 51.899 75.5626 53.5404C75.2277 53.4781 75.0078 53.5848 74.9028 53.8605C74.6303 52.9971 74.5745 52.1338 74.7353 51.2704C74.9159 50.302 75.0061 49.8063 75.0061 49.7833C75.2655 47.482 75.515 45.1283 75.7546 42.722C76.3849 42.6268 77.03 42.763 77.6898 43.1307C77.9098 43.2522 78.1461 43.3244 78.3989 43.3474C80.3784 43.5181 82.1643 43.6674 83.7564 43.7955C84.9317 43.8907 86.5009 44.4291 88.464 45.4106C88.5308 45.4449 88.5903 45.4936 88.6386 45.5537C88.6869 45.6139 88.723 45.6842 88.7447 45.7602C88.8694 46.2198 89.0106 46.6728 89.1681 47.1193C89.3946 47.766 89.201 48.2831 88.5871 48.6704Z" fill="#FCAE9E"/>
<path d="M75.7547 42.722C75.5151 45.1283 75.2656 47.482 75.0062 49.7833C75.0062 49.8062 74.916 50.302 74.7354 51.2704C74.5746 52.1338 74.6304 52.9971 74.9029 53.8605C75.0539 55.2426 75.5939 56.8019 76.5229 58.5385C77.9903 61.2796 77.6981 63.2936 75.6464 64.5805C74.5466 65.2666 73.181 65.5358 71.5495 65.388C70.1412 65.26 68.741 64.9367 67.3491 64.418C67.1193 64.3359 67.1177 64.2522 67.3442 64.1668L70.2249 63.0934C70.8978 63.205 71.3837 63.0343 71.6824 62.5813C71.8531 62.3219 71.9401 61.8853 71.9434 61.2714C71.9795 56.3078 71.6676 51.3787 71.0078 46.4841C71.881 44.1927 73.4633 42.9386 75.7547 42.722Z" fill="#F98D7D"/>
<path d="M71.0078 46.4841C71.6676 51.3788 71.9795 56.3079 71.9434 61.2715C71.9401 61.8854 71.8531 62.322 71.6824 62.5813C71.3837 63.0343 70.8978 63.205 70.2249 63.0934C71.1375 62.4402 71.4313 61.4553 71.1063 60.1389C70.0361 55.8155 70.0032 51.2639 71.0078 46.4841Z" fill="#EB8075"/>
<path d="M88.587 48.6704C89.3716 49.3171 90.0281 50.0738 90.5567 50.9405C90.5736 50.9691 90.5844 51.001 90.5882 51.0337C90.5921 51.0664 90.5888 51.099 90.5787 51.1287C90.5687 51.1585 90.5521 51.1846 90.5303 51.2049C90.5085 51.2252 90.4821 51.2392 90.4533 51.2458C90.2136 51.3016 89.9707 51.2195 89.7245 50.9995C88.4967 49.8867 87.0228 49.0463 85.3026 48.4784C83.8089 47.244 82.4137 47.3704 81.117 48.8575C79.4592 50.6631 77.6077 52.224 75.5625 53.5404C75.963 51.899 76.7657 50.1903 77.9704 48.4143C78.7124 47.3179 79.6562 46.7401 80.8019 46.681C83.6185 46.5333 86.2135 47.1964 88.587 48.6704Z" fill="#DF6B57"/>
<path d="M12.9592 48.8456C12.3233 50.3808 12.6511 51.9745 13.6913 52.4054C14.7315 52.8363 16.0902 51.941 16.7261 50.4059C17.362 48.8707 17.0342 47.2769 15.994 46.8461C14.9538 46.4152 13.5951 47.3104 12.9592 48.8456Z" fill="#8C87A7"/>
<path d="M56.5602 48.8132C56.3008 48.3405 55.8462 48.1665 55.1962 48.2913C53.9783 48.5178 53.0853 49.0266 52.5174 49.8177L48.8341 52.3291C48.3581 52.6541 48.2202 52.5425 48.4205 51.9943C49.8321 48.1534 52.634 46.4365 56.8261 46.8435C58.845 47.0405 60.0203 48.0565 60.3518 49.8916C60.3879 50.082 60.3879 50.2642 60.3518 50.4382C60.2238 51.0554 59.9973 51.0308 59.6723 50.3644C59.5935 50.2035 59.4901 50.0804 59.3621 49.995C58.5085 49.4206 57.5746 49.0266 56.5602 48.8132Z" fill="#C54E3A"/>
<path d="M85.3027 48.4784C85.2239 48.8034 85.2107 49.3664 85.2633 50.1674C85.342 51.3722 84.7282 51.9499 83.4216 51.9007C81.6161 51.8285 80.8479 50.8141 81.1171 48.8575C82.4138 47.3704 83.809 47.244 85.3027 48.4784Z" fill="#7F3228"/>
<path d="M56.5602 48.8132C56.8589 50.6943 56.2713 51.8055 54.7973 52.1469C54.0981 52.3111 53.5302 52.1814 53.0936 51.7579C52.6176 51.2917 52.4255 50.645 52.5174 49.8178C53.0854 49.0266 53.9783 48.5178 55.1962 48.2913C55.8462 48.1665 56.3009 48.3405 56.5602 48.8132Z" fill="#67332A"/>
<path d="M118.447 53.0471C117.879 54.3985 118.301 55.8647 119.389 56.3221C120.477 56.7794 121.819 56.0548 122.387 54.7035C122.955 53.3522 122.534 51.8859 121.446 51.4286C120.358 50.9712 119.015 51.6958 118.447 53.0471Z" fill="#8C87A7"/>
<path d="M95.8799 58.8782C94.232 57.1646 94.081 55.3377 95.4269 53.3976C95.834 52.81 96.3855 52.5982 97.0814 52.7624C98.5324 53.1005 99.45 53.8769 99.8341 55.0915C100.084 55.863 100.054 56.5934 99.7454 57.2828C99.4401 57.9558 98.9214 58.5384 98.1894 59.0309C97.3129 59.6185 96.5431 59.5676 95.8799 58.8782Z" fill="#F58477"/>
<path d="M37.4029 55.9817C37.1525 57.3874 38.0043 58.7148 39.3056 58.9465C40.6068 59.1783 41.8646 58.2267 42.115 56.8211C42.3654 55.4154 41.5135 54.088 40.2123 53.8563C38.9111 53.6245 37.6532 54.5761 37.4029 55.9817Z" fill="#FB9684"/>
<path d="M81.9347 65.1861C80.139 63.699 79.4775 61.7769 79.9503 59.4199C80.574 56.3242 82.4698 54.6139 85.6377 54.2889C88.4117 54.0065 90.5537 55.126 92.0638 57.6472C92.7499 58.7896 93.0338 59.7793 92.9156 60.6164C92.4889 63.63 90.8409 65.5636 87.9718 66.4172C85.7395 67.0803 83.7271 66.6699 81.9347 65.1861Z" fill="#FA8D78"/>
<path d="M53.0454 67.2547C56.5558 66.9105 59.1344 63.9064 58.8048 60.5448C58.4752 57.1832 55.3622 54.7372 51.8518 55.0814C48.3414 55.4256 45.7628 58.4297 46.0924 61.7913C46.422 65.1528 49.535 67.5989 53.0454 67.2547Z" fill="#FA8D78"/>
<path d="M54.576 80.3724C54.2379 80.9469 54.2198 81.3293 54.5218 81.5197L54.5908 93.5003C52.3552 92.8929 50.6481 91.6931 49.4696 89.9007C48.3141 88.1345 47.2718 86.0106 46.3427 83.5288C46.8745 81.523 46.8877 79.5106 46.3821 77.4917C45.3021 73.2044 44.3041 68.8973 43.3882 64.5706C43.0074 61.9871 42.9319 60.3867 43.1617 59.7695C43.3258 59.3264 43.4736 59.2738 43.6049 59.612C43.6377 59.6973 43.6541 59.8057 43.6541 59.937C43.687 61.6801 44.0661 63.6662 44.7916 65.8952C45.9997 69.5982 47.7232 72.84 49.962 75.6205C51.1602 77.1043 52.6982 78.6883 54.576 80.3724Z" fill="#C8582F"/>
<path d="M95.939 60.4589C95.765 61.8082 95.8651 63.0146 96.2394 64.0782C94.053 69.5178 92.5692 74.7292 91.7879 79.7125C91.4235 82.0367 92.3985 83.7454 94.7129 84.8386C92.7563 88.9979 89.6131 91.8851 85.283 93.5003L85.1206 80.9288C85.2453 80.5348 85.1698 80.2181 84.894 79.9784C87.4546 77.6181 89.5934 74.9508 91.3103 71.9766C92.085 70.6339 92.9188 68.7414 93.8118 66.299C94.5176 64.3654 95.2266 62.4188 95.939 60.4589Z" fill="#C55733"/>
<path d="M42.28 61.9855L42.5262 65.0631C43.488 69.984 44.2743 73.6772 44.8849 76.1425C45.3445 78.0072 45.5907 79.7963 45.6235 81.5099C45.6334 82.068 45.5447 82.4915 45.3576 82.7803C45.0031 83.3384 44.4762 83.3827 43.7769 82.9133C43.4093 82.6671 43.0744 82.6261 42.7724 82.7902C41.4396 82.7639 40.3694 82.2403 39.5618 81.2194C38.1404 79.4237 37.2376 77.3637 36.8535 75.0395C37.3131 70.7226 38.6361 66.67 40.8224 62.8817C41.131 62.3958 41.6168 62.0971 42.28 61.9855Z" fill="#C8582F"/>
<path d="M40.8225 62.8817C38.6362 66.67 37.3132 70.7226 36.8536 75.0395C36.4958 74.5832 36.3021 74.0481 36.2726 73.4342C36.2686 73.3696 36.2417 73.3078 36.1962 73.2588C36.1508 73.2097 36.0892 73.1762 36.0214 73.1634C35.5979 73.0879 35.5208 72.8449 35.79 72.4346C35.9311 72.2212 36.0198 72.0259 36.0559 71.8486C36.6304 68.9795 37.5955 66.2465 38.9513 63.6498C39.0153 63.5277 39.0445 63.3647 39.035 63.182C39.0022 62.7192 39.2189 62.5041 39.685 62.537C39.7583 62.5416 39.8312 62.5293 39.898 62.501C39.9647 62.4728 40.0233 62.4294 40.0691 62.3745C40.3908 61.9904 40.642 62.1594 40.8225 62.8817Z" fill="#FAA575"/>
<path d="M96.9584 63.4825C95.4023 68.5609 94.0695 73.6969 92.9599 78.8903C92.7072 80.0655 92.6858 80.9552 92.8959 81.5592C93.4803 83.2433 94.6391 83.803 96.3724 83.2383C97.3211 83.6454 97.3884 83.9737 96.5743 84.2232C95.8915 84.4333 95.271 84.6384 94.7129 84.8387C92.3986 83.7455 91.4236 82.0368 91.788 79.7126C92.5693 74.7293 94.0531 69.5179 96.2394 64.0783C96.3248 63.5399 96.5644 63.3413 96.9584 63.4825Z" fill="#F4EEE2"/>
<path d="M96.9582 63.4824L97.3767 63.8074C97.4983 63.9 97.6523 63.9502 97.815 63.9502C99.8832 63.9272 101.372 64.8201 102.281 66.6289C103.42 69.0385 103.974 71.4973 103.941 74.0054C103.934 75.6172 103.557 77.0699 102.808 78.3633C102.408 79.0527 101.717 79.7076 100.735 80.328C99.2479 81.2636 97.7937 82.2337 96.3722 83.2382C94.6389 83.8029 93.4801 83.2432 92.8957 81.5591C92.6856 80.9551 92.707 80.0654 92.9597 78.8902C94.0693 73.6968 95.4021 68.5608 96.9582 63.4824Z" fill="#C55733"/>
<path d="M43.3881 64.5707C44.304 68.8974 45.302 73.2044 46.382 77.4918C46.8876 79.5107 46.8744 81.523 46.3426 83.5288C44.8161 84.8781 43.6261 84.6318 42.7726 82.7902C43.0746 82.6261 43.4094 82.6671 43.7771 82.9133C44.4764 83.3827 45.0032 83.3384 45.3578 82.7803C45.5449 82.4915 45.6335 82.068 45.6237 81.5099C45.5909 79.7963 45.3447 78.0072 44.8851 76.1425C44.2745 73.6772 43.4882 69.984 42.5264 65.0631L43.3881 64.5707Z" fill="#F4EEE2"/>
<path d="M102.281 66.629C104.304 68.4608 105.389 70.739 105.536 73.4638C105.543 73.618 105.589 73.7707 105.674 73.9217C106.055 74.5881 105.817 74.7949 104.96 74.5422C104.478 74.3977 104.138 74.2188 103.941 74.0054C103.974 71.4973 103.421 69.0385 102.281 66.629Z" fill="#FAA65C"/>
<path d="M80.3981 69.293C79.0259 70.7472 77.5749 71.9668 76.0451 72.9516C73.3533 74.6882 70.4857 75.0034 67.4426 73.8971C65.7782 73.2897 63.7954 71.9389 61.4941 69.8445C67.6363 69.4637 73.9376 69.2798 80.3981 69.293Z" fill="#FDFDFD"/>
<path d="M80.3981 69.2929C78.76 72.602 76.3127 74.5716 73.0562 75.2019C70.7779 75.6451 68.6194 75.3973 66.5808 74.4584C64.5258 73.5129 62.8302 71.975 61.4941 69.8444C63.7954 71.9388 65.7782 73.2897 67.4426 73.897C70.4857 75.0033 73.3533 74.6882 76.0451 72.9516C77.5749 71.9667 79.0259 70.7472 80.3981 69.2929Z" fill="#E97066"/>
<path d="M33.7366 75.5171C33.8285 75.3169 33.9451 75.2364 34.0863 75.2758C34.1151 75.2841 34.1409 75.3 34.1616 75.3225C34.1824 75.345 34.1976 75.3735 34.2062 75.4058C34.2147 75.438 34.2163 75.4732 34.2109 75.5087C34.2055 75.5442 34.1932 75.5791 34.1749 75.6107C32.5959 78.2697 30.9282 80.8697 29.1719 83.4106C27.8621 85.3081 27.0479 86.8182 26.7295 87.9409C25.9121 90.8297 26.2338 93.7268 27.6946 96.6321C28.9782 99.1861 29.9483 102.41 30.6048 106.303C30.8511 107.761 30.8461 108.944 30.5901 109.854C30.5408 110.021 30.4965 110.019 30.4571 109.849C30.1879 108.664 30.0107 107.469 29.9253 106.264C29.8071 104.59 29.6545 103.4 29.4674 102.694C28.9487 100.744 28.1477 98.6132 27.0643 96.3021C25.2916 92.5171 25.4213 88.8059 27.4534 85.1685C29.2523 81.9481 31.2696 78.8705 33.5052 75.9357C33.561 75.8602 33.6381 75.7206 33.7366 75.5171Z" fill="#F07239"/>
<path d="M84.8943 79.9784C85.17 80.218 85.2455 80.5348 85.1208 80.9288C84.763 81.8578 84.2837 82.6884 83.6829 83.4204C82.5536 84.7894 81.3587 86.0992 80.0981 87.3499C78.1547 89.2868 75.9388 90.6639 73.4505 91.4813C70.8702 92.3316 68.3818 92.4809 65.9854 91.9294C63.4051 91.3352 61.1646 89.9811 59.2638 87.867C58.2757 86.7672 57.2974 85.6576 56.329 84.5382C55.9351 84.0819 55.6019 83.5977 55.3294 83.0856C55.0536 82.5702 54.7845 82.0482 54.5218 81.5197C54.2198 81.3293 54.2379 80.9468 54.576 80.3724C61.8244 87.2367 69.951 88.4021 78.9557 83.8685C80.5085 83.0839 82.488 81.7872 84.8943 79.9784Z" fill="#F4867C"/>
<path d="M85.1207 80.9287L85.2832 93.5002C85.0632 94.6886 85.2208 95.8031 85.7559 96.8437L78.3942 100.429C77.7442 100.744 77.3995 101.241 77.3601 101.921C77.1107 106.533 76.1668 111.144 74.5287 115.753C73.5866 118.415 72.2882 120.887 70.6337 123.168C69.8491 121.218 69.2779 119.896 68.9201 119.2C67.7186 116.856 66.8371 114.398 66.2758 111.828C66.046 110.781 66.0148 109.514 66.1822 108.027C66.4022 106.06 65.8375 104.245 64.4883 102.58C63.7726 101.694 62.6893 101.253 61.2383 101.256L54.7285 98.1338C54.896 96.5417 54.85 94.9971 54.5907 93.5002L54.5217 81.5196C54.7844 82.0482 55.0535 82.5701 55.3293 83.0855C55.6018 83.5976 55.935 84.0818 56.3289 84.5382C57.2973 85.6576 58.2756 86.7672 59.2637 87.8669C61.1645 89.981 63.405 91.3352 65.9853 91.9294C68.3817 92.4809 70.8701 92.3315 73.4503 91.4813C75.9387 90.6639 78.1546 89.2867 80.098 87.3499C81.3586 86.0991 82.5535 84.7893 83.6828 83.4204C84.2835 82.6883 84.7629 81.8577 85.1207 80.9287Z" fill="#FDBCAB"/>
<path d="M105.546 88.7928C105.615 88.5499 105.714 88.3824 105.842 88.2905C106.006 88.1691 106.065 88.2199 106.019 88.4432C105.323 91.7489 105.298 95.4044 105.945 99.4094C106.477 102.715 105.182 104.951 102.06 106.116C101.938 106.162 101.819 106.178 101.7 106.165C101.07 106.103 101.105 105.922 101.804 105.624C103.173 105.036 104.146 104.132 104.724 102.91C105.075 102.159 105.193 101.113 105.078 99.7737C104.986 98.7101 104.88 97.6482 104.758 96.5878C104.479 94.1421 104.742 91.5438 105.546 88.7928Z" fill="#F5B486"/>
<path d="M35.5981 107.677C35.5456 108.695 35.4241 109.121 35.2337 108.957C35.1188 108.862 35.0351 108.636 34.9826 108.278C34.1127 102.303 33.4167 96.3087 32.8947 90.2946C32.8291 89.533 32.9883 89.359 33.3724 89.7726C33.4716 89.8812 33.5355 90.0315 33.5546 90.201L35.5587 106.677C35.6014 107.019 35.6146 107.352 35.5981 107.677Z" fill="#F5B486"/>
<path d="M70.6336 123.168L70.4712 123.415C70.005 123.743 69.4486 123.848 68.8019 123.73C66.7107 120.168 65.1908 116.975 64.242 114.152C63.0898 110.722 62.0885 106.423 61.2383 101.256C62.6893 101.253 63.7726 101.694 64.4883 102.58C65.8375 104.245 66.4021 106.06 66.1822 108.027C66.0148 109.514 66.0459 110.781 66.2757 111.828C66.8371 114.398 67.7185 116.856 68.92 119.2C69.2779 119.896 69.849 121.219 70.6336 123.168Z" fill="#F58477"/>
<path d="M25.646 103.989L25.2718 102.329C25.216 102.09 25.2554 101.998 25.39 102.054C25.4622 102.086 25.5278 102.18 25.5869 102.334C25.9645 103.296 25.9661 104.194 25.5919 105.028C25.5492 105.12 25.4885 105.197 25.4097 105.259C25.0223 105.555 25.0404 105.373 25.4638 104.713C25.5444 104.587 25.6024 104.458 25.6338 104.333C25.6652 104.208 25.6694 104.091 25.646 103.989Z" fill="#E27136"/>
<path d="M21.3967 109.558C21.4427 109.463 21.5083 109.392 21.5937 109.346C21.7906 109.245 21.8284 109.297 21.7069 109.504C21.0602 110.607 20.3922 111.697 19.7028 112.774C19.4927 113.105 19.3991 113.123 19.4221 112.828C19.4287 112.769 19.4467 112.711 19.4763 112.655C20.0179 111.69 20.6072 110.756 21.244 109.854C21.2605 109.834 21.3113 109.735 21.3967 109.558Z" fill="#F07239"/>
<path d="M70.471 123.415C70.7271 124.078 70.8567 124.94 70.86 126C70.8764 129.89 70.8666 133.779 70.8305 137.665C70.8305 137.742 70.8082 137.815 70.7667 137.876C70.7252 137.937 70.6665 137.982 70.599 138.005C70.3692 138.081 70.128 138.11 69.8752 138.094C69.7078 138.084 69.5486 138.104 69.3975 138.153C68.764 138.36 68.4603 138.146 68.4865 137.513C68.503 137.122 68.5112 136.914 68.5112 136.887C68.3864 132.515 68.4833 128.129 68.8017 123.73C69.4484 123.848 70.0049 123.743 70.471 123.415Z" fill="#F88B44"/>
</svg>
