<svg width="139" height="141" viewBox="0 0 139 141" fill="none" xmlns="http://www.w3.org/2000/svg">
<path d="M19.6982 117.655C25.0131 123.531 31.3702 128.342 38.7696 132.088C48.1355 136.832 57.9116 139.308 68.0982 139.519C71.2989 139.584 74.5718 139.392 77.917 138.942C93.9206 136.792 107.585 129.81 118.911 117.995C119.088 117.814 119.139 117.626 119.064 117.429" stroke="#ACCDCB" stroke-width="2"/>
<path d="M119.064 117.429C119.3 117.412 119.536 117.273 119.773 117.01C128.873 106.794 134.448 94.9742 136.5 81.5509C137.551 74.6964 137.689 68.2243 136.914 62.1348C134.924 46.4725 128.549 32.9688 117.788 21.6234C115.5 19.2106 113.076 17.0029 110.515 15.0004C97.4234 4.77117 82.4572 0.147354 65.6164 1.12891C62.2975 1.3226 59.0443 1.73459 55.8567 2.36488C42.3315 5.04693 30.7679 11.2547 21.1657 20.9882C12.6961 29.5661 6.81826 39.7576 3.53218 51.5625C2.63598 54.7797 1.98434 57.9968 1.57728 61.2139C0.74673 67.7336 0.812383 74.2762 1.77424 80.8418C3.85554 95.053 9.83022 107.324 19.6983 117.655" stroke="#FEF3F0" stroke-width="2"/>
<path d="M119.063 117.429C113.512 114.55 110.106 112.696 108.846 111.869C107.572 111.032 106.375 110.479 105.256 110.21C104.934 110.131 104.66 110.016 104.434 109.865C104.184 109.694 103.938 109.522 103.695 109.348C103.314 109.072 102.922 108.856 102.518 108.698C100.374 107.854 98.2308 106.973 96.0872 106.054" stroke="#ABC2BC" stroke-width="2"/>
<path d="M96.0874 106.054C92.844 106.014 90.2276 104.923 88.2382 102.779C87.5094 101.991 87.0203 101.038 86.7708 99.9181C86.5311 98.8381 86.4113 97.7416 86.4113 96.6288C86.408 95.3157 86.4064 94.641 86.4064 94.6049C86.3407 92.7272 86.2767 90.8478 86.2144 88.9667" stroke="#FABD9E" stroke-width="2"/>
<path d="M86.2144 88.9668C92.8555 81.285 95.4275 72.3 93.9306 62.0117" stroke="#A7847D" stroke-width="2"/>
<path d="M93.9304 62.0116C93.9829 61.6571 94.1257 61.5307 94.3588 61.6324C94.4159 61.6579 94.4677 61.7062 94.5091 61.7726C94.5505 61.8391 94.5802 61.9214 94.5952 62.0116C94.6871 62.5303 94.9399 62.8668 95.3535 63.0211C95.649 63.1294 96.0183 63.0982 96.4615 62.9275C99.6556 61.703 101.244 59.2639 101.228 55.6101C101.208 50.8271 98.8595 48.4241 94.1816 48.4011" stroke="#FACEC3" stroke-width="2"/>
<path d="M94.1816 48.4012C94.418 43.8972 94.4098 39.5196 94.157 35.2684" stroke="#F4BAA1" stroke-width="2"/>
<path d="M94.157 35.2684L93.5168 31.5654" stroke="#E7A494" stroke-width="2"/>
<path d="M93.5169 31.5654C97.2002 29.1952 99.3094 25.9239 99.8445 21.7515C100.068 20.0182 100.11 18.5442 99.9725 17.3296C99.8018 15.8195 99.2848 14.4029 98.4214 13.08C97.8371 12.1936 97.1165 11.5666 96.2597 11.1989C93.9453 10.2141 91.4931 9.99907 88.903 10.5539C87.6259 10.8263 86.7281 10.48 86.2094 9.51485C86.1265 9.35851 86.0137 9.24053 85.8893 9.18001C84.9997 8.76309 84.1659 8.86814 83.3879 9.49516C82.6919 10.0565 82.1207 9.94982 81.6742 9.17508C81.3919 8.68923 81.0505 8.26083 80.65 7.88987C80.3119 7.578 79.849 7.29897 79.2614 7.05276C77.2786 6.22549 75.322 5.75113 73.3917 5.62967C67.8274 5.28497 62.4978 6.43395 57.4029 9.0766C55.7287 9.94326 54.6355 11.2843 54.1234 13.0997C53.887 13.9433 53.5292 14.7296 53.0499 15.4584C52.2226 16.7091 51.0786 17.039 49.6177 16.4481C47.7203 15.6832 45.8934 15.7883 44.1371 16.7633C41.6192 18.1617 39.9204 20.2365 39.0406 22.9875C38.3512 25.1508 38.5071 27.2945 39.5084 29.4184C40.4801 31.48 42.0903 32.3795 44.339 32.1169" stroke="#FDBD95" stroke-width="2"/>
<path d="M44.339 32.1169L44.2061 33.8995" stroke="#E7A494" stroke-width="2"/>
<path d="M44.2059 33.8994L44.137 48.539" stroke="#F4BAA1" stroke-width="2"/>
<path d="M44.1371 48.5391C43.7038 48.4504 43.2836 48.3569 42.8765 48.2584C42.3874 48.1402 41.9606 48.0942 41.5962 48.1205C39.5083 48.2682 38.0114 49.2153 37.1053 50.9618C35.9958 53.1054 35.8497 55.5199 36.6671 58.2053C37.2646 60.1717 38.4644 61.6423 40.2667 62.6173C41.0841 63.0605 41.9081 63.2279 42.7386 63.1196C43.323 63.0441 43.9664 62.8242 44.6689 62.4598" stroke="#FABFAB" stroke-width="2"/>
<path d="M44.669 62.4597C44.4261 65.9132 44.6362 69.3027 45.2993 72.6282C46.4811 78.5602 49.1549 83.6994 53.3208 88.0458" stroke="#A7847D" stroke-width="2"/>
<path d="M53.3208 88.0458C53.0417 91.3319 52.9646 94.554 53.0893 97.712C53.1747 99.79 52.7922 101.422 51.942 102.607C51.2132 103.618 50.3203 104.284 49.2632 104.606C46.8537 105.338 45.0892 105.919 43.9697 106.349" stroke="#FABD9E" stroke-width="2"/>
<path d="M43.9696 106.349C41.4386 107.452 38.8845 108.503 36.3076 109.501C35.8119 109.694 35.5656 110.029 35.5689 110.505C35.5689 110.523 35.5654 110.541 35.5584 110.558C35.5515 110.575 35.5413 110.59 35.5285 110.603C35.5027 110.628 35.4676 110.643 35.431 110.643C34.1737 110.636 33.2037 110.848 32.5208 111.278C31.7921 111.741 31.4096 111.981 31.3735 111.997C27.4342 113.783 23.5424 115.669 19.6982 117.655" stroke="#ABC2BC" stroke-width="2"/>
<path d="M55.9109 69.0089C56.6462 68.9367 57.1698 69.1911 57.4817 69.7722C57.4916 69.7919 57.5408 70.0463 57.6294 70.5354C57.6918 70.8703 57.9397 71.0722 58.373 71.1411" stroke="#3D1B1A" stroke-width="2"/>
<path d="M58.3728 71.1411C58.5665 74.3156 59.5924 77.1848 61.4504 79.7486C62.7668 81.5673 64.3262 82.754 66.1284 83.3088C69.815 84.4447 72.9501 83.8029 75.5336 81.3835C76.4462 80.5267 77.2472 79.3957 77.9366 77.9907C78.5833 76.6743 79.0692 75.3595 79.3942 74.0464C79.752 72.5954 80.0967 71.4563 80.4283 70.629" stroke="#A36252" stroke-width="2"/>
<path d="M80.4285 70.629C81.0555 70.5535 81.5922 70.2351 82.0387 69.6738C82.2094 69.4571 82.4096 69.375 82.6394 69.4275C82.7074 69.4435 82.7685 69.4855 82.813 69.547C82.8575 69.6085 82.8831 69.6859 82.8856 69.7673L82.9891 72.5987C82.9917 72.6881 83.0137 72.7723 83.0518 72.8388C83.09 72.9053 83.1422 72.9506 83.2008 72.968C83.342 73.0107 83.4782 72.9631 83.6095 72.8252" stroke="#391B1A" stroke-width="2"/>
<path d="M83.6094 72.8252C83.872 72.8285 84.1116 72.7464 84.3283 72.579C86.5803 70.8227 88.3596 68.6725 89.6661 66.1283C90.5 64.5033 91.3469 62.8849 92.207 61.2731" stroke="#A36A4F" stroke-width="2"/>
<path d="M86.2144 88.9667C85.4495 89.4165 84.8668 89.9828 84.4663 90.6656" stroke="#A3593A" stroke-width="2"/>
<path d="M84.4662 90.6655C80.1559 93.7612 75.5205 95.3304 70.5602 95.3731C65.8199 95.4124 61.329 94.0796 57.0876 91.3746" stroke="#984638" stroke-width="2"/>
<path d="M57.0878 91.3746L53.3208 88.0458" stroke="#A3593A" stroke-width="2"/>
<path d="M57.0876 91.3746C57.7934 92.563 58.6814 93.5807 59.7516 94.4276C60.5067 95.0218 61.6064 95.7736 63.0508 96.6829C66.8031 99.0399 70.8245 99.5471 75.1151 98.2045C79.0381 96.9734 82.1551 94.4604 84.4662 90.6655" stroke="#EB7E59" stroke-width="2"/>
<path d="M96.0875 106.054C96.9706 108.558 97.0789 111.195 96.4125 113.962C95.5163 117.688 94.0374 120.954 91.9758 123.761C90.0981 126.318 87.7509 128.593 84.9342 130.586C80.9194 133.422 76.4236 134.95 71.4469 135.17C68.0918 135.321 64.8681 134.832 61.7757 133.703C57.1798 132.022 53.2848 129.188 50.0906 125.199C45.695 119.707 43.6547 113.424 43.9699 106.349" stroke="#A89679" stroke-width="2"/>
<path d="M93.9305 62.0117L93.3149 59.6727" stroke="#A46A5E" stroke-width="2"/>
<path d="M93.4037 57.4125C94.1751 58.7781 95.1682 59.0703 96.3828 58.289C97.7813 57.383 98.4264 56.1388 98.318 54.5565C98.236 53.3451 97.8223 52.421 97.0771 51.7841C96.0825 50.9339 94.8432 51.1128 93.3594 52.3209" stroke="#F19A8D" stroke-width="2"/>
<path d="M94.1571 35.2684C91.0975 36.0628 87.7458 36.0727 84.1019 35.2979C81.8302 34.8154 78.3488 34.3131 73.6577 33.7911C71.2382 33.5219 69.0847 33.3611 67.1971 33.3086C64.561 33.2298 62.3993 33.2774 60.712 33.4514C57.5178 33.7829 54.3187 34.039 51.1147 34.2195C50.015 34.2852 48.8643 34.2688 47.6628 34.1703C46.5237 34.0751 45.3714 33.9848 44.2061 33.8995" stroke="#DE7654" stroke-width="2"/>
<path d="M94.1817 48.4011L93.3594 52.3208" stroke="#F19F82" stroke-width="2"/>
<path d="M93.3594 52.3208C93.6417 53.89 93.6565 55.5872 93.4037 57.4124" stroke="#EB866B" stroke-width="2"/>
<path d="M93.4036 57.4125C92.8554 58.0592 92.8258 58.8126 93.315 59.6727" stroke="#F19F82" stroke-width="2"/>
<path d="M93.315 59.6727C92.8324 60.1224 92.4631 60.6559 92.207 61.273" stroke="#9E563C" stroke-width="2"/>
<path d="M92.207 61.2731C91.8722 61.1779 91.6424 61.2698 91.5177 61.5488C90.5853 63.7089 89.5086 65.7919 88.2874 67.7976C87.5061 69.0812 86.339 70.3812 84.7863 71.6976C84.7367 71.7408 84.6726 71.7645 84.6051 71.7645C84.5376 71.7645 84.471 71.7408 84.417 71.6976C84.2167 71.5335 83.9951 71.4235 83.7522 71.3677" stroke="#F0A073" stroke-width="2"/>
<path d="M83.7521 71.3676C83.7718 70.9245 83.757 70.4846 83.7078 70.048C83.6585 69.6179 83.4796 69.2355 83.1711 68.9006C81.2539 66.8521 78.8558 65.6982 75.9768 65.4389" stroke="#87503E" stroke-width="2"/>
<path d="M75.9769 65.4389C75.967 65.1467 76.0277 64.8972 76.1591 64.6904" stroke="#CA6D4D" stroke-width="2"/>
<path d="M76.1592 64.6903C77.7053 64.083 78.5031 63.1162 78.5523 61.79C78.572 61.2122 78.2979 60.4588 77.73 59.5298C76.7747 57.9705 76.1903 56.4998 75.977 55.1177C75.7931 53.9359 76.1427 52.7098 77.0258 51.4393" stroke="#DA7651" stroke-width="2"/>
<path d="M77.0256 51.4394C78.0236 49.9949 79.3548 49.0659 81.0192 48.6523" stroke="#CA6D4D" stroke-width="2"/>
<path d="M81.0193 48.6523C80.366 50.3462 80.604 51.3622 81.7333 51.7004C84.1363 52.4193 85.1293 51.5329 84.7124 49.0413C84.6599 48.7294 84.7666 48.6605 85.0325 48.8345C86.1946 49.5862 87.3288 50.402 88.4351 51.2818C88.6124 51.4197 88.7601 51.4492 88.8783 51.3704C88.9249 51.3391 88.9537 51.2804 88.9591 51.2052C88.9645 51.1301 88.9463 51.0436 88.9078 50.9617L88.3908 49.8242" stroke="#8F5641" stroke-width="2"/>
<path d="M88.3909 49.8243C88.8406 48.4193 88.5288 47.3015 87.4553 46.471C86.2899 45.5682 85.4101 44.7229 84.8159 43.935" stroke="#DA7651" stroke-width="2"/>
<path d="M84.8157 43.9349C86.3258 44.4766 87.7424 45.1594 89.0653 45.9834C89.3115 46.1377 89.4166 46.0704 89.3805 45.7815C89.2623 44.7868 88.9143 43.8988 88.3365 43.1175C87.8737 42.4839 87.1712 41.893 86.229 41.3448C83.9015 39.9857 81.3458 39.3505 78.562 39.4391C77.3277 39.4785 76.5891 40.0267 76.3461 41.0838C76.2214 41.6255 76.4709 42.1605 77.0946 42.6891" stroke="#824E3D" stroke-width="2"/>
<path d="M77.0947 42.689C76.6121 42.8762 76.1017 42.7974 75.5633 42.4527C75.5004 42.4131 75.4283 42.3921 75.3557 42.3921C75.2832 42.3921 75.2133 42.4131 75.1546 42.4527C73.569 43.5557 72.4545 45.028 71.811 46.8697" stroke="#DA7651" stroke-width="2"/>
<path d="M71.811 46.8698C71.1676 48.6163 70.795 50.4218 70.6932 52.2864C70.5028 55.8975 70.5554 59.7039 70.8508 63.7056C70.8676 63.9391 70.8055 64.1716 70.6743 64.3662C70.5431 64.5607 70.3505 64.706 70.1269 64.7791C69.2603 65.0647 68.4954 65.6441 67.8323 66.5173" stroke="#CA6D4D" stroke-width="2"/>
<path d="M67.8324 66.5172C63.1314 64.3965 59.1576 65.2271 55.9109 69.0089" stroke="#8B503E" stroke-width="2"/>
<path d="M55.9108 69.0089C55.1755 69.8231 54.8784 70.7849 55.0195 71.8945C55.095 72.5018 54.8784 72.6381 54.3695 72.3032C51.9436 70.7111 50.033 68.6035 48.6378 65.9806C48.2767 65.301 47.7465 64.244 47.0473 62.8094C46.5352 61.7622 46.0838 60.6657 45.6931 59.52" stroke="#9E563C" stroke-width="2"/>
<path d="M45.6931 59.52C46.1954 58.7781 45.9147 58.2956 44.8511 58.0723" stroke="#F1916A" stroke-width="2"/>
<path d="M44.8509 58.0724C45.3105 55.7383 45.1808 53.4469 44.4619 51.1982" stroke="#EA7D60" stroke-width="2"/>
<path d="M44.462 51.1981C44.5933 50.233 44.4849 49.3466 44.137 48.5391" stroke="#F1916A" stroke-width="2"/>
<path d="M93.5168 31.5653C91.4027 32.1004 89.2902 32.3926 87.1794 32.4418C84.0574 32.5206 80.9404 32.4287 77.8283 32.1661C69.7592 31.4833 61.6753 31.1681 53.5767 31.2206C52.4474 31.2272 51.3772 31.1927 50.3661 31.1172C49.3025 31.0352 48.2372 30.9515 47.1703 30.8661C46.1034 30.7808 45.1596 31.1977 44.3389 32.1168" stroke="#E77948" stroke-width="2"/>
<path d="M44.4621 51.1981C42.7977 50.0918 41.4534 50.2593 40.4292 51.7004C39.103 53.5716 39.1555 55.5134 40.5868 57.5257C41.286 58.5073 42.1674 59.0178 43.2311 59.0572C43.904 59.0801 44.4441 58.7519 44.8511 58.0723" stroke="#EF826A" stroke-width="2"/>
<path d="M45.6929 59.52C45.0134 60.3309 44.672 61.3108 44.6687 62.4598" stroke="#A35B46" stroke-width="2"/>
<path d="M77.011 69.9396C77.0372 70.6224 77.4624 70.8981 78.2864 70.7668C78.3793 70.7524 78.4641 70.7193 78.5287 70.6724C78.5933 70.6255 78.6343 70.5672 78.6458 70.5059C78.6688 70.3942 78.6409 70.2777 78.5621 70.1562" stroke="#F4B6A4" stroke-width="2"/>
<path d="M59.2345 70.6487C59.2116 70.9901 59.3757 71.1083 59.727 71.0033C62.0183 70.3008 64.3524 69.8166 66.7292 69.5506C66.959 69.5244 67.1116 69.4571 67.1871 69.3488C67.2856 69.201 67.2954 69.0123 67.2167 68.7825" stroke="#F8B0A0" stroke-width="2"/>
<path d="M68.2213 67.6548C68.0473 68.18 67.7125 68.5559 67.2168 68.7824" stroke="#905D54" stroke-width="2"/>
<path d="M67.2167 68.7825C64.515 69.2421 61.8543 69.8641 59.2346 70.6487" stroke="#926868" stroke-width="2"/>
<path d="M59.2345 70.6487C58.8898 70.7046 58.6026 70.8687 58.3728 71.1412" stroke="#905D54" stroke-width="2"/>
<path d="M83.6093 72.8252C83.5535 72.323 83.601 71.8371 83.7521 71.3677" stroke="#8C6551" stroke-width="2"/>
<path d="M80.4283 70.629L78.562 70.1563" stroke="#8C5D54" stroke-width="2"/>
<path d="M78.5621 70.1562L77.011 69.9396" stroke="#8A6E6C" stroke-width="2"/>
<path d="M77.0111 69.9396C74.5621 69.7295 72.233 69.0434 70.0237 67.8813" stroke="#8C5D54" stroke-width="2"/>
<path d="M84.8159 43.935C83.2631 43.1996 81.5889 42.8631 79.7932 42.9255C78.8477 42.9551 77.9483 42.8763 77.0947 42.6891" stroke="#71392E" stroke-width="2"/>
<path d="M88.3908 49.8243L87.0366 48.7164" stroke="#7E4032" stroke-width="2"/>
<path d="M87.0368 48.7163C86.7479 47.7314 86.0995 47.1471 85.0917 46.9633C84.3826 46.8352 83.6703 46.7417 82.9546 46.6826C81.7892 46.5874 81.0752 46.548 80.8126 46.5644C79.5454 46.6366 78.5376 47.2604 77.7891 48.4356C77.2081 49.3548 76.9537 50.356 77.0259 51.4394" stroke="#B9573E" stroke-width="2"/>
<path d="M76.1592 64.6904C76.2937 63.9189 75.9819 63.6694 75.2236 63.9419C74.4291 64.2242 73.7529 64.4393 73.1948 64.587C72.5251 64.7643 72.1804 64.5066 72.1607 63.8139C72.1246 62.3793 72.0228 60.9628 71.8554 59.5643C71.6026 57.4929 71.4664 56.0829 71.4467 55.3344C71.3909 53.2334 71.4598 51.1636 71.6535 49.125C71.6863 48.7803 71.7569 48.4455 71.8653 48.1205C72.1673 47.221 72.1492 46.8041 71.8111 46.8697" stroke="#B9573E" stroke-width="2"/>
<path d="M75.977 65.439C73.5675 65.2551 71.583 66.0693 70.0237 67.8814" stroke="#66322B" stroke-width="2"/>
<path d="M70.0234 67.8813C69.6722 68.1833 69.0714 68.1078 68.2212 67.6548" stroke="#CF7963" stroke-width="2"/>
<path d="M68.2213 67.6548C68.3657 67.0737 68.2361 66.6945 67.8323 66.5173" stroke="#6A322B" stroke-width="2"/>
<path d="M87.0367 48.7163C84.998 47.5673 82.9922 47.546 81.0193 48.6523" stroke="#6E372E" stroke-width="2"/>
<path d="M27.2076 33.5055C26.7119 33.4365 26.2261 33.6663 25.7501 34.1948C22.4705 37.8026 20.8554 42.0145 20.9047 46.8303C20.9145 47.7528 21.0491 48.4947 21.3084 49.0561C21.814 50.1558 22.5789 50.5235 23.6031 50.1591C24.3385 49.8965 25.0344 49.322 25.691 48.4356C26.5675 47.2571 27.2027 45.8734 27.5966 44.2845C28.3812 41.1232 28.5798 37.8634 28.1925 34.5051C28.1235 33.9175 27.7952 33.5842 27.2076 33.5055Z" stroke="#F8D5CC" stroke-width="2"/>
<path d="M113.017 103.857C114.359 104.803 115.845 105.504 117.473 105.96C118.474 106.242 119.149 105.893 119.497 104.911C119.838 103.953 119.694 102.989 119.064 102.021C118.292 100.832 117.728 100.043 117.37 99.6522C114.53 96.5467 112.56 93.346 111.461 90.05C108.9 82.3552 110.008 75.1117 114.785 68.3196C115.349 67.5186 117.148 65.3535 120.181 61.8245C120.894 61.0006 121.386 60.3276 121.659 59.8056C122.056 59.044 122.335 58.2479 122.496 57.4174C122.703 56.3439 122.259 55.7826 121.166 55.7333C119.988 55.6808 118.883 55.9319 117.852 56.4867C115.531 57.7407 113.491 59.351 111.732 61.3174C104.782 69.0943 102.111 78.2287 103.72 88.7205C104.429 93.3525 106.323 97.3149 109.402 100.608C110.686 101.98 111.891 103.063 113.017 103.857Z" stroke="#FCBF99" stroke-width="2"/>
<path d="M28.9163 56.7083C28.4042 56.2585 27.8806 56.2487 27.3455 56.6787C25.7566 57.9623 24.4123 59.4199 23.3125 61.0514C19.2419 67.1049 16.5976 73.7345 15.3797 80.9402C14.8938 83.8028 14.7904 86.4159 15.0694 88.7795C15.1384 89.3507 15.3157 89.7578 15.6013 90.0007C16.097 90.4242 16.6386 90.2765 17.2262 89.5576C17.5611 89.1439 17.8828 88.3429 18.1914 87.1546C18.3227 86.6523 18.4868 85.8086 18.6838 84.6235C19.6358 78.895 21.2624 73.8707 23.5637 69.5506C25.4053 66.0938 27.2306 62.6255 29.0394 59.1457C29.5942 58.0788 29.5531 57.2663 28.9163 56.7083Z" stroke="#FCBF9A" stroke-width="2"/>
<path d="M34.2739 74.9081C33.3974 74.9377 32.6391 75.307 31.9989 76.0161C30.1376 78.0777 28.5881 80.2952 27.3505 82.6687C26.2737 84.7303 25.2593 87.217 24.3073 90.1288C22.6758 95.1088 21.9174 100.256 22.0323 105.571C22.0455 106.283 22.1128 106.865 22.2342 107.314C22.3852 107.882 22.6035 108.429 22.8891 108.954C23.3487 109.791 24.0135 110.014 24.8834 109.624C26.4953 108.902 27.8314 107.705 28.8917 106.034C34.4955 97.2065 36.8131 87.5387 35.8447 77.0305C35.7758 76.2951 35.3982 75.6386 34.7121 75.0608C34.5886 74.9563 34.4322 74.9019 34.2739 74.9081Z" stroke="#FCBF99" stroke-width="2"/>
<path d="M69.0762 12.964C69.1156 12.9071 69.1307 12.8369 69.1184 12.7688C69.106 12.7007 69.0671 12.6403 69.0102 12.6009L68.994 12.5897C68.9371 12.5503 68.8669 12.5351 68.7988 12.5475C68.7307 12.5599 68.6703 12.5988 68.6309 12.6557L63.2991 20.3557C63.2597 20.4126 63.2445 20.4829 63.2569 20.5509C63.2693 20.619 63.3082 20.6794 63.3651 20.7188L63.3813 20.7301C63.4382 20.7695 63.5084 20.7846 63.5765 20.7723C63.6446 20.7599 63.705 20.721 63.7444 20.6641L69.0762 12.964Z" stroke="#EF8140" stroke-width="2"/>
<path d="M66.4888 22.1523C66.5383 22.1854 66.6599 22.1093 66.8466 21.9283C67.0333 21.7474 67.2816 21.4652 67.5771 21.0979C67.8727 20.7305 68.2098 20.2852 68.5692 19.7874C68.9285 19.2895 69.3032 18.7489 69.6717 18.1964C70.0402 17.6439 70.3953 17.0903 70.7168 16.5672C71.0383 16.0441 71.3198 15.5617 71.5454 15.1477C71.771 14.7337 71.9361 14.3961 72.0314 14.1541C72.1267 13.9122 72.1502 13.7707 72.1007 13.7377C72.0513 13.7046 71.9297 13.7808 71.7429 13.9617C71.5562 14.1426 71.308 14.4248 71.0124 14.7922C70.7169 15.1595 70.3798 15.6048 70.0204 16.1026C69.661 16.6005 69.2864 17.1411 68.9179 17.6936C68.5494 18.2461 68.1943 18.7998 67.8728 19.3228C67.5513 19.8459 67.2697 20.3283 67.0442 20.7423C66.8186 21.1563 66.6535 21.494 66.5582 21.7359C66.4629 21.9778 66.4393 22.1193 66.4888 22.1523Z" stroke="#EF8140" stroke-width="2"/>
<path d="M93.0702 15.677C93.0821 15.6617 93.091 15.6442 93.0962 15.6255C93.1014 15.6069 93.1029 15.5873 93.1006 15.5681C93.0982 15.5488 93.0921 15.5302 93.0826 15.5133C93.0731 15.4964 93.0603 15.4815 93.0451 15.4696L92.9366 15.3845C92.9213 15.3725 92.9038 15.3637 92.8851 15.3585C92.8665 15.3533 92.8469 15.3518 92.8277 15.3541C92.8084 15.3564 92.7898 15.3625 92.7729 15.372C92.756 15.3816 92.7411 15.3943 92.7292 15.4096L86.9319 22.8032C86.9199 22.8184 86.911 22.8359 86.9058 22.8546C86.9006 22.8733 86.8991 22.8928 86.9015 22.9121C86.9038 22.9313 86.9099 22.9499 86.9194 22.9668C86.9289 22.9837 86.9417 22.9986 86.957 23.0106L87.0654 23.0956C87.0807 23.1076 87.0982 23.1164 87.1169 23.1217C87.1356 23.1269 87.1551 23.1284 87.1743 23.126C87.1936 23.1237 87.2122 23.1176 87.2291 23.1081C87.246 23.0986 87.2609 23.0858 87.2729 23.0705L93.0702 15.677Z" stroke="#EF8140" stroke-width="2"/>
<path d="M94.2151 18.2834C94.2343 18.2554 94.2415 18.2209 94.2353 18.1875C94.2291 18.1542 94.2098 18.1246 94.1818 18.1054L94.1005 18.0498C94.0725 18.0306 94.038 18.0233 94.0047 18.0296C93.9713 18.0358 93.9418 18.0551 93.9226 18.0831L91.3019 21.9105C91.2827 21.9385 91.2755 21.973 91.2817 22.0063C91.288 22.0397 91.3072 22.0692 91.3352 22.0884L91.4165 22.1441C91.4445 22.1633 91.479 22.1705 91.5123 22.1643C91.5457 22.158 91.5752 22.1388 91.5944 22.1108L94.2151 18.2834Z" stroke="#EF8140" stroke-width="2"/>
<path d="M52.3027 22.3043C52.3682 22.3583 52.5963 22.2103 52.9368 21.8928C53.2774 21.5753 53.7025 21.1143 54.1187 20.6112C54.5349 20.108 54.9081 19.604 55.1562 19.21C55.4043 18.8159 55.5069 18.5642 55.4415 18.5101C55.376 18.456 55.1479 18.604 54.8074 18.9215C54.4668 19.239 54.0417 19.7001 53.6255 20.2032C53.2093 20.7063 52.8361 21.2103 52.588 21.6043C52.3399 21.9984 52.2373 22.2501 52.3027 22.3043Z" stroke="#EF8140" stroke-width="2"/>
<path d="M62.8393 39.4047C59.4613 38.7613 56.3837 39.3177 53.6064 41.074C52.7266 41.6288 52.0569 42.2263 51.5973 42.8664C51.0622 43.6149 50.6946 44.4602 50.4943 45.4024C50.3532 46.0655 50.5813 46.2362 51.1788 45.9145C51.8485 45.5501 52.5395 45.1053 53.2519 44.58C54.1645 43.9038 54.8522 43.4672 55.3151 43.2702C56.5462 42.745 57.8527 42.5086 59.2348 42.5611C59.5368 42.571 60.2147 42.5431 61.2685 42.4774C62.1614 42.4183 62.7917 42.2279 63.1594 41.9062C63.7864 41.358 63.8061 40.6095 63.2184 39.6608C63.178 39.5956 63.1235 39.5391 63.0583 39.4951C62.993 39.451 62.9185 39.4203 62.8393 39.4047Z" stroke="#854E3F" stroke-width="2"/>
<path d="M52.3603 50.0705C51.8843 50.6778 51.8958 51.1128 52.3948 51.3754" stroke="#875242" stroke-width="2"/>
<path d="M52.3948 51.3754C53.5667 52.114 54.7551 52.1665 55.9599 51.5329" stroke="#E6A88D" stroke-width="2"/>
<path d="M55.96 51.533C56.6165 51.8481 57.2846 51.9269 57.9641 51.7694C58.6108 51.6183 59.0688 51.2228 59.338 50.5826C59.6465 49.8571 59.7286 49.0709 59.5842 48.2239" stroke="#875242" stroke-width="2"/>
<path d="M59.5842 48.224C60.9596 48.1222 62.2613 48.6524 63.489 49.8145C63.8206 50.1263 63.9224 50.064 63.7943 49.6274C63.3315 48.0483 62.427 47.0471 61.0811 46.6236C59.9945 46.2822 58.6371 46.2198 57.0088 46.4365C54.7108 46.7451 53.1614 47.9564 52.3604 50.0705" stroke="#B86146" stroke-width="2"/>
<path d="M59.5842 48.2239C58.0445 47.2719 56.6723 47.377 55.4675 48.5391C55.3493 48.654 55.2115 48.7344 55.0539 48.7804C54.463 48.9576 54.0001 49.2137 53.6653 49.5485C53.2615 49.949 52.8265 50.123 52.3604 50.0705" stroke="#532728" stroke-width="2"/>
<path d="M55.9599 51.5329C55.6677 50.919 55.5184 50.3577 55.5118 49.8489C55.4987 49.2612 55.2525 49.1545 54.7732 49.5288L52.3948 51.3753" stroke="#816E6F" stroke-width="2"/>
<path d="M90.1634 54.4728C88.6631 53.094 87.0316 52.3734 85.2687 52.3111C83.9293 52.2684 82.6458 52.4489 81.418 52.8527C80.1344 53.2729 79.0495 54.0641 78.1631 55.2262C77.3358 56.3161 77.3867 57.4289 78.3158 58.5648C80.5743 61.3322 83.3187 61.9904 86.549 60.5394C88 59.8894 89.2622 59.0047 90.3357 57.8852C90.8774 57.3239 91.1351 56.7789 91.1088 56.2504C91.0793 55.6135 90.7641 55.021 90.1634 54.4728Z" stroke="#E57B5C" stroke-width="2"/>
<path d="M59.9192 54.0492C58.7144 53.1662 57.2142 52.7837 55.4185 52.9019C53.0188 53.0595 51.0376 53.7866 49.475 55.0833C48.326 56.032 48.1011 57.1416 48.8004 58.4121C49.6867 60.0174 50.99 61.2911 52.7102 62.2333C53.5867 62.7158 54.5289 62.8767 55.5367 62.7158C57.467 62.4105 59.0493 61.5882 60.2836 60.2488C61.1568 59.3001 61.6066 58.3037 61.6328 57.2598C61.6689 55.9795 61.0977 54.9093 59.9192 54.0492Z" stroke="#EA7D60" stroke-width="2"/>
<path d="M63.9864 73.0961C63.8157 75.463 63.883 77.0108 64.1883 77.7396C65.5933 81.0913 67.778 82.388 70.7424 81.6297C72.5479 81.1701 73.8856 80.2936 74.7556 79.0002C75.724 77.559 75.9292 75.8011 75.3711 73.7264" stroke="#8D5B58" stroke-width="2"/>
<path d="M75.3714 73.7263C76.0673 73.1354 76.5942 72.4755 76.952 71.7468C76.9646 71.7202 76.9709 71.6912 76.9705 71.6618C76.9701 71.6325 76.9629 71.6036 76.9496 71.5775C76.9363 71.5513 76.9172 71.5286 76.8937 71.511C76.8702 71.4934 76.843 71.4814 76.8142 71.4759C72.2314 70.6224 67.6371 70.5387 63.0314 71.2248C63.0084 71.2281 62.7983 71.2543 62.401 71.3036C61.6296 71.3988 61.5098 71.6154 62.0416 71.9536C62.1499 72.0192 62.337 72.0997 62.6029 72.1949C63.1348 72.382 63.596 72.6824 63.9866 73.096" stroke="#F8CFC3" stroke-width="2"/>
<path d="M75.3711 73.7263C71.7239 72.7579 67.929 72.5478 63.9863 73.096" stroke="#90858F" stroke-width="2"/>
<path d="M119.064 117.429C113.512 114.55 110.107 112.696 108.846 111.869C107.572 111.032 106.376 110.479 105.256 110.21C104.934 110.131 104.66 110.016 104.434 109.865C104.184 109.694 103.938 109.522 103.695 109.348C103.314 109.072 102.922 108.856 102.518 108.698C100.375 107.854 98.231 106.973 96.0873 106.054C92.8439 106.014 90.2275 104.923 88.2382 102.779C87.5094 101.991 87.0203 101.038 86.7708 99.9181C86.5311 98.8381 86.4113 97.7416 86.4113 96.6287C86.408 95.3156 86.4064 94.641 86.4064 94.6049C86.3407 92.7271 86.2767 90.8477 86.2143 88.9667C92.8554 81.285 95.4275 72.2999 93.9305 62.0117C93.9831 61.6571 94.1259 61.5307 94.3589 61.6325C94.416 61.658 94.4678 61.7063 94.5092 61.7727C94.5506 61.8391 94.5803 61.9215 94.5953 62.0117C94.6872 62.5303 94.94 62.8668 95.3536 63.0211C95.6491 63.1294 96.0184 63.0983 96.4616 62.9276C99.6557 61.7031 101.245 59.264 101.228 55.6102C101.209 50.8272 98.8597 48.4242 94.1817 48.4012C94.418 43.8972 94.4098 39.5196 94.1571 35.2684L93.5169 31.5654C97.2002 29.1952 99.3094 25.9239 99.8445 21.7514C100.068 20.0181 100.11 18.5441 99.9725 17.3295C99.8018 15.8194 99.2848 14.4029 98.4214 13.0799C97.8371 12.1936 97.1165 11.5666 96.2597 11.1989C93.9453 10.214 91.4931 9.99903 88.9029 10.5538C87.6259 10.8263 86.7281 10.48 86.2094 9.51481C86.1264 9.35847 86.0137 9.24049 85.8893 9.17997C84.9997 8.76305 84.1659 8.8681 83.3878 9.49512C82.6919 10.0565 82.1207 9.94978 81.6742 9.17504C81.3919 8.68919 81.0505 8.26078 80.65 7.88983C80.3119 7.57796 79.849 7.29893 79.2614 7.05272C77.2786 6.22545 75.322 5.75109 73.3917 5.62962C67.8274 5.28493 62.4978 6.43391 57.4029 9.07656C55.7286 9.94322 54.6355 11.2842 54.1234 13.0996C53.887 13.9433 53.5292 14.7295 53.0499 15.4583C52.2226 16.7091 51.0786 17.039 49.6177 16.4481C47.7203 15.6832 45.8934 15.7882 44.1371 16.7632C41.6192 18.1617 39.9203 20.2364 39.0406 22.9874C38.3512 25.1508 38.5071 27.2944 39.5083 29.4184C40.4801 31.48 42.0903 32.3795 44.339 32.1169L44.206 33.8994L44.1371 48.5391C43.7038 48.4504 43.2836 48.3569 42.8765 48.2584C42.3874 48.1402 41.9606 48.0942 41.5962 48.1205C39.5083 48.2682 38.0114 49.2153 37.1053 50.9618C35.9958 53.1054 35.8497 55.5199 36.6671 58.2053C37.2646 60.1716 38.4644 61.6423 40.2667 62.6173C41.0841 63.0605 41.9081 63.2279 42.7386 63.1196C43.323 63.0441 43.9664 62.8241 44.6689 62.4598C44.426 65.9133 44.6361 69.3027 45.2992 72.6282C46.481 78.5602 49.1548 83.6994 53.3207 88.0459C53.0417 91.332 52.9645 94.554 53.0893 97.7121C53.1746 99.7901 52.7922 101.422 51.9419 102.607C51.2132 103.618 50.3202 104.284 49.2632 104.606C46.8536 105.338 45.0891 105.919 43.9697 106.349C41.4386 107.452 38.8846 108.503 36.3076 109.501C35.8119 109.694 35.5657 110.029 35.569 110.505C35.569 110.523 35.5654 110.541 35.5585 110.558C35.5516 110.575 35.5414 110.59 35.5286 110.603C35.5027 110.628 35.4677 110.643 35.4311 110.643C34.1738 110.636 33.2037 110.848 32.5209 111.278C31.7921 111.741 31.4097 111.981 31.3736 111.997C27.4342 113.783 23.5425 115.669 19.6983 117.655C9.83022 107.324 3.85554 95.053 1.77424 80.8418C0.812383 74.2762 0.74673 67.7336 1.57728 61.2139C1.98434 57.9968 2.63598 54.7797 3.53218 51.5625C6.81826 39.7576 12.6961 29.5661 21.1657 20.9882C30.7679 11.2547 42.3315 5.04693 55.8567 2.36488C59.0443 1.73459 62.2975 1.3226 65.6164 1.12891C82.4572 0.147354 97.4234 4.77117 110.515 15.0004C113.076 17.0029 115.5 19.2106 117.788 21.6234C128.549 32.9688 134.924 46.4725 136.914 62.1348C137.689 68.2243 137.551 74.6964 136.5 81.5509C134.448 94.9742 128.873 106.794 119.773 117.01C119.536 117.273 119.3 117.412 119.064 117.429ZM27.2077 33.5055C26.712 33.4366 26.2262 33.6663 25.7501 34.1949C22.4706 37.8027 20.8555 42.0145 20.9047 46.8304C20.9146 47.7528 21.0492 48.4947 21.3085 49.0561C21.8141 50.1558 22.579 50.5235 23.6032 50.1591C24.3385 49.8965 25.0345 49.322 25.6911 48.4356C26.5676 47.2571 27.2028 45.8734 27.5967 44.2846C28.3813 41.1232 28.5799 37.8634 28.1925 34.5051C28.1236 33.9175 27.7953 33.5843 27.2077 33.5055ZM113.017 103.857C114.359 104.803 115.845 105.504 117.473 105.96C118.474 106.242 119.149 105.893 119.497 104.911C119.838 103.953 119.694 102.989 119.064 102.021C118.292 100.832 117.728 100.043 117.37 99.6522C114.53 96.5467 112.56 93.346 111.461 90.05C108.9 82.3551 110.008 75.1117 114.785 68.3195C115.349 67.5185 117.148 65.3535 120.181 61.8245C120.894 61.0005 121.386 60.3276 121.659 59.8056C122.056 59.044 122.335 58.2479 122.496 57.4174C122.703 56.3439 122.259 55.7825 121.166 55.7333C119.988 55.6808 118.883 55.9319 117.852 56.4867C115.531 57.7407 113.491 59.3509 111.731 61.3173C104.782 69.0943 102.111 78.2287 103.72 88.7205C104.429 93.3525 106.323 97.3149 109.402 100.607C110.686 101.98 111.891 103.063 113.017 103.857ZM28.9164 56.7083C28.4043 56.2585 27.8807 56.2487 27.3456 56.6787C25.7567 57.9623 24.4124 59.4199 23.3127 61.0514C19.242 67.1049 16.5977 73.7345 15.3798 80.9403C14.8939 83.8029 14.7905 86.416 15.0696 88.7796C15.1385 89.3508 15.3158 89.7579 15.6014 90.0008C16.0971 90.4243 16.6387 90.2765 17.2264 89.5576C17.5612 89.144 17.8829 88.343 18.1915 87.1546C18.3228 86.6523 18.487 85.8086 18.6839 84.6236C19.6359 78.8951 21.2626 73.8708 23.5638 69.5506C25.4055 66.0938 27.2307 62.6255 29.0395 59.1458C29.5943 58.0789 29.5533 57.2664 28.9164 56.7083ZM34.2739 74.9081C33.3974 74.9377 32.6391 75.307 31.999 76.0161C30.1376 78.0777 28.5881 80.2952 27.3505 82.6687C26.2738 84.7302 25.2594 87.217 24.3074 90.1288C22.6758 95.1088 21.9175 100.256 22.0324 105.571C22.0455 106.283 22.1128 106.865 22.2343 107.314C22.3853 107.882 22.6036 108.429 22.8892 108.954C23.3488 109.791 24.0135 110.014 24.8835 109.624C26.4953 108.901 27.8314 107.705 28.8918 106.034C34.4955 97.2065 36.8132 87.5387 35.8447 77.0304C35.7758 76.2951 35.3983 75.6385 34.7122 75.0608C34.5886 74.9563 34.4323 74.9018 34.2739 74.9081Z" fill="#FDE8E1"/>
<path d="M93.5169 31.5654C91.4028 32.1005 89.2903 32.3927 87.1795 32.4419C84.0575 32.5207 80.9405 32.4288 77.8284 32.1662C69.7593 31.4833 61.6754 31.1682 53.5768 31.2207C52.4475 31.2273 51.3773 31.1928 50.3662 31.1173C49.3026 31.0352 48.2373 30.9515 47.1704 30.8662C46.1035 30.7808 45.1597 31.1977 44.339 32.1169C42.0903 32.3795 40.4801 31.48 39.5084 29.4184C38.5071 27.2945 38.3512 25.1508 39.0406 22.9875C39.9204 20.2365 41.6192 18.1617 44.1371 16.7633C45.8934 15.7883 47.7203 15.6832 49.6177 16.4481C51.0786 17.039 52.2226 16.7091 53.0499 15.4584C53.5292 14.7296 53.887 13.9433 54.1234 13.0997C54.6355 11.2843 55.7287 9.94326 57.4029 9.0766C62.4978 6.43395 67.8274 5.28497 73.3917 5.62967C75.322 5.75113 77.2786 6.22549 79.2614 7.05276C79.849 7.29897 80.3119 7.578 80.65 7.88987C81.0505 8.26083 81.3919 8.68923 81.6742 9.17508C82.1207 9.94982 82.6919 10.0565 83.3879 9.49516C84.1659 8.86814 84.9997 8.76309 85.8893 9.18001C86.0137 9.24053 86.1265 9.35851 86.2094 9.51485C86.7281 10.48 87.6259 10.8263 88.903 10.5539C91.4931 9.99907 93.9453 10.2141 96.2597 11.1989C97.1165 11.5666 97.8371 12.1936 98.4214 13.08C99.2848 14.4029 99.8018 15.8195 99.9725 17.3296C100.11 18.5442 100.068 20.0182 99.8445 21.7515C99.3094 25.9239 97.2002 29.1952 93.5169 31.5654ZM69.0762 12.964C69.1156 12.9071 69.1308 12.8369 69.1184 12.7688C69.106 12.7007 69.0671 12.6403 69.0102 12.6009L68.994 12.5897C68.9371 12.5503 68.8669 12.5351 68.7988 12.5475C68.7307 12.5598 68.6703 12.5988 68.6309 12.6557L63.2991 20.3557C63.2597 20.4126 63.2445 20.4828 63.2569 20.5509C63.2693 20.619 63.3082 20.6794 63.3651 20.7188L63.3813 20.7301C63.4382 20.7695 63.5084 20.7846 63.5765 20.7723C63.6446 20.7599 63.705 20.721 63.7444 20.6641L69.0762 12.964ZM66.4889 22.1524C66.5383 22.1854 66.6599 22.1093 66.8466 21.9284C67.0334 21.7475 67.2816 21.4653 67.5772 21.0979C67.8727 20.7306 68.2098 20.2853 68.5692 19.7874C68.9286 19.2896 69.3032 18.749 69.6717 18.1965C70.0402 17.6439 70.3953 17.0903 70.7168 16.5672C71.0383 16.0441 71.3199 15.5618 71.5454 15.1478C71.771 14.7338 71.9361 14.3961 72.0314 14.1542C72.1267 13.9123 72.1503 13.7708 72.1008 13.7377C72.0513 13.7047 71.9297 13.7808 71.743 13.9618C71.5562 14.1427 71.308 14.4249 71.0125 14.7922C70.7169 15.1596 70.3798 15.6049 70.0204 16.1027C69.661 16.6005 69.2864 17.1412 68.9179 17.6937C68.5494 18.2462 68.1943 18.7998 67.8728 19.3229C67.5513 19.846 67.2698 20.3283 67.0442 20.7424C66.8186 21.1564 66.6535 21.494 66.5582 21.736C66.4629 21.9779 66.4394 22.1194 66.4889 22.1524ZM93.0702 15.677C93.0822 15.6618 93.091 15.6443 93.0962 15.6256C93.1015 15.6069 93.1029 15.5874 93.1006 15.5681C93.0983 15.5489 93.0922 15.5303 93.0826 15.5134C93.0731 15.4965 93.0604 15.4816 93.0451 15.4696L92.9366 15.3846C92.9213 15.3726 92.9039 15.3638 92.8852 15.3586C92.8665 15.3533 92.847 15.3518 92.8277 15.3542C92.8084 15.3565 92.7898 15.3626 92.7729 15.3721C92.756 15.3816 92.7412 15.3944 92.7292 15.4097L86.9319 22.8032C86.9199 22.8185 86.9111 22.836 86.9059 22.8547C86.9007 22.8734 86.8992 22.8929 86.9015 22.9121C86.9038 22.9314 86.9099 22.95 86.9195 22.9669C86.929 22.9838 86.9417 22.9987 86.957 23.0106L87.0655 23.0957C87.0807 23.1077 87.0982 23.1165 87.1169 23.1217C87.1356 23.1269 87.1551 23.1284 87.1744 23.1261C87.1936 23.1238 87.2123 23.1177 87.2292 23.1082C87.2461 23.0986 87.2609 23.0859 87.2729 23.0706L93.0702 15.677ZM94.2152 18.2834C94.2344 18.2554 94.2416 18.2209 94.2354 18.1875C94.2291 18.1542 94.2099 18.1246 94.1819 18.1055L94.1006 18.0498C94.0726 18.0306 94.0381 18.0234 94.0048 18.0296C93.9714 18.0358 93.9419 18.0551 93.9227 18.0831L91.302 21.9105C91.2828 21.9385 91.2756 21.973 91.2818 22.0064C91.2881 22.0397 91.3073 22.0693 91.3353 22.0884L91.4166 22.1441C91.4446 22.1633 91.4791 22.1705 91.5124 22.1643C91.5458 22.1581 91.5753 22.1388 91.5945 22.1108L94.2152 18.2834ZM52.3028 22.3043C52.3683 22.3583 52.5964 22.2103 52.9369 21.8928C53.2775 21.5753 53.7026 21.1143 54.1188 20.6112C54.5351 20.108 54.9083 19.604 55.1563 19.21C55.4044 18.816 55.507 18.5642 55.4416 18.5101C55.3762 18.456 55.1481 18.604 54.8075 18.9216C54.467 19.2391 54.0418 19.7001 53.6256 20.2032C53.2094 20.7063 52.8362 21.2103 52.5881 21.6044C52.3401 21.9984 52.2374 22.2502 52.3028 22.3043Z" fill="#FC9149"/>
<path d="M69.0101 12.6008L68.9939 12.5896C68.8754 12.5076 68.7128 12.5371 68.6307 12.6556L63.299 20.3557C63.2169 20.4742 63.2464 20.6367 63.3649 20.7188L63.3811 20.73C63.4996 20.8121 63.6622 20.7825 63.7443 20.664L69.076 12.964C69.1581 12.8455 69.1286 12.6829 69.0101 12.6008Z" fill="#E27136"/>
<path d="M68.9178 17.6936C67.3681 20.0172 66.2806 22.0135 66.4888 22.1523C66.6969 22.2911 68.1219 20.52 69.6716 18.1963C71.2213 15.8727 72.3088 13.8765 72.1006 13.7377C71.8925 13.5988 70.4675 15.37 68.9178 17.6936Z" fill="#E27136"/>
<path d="M93.0451 15.4696L92.9366 15.3845C92.8724 15.3342 92.7795 15.3454 92.7292 15.4096L86.9319 22.8032C86.8815 22.8674 86.8928 22.9602 86.957 23.0106L87.0655 23.0957C87.1297 23.146 87.2225 23.1348 87.2729 23.0706L93.0702 15.677C93.1205 15.6128 93.1093 15.52 93.0451 15.4696Z" fill="#E27136"/>
<path d="M94.1818 18.1054L94.1005 18.0497C94.0422 18.0098 93.9625 18.0247 93.9225 18.0831L91.3019 21.9104C91.2619 21.9688 91.2769 22.0484 91.3352 22.0884L91.4165 22.144C91.4748 22.184 91.5545 22.1691 91.5944 22.1107L94.2151 18.2834C94.255 18.225 94.2401 18.1453 94.1818 18.1054Z" fill="#E27136"/>
<path d="M53.6256 20.2031C52.7588 21.2509 52.1666 22.1916 52.3028 22.3042C52.439 22.4169 53.2521 21.6589 54.1188 20.6112C54.9856 19.5635 55.5778 18.6228 55.4416 18.5101C55.3054 18.3974 54.4923 19.1554 53.6256 20.2031Z" fill="#E27136"/>
<path d="M93.5169 31.5653L94.1571 35.2683C91.0975 36.0628 87.7458 36.0726 84.1019 35.2979C81.8302 34.8153 78.3488 34.313 73.6577 33.7911C71.2382 33.5219 69.0847 33.361 67.1971 33.3085C64.561 33.2297 62.3993 33.2773 60.712 33.4513C57.5178 33.7829 54.3187 34.0389 51.1147 34.2195C50.015 34.2851 48.8643 34.2687 47.6628 34.1702C46.5237 34.075 45.3714 33.9848 44.2061 33.8994L44.339 32.1168C45.1597 31.1977 46.1035 30.7808 47.1704 30.8661C48.2373 30.9515 49.3026 31.0352 50.3662 31.1172C51.3773 31.1927 52.4475 31.2272 53.5768 31.2206C61.6755 31.1681 69.7593 31.4833 77.8285 32.1661C80.9405 32.4287 84.0576 32.5206 87.1795 32.4418C89.2903 32.3926 91.4028 32.1004 93.5169 31.5653Z" fill="#D16047"/>
<path d="M94.1569 35.2684C94.4097 39.5196 94.4179 43.8972 94.1816 48.4012L93.3592 52.3209C93.6415 53.8901 93.6563 55.5873 93.4035 57.4125C92.8553 58.0592 92.8258 58.8126 93.3149 59.6727C92.8323 60.1224 92.463 60.6559 92.207 61.2731C91.8721 61.1779 91.6423 61.2698 91.5176 61.5488C90.5853 63.7089 89.5085 65.7918 88.2873 67.7976C87.506 69.0812 86.339 70.3812 84.7862 71.6976C84.7366 71.7408 84.6725 71.7645 84.605 71.7645C84.5375 71.7645 84.4709 71.7408 84.4169 71.6976C84.2166 71.5334 83.995 71.4235 83.7521 71.3677C83.7718 70.9245 83.757 70.4846 83.7078 70.048C83.6586 69.6179 83.4796 69.2355 83.1711 68.9006C81.2539 66.8522 78.8558 65.6983 75.9768 65.4389C75.967 65.1468 76.0277 64.8973 76.159 64.6905C77.7052 64.0831 78.5029 63.1164 78.5522 61.7901C78.5719 61.2123 78.2977 60.4589 77.7298 59.5299C76.7745 57.9706 76.1902 56.4999 75.9768 55.1178C75.793 53.936 76.1426 52.7099 77.0257 51.4394C78.0236 49.995 79.3548 49.066 81.0192 48.6524C80.3659 50.3463 80.6039 51.3623 81.7332 51.7004C84.1362 52.4194 85.1292 51.533 84.7123 49.0414C84.6598 48.7295 84.7665 48.6606 85.0324 48.8346C86.1945 49.5863 87.3287 50.4021 88.435 51.2819C88.6123 51.4198 88.76 51.4493 88.8782 51.3705C88.9249 51.3392 88.9536 51.2805 88.959 51.2053C88.9644 51.1302 88.9462 51.0436 88.9077 50.9618L88.3907 49.8243C88.8405 48.4193 88.5286 47.3015 87.4551 46.4709C86.2897 45.5682 85.4099 44.7228 84.8157 43.935C86.3258 44.4766 87.7424 45.1595 89.0653 45.9834C89.3115 46.1377 89.4166 46.0704 89.3805 45.7815C89.2623 44.7869 88.9143 43.8989 88.3365 43.1176C87.8737 42.484 87.1711 41.8931 86.229 41.3448C83.9015 39.9858 81.3458 39.3506 78.562 39.4392C77.3277 39.4786 76.5891 40.0268 76.3461 41.0839C76.2214 41.6255 76.4709 42.1606 77.0946 42.6892C76.612 42.8763 76.1016 42.7975 75.5632 42.4528C75.5003 42.4132 75.4282 42.3922 75.3556 42.3922C75.2831 42.3922 75.2132 42.4132 75.1545 42.4528C73.5689 43.5558 72.4544 45.0281 71.8109 46.8698C71.1675 48.6162 70.7949 50.4218 70.6931 52.2864C70.5027 55.8975 70.5553 59.7039 70.8507 63.7056C70.8675 63.9391 70.8054 64.1716 70.6742 64.3661C70.5431 64.5607 70.3504 64.706 70.1269 64.7791C69.2602 65.0647 68.4953 65.6441 67.8322 66.5173C63.1312 64.3966 59.1574 65.2272 55.9107 69.009C55.1754 69.8231 54.8783 70.785 55.0194 71.8946C55.0949 72.5019 54.8783 72.6381 54.3694 72.3033C51.9435 70.7111 50.0329 68.6035 48.6377 65.9806C48.2766 65.3011 47.7464 64.244 47.0472 62.8094C46.535 61.7622 46.0837 60.6657 45.693 59.5201C46.1953 58.7781 45.9146 58.2956 44.851 58.0723C45.3106 55.7383 45.1809 53.4469 44.462 51.1982C44.5933 50.233 44.4849 49.3467 44.137 48.5391L44.2059 33.8995C45.3713 33.9848 46.5236 34.0751 47.6627 34.1703C48.8642 34.2688 50.0148 34.2852 51.1145 34.2195C54.3186 34.039 57.5176 33.7829 60.7118 33.4514C62.3992 33.2774 64.5609 33.2298 67.197 33.3086C69.0846 33.3611 71.2381 33.5219 73.6575 33.7911C78.3486 34.3131 81.83 34.8154 84.1017 35.2979C87.7456 36.0727 91.0974 36.0628 94.1569 35.2684ZM62.8391 39.4047C59.4611 38.7613 56.3834 39.3177 53.6062 41.074C52.7264 41.6288 52.0567 42.2263 51.5971 42.8664C51.062 43.6149 50.6944 44.4602 50.4941 45.4024C50.3529 46.0655 50.5811 46.2362 51.1786 45.9145C51.8483 45.5501 52.5393 45.1053 53.2517 44.58C54.1643 43.9038 54.852 43.4672 55.3149 43.2702C56.5459 42.745 57.8525 42.5086 59.2345 42.5611C59.5366 42.571 60.2145 42.5431 61.2682 42.4774C62.1612 42.4183 62.7915 42.2279 63.1591 41.9062C63.7861 41.358 63.8058 40.6095 63.2182 39.6608C63.1778 39.5956 63.1233 39.5391 63.058 39.4951C62.9928 39.451 62.9182 39.4203 62.8391 39.4047ZM52.3604 50.0705C51.8844 50.6778 51.8959 51.1128 52.3948 51.3754C53.5668 52.1141 54.7552 52.1666 55.96 51.533C56.6165 51.8482 57.2846 51.9269 57.9641 51.7694C58.6108 51.6184 59.0688 51.2228 59.338 50.5826C59.6465 49.8571 59.7286 49.0709 59.5842 48.2239C60.9597 48.1222 62.2613 48.6524 63.489 49.8145C63.8206 50.1263 63.9224 50.064 63.7943 49.6273C63.3315 48.0483 62.4271 47.0471 61.0811 46.6236C59.9945 46.2822 58.6371 46.2198 57.0088 46.4365C54.7109 46.745 53.1614 47.9564 52.3604 50.0705ZM90.1634 54.4728C88.6632 53.094 87.0316 52.3734 85.2688 52.311C83.9294 52.2684 82.6458 52.4489 81.418 52.8527C80.1345 53.2729 79.0495 54.064 78.1632 55.2262C77.3359 56.316 77.3868 57.4289 78.3158 58.5648C80.5744 61.3322 83.3188 61.9904 86.5491 60.5394C88 59.8894 89.2623 59.0047 90.3358 57.8852C90.8774 57.3239 91.1351 56.7789 91.1089 56.2504C91.0793 55.6135 90.7642 55.021 90.1634 54.4728ZM59.919 54.0493C58.7142 53.1662 57.214 52.7838 55.4183 52.9019C53.0186 53.0595 51.0374 53.7866 49.4748 55.0833C48.3258 56.0321 48.1009 57.1417 48.8002 58.4121C49.6865 60.0174 50.9898 61.2911 52.71 62.2333C53.5865 62.7159 54.5287 62.8767 55.5365 62.7159C57.4668 62.4106 59.0491 61.5882 60.2834 60.2488C61.1566 59.3001 61.6064 58.3038 61.6326 57.2598C61.6687 55.9796 61.0975 54.9094 59.919 54.0493Z" fill="#EB8B60"/>
<path d="M27.2076 33.5055C27.7952 33.5842 28.1235 33.9175 28.1925 34.5051C28.5798 37.8634 28.3812 41.1232 27.5966 44.2845C27.2027 45.8734 26.5675 47.2571 25.691 48.4356C25.0344 49.322 24.3385 49.8965 23.6031 50.1591C22.5789 50.5235 21.814 50.1558 21.3084 49.0561C21.0491 48.4947 20.9145 47.7528 20.9047 46.8303C20.8554 42.0145 22.4705 37.8026 25.7501 34.1948C26.2261 33.6663 26.7119 33.4365 27.2076 33.5055Z" fill="#F2C2B6"/>
<path d="M63.2184 39.6608C63.8061 40.6095 63.7864 41.358 63.1594 41.9062C62.7917 42.2279 62.1614 42.4183 61.2685 42.4774C60.2147 42.5431 59.5368 42.571 59.2348 42.5611C57.8527 42.5086 56.5462 42.745 55.3151 43.2702C54.8522 43.4672 54.1645 43.9038 53.2519 44.58C52.5395 45.1053 51.8485 45.5501 51.1788 45.9145C50.5813 46.2362 50.3532 46.0655 50.4943 45.4024C50.6946 44.4602 51.0622 43.6149 51.5973 42.8664C52.0569 42.2263 52.7266 41.6288 53.6064 41.074C56.3837 39.3177 59.4613 38.7613 62.8393 39.4047C62.9185 39.4203 62.993 39.451 63.0583 39.4951C63.1235 39.5391 63.178 39.5956 63.2184 39.6608Z" fill="#1E111E"/>
<path d="M84.8157 43.9349C83.263 43.1995 81.5888 42.8631 79.7931 42.9254C78.8476 42.955 77.9481 42.8762 77.0946 42.6891C76.4709 42.1605 76.2214 41.6254 76.3461 41.0838C76.5891 40.0267 77.3277 39.4785 78.562 39.4391C81.3458 39.3505 83.9015 39.9857 86.229 41.3448C87.1712 41.893 87.8737 42.4839 88.3365 43.1175C88.9143 43.8988 89.2623 44.7868 89.3805 45.7815C89.4166 46.0704 89.3115 46.1377 89.0653 45.9834C87.7424 45.1594 86.3258 44.4766 84.8157 43.9349Z" fill="#18111A"/>
<path d="M77.0948 42.689C77.9483 42.8762 78.8478 42.955 79.7932 42.9254C81.5889 42.863 83.2631 43.1995 84.8159 43.9349C85.4101 44.7227 86.2899 45.5681 87.4553 46.4708C88.5287 47.3014 88.8406 48.4192 88.3909 49.8242L87.0367 48.7163C86.7478 47.7314 86.0995 47.1471 85.0916 46.9632C84.3826 46.8352 83.6702 46.7417 82.9545 46.6826C81.7892 46.5874 81.0751 46.548 80.8125 46.5644C79.5454 46.6366 78.5375 47.2603 77.7891 48.4356C77.208 49.3548 76.9536 50.356 77.0258 51.4393C76.1427 52.7098 75.7931 53.9359 75.977 55.1177C76.1903 56.4998 76.7747 57.9705 77.73 59.5298C78.2979 60.4588 78.572 61.2122 78.5523 61.79C78.5031 63.1162 77.7054 64.083 76.1592 64.6903C76.2937 63.9189 75.9819 63.6694 75.2236 63.9419C74.4291 64.2242 73.7529 64.4392 73.1948 64.5869C72.5251 64.7642 72.1804 64.5065 72.1607 63.8138C72.1246 62.3793 72.0228 60.9627 71.8554 59.5643C71.6026 57.4928 71.4664 56.0829 71.4467 55.3344C71.3909 53.2334 71.4598 51.1636 71.6535 49.125C71.6863 48.7803 71.7569 48.4454 71.8653 48.1204C72.1673 47.2209 72.1492 46.804 71.8111 46.8697C72.4545 45.028 73.569 43.5557 75.1546 42.4527C75.2133 42.4131 75.2832 42.3921 75.3558 42.3921C75.4283 42.3921 75.5005 42.4131 75.5633 42.4527C76.1017 42.7974 76.6122 42.8762 77.0948 42.689Z" fill="#C96042"/>
<path d="M59.5842 48.224C58.0445 47.272 56.6723 47.377 55.4675 48.5391C55.3493 48.654 55.2115 48.7344 55.0539 48.7804C54.463 48.9577 54.0001 49.2137 53.6653 49.5486C53.2615 49.9491 52.8265 50.1231 52.3604 50.0705C53.1614 47.9564 54.7108 46.7451 57.0088 46.4365C58.6371 46.2198 59.9945 46.2822 61.0811 46.6236C62.427 47.0471 63.3315 48.0483 63.7943 49.6274C63.9224 50.064 63.8206 50.1263 63.489 49.8145C62.2613 48.6524 60.9596 48.1222 59.5842 48.224Z" fill="#84362C"/>
<path d="M87.0368 48.7163C84.9982 47.5673 82.9924 47.546 81.0194 48.6523C79.355 49.0659 78.0239 49.9949 77.0259 51.4394C76.9537 50.356 77.2081 49.3548 77.7891 48.4356C78.5376 47.2604 79.5454 46.6366 80.8126 46.5644C81.0752 46.548 81.7892 46.5874 82.9546 46.6826C83.6703 46.7417 84.3826 46.8352 85.0917 46.9633C86.0995 47.1471 86.7479 47.7314 87.0368 48.7163Z" fill="#A94E39"/>
<path d="M71.811 46.8697C72.1491 46.8041 72.1672 47.221 71.8652 48.1205C71.7569 48.4455 71.6863 48.7803 71.6534 49.125C71.4598 51.1636 71.3908 53.2334 71.4466 55.3344C71.4663 56.0829 71.6026 57.4929 71.8553 59.5643C72.0228 60.9628 72.1245 62.3793 72.1606 63.8139C72.1803 64.5066 72.525 64.7643 73.1947 64.587C73.7528 64.4393 74.4291 64.2242 75.2235 63.9419C75.9818 63.6694 76.2937 63.9189 76.1591 64.6904C76.0278 64.8972 75.967 65.1467 75.9769 65.4389C73.5673 65.255 71.5829 66.0692 70.0235 67.8813C69.6723 68.1833 69.0715 68.1078 68.2213 67.6548C68.3657 67.0737 68.2361 66.6945 67.8323 66.5173C68.4954 65.644 69.2603 65.0646 70.1269 64.779C70.3505 64.706 70.5431 64.5606 70.6743 64.3661C70.8055 64.1716 70.8676 63.939 70.8508 63.7056C70.5553 59.7038 70.5028 55.8974 70.6932 52.2864C70.795 50.4217 71.1676 48.6162 71.811 46.8697Z" fill="#A94E39"/>
<path d="M59.5841 48.2239C59.7285 49.0709 59.6465 49.8571 59.3379 50.5826C59.0687 51.2228 58.6108 51.6183 57.964 51.7693C57.2845 51.9269 56.6165 51.8481 55.9599 51.533C55.6677 50.9191 55.5184 50.3577 55.5118 49.8489C55.4987 49.2613 55.2525 49.1546 54.7732 49.5288L52.3948 51.3754C51.8958 51.1128 51.8843 50.6778 52.3603 50.0705C52.8265 50.123 53.2614 49.949 53.6652 49.5485C54.0001 49.2137 54.4629 48.9576 55.0538 48.7804C55.2114 48.7344 55.3493 48.654 55.4675 48.5391C56.6723 47.377 58.0445 47.2719 59.5841 48.2239Z" fill="#221824"/>
<path d="M87.0366 48.7163L88.3908 49.8242L88.9078 50.9617C88.9463 51.0436 88.9645 51.1301 88.9591 51.2052C88.9537 51.2804 88.9249 51.3391 88.8783 51.3704C88.7601 51.4492 88.6124 51.4197 88.4351 51.2818C87.3288 50.402 86.1946 49.5862 85.0325 48.8345C84.7666 48.6605 84.6599 48.7294 84.7124 49.0413C85.1293 51.5329 84.1363 52.4193 81.7333 51.7004C80.604 51.3622 80.366 50.3462 81.0193 48.6523C82.9922 47.546 84.998 47.5673 87.0366 48.7163Z" fill="#332022"/>
<path d="M44.1371 48.5391C44.4851 49.3466 44.5934 50.233 44.4621 51.1981C42.7977 50.0918 41.4534 50.2592 40.4292 51.7004C39.1029 53.5716 39.1554 55.5134 40.5867 57.5257C41.286 58.5073 42.1674 59.0177 43.231 59.0571C43.904 59.0801 44.444 58.7518 44.8511 58.0723C45.9147 58.2955 46.1954 58.7781 45.6931 59.52C45.0136 60.3309 44.6722 61.3108 44.6689 62.4598C43.9664 62.8242 43.323 63.0441 42.7386 63.1196C41.9081 63.2279 41.0841 63.0605 40.2667 62.6173C38.4644 61.6423 37.2646 60.1717 36.6671 58.2053C35.8497 55.5199 35.9958 53.1054 37.1053 50.9618C38.0114 49.2153 39.5083 48.2682 41.5962 48.1205C41.9606 48.0942 42.3874 48.1402 42.8765 48.2584C43.2836 48.3569 43.7038 48.4504 44.1371 48.5391Z" fill="#F69674"/>
<path d="M94.1816 48.4011C98.8596 48.4241 101.208 50.8271 101.228 55.6101C101.245 59.2639 99.6557 61.703 96.4615 62.9275C96.0183 63.0982 95.649 63.1294 95.3536 63.0211C94.9399 62.8668 94.6872 62.5303 94.5952 62.0116C94.5802 61.9214 94.5505 61.8391 94.5091 61.7726C94.4677 61.7062 94.4159 61.6579 94.3589 61.6324C94.1258 61.5307 93.983 61.6571 93.9305 62.0116L93.315 59.6726C92.8258 58.8125 92.8554 58.0591 93.4036 57.4124C94.175 58.778 95.1681 59.0702 96.3827 58.2889C97.7812 57.3829 98.4263 56.1387 98.3179 54.5564C98.2359 53.345 97.8222 52.4209 97.077 51.784C96.0823 50.9338 94.8431 51.1127 93.3593 52.3208L94.1816 48.4011Z" fill="#F7B3A4"/>
<path d="M55.9599 51.5329C54.7551 52.1665 53.5667 52.114 52.3948 51.3753L54.7732 49.5288C55.2525 49.1545 55.4987 49.2612 55.5118 49.8489C55.5184 50.3577 55.6677 50.919 55.9599 51.5329Z" fill="#E0C4B9"/>
<path d="M44.4621 51.1981C45.1811 53.4469 45.3107 55.7383 44.8511 58.0723C44.4441 58.7519 43.904 59.0801 43.2311 59.0572C42.1674 59.0178 41.286 58.5073 40.5868 57.5257C39.1555 55.5134 39.103 53.5716 40.4292 51.7004C41.4534 50.2593 42.7977 50.0918 44.4621 51.1981Z" fill="#E86E5F"/>
<path d="M93.4037 57.4125C93.6565 55.5873 93.6417 53.8901 93.3594 52.3209C94.8432 51.1128 96.0825 50.9339 97.0771 51.7841C97.8223 52.421 98.236 53.3451 98.318 54.5565C98.4264 56.1388 97.7813 57.383 96.3828 58.289C95.1682 59.0703 94.1751 58.7781 93.4037 57.4125Z" fill="#EB8075"/>
<path d="M90.1634 54.4728C90.7641 55.021 91.0793 55.6135 91.1088 56.2504C91.1351 56.7789 90.8774 57.3239 90.3357 57.8852C89.2622 59.0047 88 59.8894 86.549 60.5394C83.3187 61.9904 80.5743 61.3322 78.3158 58.5648C77.3867 57.4289 77.3358 56.3161 78.1631 55.2262C79.0495 54.0641 80.1344 53.2729 81.418 52.8527C82.6458 52.4489 83.9293 52.2684 85.2687 52.3111C87.0316 52.3734 88.6631 53.094 90.1634 54.4728Z" fill="#DF6B57"/>
<path d="M59.9192 54.0492C61.0977 54.9093 61.6689 55.9795 61.6328 57.2598C61.6066 58.3038 61.1568 59.3001 60.2836 60.2488C59.0493 61.5882 57.467 62.4105 55.5367 62.7158C54.5289 62.8767 53.5867 62.7158 52.7102 62.2333C50.99 61.2911 49.6867 60.0174 48.8004 58.4121C48.1011 57.1416 48.326 56.032 49.475 55.0833C51.0376 53.7866 53.0188 53.0595 55.4185 52.9019C57.2142 52.7837 58.7144 53.1662 59.9192 54.0492Z" fill="#E86E5F"/>
<path d="M109.402 100.608C106.323 97.3149 104.429 93.3525 103.72 88.7205C102.111 78.2287 104.782 69.0943 111.732 61.3174C113.491 59.351 115.531 57.7407 117.852 56.4867C118.883 55.9319 119.988 55.6808 121.166 55.7333C122.259 55.7826 122.703 56.3439 122.496 57.4174C122.335 58.2479 122.056 59.044 121.659 59.8056C121.386 60.3276 120.894 61.0006 120.181 61.8245C117.148 65.3535 115.349 67.5186 114.785 68.3196C110.008 75.1117 108.9 82.3552 111.461 90.05C112.56 93.346 114.53 96.5467 117.37 99.6522C117.728 100.043 118.292 100.832 119.064 102.021C119.694 102.989 119.838 103.953 119.497 104.911C119.149 105.893 118.474 106.242 117.473 105.96C115.845 105.504 114.359 104.803 113.017 103.857C111.891 103.063 110.686 101.98 109.402 100.608Z" fill="#FB9550"/>
<path d="M28.9163 56.7083C29.5531 57.2663 29.5942 58.0788 29.0394 59.1457C27.2306 62.6255 25.4053 66.0938 23.5637 69.5506C21.2624 73.8707 19.6358 78.895 18.6838 84.6235C18.4868 85.8086 18.3227 86.6523 18.1914 87.1546C17.8828 88.3429 17.5611 89.1439 17.2262 89.5576C16.6386 90.2765 16.097 90.4242 15.6013 90.0007C15.3157 89.7578 15.1384 89.3507 15.0694 88.7795C14.7904 86.4159 14.8938 83.8028 15.3797 80.9402C16.5976 73.7345 19.2419 67.1049 23.3125 61.0514C24.4123 59.4199 25.7566 57.9623 27.3455 56.6787C27.8806 56.2487 28.4042 56.2585 28.9163 56.7083Z" fill="#FB9652"/>
<path d="M45.6932 59.52C46.0839 60.6657 46.5353 61.7622 47.0474 62.8094C47.7466 64.244 48.2768 65.301 48.6379 65.9806C50.0331 68.6035 51.9437 70.7111 54.3696 72.3032C54.8785 72.6381 55.0952 72.5018 55.0196 71.8945C54.8785 70.7849 55.1756 69.8231 55.9109 69.0089C56.6463 68.9367 57.1699 69.1911 57.4817 69.7722C57.4916 69.7919 57.5408 70.0463 57.6295 70.5354C57.6918 70.8703 57.9397 71.0722 58.373 71.1411C58.5667 74.3156 59.5926 77.1847 61.4506 79.7486C62.767 81.5673 64.3264 82.754 66.1286 83.3088C69.8152 84.4446 72.9503 83.8029 75.5338 81.3834C76.4465 80.5266 77.2475 79.3957 77.9368 77.9907C78.5836 76.6743 79.0694 75.3595 79.3944 74.0464C79.7522 72.5954 80.0969 71.4563 80.4285 70.629C81.0555 70.5535 81.5922 70.2351 82.0387 69.6737C82.2094 69.457 82.4097 69.375 82.6395 69.4275C82.7074 69.4435 82.7685 69.4855 82.813 69.547C82.8576 69.6084 82.8831 69.6859 82.8857 69.7673L82.9891 72.5987C82.9917 72.6881 83.0137 72.7722 83.0518 72.8388C83.09 72.9053 83.1422 72.9506 83.2008 72.968C83.342 73.0107 83.4782 72.9631 83.6095 72.8252C83.8721 72.8285 84.1118 72.7464 84.3285 72.579C86.5805 70.8227 88.3597 68.6725 89.6663 66.1283C90.5001 64.5033 91.3471 62.8849 92.2072 61.273C92.4632 60.6559 92.8325 60.1224 93.3151 59.6727L93.9306 62.0117C95.4276 72.2999 92.8555 81.285 86.2144 88.9667C85.4495 89.4164 84.8668 89.9827 84.4663 90.6656C80.156 93.7612 75.5207 95.3304 70.5604 95.3731C65.82 95.4125 61.3292 94.0797 57.0878 91.3746L53.3208 88.0459C49.1549 83.6995 46.4811 78.5602 45.2993 72.6282C44.6362 69.3028 44.4261 65.9133 44.669 62.4598C44.6723 61.3108 45.0137 60.3309 45.6932 59.52Z" fill="#502018"/>
<path d="M92.2069 61.2731C91.3468 62.8849 90.4999 64.5034 89.666 66.1283C88.3595 68.6725 86.5802 70.8227 84.3282 72.579C84.1115 72.7465 83.8719 72.8285 83.6093 72.8252C83.5535 72.323 83.601 71.8371 83.7521 71.3677C83.995 71.4235 84.2166 71.5335 84.4168 71.6976C84.4709 71.7408 84.5374 71.7645 84.6049 71.7645C84.6724 71.7645 84.7365 71.7408 84.7861 71.6976C86.3389 70.3812 87.5059 69.0812 88.2872 67.7976C89.5084 65.7919 90.5852 63.7089 91.5175 61.5488C91.6423 61.2698 91.8721 61.1779 92.2069 61.2731Z" fill="#F5B486"/>
<path d="M67.8324 66.5172C68.2362 66.6945 68.3658 67.0737 68.2214 67.6547C68.0474 68.18 67.7125 68.5559 67.2168 68.7824C64.5151 69.242 61.8544 69.864 59.2347 70.6486C58.89 70.7044 58.6028 70.8686 58.373 71.1411C57.9397 71.0721 57.6918 70.8702 57.6294 70.5354C57.5408 70.0462 57.4916 69.7918 57.4817 69.7721C57.1698 69.1911 56.6462 68.9367 55.9109 69.0089C59.1576 65.2271 63.1314 64.3965 67.8324 66.5172Z" fill="#2A151C"/>
<path d="M75.977 65.439C78.856 65.6983 81.2541 66.8522 83.1713 68.9007C83.4799 69.2355 83.6588 69.618 83.708 70.048C83.7573 70.4846 83.772 70.9245 83.7523 71.3677C83.6013 71.8371 83.5537 72.323 83.6095 72.8253C83.4782 72.9631 83.342 73.0107 83.2008 72.9681C83.1422 72.9507 83.09 72.9053 83.0519 72.8388C83.0137 72.7723 82.9917 72.6881 82.9891 72.5987L82.8857 69.7673C82.8831 69.686 82.8576 69.6085 82.813 69.547C82.7685 69.4856 82.7075 69.4436 82.6395 69.4276C82.4097 69.375 82.2094 69.4571 82.0387 69.6738C81.5923 70.2351 81.0555 70.5536 80.4285 70.6291L78.5622 70.1563L77.0111 69.9397C74.5621 69.7296 72.233 69.0435 70.0237 67.8814C71.583 66.0693 73.5675 65.2551 75.977 65.439Z" fill="#22151C"/>
<path d="M68.2212 67.6548C69.0714 68.1078 69.6722 68.1833 70.0234 67.8813C72.2328 69.0434 74.5619 69.7295 77.0109 69.9396C77.0371 70.6224 77.4623 70.8982 78.2862 70.7669C78.3792 70.7524 78.464 70.7193 78.5286 70.6724C78.5932 70.6256 78.6342 70.5672 78.6457 70.5059C78.6687 70.3943 78.6408 70.2777 78.562 70.1563L80.4283 70.629C80.0967 71.4563 79.752 72.5954 79.3942 74.0464C79.0692 75.3595 78.5833 76.6743 77.9366 77.9907C77.2472 79.3957 76.4462 80.5266 75.5336 81.3834C72.9501 83.8029 69.815 84.4446 66.1284 83.3088C64.3262 82.754 62.7668 81.5673 61.4504 79.7486C59.5924 77.1847 58.5665 74.3156 58.3728 71.1411C58.6026 70.8686 58.8898 70.7045 59.2345 70.6487C59.2116 70.9901 59.3757 71.1083 59.727 71.0032C62.0183 70.3007 64.3524 69.8165 66.7292 69.5506C66.959 69.5243 67.1116 69.457 67.1871 69.3487C67.2856 69.201 67.2954 69.0122 67.2167 68.7824C67.7124 68.5559 68.0472 68.18 68.2212 67.6548ZM63.9864 73.096C63.8157 75.4629 63.883 77.0108 64.1883 77.7395C65.5933 81.0913 67.778 82.388 70.7424 81.6296C72.5479 81.1701 73.8857 80.2935 74.7556 79.0001C75.724 77.559 75.9292 75.801 75.3711 73.7263C76.0671 73.1354 76.594 72.4756 76.9518 71.7468C76.9643 71.7203 76.9706 71.6912 76.9702 71.6619C76.9698 71.6325 76.9627 71.6037 76.9493 71.5775C76.936 71.5514 76.9169 71.5286 76.8934 71.511C76.8699 71.4934 76.8427 71.4814 76.8139 71.476C72.2311 70.6224 67.6369 70.5387 63.0311 71.2248C63.0081 71.2281 62.798 71.2544 62.4008 71.3036C61.6293 71.3988 61.5095 71.6155 62.0413 71.9536C62.1497 72.0193 62.3368 72.0997 62.6027 72.1949C63.1345 72.382 63.5957 72.6824 63.9864 73.096Z" fill="#F5A48C"/>
<path d="M67.2167 68.7825C67.2954 69.0123 67.2856 69.201 67.1871 69.3488C67.1116 69.4571 66.959 69.5244 66.7292 69.5506C64.3524 69.8166 62.0183 70.3008 59.727 71.0033C59.3757 71.1083 59.2116 70.9901 59.2345 70.6487C61.8542 69.8641 64.5149 69.2421 67.2167 68.7825Z" fill="#FABBB4"/>
<path d="M77.011 69.9396L78.5621 70.1562C78.6409 70.2777 78.6688 70.3942 78.6458 70.5059C78.6343 70.5672 78.5933 70.6255 78.5287 70.6724C78.4641 70.7193 78.3793 70.7524 78.2864 70.7668C77.4624 70.8981 77.0372 70.6224 77.011 69.9396Z" fill="#F2C7BB"/>
<path d="M75.3714 73.7263C71.7242 72.7579 67.9293 72.5478 63.9866 73.096C63.596 72.6824 63.1348 72.382 62.6029 72.1949C62.337 72.0997 62.1499 72.0192 62.0416 71.9536C61.5098 71.6154 61.6296 71.3988 62.401 71.3036C62.7983 71.2543 63.0084 71.2281 63.0314 71.2248C67.6371 70.5387 72.2314 70.6224 76.8142 71.4759C76.843 71.4814 76.8702 71.4934 76.8937 71.511C76.9172 71.5286 76.9363 71.5513 76.9496 71.5775C76.9629 71.6036 76.9701 71.6325 76.9705 71.6618C76.9709 71.6912 76.9646 71.7202 76.952 71.7468C76.5942 72.4755 76.0673 73.1354 75.3714 73.7263Z" fill="#FAF9F9"/>
<path d="M75.3711 73.7263C75.9292 75.801 75.724 77.559 74.7556 79.0001C73.8856 80.2936 72.5479 81.1701 70.7424 81.6297C67.778 82.388 65.5933 81.0913 64.1883 77.7395C63.883 77.0108 63.8157 75.4629 63.9864 73.096C67.929 72.5478 71.7239 72.7579 75.3711 73.7263Z" fill="#251124"/>
<path d="M34.7121 75.0608C35.3982 75.6386 35.7758 76.2951 35.8447 77.0305C36.8131 87.5387 34.4955 97.2065 28.8917 106.034C27.8314 107.705 26.4953 108.902 24.8834 109.624C24.0135 110.014 23.3487 109.791 22.8891 108.954C22.6035 108.429 22.3852 107.882 22.2342 107.314C22.1128 106.865 22.0455 106.283 22.0323 105.571C21.9174 100.256 22.6758 95.1088 24.3073 90.1288C25.2593 87.217 26.2737 84.7303 27.3505 82.6687C28.5881 80.2952 30.1376 78.0777 31.9989 76.0161C32.6391 75.307 33.3974 74.9377 34.2739 74.9081C34.4322 74.9019 34.5886 74.9563 34.7121 75.0608Z" fill="#FB9550"/>
<path d="M53.3209 88.0458L57.0879 91.3746C57.7937 92.563 58.6817 93.5806 59.7519 94.4276C60.5069 95.0218 61.6067 95.7735 63.0511 96.6829C66.8033 99.0399 70.8248 99.5471 75.1154 98.2045C79.0383 96.9734 82.1553 94.4604 84.4664 90.6655C84.8669 89.9827 85.4496 89.4164 86.2145 88.9667C86.2769 90.8477 86.3409 92.7271 86.4066 94.6049C86.4066 94.641 86.4082 95.3156 86.4115 96.6287C86.4115 97.7416 86.5313 98.838 86.771 99.9181C87.0205 101.038 87.5096 101.991 88.2384 102.779C90.2277 104.923 92.8441 106.014 96.0875 106.054C96.9706 108.558 97.0789 111.194 96.4125 113.962C95.5163 117.688 94.0374 120.954 91.9758 123.761C90.0981 126.318 87.7509 128.593 84.9342 130.586C80.9194 133.422 76.4236 134.95 71.4469 135.17C68.0918 135.321 64.8681 134.832 61.7757 133.703C57.1798 132.022 53.2848 129.187 50.0906 125.199C45.695 119.707 43.6547 113.424 43.9699 106.349C45.0893 105.919 46.8538 105.338 49.2634 104.606C50.3204 104.284 51.2133 103.618 51.9421 102.607C52.7924 101.422 53.1748 99.79 53.0895 97.712C52.9647 94.554 53.0419 91.3319 53.3209 88.0458Z" fill="#F6915B"/>
<path d="M84.4662 90.6655C82.1551 94.4604 79.0381 96.9734 75.1151 98.2045C70.8245 99.5471 66.8031 99.0399 63.0508 96.6829C61.6064 95.7736 60.5067 95.0218 59.7516 94.4276C58.6814 93.5807 57.7934 92.563 57.0876 91.3746C61.329 94.0796 65.8199 95.4124 70.5602 95.3731C75.5205 95.3304 80.1559 93.7612 84.4662 90.6655Z" fill="#DF6B57"/>
<path d="M96.0873 106.054C98.2309 106.973 100.375 107.854 102.518 108.698C102.922 108.856 103.314 109.072 103.695 109.348C103.938 109.522 104.184 109.694 104.434 109.865C104.66 110.016 104.934 110.131 105.256 110.21C106.376 110.479 107.572 111.032 108.846 111.869C110.106 112.696 113.512 114.55 119.064 117.429C119.139 117.626 119.088 117.814 118.911 117.995C107.585 129.81 93.9206 136.792 77.917 138.942C74.5718 139.392 71.2989 139.584 68.0982 139.518C57.9116 139.308 48.1355 136.832 38.7696 132.088C31.3702 128.342 25.0131 123.531 19.6982 117.655C23.5424 115.669 27.4342 113.783 31.3735 111.997C31.4096 111.981 31.7921 111.741 32.5208 111.278C33.2037 110.848 34.1737 110.636 35.431 110.643C35.4676 110.643 35.5027 110.628 35.5285 110.603C35.5544 110.577 35.5689 110.542 35.5689 110.505C35.5656 110.029 35.8118 109.694 36.3076 109.501C38.8845 108.503 41.4386 107.452 43.9696 106.349C43.6544 113.424 45.6947 119.707 50.0904 125.199C53.2845 129.188 57.1796 132.022 61.7755 133.703C64.8679 134.832 68.0916 135.321 71.4466 135.17C76.4233 134.95 80.9191 133.422 84.934 130.586C87.7506 128.593 90.0978 126.318 91.9756 123.761C94.0372 120.954 95.5161 117.688 96.4123 113.962C97.0787 111.195 96.9703 108.558 96.0873 106.054Z" fill="#599B97"/>
</svg>
