<svg width="139" height="141" viewBox="0 0 139 141" fill="none" xmlns="http://www.w3.org/2000/svg">
<path d="M18.1149 23.6951C10.3872 32.4667 5.2792 42.407 2.79084 53.516C-0.0684744 66.2828 0.496168 79.0348 4.48477 91.7721C7.36706 100.98 12.3421 109.396 19.41 117.018" stroke="#E3D8DF" stroke-width="2"/>
<path d="M19.4099 117.018C25.1482 123.377 31.8616 128.339 39.5499 131.904" stroke="#FDC8A2" stroke-width="2"/>
<path d="M39.5498 131.904C42.2023 133.352 44.9861 134.529 47.9012 135.435" stroke="#918892" stroke-width="2"/>
<path d="M47.9014 135.435C64.0068 140.842 79.8594 140.274 95.4592 133.731" stroke="#FDC8A4" stroke-width="2"/>
<path d="M95.4592 133.731C98.3185 132.628 101.027 131.233 103.584 129.546" stroke="#918892" stroke-width="2"/>
<path d="M103.584 129.545C110.681 125.229 116.866 119.82 122.138 113.32" stroke="#FDC8A2" stroke-width="2"/>
<path d="M122.139 113.32C131.8 100.783 136.826 86.6656 137.216 70.9673C137.302 67.6418 137.161 64.3639 136.793 61.1337C135.598 50.6451 132.274 41.1299 126.822 32.5881C119.412 20.9834 109.327 12.3234 96.5673 6.60803C93.5077 5.23911 90.4235 4.12952 87.3147 3.27927C83.0897 2.12373 78.9518 1.41958 74.9008 1.16681C52.3349 -0.241514 33.4063 7.26788 18.115 23.695" stroke="#B9B8CB" stroke-width="2"/>
<path d="M122.139 113.32C119.312 111.127 115.744 108.714 111.433 106.082C108.141 104.073 105.011 102.6 102.043 101.665" stroke="#B8816F" stroke-width="2"/>
<path d="M102.043 101.665C99.5479 100.591 97.0054 99.8705 94.4153 99.5029" stroke="#4C425F" stroke-width="2"/>
<path d="M94.4154 99.503C92.7642 99.2207 91.3263 98.7578 90.1018 98.1144" stroke="#B8B7CB" stroke-width="2"/>
<path d="M90.1018 98.1143C89.0644 97.7269 88.1715 97.2706 87.423 96.7454C86.4907 96.0888 85.9687 95.3338 85.8571 94.4802C85.6963 93.259 85.4566 90.0698 85.1382 84.9125" stroke="#B897A2" stroke-width="2"/>
<path d="M85.1382 84.9127C85.1382 84.5286 85.2547 84.1133 85.4878 83.6669" stroke="#B47C8A" stroke-width="2"/>
<path d="M85.4878 83.6668C87.8186 84.0443 90.0657 83.9869 92.229 83.4945C95.2623 82.8018 97.5586 81.0816 99.118 78.3339C99.7877 77.1587 99.8746 75.9342 99.3789 74.6605" stroke="#463E5B" stroke-width="2"/>
<path d="M99.3789 74.6605C100.334 73.8824 101.367 73.5131 102.476 73.5525C103.064 73.5722 103.806 73.6641 104.702 73.8283C105.746 74.0154 106.485 74.1123 106.918 74.1188C110.079 74.1615 112.292 72.6596 113.556 69.6132C113.726 69.2028 113.91 68.4117 114.107 67.2397C114.275 66.2549 114.486 65.4801 114.742 64.9155C115.314 63.6648 116.083 62.5387 117.052 61.5375C117.882 60.684 118.674 59.7943 119.425 58.8686C121.336 56.5181 121.713 54.1069 120.558 51.6349C120.144 50.7486 119.496 49.9919 118.613 49.3649C117.782 48.7773 116.888 48.2914 115.929 47.9073C114.852 47.4707 114.01 46.9602 113.403 46.3759C112.474 45.483 112.33 44.5031 112.97 43.4362C113.328 42.8387 113.511 42.5301 113.521 42.5104C114.122 41.322 114.462 40.59 114.541 40.3142C115.21 37.9637 114.923 35.9908 113.679 34.3953C112.858 33.3415 111.474 32.4076 109.528 31.5935C107.962 30.9369 106.324 30.4773 104.613 30.2147C102.847 29.9422 101.775 29.6878 101.398 29.4514C99.6317 28.3451 99.1294 26.7957 99.891 24.803C100.255 23.8477 100.452 22.9482 100.482 22.1046" stroke="#4A405D" stroke-width="2"/>
<path d="M100.482 22.1044C100.794 20.4236 100.218 18.9119 98.7535 17.5692C96.5212 15.524 93.9852 14.3947 91.1456 14.1814C85.5452 13.7612 81.2775 15.8933 78.3427 20.5779C78.1786 20.8438 78.0587 20.8241 77.9832 20.5188C77.4908 18.5032 76.6603 16.6517 75.4916 14.9643C74.2146 13.1161 72.6224 12.0049 70.7151 11.6306C68.6732 11.2301 66.5854 11.2958 64.4516 11.8276C62.5771 12.2938 60.8585 12.9618 59.2959 13.8317C57.6119 14.7673 56.1855 15.9885 55.0168 17.4953C54.5539 18.0961 54.4111 18.7641 54.5884 19.4995C55.0086 21.2689 54.3832 22.4327 52.7123 22.9907C51.8456 23.2796 50.9527 23.4241 50.0335 23.4241C48.0179 23.4208 46.0072 23.5061 44.0014 23.6801C41.9201 23.8607 40.0637 24.4713 38.4321 25.5119C35.0607 27.6556 34.0562 30.5707 35.4185 34.2573C35.4907 34.4576 35.6877 34.8482 36.0094 35.4293C36.2261 35.8199 36.3984 36.227 36.5265 36.6505C36.7234 37.3004 36.6627 37.9176 36.3443 38.502C35.7041 39.6641 34.739 40.3436 33.4488 40.5406C33.3372 40.557 32.336 40.4798 30.4451 40.3091C28.6625 40.1483 27.0786 40.5389 25.6932 41.4811C24.5672 42.2427 23.5873 43.4344 22.7535 45.0561C21.9361 46.6482 21.4683 48.2272 21.3501 49.7931C20.8511 56.4474 23.4002 61.2173 28.9974 64.1028C29.7622 64.4968 31.0245 64.9465 32.7841 65.4521C34.2777 65.8821 35.5449 66.3351 36.5855 66.8112C37.1863 67.0869 37.6721 67.5268 38.0431 68.1308C38.286 68.5182 38.4502 69.1255 38.5355 69.9528C38.8277 72.7497 39.7928 75.2972 41.4309 77.5951C42.6521 79.3121 44.1245 80.4266 45.848 80.9387C49.0782 81.9005 52.6893 82.2633 56.6812 82.0269" stroke="#4C415E" stroke-width="2"/>
<path d="M56.6812 82.027L58.6705 84.0164" stroke="#B898A4" stroke-width="2"/>
<path d="M58.6705 84.0164C58.7361 85.6348 58.7295 88.0559 58.6508 91.2796C58.6048 93.2099 57.8251 94.6116 56.3118 95.4849" stroke="#B897A2" stroke-width="2"/>
<path d="M56.312 95.4849C53.2885 95.3733 51.3189 95.4078 50.403 95.5883C46.7033 96.3204 43.9539 96.6897 42.1549 96.6963C39.8504 96.7028 38.0449 96.5387 36.7383 96.2038C30.4518 94.592 25.2912 91.7097 21.2567 87.5569C13.5585 79.6323 10.4251 69.8807 11.8564 58.3023C12.572 52.4885 14.087 46.8929 16.4014 41.5157C17.3731 39.2572 18.1199 37.3384 18.6419 35.7593C19.932 31.8528 19.7564 27.8314 18.115 23.6951" stroke="#9D92AC" stroke-width="2"/>
<path d="M102.043 101.665L103.584 129.545" stroke="#905236" stroke-width="2"/>
<path d="M95.4593 133.731C95.7186 128.199 95.5906 122.658 95.0752 117.107" stroke="#905237" stroke-width="2"/>
<path d="M97.1826 73.7791C95.0455 73.953 94.1427 75.1086 94.4743 77.2457C94.6778 78.5588 95.3508 79.2941 96.4932 79.4517C97.1498 79.5436 97.7275 79.3828 98.2265 78.9691C98.7222 78.5588 99.0718 78.0188 99.2754 77.3491C99.5905 76.315 99.3443 75.4664 98.5367 74.8033" stroke="#89828B" stroke-width="2"/>
<path d="M85.4877 83.6668L85.0002 83.4108" stroke="#86494D" stroke-width="2"/>
<path d="M99.3789 74.6605C99.0736 74.6014 98.7929 74.649 98.5369 74.8033" stroke="#1C0D1F" stroke-width="2"/>
<path d="M98.5368 74.8033L97.1826 73.7791" stroke="#8D848D" stroke-width="2"/>
<path d="M97.1827 73.7791C97.6062 73.4081 97.5718 73.1685 97.0793 73.0601" stroke="#1C0D1F" stroke-width="2"/>
<path d="M97.0792 73.06L95.3705 67.5793C95.3271 67.4361 95.338 67.2815 95.4014 67.144C95.4647 67.0064 95.5761 66.8952 95.7152 66.8309C97.977 65.7869 99.1966 63.924 99.3738 61.2419C99.5314 58.875 98.8223 56.994 97.2466 55.5988C96.4029 54.8503 95.4739 54.4399 94.4595 54.3677C93.4714 54.2955 92.4209 54.4695 91.308 54.8897C91.268 54.9046 91.2253 54.9111 91.1829 54.9087C91.1405 54.9063 91.0994 54.8951 91.0624 54.8759C91.0254 54.8568 90.9935 54.83 90.9687 54.7975C90.9439 54.7651 90.927 54.7276 90.919 54.6878L90.5645 52.8363" stroke="#8E6768" stroke-width="2"/>
<path d="M90.5645 52.8363C90.7417 52.2421 90.6203 51.7513 90.2001 51.3639C90.0885 51.2589 89.7733 51.103 89.2546 50.8961C88.9953 50.7944 88.6736 50.6417 88.2895 50.4382C86.2082 49.345 83.838 48.8903 81.179 49.0742" stroke="#8F6061" stroke-width="2"/>
<path d="M81.179 49.0741C79.5934 49.1529 78.9648 48.4767 79.2931 47.0454C79.467 46.2936 79.9053 45.9686 80.6078 46.0704L86.2017 46.873C86.3396 46.8927 86.3593 46.8599 86.2608 46.7745C85.1775 45.8225 84.3207 44.7129 83.6904 43.4458C83.3654 42.7958 83.1733 41.9652 83.1142 40.9541C83.0486 39.8643 82.9682 39.0042 82.873 38.3739C82.3904 35.1863 80.7802 32.7669 78.0423 31.1156C77.0772 30.5313 76.0611 30.4279 74.9942 30.8054C74.492 30.9794 73.6302 31.4308 72.409 32.1595C69.6121 33.8206 66.3736 34.7464 62.6936 34.9368" stroke="#8E6768" stroke-width="2"/>
<path d="M88.6687 31.4507C89.4336 33.3941 90.7221 34.6974 92.5342 35.3605C94.2609 35.9908 96.6656 36.7212 99.7481 37.5518C101.823 38.1098 103.379 39.0815 104.416 40.4669C105.67 42.1477 105.672 43.8137 104.421 45.465C104.07 45.9344 103.714 46.3989 103.353 46.8585C102.923 47.41 102.622 47.9041 102.452 48.3407C101.608 50.4942 102.026 52.3719 103.707 53.9739C104.022 54.2727 104.311 54.5616 104.574 54.8406C104.856 55.1393 105.158 55.4167 105.48 55.6728C105.69 55.8402 105.798 55.8238 105.805 55.6236C105.808 55.5087 105.715 55.3806 105.524 55.2395C104.766 54.6847 104.111 53.9756 103.559 53.1122C102.975 52.1963 102.667 51.31 102.634 50.4532C102.591 49.36 102.916 48.3341 103.609 47.3755C104.183 46.5844 104.74 45.7801 105.278 44.9627C105.856 44.0862 105.903 43.0242 105.421 41.7767C104.676 39.8366 103.349 38.4447 101.442 37.601C100.579 37.2169 99.6891 36.9018 98.7732 36.6556C96.6722 36.0909 94.5925 35.4541 92.5342 34.745C91.5264 34.397 90.6466 33.463 89.8948 31.9431" stroke="#392B40" stroke-width="2"/>
<path d="M100.482 22.1046C99.9798 22.7513 99.6777 23.4554 99.576 24.217C99.5563 24.3812 99.5005 24.5289 99.4086 24.6602C98.8636 25.4448 98.6782 26.3131 98.8521 27.2651C98.8684 27.3524 98.8665 27.4383 98.8465 27.5131C98.8264 27.588 98.7892 27.6487 98.7389 27.6886C98.4598 27.9118 98.3203 27.5967 98.3203 26.7431C98.3203 26.4575 98.2563 26.4427 98.1283 26.6988C97.6293 27.6836 97.5324 28.8326 97.8377 30.1457C97.8854 30.3496 97.8592 30.5642 97.7639 30.7514C97.1369 31.9956 96.3818 32.987 95.4987 33.7256C95.4327 33.7811 95.3594 33.8223 95.2844 33.8461C95.2094 33.87 95.1346 33.8759 95.0654 33.8635L93.859 33.6419C93.8349 33.637 93.8099 33.6372 93.7859 33.6427C93.7619 33.6481 93.7393 33.6587 93.7197 33.6736C93.7001 33.6886 93.6839 33.7075 93.6723 33.7292C93.6606 33.751 93.6538 33.7749 93.6522 33.7995C93.6423 33.9834 93.5635 34.0408 93.4158 33.9719C93.2615 33.8996 93.163 33.8553 93.1204 33.8389C92.6706 33.6747 92.3456 33.2398 92.1454 32.534C92.1141 32.4212 92.0591 32.3164 91.984 32.2264C91.909 32.1365 91.8155 32.0635 91.7099 32.0123C91.6042 31.9611 91.4888 31.9329 91.3712 31.9294C91.2535 31.926 91.1364 31.9474 91.0276 31.9923C90.8372 32.0711 90.4597 32.0547 89.895 31.9431" stroke="#231023" stroke-width="2"/>
<path d="M89.895 31.9429C88.1814 29.2904 85.8358 27.3716 82.8583 26.1865C82.8025 26.1668 82.75 26.1603 82.7007 26.1668C82.4742 26.1997 82.4857 26.2768 82.7352 26.3983C85.1612 27.5702 87.1391 29.2543 88.6689 31.4505" stroke="#3B2C42" stroke-width="2"/>
<path d="M88.6687 31.4506C87.9367 31.7526 87.1915 31.8231 86.4331 31.6623C86.2684 31.6275 86.1068 31.6486 85.9801 31.7214C85.1561 32.1941 84.4635 32.8162 83.9021 33.5877C83.8605 33.647 83.8009 33.6905 83.7342 33.7104C83.6674 33.7302 83.5977 33.7251 83.5377 33.696C83.193 33.522 82.9255 33.2676 82.7351 32.9327C82.7001 32.8712 82.6479 32.8212 82.5849 32.7889C82.522 32.7565 82.4509 32.7432 82.3805 32.7505C81.5992 32.8326 80.923 32.4272 80.3518 31.5343C80.1213 31.1712 79.7571 30.9131 79.3374 30.8153C78.753 30.6807 78.1227 30.4559 77.4465 30.1407C76.5995 29.7468 75.7641 29.7583 74.9401 30.1752C73.9454 30.6807 72.9589 31.2011 71.9806 31.7362C70.789 32.3894 69.8123 32.8507 69.0507 33.1199C67.8328 33.5565 66.7774 33.8109 65.8845 33.8831C64.5287 33.9914 63.4651 34.3427 62.6936 34.9369" stroke="#231023" stroke-width="2"/>
<path d="M62.6937 34.937C61.5185 35.3539 60.509 36.0088 59.6654 36.9018C59.2419 37.3482 59.1089 37.8685 59.2665 38.4627C59.4438 39.139 59.644 39.8087 59.8673 40.4718C60.1791 41.3877 60.3547 42.0574 60.3941 42.4809C60.6272 44.8346 59.5127 46.5335 57.0506 47.5774C54.5458 48.641 52.911 49.3189 52.1461 49.6111C52.0701 49.6407 52.0015 49.6844 51.9447 49.7395C51.8879 49.7946 51.8442 49.8599 51.8162 49.9312C51.2909 51.2509 51.1006 52.6707 51.245 54.1906C51.2518 54.2628 51.242 54.3356 51.2165 54.4035C51.191 54.4713 51.1504 54.5325 51.0977 54.5823C51.045 54.6321 50.9817 54.6693 50.9125 54.691C50.8433 54.7127 50.7701 54.7184 50.6984 54.7076C46.3553 54.0182 43.9244 55.8271 43.4057 60.1341C43.0413 63.174 44.0951 65.5786 46.567 67.3481C46.6652 67.4176 46.7366 67.5215 46.7704 67.6442C46.8042 67.7668 46.7984 67.9014 46.7541 68.0276L45.0848 72.9025C45.069 72.9489 45.0654 72.9984 45.0742 73.0468C45.0829 73.0952 45.1039 73.1411 45.1353 73.1807C45.1666 73.2202 45.2075 73.2523 45.2544 73.2742C45.3013 73.2961 45.3529 73.3071 45.4049 73.3063C45.9433 73.2998 46.2748 73.0175 46.3996 72.4594C46.7377 70.946 47.1907 69.4688 47.7587 68.0276C47.7843 67.96 47.8287 67.8998 47.8874 67.8532C47.9461 67.8066 48.0172 67.775 48.0935 67.7617L50.2602 67.3776C50.3012 67.3704 50.3433 67.3712 50.3838 67.3801C50.4243 67.3889 50.4623 67.4057 50.4955 67.4292C50.5288 67.4527 50.5565 67.4826 50.577 67.5169C50.5975 67.5512 50.6103 67.5893 50.6147 67.6287C51.2975 73.1011 53.3197 77.9006 56.6813 82.0271" stroke="#91686A" stroke-width="2"/>
<path d="M94.4153 99.5029C95.0489 105.405 95.2688 111.273 95.0751 117.107" stroke="#918891" stroke-width="2"/>
<path d="M95.0752 117.107C93.332 119.362 91.6857 121.043 90.1362 122.149C86.5054 124.736 82.4479 126.335 77.9636 126.945C74.845 127.372 71.5704 127.384 68.1398 126.98C64.5583 126.556 61.159 125.603 57.9418 124.119C53.9335 122.267 50.7016 119.339 48.2461 115.334" stroke="#FDC7A3" stroke-width="2"/>
<path d="M48.2461 115.334L48.8321 99.2369" stroke="#918891" stroke-width="2"/>
<path d="M56.3119 95.4849L54.8149 96.5732" stroke="#E2B7B6" stroke-width="2"/>
<path d="M54.8149 96.5731C52.6647 97.1706 50.6704 98.0586 48.832 99.2371" stroke="#E2D8DF" stroke-width="2"/>
<path d="M48.832 99.2369C46.1368 99.8705 43.6485 100.931 41.3669 102.418" stroke="#766273" stroke-width="2"/>
<path d="M41.3669 102.418C41.0288 102.32 40.7268 102.351 40.4608 102.512C33.7311 106.651 26.7141 111.487 19.4099 117.018" stroke="#E2A283" stroke-width="2"/>
<path d="M90.1018 98.1144C91.2113 102.251 91.4149 106.395 90.7124 110.548C90.5055 111.772 90.1953 112.762 89.7817 113.517C89.2761 114.446 88.6114 115.267 87.7874 115.979C85.6765 117.801 83.2785 119.1 80.5931 119.874C76.1285 121.161 71.595 121.447 66.9925 120.731C63.864 120.245 61.1655 119.108 58.8971 117.319C57.305 116.061 56.1429 114.601 55.4108 112.936C54.6689 111.255 54.2717 109.371 54.2192 107.283C54.1141 103.085 54.3127 99.5145 54.815 96.5731" stroke="#FDDDD4" stroke-width="2"/>
<path d="M85.138 84.9126C82.7777 88.5894 79.9709 91.3174 76.7177 93.0966C74.2129 94.4656 71.6868 94.7856 69.1393 94.0569C67.2517 93.5185 65.3149 92.2481 63.3288 90.2455C61.5955 88.5024 60.1592 86.6312 59.0201 84.632C58.8658 84.3628 58.9479 84.2331 59.2663 84.243" stroke="#F9A194" stroke-width="2"/>
<path d="M81.1792 49.0743C80.9625 49.6226 80.5505 49.8409 79.9432 49.7293C79.8745 49.7167 79.8061 49.6871 79.7418 49.6423C79.6776 49.5975 79.6188 49.5384 79.569 49.4683C79.0371 48.7132 78.3839 48.4112 77.6091 48.5622C76.4404 48.792 75.385 49.593 74.4429 50.9652" stroke="#FDB8A8" stroke-width="2"/>
<path d="M74.4427 50.9652C73.3167 55.676 73.7598 60.2457 75.7722 64.6742" stroke="#EE9583" stroke-width="2"/>
<path d="M75.7723 64.6743C75.1584 66.1778 74.0784 67.1429 72.5322 67.5697C71.6097 67.8225 71.6146 68.0523 72.5469 68.2591C73.2659 68.4232 74.1096 68.5069 75.078 68.5102C76.0694 68.5135 76.8966 68.3773 77.5598 68.1015C79.6017 67.2578 80.1827 65.5967 79.3029 63.1182C79.0141 62.3107 78.9517 61.5408 79.1158 60.8088C79.3128 59.9159 79.4129 59.4563 79.4162 59.43C79.5541 58.2712 79.6903 57.1107 79.8249 55.9486C79.8512 55.7254 80.0087 55.6433 80.2976 55.7024" stroke="#FBA696" stroke-width="2"/>
<path d="M80.2976 55.7023C80.268 57.6851 81.1675 58.7012 82.996 58.7504C83.0743 58.752 83.1516 58.7365 83.2223 58.7049C83.293 58.6734 83.3554 58.6267 83.4047 58.5682C84.0515 57.7935 84.2599 56.8792 84.0301 55.8254" stroke="#A8786F" stroke-width="2"/>
<path d="M84.03 55.8254L85.6107 55.6826" stroke="#F4A092" stroke-width="2"/>
<path d="M85.6108 55.6826L88.0089 57.8837C88.2322 58.0905 88.2715 58.0643 88.1271 57.8049L87.4377 56.564" stroke="#A8786F" stroke-width="2"/>
<path d="M87.4377 56.5639C87.8744 54.7978 88.9166 53.5552 90.5646 52.8363" stroke="#FDB8A8" stroke-width="2"/>
<path d="M97.0793 73.0601C96.9447 73.4015 96.6985 73.321 96.3407 72.8188C96.1732 72.5824 96.0304 72.2804 95.9123 71.9127L94.5286 67.6533C94.5055 67.5811 94.4651 67.5148 94.4105 67.4593C94.3559 67.4038 94.2885 67.3607 94.2134 67.3332C93.1005 66.9065 92.4489 67.215 92.2585 68.259C91.185 74.1713 88.7656 79.2219 85.0002 83.4107" stroke="#8A6566" stroke-width="2"/>
<path d="M85.0002 83.4108C84.6752 83.6241 84.3551 83.8786 84.04 84.174C83.6526 84.5351 83.344 84.7961 83.1142 84.9569C75.0353 90.6198 67.086 90.3818 59.2664 84.243" stroke="#F8A396" stroke-width="2"/>
<path d="M59.2665 84.2429C59.0991 84.1018 58.9005 84.0263 58.6707 84.0164" stroke="#FDBEAD" stroke-width="2"/>
<path d="M87.4377 56.5641C85.7011 54.0889 83.3687 53.2747 80.4404 54.1217" stroke="#A87168" stroke-width="2"/>
<path d="M80.4404 54.1217C78.7432 54.7717 77.6911 55.9273 77.284 57.5884C77.1757 58.0283 76.9919 58.7209 76.7325 59.6664C76.5356 60.3787 76.4863 61.1124 76.5848 61.8675C76.5967 61.9512 76.5911 62.0332 76.5686 62.105C76.5461 62.1769 76.5075 62.236 76.4568 62.2762C76.2631 62.4272 76.0316 62.4584 75.7625 62.3697" stroke="#FB9F8F" stroke-width="2"/>
<path d="M75.7625 62.3696C74.7547 58.6798 74.3148 54.8783 74.4428 50.9652" stroke="#EE8E7C" stroke-width="2"/>
<path d="M48.2461 115.334L47.9014 135.435" stroke="#905237" stroke-width="2"/>
<path d="M39.5498 131.904L41.3668 102.418" stroke="#905236" stroke-width="2"/>
<path d="M85.6107 55.6826C84.8195 54.7207 84.2927 54.7683 84.03 55.8254" stroke="#9F5852" stroke-width="2"/>
<path d="M80.2976 55.7024C80.6095 55.1706 80.6571 54.6437 80.4404 54.1217" stroke="#A65F56" stroke-width="2"/>
<path d="M75.7625 62.3697C75.8215 62.9507 75.9545 63.5154 76.1613 64.0636C76.3681 64.602 76.2385 64.8055 75.7723 64.6742" stroke="#EC7C6A" stroke-width="2"/>
<path d="M126.073 67.801C126.073 67.6419 126.042 67.4844 125.981 67.3375C125.92 67.1905 125.831 67.0569 125.718 66.9445C125.606 66.832 125.472 66.7427 125.325 66.6819C125.178 66.621 125.021 66.5897 124.861 66.5897C124.54 66.5897 124.232 66.7173 124.005 66.9445C123.778 67.1716 123.65 67.4798 123.65 67.801C123.65 68.1223 123.778 68.4304 124.005 68.6576C124.232 68.8848 124.54 69.0124 124.861 69.0124C125.021 69.0124 125.178 68.9811 125.325 68.9202C125.472 68.8593 125.606 68.7701 125.718 68.6576C125.831 68.5451 125.92 68.4116 125.981 68.2646C126.042 68.1176 126.073 67.9601 126.073 67.801Z" stroke="#948DAA" stroke-width="2"/>
<path d="M122.414 73.3554C122.414 73.1718 122.378 72.9899 122.308 72.8203C122.237 72.6506 122.134 72.4964 122.005 72.3666C121.875 72.2367 121.72 72.1337 121.551 72.0634C121.381 71.9931 121.199 71.957 121.016 71.957C120.645 71.957 120.289 72.1043 120.027 72.3666C119.765 72.6288 119.617 72.9845 119.617 73.3554C119.617 73.7263 119.765 74.082 120.027 74.3443C120.289 74.6066 120.645 74.7539 121.016 74.7539C121.199 74.7539 121.381 74.7177 121.551 74.6475C121.72 74.5772 121.875 74.4742 122.005 74.3443C122.134 74.2144 122.237 74.0603 122.308 73.8906C122.378 73.7209 122.414 73.5391 122.414 73.3554Z" stroke="#948DAA" stroke-width="2"/>
<path d="M35.6155 78.5357C35.6155 78.2001 35.4822 77.8782 35.2448 77.6409C35.0075 77.4035 34.6856 77.2702 34.35 77.2702C34.0144 77.2702 33.6925 77.4035 33.4551 77.6409C33.2178 77.8782 33.0845 78.2001 33.0845 78.5357C33.0845 78.7019 33.1172 78.8665 33.1808 79.02C33.2444 79.1736 33.3376 79.3131 33.4551 79.4306C33.5726 79.5481 33.7122 79.6413 33.8657 79.7049C34.0192 79.7685 34.1838 79.8012 34.35 79.8012C34.5162 79.8012 34.6807 79.7685 34.8343 79.7049C34.9878 79.6413 35.1273 79.5481 35.2448 79.4306C35.3624 79.3131 35.4556 79.1736 35.5192 79.02C35.5828 78.8665 35.6155 78.7019 35.6155 78.5357Z" stroke="#9088A8" stroke-width="2"/>
<path d="M118.066 79.5798C118.066 79.1997 117.915 78.8353 117.646 78.5665C117.378 78.2978 117.013 78.1469 116.633 78.1469C116.253 78.1469 115.889 78.2978 115.62 78.5665C115.351 78.8353 115.2 79.1997 115.2 79.5798C115.2 79.9598 115.351 80.3243 115.62 80.593C115.889 80.8617 116.253 81.0127 116.633 81.0127C117.013 81.0127 117.378 80.8617 117.646 80.593C117.915 80.3243 118.066 79.9598 118.066 79.5798Z" stroke="#948BA6" stroke-width="2"/>
<path d="M29.3548 83.0096C29.3233 82.8676 29.2586 82.7343 29.1643 82.6175C29.0699 82.5008 28.9479 82.4027 28.8051 82.329C28.6623 82.2553 28.5015 82.2073 28.332 82.1879C28.1624 82.1684 27.9875 82.1779 27.817 82.2157C27.6465 82.2535 27.4839 82.3188 27.3385 82.4081C27.1931 82.4974 27.0677 82.6088 26.9694 82.736C26.8711 82.8632 26.8019 83.0036 26.7658 83.1493C26.7297 83.295 26.7273 83.4431 26.7588 83.5851C26.7903 83.7272 26.855 83.8604 26.9494 83.9772C27.0437 84.0939 27.1657 84.192 27.3085 84.2657C27.4513 84.3394 27.6121 84.3874 27.7816 84.4069C27.9512 84.4263 28.1262 84.4168 28.2966 84.3791C28.4671 84.3413 28.6297 84.2759 28.7751 84.1866C28.9205 84.0973 29.046 83.9859 29.1442 83.8587C29.2425 83.7316 29.3117 83.5911 29.3478 83.4454C29.3839 83.2997 29.3863 83.1517 29.3548 83.0096Z" stroke="#9088A8" stroke-width="2"/>
<path d="M40.3242 84.1705C40.2979 83.7848 40.1076 83.4262 39.7951 83.1736C39.4826 82.9209 39.0736 82.7949 38.6579 82.8232C38.2423 82.8515 37.8541 83.0319 37.5788 83.3247C37.3035 83.6174 37.1636 83.9985 37.1899 84.3842C37.2162 84.7699 37.4065 85.1285 37.719 85.3812C38.0315 85.6338 38.4406 85.7598 38.8562 85.7315C39.2718 85.7032 39.66 85.5228 39.9353 85.2301C40.2106 84.9373 40.3505 84.5562 40.3242 84.1705Z" stroke="#948BA6" stroke-width="2"/>
<path d="M112.878 84.0646C112.758 83.9299 112.608 83.8238 112.438 83.7524C112.268 83.6809 112.08 83.6455 111.885 83.6482C111.69 83.6509 111.492 83.6916 111.303 83.768C111.113 83.8445 110.936 83.9551 110.78 84.0936C110.466 84.3734 110.261 84.7497 110.211 85.1399C110.16 85.5301 110.268 85.9021 110.51 86.1741C110.63 86.3089 110.78 86.4149 110.95 86.4864C111.12 86.5578 111.308 86.5932 111.503 86.5905C111.698 86.5878 111.896 86.5471 112.085 86.4707C112.275 86.3943 112.453 86.2837 112.608 86.1451C112.922 85.8654 113.127 85.489 113.177 85.0989C113.228 84.7087 113.12 84.3367 112.878 84.0646Z" stroke="#948DAA" stroke-width="2"/>
<path d="M107.833 89.8157C107.816 89.6108 107.755 89.4115 107.655 89.2291C107.554 89.0468 107.415 88.885 107.246 88.753C107.077 88.621 106.881 88.5214 106.669 88.4598C106.457 88.3983 106.234 88.376 106.011 88.3943C105.562 88.4312 105.145 88.6311 104.852 88.9499C104.558 89.2686 104.412 89.6803 104.447 90.0942C104.463 90.2991 104.524 90.4984 104.625 90.6808C104.725 90.8631 104.864 91.0249 105.033 91.1569C105.202 91.2889 105.398 91.3885 105.61 91.4501C105.822 91.5116 106.046 91.5339 106.268 91.5156C106.717 91.4787 107.134 91.2788 107.428 90.96C107.721 90.6413 107.867 90.2296 107.833 89.8157Z" stroke="#9088A8" stroke-width="2"/>
<path d="M101.426 92.9557C101.395 92.6373 101.218 92.3462 100.936 92.1465C100.654 91.9469 100.289 91.855 99.9211 91.891C99.739 91.9089 99.5617 91.9577 99.3994 92.0345C99.237 92.1113 99.0928 92.2148 98.9749 92.3389C98.8571 92.463 98.7679 92.6054 98.7125 92.7579C98.6571 92.9104 98.6365 93.07 98.652 93.2277C98.6832 93.5461 98.8593 93.8372 99.1414 94.0369C99.4236 94.2365 99.7888 94.3284 100.157 94.2924C100.339 94.2745 100.516 94.2258 100.678 94.1489C100.841 94.0721 100.985 93.9687 101.103 93.8446C101.221 93.7204 101.31 93.578 101.365 93.4255C101.421 93.273 101.441 93.1134 101.426 92.9557Z" stroke="#988EAA" stroke-width="2"/>
<path d="M66.8398 20.5436C67.4077 21.3938 67.8082 22.3097 68.0413 23.2913C68.0873 23.4784 68.1611 23.6278 68.2629 23.7394C68.6174 24.1333 68.816 24.048 68.8587 23.4833C68.8718 23.3126 68.8538 23.1288 68.8045 22.9318C68.3581 21.2051 67.4668 19.8279 66.1307 18.8004C65.7696 18.5247 65.374 18.4541 64.944 18.5887C64.7798 18.6412 64.7766 18.7101 64.9341 18.7955C65.7089 19.219 66.3441 19.8017 66.8398 20.5436Z" stroke="#1F0E21" stroke-width="2"/>
<path d="M88.1714 23.4684C89.8325 24.5386 91.4361 25.6876 92.9823 26.9154C93.0775 26.9909 93.1579 27.0254 93.2236 27.0188C93.368 26.9991 93.3762 26.9072 93.2482 26.743C92.05 25.187 90.5957 23.9346 88.8854 22.9859C88.7278 22.9005 88.5637 22.8562 88.393 22.8529C87.5788 22.8332 87.505 23.0384 88.1714 23.4684Z" stroke="#3B2C42" stroke-width="2"/>
<path d="M65.4512 28.9245C61.3477 28.8457 57.2705 29.1346 53.2195 29.7912C48.8205 30.5036 46.5571 32.9279 46.429 37.0642C46.4028 37.9243 46.5948 38.8222 47.0052 39.7578C47.2941 40.4143 47.6781 41.2662 48.1574 42.3134C48.8599 43.8498 48.5514 45.2039 47.2317 46.3759C46.5784 46.9569 45.2866 47.9221 43.3563 49.2713C43.1134 49.4387 42.9854 49.6144 42.9722 49.7982C42.9591 50.0017 43.0297 50.0214 43.184 49.8573C43.8208 49.1909 44.5546 48.6459 45.3851 48.2224C46.7212 47.5363 47.793 46.563 48.6006 45.3024C49.2572 44.2782 49.3573 43.1932 48.901 42.0475C48.553 41.171 48.2313 40.2863 47.9358 39.3934C46.9018 36.255 47.4533 33.7864 49.5904 31.9874C50.457 31.2586 51.6914 30.7416 53.2934 30.4363C55.1416 30.085 57.0078 29.8552 58.8922 29.7469C61.1113 29.6221 63.3289 29.4547 65.5448 29.2446C65.6367 29.238 65.7138 29.2134 65.7762 29.1707C66.0027 29.0164 65.8944 28.9344 65.4512 28.9245Z" stroke="#36233B" stroke-width="2"/>
<path d="M24.6136 52.0964C24.7144 52.1126 24.8228 52.0759 24.9324 51.9884C25.042 51.901 25.1507 51.7645 25.2524 51.5867C25.354 51.409 25.4466 51.1934 25.5248 50.9524C25.603 50.7114 25.6653 50.4497 25.7081 50.1822C25.7947 49.6419 25.7967 49.1107 25.7138 48.7056C25.631 48.3004 25.47 48.0545 25.2662 48.0218C25.1653 48.0057 25.057 48.0424 24.9474 48.1298C24.8378 48.2173 24.729 48.3538 24.6274 48.5315C24.5258 48.7093 24.4332 48.9248 24.355 49.1658C24.2768 49.4068 24.2145 49.6685 24.1717 49.9361C24.0851 50.4764 24.0831 51.0075 24.1659 51.4127C24.2488 51.8178 24.4098 52.0638 24.6136 52.0964Z" stroke="#49384C" stroke-width="2"/>
<path d="M45.5966 79.5078C46.2517 79.557 46.9022 79.3073 47.4052 78.8136C47.9081 78.3198 48.2222 77.6225 48.2784 76.8749C48.3346 76.1274 48.1283 75.391 47.7049 74.8276C47.2814 74.2642 46.6755 73.92 46.0205 73.8707C45.3654 73.8215 44.7149 74.0712 44.2119 74.565C43.709 75.0587 43.3949 75.7561 43.3387 76.5036C43.2825 77.2511 43.4888 77.9875 43.9122 78.5509C44.3357 79.1143 44.9416 79.4585 45.5966 79.5078Z" stroke="#90858F" stroke-width="2"/>
<path d="M61.3495 45.0315C61.5957 45.176 61.8583 45.2006 62.1374 45.1054C67.8429 43.1258 73.6994 42.5432 79.7069 43.3573C79.7868 43.368 79.8663 43.3605 79.9378 43.3355C80.0093 43.3105 80.0705 43.2689 80.1156 43.2145C80.3323 42.9552 80.2682 42.8107 79.9235 42.7812C79.7102 42.7615 79.5657 42.7434 79.4902 42.727C73.289 41.345 67.2487 41.967 61.3692 44.5933C61.077 44.7246 61.0704 44.8707 61.3495 45.0315Z" stroke="#F2B8AB" stroke-width="2"/>
<path d="M64.1758 47.1736C60.7683 47.0652 57.5659 47.9335 54.5687 49.7785C53.6495 50.3431 53.3672 51.323 53.7218 52.7182C53.7319 52.756 53.7511 52.7908 53.7777 52.8195C53.8043 52.8482 53.8374 52.8699 53.874 52.8826C53.9106 52.8952 53.9496 52.8986 53.9875 52.8922C54.0254 52.8859 54.061 52.8701 54.0911 52.8462C56.8552 50.6862 60.0592 49.5864 63.7031 49.547C63.7261 49.547 63.8869 49.5602 64.1857 49.5864C64.9506 49.6521 65.1886 49.0481 64.8997 47.7743C64.8627 47.6081 64.7715 47.4589 64.6405 47.3502C64.5094 47.2415 64.346 47.1793 64.1758 47.1736Z" stroke="#8F6C6A" stroke-width="2"/>
<path d="M58.8971 56.3376C58.3883 57.5752 58.4933 58.4747 59.2123 59.0361C59.8459 59.5318 60.573 59.6565 61.3937 59.4103C62.3654 59.1149 62.7528 58.2662 62.5558 56.8645" stroke="#99746D" stroke-width="2"/>
<path d="M62.5559 56.8644C63.2387 57.2944 63.695 57.9329 63.9248 58.7799" stroke="#DD907B" stroke-width="2"/>
<path d="M63.9246 58.78C63.9475 59.0754 64.0296 59.3364 64.1708 59.5629C64.1858 59.5884 64.207 59.6098 64.2324 59.625C64.2577 59.6403 64.2864 59.6488 64.3156 59.6498C64.3448 59.6508 64.3736 59.6442 64.3991 59.6307C64.4246 59.6172 64.446 59.5972 64.4613 59.5727C64.7206 59.1755 64.7059 58.7471 64.417 58.2875" stroke="#C77E71" stroke-width="2"/>
<path d="M64.417 58.2876L63.314 56.0963C63.1925 55.8567 63.2565 55.7566 63.506 55.796C65.1048 56.0553 66.1323 56.5641 66.5886 57.3225C66.9201 57.8674 67.0646 57.8231 67.0219 57.1895C66.9497 56.0668 66.5771 55.1591 65.9041 54.4664C65.346 53.8919 64.5056 53.5588 63.3829 53.4668C61.7842 53.3388 60.3299 53.4685 59.0201 53.8558C56.9552 54.4664 55.5518 55.8419 54.8099 57.9823C54.7344 58.199 54.7016 58.4107 54.7114 58.6175C54.741 59.4087 55.0594 59.3709 55.6667 58.5043C56.3101 57.5785 57.3869 56.8563 58.897 56.3376" stroke="#DD907B" stroke-width="2"/>
<path d="M64.4171 58.2875C64.01 58.1923 63.8459 58.3564 63.9247 58.7799" stroke="#A84F3C" stroke-width="2"/>
<path d="M62.5556 56.8643C62.2536 55.4757 61.3492 54.9439 59.8424 55.2689C59.2876 55.3871 58.9725 55.7433 58.897 56.3375" stroke="#7A4539" stroke-width="2"/>
<path d="M47.4188 63.7336C49.2834 64.6101 50.5194 64.2687 51.1267 62.7094C51.432 61.9248 51.4944 61.1205 51.3139 60.2966C51.0709 59.1771 50.5785 58.4533 49.8366 58.125C49.1177 57.8065 48.3725 57.8968 47.601 58.3958C46.7803 58.9243 46.2961 59.7467 46.1484 60.8628C45.9547 62.2908 46.3782 63.2478 47.4188 63.7336Z" stroke="#FBA696" stroke-width="2"/>
<path d="M94.1495 58.3613C92.9414 57.5538 92.1601 57.8197 91.8056 59.1591C91.5791 60.0027 91.4707 60.8612 91.4806 61.7344C91.5069 63.5761 92.3456 64.1177 93.9969 63.3594C95.0966 62.8571 95.6038 61.9855 95.5184 60.7446C95.4462 59.7204 94.9899 58.926 94.1495 58.3613Z" stroke="#FCAB9A" stroke-width="2"/>
<path d="M82.7254 67.9833C85.2499 69.674 87.5446 69.7971 89.6094 68.3526C90.4859 67.7355 91.0227 66.9903 91.2197 66.1171C91.4823 64.9353 91.0391 63.9767 89.8901 63.2413C88.8987 62.611 87.7465 62.2155 86.4333 62.0546C85.0447 61.8872 83.9089 62.1334 83.0258 62.7932C81.8144 63.6993 81.4205 65.0124 81.844 66.7326C81.9753 67.2644 82.2691 67.6813 82.7254 67.9833Z" stroke="#FCA496" stroke-width="2"/>
<path d="M54.224 70.0761C55.7637 71.1462 57.259 71.4335 58.71 70.9378C60.0559 70.4782 61.0654 69.559 61.7384 68.1802C62.4573 66.7063 62.1356 65.4588 60.7732 64.4378C59.8212 63.7255 58.7412 63.4087 57.5331 63.4875C56.0493 63.5827 54.7066 64.1555 53.5051 65.206C52.4809 66.1022 52.2609 67.1806 52.8453 68.4412C53.1571 69.1076 53.6167 69.6526 54.224 70.0761Z" stroke="#FBA393" stroke-width="2"/>
<path d="M68.8093 77.088C71.8787 78.6244 74.8841 78.4208 77.8255 76.4774C79.3586 75.463 80.5338 74.25 81.3513 72.8384" stroke="#F4A092" stroke-width="2"/>
<path d="M81.3514 72.8384C82.4314 71.2036 82.1606 70.5782 80.5389 70.9623C79.925 71.1067 79.6115 71.1806 79.5984 71.1839C74.3984 72.2048 69.2789 72.5528 64.2398 72.2278C63.6391 72.1884 63.4979 72.4231 63.8163 72.9319C65.0179 74.8524 66.6822 76.2377 68.8095 77.088" stroke="#FDDED6" stroke-width="2"/>
<path d="M81.3513 72.8384C78.2129 77.0174 74.0323 78.434 68.8093 77.088" stroke="#F4BFB9" stroke-width="2"/>
<path d="M70.518 105.325C70.5183 105.258 70.492 105.194 70.4451 105.147C70.3982 105.1 70.3344 105.073 70.2678 105.073L69.8738 105.072C69.8409 105.072 69.8082 105.078 69.7777 105.09C69.7472 105.103 69.7194 105.121 69.696 105.145C69.6726 105.168 69.654 105.195 69.6413 105.226C69.6286 105.256 69.6219 105.289 69.6218 105.322L69.5928 113.654C69.5926 113.72 69.6188 113.784 69.6657 113.831C69.7126 113.879 69.7764 113.905 69.843 113.906L70.237 113.907C70.2699 113.907 70.3026 113.901 70.3331 113.888C70.3636 113.876 70.3914 113.857 70.4148 113.834C70.4382 113.811 70.4568 113.783 70.4695 113.753C70.4822 113.722 70.4889 113.69 70.489 113.657L70.518 105.325Z" stroke="#FCA998" stroke-width="2"/>
<path d="M122.139 113.32C119.312 111.127 115.744 108.714 111.433 106.082C108.141 104.073 105.011 102.6 102.043 101.665C99.5481 100.591 97.0055 99.8707 94.4154 99.503C92.7642 99.2207 91.3263 98.7578 90.1018 98.1143C89.0645 97.727 88.1715 97.2707 87.4231 96.7454C86.4907 96.0889 85.9688 95.3338 85.8572 94.4803C85.6963 93.2591 85.4567 90.0699 85.1382 84.9126C85.1382 84.5285 85.2548 84.1132 85.4879 83.6667C87.8186 84.0443 90.0657 83.9868 92.2291 83.4944C95.2624 82.8017 97.5587 81.0816 99.118 78.3339C99.7877 77.1586 99.8747 75.9341 99.379 74.6604C100.334 73.8824 101.367 73.5131 102.476 73.5525C103.064 73.5722 103.806 73.6641 104.702 73.8282C105.746 74.0153 106.485 74.1122 106.918 74.1188C110.079 74.1614 112.292 72.6595 113.556 69.6131C113.726 69.2028 113.91 68.4116 114.107 67.2396C114.275 66.2548 114.486 65.4801 114.742 64.9154C115.314 63.6647 116.084 62.5387 117.052 61.5374C117.882 60.6839 118.674 59.7943 119.425 58.8685C121.336 56.518 121.714 54.1068 120.558 51.6349C120.144 50.7485 119.496 49.9918 118.613 49.3648C117.782 48.7772 116.888 48.2913 115.929 47.9072C114.852 47.4706 114.01 46.9602 113.403 46.3758C112.474 45.4829 112.33 44.503 112.97 43.4361C113.328 42.8386 113.511 42.53 113.521 42.5104C114.122 41.322 114.462 40.5899 114.541 40.3142C115.21 37.9637 114.923 35.9907 113.679 34.3953C112.858 33.3415 111.474 32.4075 109.528 31.5934C107.962 30.9368 106.324 30.4772 104.613 30.2146C102.847 29.9422 101.775 29.6877 101.398 29.4514C99.6318 28.3451 99.1295 26.7956 99.8911 24.8029C100.256 23.8476 100.452 22.9482 100.482 22.1045C100.794 20.4237 100.218 18.912 98.7536 17.5693C96.5213 15.5241 93.9854 14.3948 91.1458 14.1814C85.5453 13.7613 81.2777 15.8934 78.3428 20.578C78.1787 20.8439 78.0589 20.8242 77.9834 20.5189C77.491 18.5032 76.6604 16.6518 75.4917 14.9644C74.2147 13.1162 72.6226 12.005 70.7153 11.6307C68.6734 11.2302 66.5855 11.2959 64.4517 11.8277C62.5772 12.2939 60.8587 12.9619 59.2961 13.8318C57.612 14.7674 56.1856 15.9886 55.0169 17.4954C54.5541 18.0962 54.4113 18.7642 54.5885 19.4996C55.0087 21.269 54.3834 22.4328 52.7124 22.9908C51.8458 23.2797 50.9528 23.4242 50.0337 23.4242C48.018 23.4209 46.0073 23.5062 44.0015 23.6802C41.9202 23.8608 40.0638 24.4714 38.4322 25.512C35.0608 27.6557 34.0563 30.5708 35.4186 34.2574C35.4909 34.4576 35.6878 34.8483 36.0095 35.4294C36.2262 35.82 36.3986 36.2271 36.5266 36.6506C36.7236 37.3005 36.6628 37.9177 36.3444 38.5021C35.7042 39.6642 34.7391 40.3437 33.449 40.5407C33.3374 40.5571 32.3361 40.4799 30.4452 40.3092C28.6626 40.1484 27.0787 40.539 25.6934 41.4812C24.5674 42.2428 23.5874 43.4345 22.7536 45.0562C21.9362 46.6483 21.4684 48.2273 21.3502 49.7932C20.8512 56.4475 23.4003 61.2174 28.9975 64.1029C29.7624 64.4969 31.0246 64.9466 32.7842 65.4522C34.2779 65.8822 35.545 66.3352 36.5857 66.8112C37.1864 67.087 37.6723 67.5269 38.0432 68.1309C38.2862 68.5183 38.4503 69.1256 38.5357 69.9529C38.8278 72.7498 39.793 75.2973 41.4311 77.5952C42.6523 79.3121 44.1246 80.4266 45.8481 80.9388C49.0784 81.9006 52.6894 82.2634 56.6813 82.027L58.6707 84.0164C58.7363 85.6348 58.7298 88.0559 58.651 91.2796C58.605 93.2098 57.8254 94.6116 56.312 95.4848C53.2885 95.3732 51.3189 95.4077 50.403 95.5882C46.7033 96.3203 43.9539 96.6896 42.1549 96.6962C39.8504 96.7027 38.0449 96.5386 36.7383 96.2038C30.4518 94.5919 25.2912 91.7096 21.2567 87.5569C13.5585 79.6322 10.4251 69.8807 11.8564 58.3022C12.572 52.4884 14.087 46.8929 16.4014 41.5157C17.3731 39.2571 18.1199 37.3383 18.6419 35.7593C19.932 31.8527 19.7564 27.8313 18.115 23.695C33.4063 7.26788 52.3349 -0.241514 74.9008 1.16681C78.9518 1.41958 83.0898 2.12373 87.3147 3.27927C90.4235 4.12952 93.5077 5.23911 96.5673 6.60803C109.328 12.3234 119.412 20.9834 126.822 32.5881C132.274 41.1299 135.598 50.6451 136.793 61.1337C137.161 64.3639 137.302 67.6418 137.217 70.9673C136.826 86.6656 131.8 100.783 122.139 113.32ZM126.073 67.801C126.073 67.6419 126.042 67.4844 125.981 67.3374C125.92 67.1905 125.831 67.0569 125.718 66.9444C125.606 66.832 125.472 66.7427 125.325 66.6819C125.178 66.621 125.021 66.5896 124.862 66.5896C124.54 66.5896 124.232 66.7173 124.005 66.9444C123.778 67.1716 123.65 67.4797 123.65 67.801C123.65 68.1223 123.778 68.4304 124.005 68.6576C124.232 68.8847 124.54 69.0124 124.862 69.0124C125.021 69.0124 125.178 68.981 125.325 68.9202C125.472 68.8593 125.606 68.7701 125.718 68.6576C125.831 68.5451 125.92 68.4115 125.981 68.2646C126.042 68.1176 126.073 67.9601 126.073 67.801ZM122.414 73.3555C122.414 73.1718 122.378 72.99 122.308 72.8203C122.238 72.6507 122.135 72.4965 122.005 72.3666C121.875 72.2368 121.721 72.1338 121.551 72.0635C121.381 71.9932 121.2 71.957 121.016 71.957C120.645 71.957 120.289 72.1044 120.027 72.3666C119.765 72.6289 119.617 72.9846 119.617 73.3555C119.617 73.7264 119.765 74.0821 120.027 74.3444C120.289 74.6066 120.645 74.754 121.016 74.754C121.2 74.754 121.381 74.7178 121.551 74.6475C121.721 74.5772 121.875 74.4742 122.005 74.3444C122.135 74.2145 122.238 74.0603 122.308 73.8907C122.378 73.721 122.414 73.5391 122.414 73.3555ZM35.6156 78.5357C35.6156 78.2001 35.4823 77.8782 35.2449 77.6409C35.0076 77.4036 34.6857 77.2702 34.3501 77.2702C34.0145 77.2702 33.6926 77.4036 33.4552 77.6409C33.2179 77.8782 33.0846 78.2001 33.0846 78.5357C33.0846 78.7019 33.1173 78.8665 33.1809 79.0201C33.2445 79.1736 33.3377 79.3131 33.4552 79.4306C33.5727 79.5481 33.7123 79.6413 33.8658 79.7049C34.0193 79.7685 34.1839 79.8013 34.3501 79.8013C34.5163 79.8013 34.6808 79.7685 34.8344 79.7049C34.9879 79.6413 35.1274 79.5481 35.2449 79.4306C35.3625 79.3131 35.4557 79.1736 35.5193 79.0201C35.5829 78.8665 35.6156 78.7019 35.6156 78.5357ZM118.066 79.5797C118.066 79.1996 117.915 78.8352 117.647 78.5664C117.378 78.2977 117.013 78.1467 116.633 78.1467C116.253 78.1467 115.889 78.2977 115.62 78.5664C115.351 78.8352 115.2 79.1996 115.2 79.5797C115.2 79.9597 115.351 80.3242 115.62 80.5929C115.889 80.8616 116.253 81.0126 116.633 81.0126C117.013 81.0126 117.378 80.8616 117.647 80.5929C117.915 80.3242 118.066 79.9597 118.066 79.5797ZM29.355 83.0097C29.3235 82.8676 29.2587 82.7344 29.1644 82.6176C29.0701 82.5008 28.948 82.4028 28.8052 82.3291C28.6624 82.2554 28.5017 82.2074 28.3321 82.188C28.1626 82.1685 27.9876 82.178 27.8172 82.2158C27.6467 82.2535 27.4841 82.3189 27.3387 82.4082C27.1932 82.4975 27.0678 82.6089 26.9696 82.7361C26.8713 82.8632 26.8021 83.0037 26.766 83.1494C26.7298 83.2951 26.7275 83.4432 26.759 83.5852C26.7904 83.7273 26.8552 83.8605 26.9495 83.9772C27.0438 84.094 27.1659 84.1921 27.3087 84.2658C27.4515 84.3395 27.6123 84.3875 27.7818 84.4069C27.9513 84.4264 28.1263 84.4169 28.2968 84.3791C28.4672 84.3413 28.6298 84.2759 28.7753 84.1867C28.9207 84.0974 29.0461 83.986 29.1444 83.8588C29.2427 83.7317 29.3118 83.5912 29.348 83.4455C29.3841 83.2998 29.3865 83.1517 29.355 83.0097ZM40.3244 84.1705C40.2981 83.7848 40.1078 83.4262 39.7953 83.1736C39.4828 82.9209 39.0738 82.7949 38.6581 82.8232C38.2425 82.8515 37.8543 83.0319 37.579 83.3247C37.3037 83.6174 37.1638 83.9985 37.1901 84.3842C37.2164 84.7699 37.4067 85.1285 37.7192 85.3812C38.0317 85.6338 38.4407 85.7598 38.8564 85.7315C39.272 85.7032 39.6602 85.5228 39.9355 85.2301C40.2108 84.9373 40.3507 84.5562 40.3244 84.1705ZM112.878 84.0646C112.758 83.9299 112.609 83.8238 112.438 83.7524C112.268 83.6809 112.08 83.6455 111.885 83.6482C111.69 83.6509 111.493 83.6916 111.303 83.7681C111.114 83.8445 110.936 83.9551 110.78 84.0937C110.467 84.3734 110.262 84.7497 110.211 85.1399C110.16 85.5301 110.268 85.9021 110.511 86.1742C110.631 86.3089 110.78 86.415 110.95 86.4864C111.121 86.5579 111.309 86.5932 111.504 86.5905C111.698 86.5879 111.896 86.5471 112.086 86.4707C112.275 86.3943 112.453 86.2837 112.608 86.1452C112.922 85.8654 113.127 85.4891 113.178 85.0989C113.228 84.7087 113.121 84.3367 112.878 84.0646ZM107.833 89.8157C107.816 89.6108 107.756 89.4115 107.655 89.2291C107.554 89.0468 107.416 88.885 107.246 88.753C107.077 88.621 106.881 88.5214 106.669 88.4598C106.457 88.3983 106.234 88.376 106.012 88.3943C105.563 88.4312 105.145 88.6311 104.852 88.9499C104.559 89.2686 104.413 89.6803 104.447 90.0942C104.464 90.2991 104.524 90.4984 104.625 90.6808C104.725 90.8631 104.864 91.0249 105.033 91.1569C105.203 91.2889 105.399 91.3885 105.611 91.4501C105.822 91.5116 106.046 91.5339 106.268 91.5156C106.717 91.4787 107.134 91.2788 107.428 90.9601C107.721 90.6413 107.867 90.2296 107.833 89.8157ZM101.426 92.9557C101.395 92.6372 101.218 92.3462 100.936 92.1465C100.654 91.9468 100.289 91.8549 99.9211 91.891C99.739 91.9089 99.5617 91.9576 99.3993 92.0345C99.237 92.1113 99.0928 92.2147 98.9749 92.3389C98.857 92.463 98.7679 92.6053 98.7125 92.7578C98.657 92.9104 98.6365 93.07 98.6519 93.2277C98.6832 93.5461 98.8592 93.8372 99.1414 94.0368C99.4236 94.2365 99.7888 94.3284 100.157 94.2923C100.339 94.2745 100.516 94.2257 100.678 94.1489C100.841 94.0721 100.985 93.9686 101.103 93.8445C101.221 93.7204 101.31 93.578 101.365 93.4255C101.421 93.273 101.441 93.1133 101.426 92.9557Z" fill="#737198"/>
<path d="M100.482 22.1044C99.9796 22.7511 99.6776 23.4553 99.5758 24.2169C99.5561 24.381 99.5003 24.5287 99.4084 24.6601C98.8635 25.4446 98.678 26.3129 98.852 27.2649C98.8683 27.3522 98.8663 27.4382 98.8463 27.513C98.8263 27.5878 98.789 27.6486 98.7387 27.6884C98.4597 27.9116 98.3202 27.5965 98.3202 26.743C98.3202 26.4574 98.2562 26.4426 98.1281 26.6986C97.6292 27.6835 97.5323 28.8325 97.8376 30.1456C97.8853 30.3495 97.8591 30.564 97.7637 30.7513C97.1367 31.9955 96.3817 32.9869 95.4986 33.7255C95.4325 33.7809 95.3593 33.8221 95.2843 33.846C95.2093 33.8698 95.1345 33.8758 95.0653 33.8634L93.8589 33.6418C93.8347 33.6368 93.8098 33.637 93.7858 33.6425C93.7617 33.648 93.7392 33.6586 93.7196 33.6735C93.7 33.6884 93.6838 33.7074 93.6721 33.7291C93.6605 33.7508 93.6536 33.7748 93.652 33.7994C93.6422 33.9832 93.5634 34.0406 93.4157 33.9717C93.2614 33.8995 93.1629 33.8551 93.1202 33.8387C92.6705 33.6746 92.3455 33.2396 92.1452 32.5338C92.114 32.421 92.059 32.3162 91.9839 32.2263C91.9088 32.1364 91.8154 32.0634 91.7097 32.0122C91.6041 31.961 91.4886 31.9327 91.371 31.9293C91.2534 31.9258 91.1363 31.9473 91.0274 31.9922C90.837 32.0709 90.4595 32.0545 89.8949 31.9429C88.1813 29.2904 85.8357 27.3716 82.8582 26.1865C82.8024 26.1668 82.7499 26.1603 82.7006 26.1669C82.4741 26.1997 82.4856 26.2768 82.7351 26.3983C85.1611 27.5702 87.139 29.2543 88.6688 31.4505C87.9367 31.7525 87.1915 31.8231 86.4332 31.6622C86.2684 31.6274 86.1068 31.6485 85.9801 31.7213C85.1562 32.1941 84.4635 32.8162 83.9021 33.5876C83.8605 33.647 83.801 33.6905 83.7342 33.7103C83.6674 33.7302 83.5978 33.7251 83.5377 33.6959C83.193 33.5219 82.9255 33.2675 82.7351 32.9327C82.7001 32.8712 82.6479 32.8212 82.5849 32.7888C82.522 32.7565 82.451 32.7432 82.3806 32.7505C81.5992 32.8326 80.923 32.4271 80.3518 31.5342C80.1213 31.1712 79.7571 30.913 79.3374 30.8153C78.7531 30.6807 78.1228 30.4558 77.4465 30.1407C76.5995 29.7467 75.7641 29.7582 74.9401 30.1751C73.9454 30.6807 72.9589 31.201 71.9807 31.7361C70.789 32.3894 69.8124 32.8506 69.0508 33.1198C67.8328 33.5564 66.7774 33.8108 65.8845 33.8831C64.5287 33.9914 63.4651 34.3427 62.6936 34.9368C61.5184 35.3538 60.5089 36.0087 59.6652 36.9016C59.2418 37.3481 59.1088 37.8684 59.2664 38.4626C59.4437 39.1388 59.6439 39.8085 59.8671 40.4716C60.179 41.3875 60.3546 42.0572 60.394 42.4807C60.6271 44.8345 59.5126 46.5333 57.0505 47.5772C54.5457 48.6409 52.9109 49.3188 52.146 49.6109C52.07 49.6405 52.0014 49.6843 51.9446 49.7394C51.8878 49.7945 51.844 49.8597 51.8161 49.931C51.2908 51.2507 51.1004 52.6705 51.2449 54.1904C51.2517 54.2626 51.2419 54.3354 51.2164 54.4033C51.1909 54.4712 51.1502 54.5323 51.0976 54.5821C51.0449 54.632 50.9816 54.6691 50.9124 54.6909C50.8432 54.7126 50.77 54.7183 50.6983 54.7075C46.3551 54.0181 43.9242 55.8269 43.4055 60.1339C43.0412 63.1738 44.0949 65.5785 46.5669 67.3479C46.6651 67.4174 46.7365 67.5214 46.7703 67.644C46.804 67.7666 46.7983 67.9013 46.754 68.0274L45.0847 72.9024C45.0689 72.9488 45.0653 72.9982 45.074 73.0466C45.0828 73.095 45.1038 73.1409 45.1351 73.1805C45.1665 73.2201 45.2074 73.2522 45.2543 73.274C45.3012 73.2959 45.3528 73.3069 45.4048 73.3062C45.9432 73.2996 46.2747 73.0173 46.3995 72.4592C46.7376 70.9459 47.1906 69.4686 47.7585 68.0274C47.7842 67.9598 47.8286 67.8997 47.8873 67.853C47.946 67.8064 48.017 67.7749 48.0934 67.7615L50.26 67.3774C50.3011 67.3702 50.3432 67.371 50.3837 67.3799C50.4242 67.3888 50.4622 67.4055 50.4954 67.429C50.5286 67.4526 50.5563 67.4824 50.5768 67.5167C50.5973 67.551 50.6102 67.5891 50.6146 67.6286C51.2974 73.101 53.3196 77.9005 56.6812 82.0269C52.6893 82.2633 49.0782 81.9005 45.848 80.9387C44.1245 80.4266 42.6521 79.312 41.431 77.5951C39.7928 75.2972 38.8277 72.7497 38.5355 69.9528C38.4502 69.1255 38.286 68.5182 38.0431 68.1308C37.6721 67.5268 37.1863 67.0869 36.5855 66.8111C35.5449 66.3351 34.2777 65.8821 32.7841 65.4521C31.0245 64.9465 29.7622 64.4968 28.9974 64.1028C23.4002 61.2173 20.8511 56.4474 21.3501 49.7931C21.4683 48.2272 21.9361 46.6482 22.7535 45.0561C23.5873 43.4344 24.5672 42.2427 25.6932 41.4811C27.0786 40.5389 28.6625 40.1483 30.4451 40.3091C32.336 40.4798 33.3372 40.557 33.4488 40.5406C34.739 40.3436 35.7041 39.6641 36.3443 38.502C36.6627 37.9176 36.7234 37.3004 36.5265 36.6505C36.3984 36.227 36.2261 35.8199 36.0094 35.4293C35.6877 34.8482 35.4907 34.4576 35.4185 34.2573C34.0562 30.5707 35.0607 27.6556 38.4321 25.5119C40.0637 24.4713 41.9201 23.8607 44.0014 23.6801C46.0072 23.5061 48.0179 23.4208 50.0335 23.4241C50.9527 23.4241 51.8456 23.2796 52.7123 22.9907C54.3832 22.4327 55.0086 21.2689 54.5884 19.4995C54.4111 18.7641 54.5539 18.0961 55.0168 17.4953C56.1855 15.9885 57.6119 14.7673 59.2959 13.8317C60.8585 12.9618 62.5771 12.2938 64.4516 11.8276C66.5854 11.2958 68.6732 11.2301 70.7151 11.6306C72.6224 12.0049 74.2146 13.1161 75.4916 14.9643C76.6603 16.6517 77.4908 18.5032 77.9832 20.5188C78.0587 20.8241 78.1786 20.8438 78.3427 20.5779C81.2775 15.8933 85.5452 13.7612 91.1456 14.1814C93.9852 14.3947 96.5212 15.524 98.7535 17.5692C100.218 18.9119 100.794 20.4236 100.482 22.1044ZM66.8398 20.5434C67.4077 21.3936 67.8082 22.3096 68.0413 23.2911C68.0873 23.4782 68.1611 23.6276 68.2629 23.7392C68.6174 24.1332 68.816 24.0478 68.8587 23.4832C68.8718 23.3125 68.8538 23.1286 68.8045 22.9317C68.3581 21.2049 67.4668 19.8278 66.1307 18.8002C65.7696 18.5245 65.374 18.4539 64.944 18.5885C64.7798 18.641 64.7766 18.71 64.9341 18.7953C65.7089 19.2188 66.3441 19.8015 66.8398 20.5434ZM88.1714 23.4684C89.8325 24.5386 91.4361 25.6875 92.9823 26.9153C93.0775 26.9908 93.158 27.0253 93.2236 27.0187C93.3681 26.999 93.3763 26.9071 93.2483 26.743C92.05 25.1869 90.5957 23.9345 88.8854 22.9858C88.7278 22.9005 88.5637 22.8561 88.393 22.8529C87.5789 22.8332 87.505 23.0383 88.1714 23.4684ZM65.4512 28.9244C61.3477 28.8456 57.2704 29.1345 53.2195 29.7911C48.8205 30.5034 46.557 32.9278 46.429 37.0641C46.4027 37.9242 46.5948 38.822 47.0051 39.7576C47.294 40.4142 47.6781 41.2661 48.1574 42.3133C48.8599 43.8496 48.5513 45.2038 47.2316 46.3757C46.5784 46.9568 45.2866 47.9219 43.3563 49.2712C43.1134 49.4386 42.9854 49.6142 42.9722 49.7981C42.9591 50.0016 43.0297 50.0213 43.184 49.8572C43.8208 49.1907 44.5545 48.6458 45.3851 48.2223C46.7212 47.5362 47.793 46.5629 48.6006 45.3023C49.2571 44.278 49.3573 43.1931 48.901 42.0474C48.553 41.1709 48.2313 40.2862 47.9358 39.3932C46.9017 36.2549 47.4532 33.7862 49.5903 31.9873C50.457 31.2585 51.6913 30.7414 53.2933 30.4361C55.1415 30.0849 57.0078 29.8551 58.8921 29.7467C61.1113 29.622 63.3288 29.4546 65.5447 29.2445C65.6367 29.2379 65.7138 29.2133 65.7762 29.1706C66.0027 29.0163 65.8943 28.9342 65.4512 28.9244ZM24.6135 52.0963C24.7144 52.1125 24.8227 52.0758 24.9323 51.9883C25.0419 51.9009 25.1507 51.7644 25.2523 51.5866C25.3539 51.4089 25.4465 51.1933 25.5247 50.9524C25.6029 50.7114 25.6652 50.4496 25.708 50.1821C25.7946 49.6418 25.7967 49.1106 25.7138 48.7055C25.6309 48.3003 25.4699 48.0544 25.2661 48.0218C25.1653 48.0056 25.0569 48.0423 24.9473 48.1297C24.8377 48.2172 24.729 48.3537 24.6273 48.5315C24.5257 48.7092 24.4331 48.9247 24.3549 49.1657C24.2768 49.4067 24.2144 49.6684 24.1716 49.936C24.085 50.4763 24.083 51.0074 24.1659 51.4126C24.2487 51.8177 24.4097 52.0637 24.6135 52.0963ZM45.5966 79.5076C46.2517 79.5569 46.9022 79.3071 47.4052 78.8134C47.9081 78.3196 48.2222 77.6223 48.2784 76.8748C48.3346 76.1273 48.1283 75.3908 47.7049 74.8274C47.2814 74.264 46.6755 73.9198 46.0205 73.8706C45.3654 73.8213 44.7149 74.0711 44.212 74.5648C43.709 75.0586 43.3949 75.7559 43.3387 76.5034C43.2825 77.2509 43.4888 77.9874 43.9122 78.5507C44.3357 79.1141 44.9416 79.4583 45.5966 79.5076Z" fill="#251124"/>
<path d="M66.8398 20.5436C66.3441 19.8017 65.7089 19.219 64.9341 18.7955C64.7766 18.7101 64.7798 18.6412 64.944 18.5887C65.374 18.4541 65.7696 18.5247 66.1307 18.8004C67.4668 19.8279 68.3581 21.2051 68.8045 22.9318C68.8538 23.1288 68.8718 23.3126 68.8587 23.4833C68.816 24.048 68.6174 24.1333 68.2629 23.7394C68.1611 23.6278 68.0873 23.4784 68.0413 23.2913C67.8082 22.3097 67.4077 21.3938 66.8398 20.5436Z" fill="#180B1D"/>
<path d="M100.482 22.1046C100.452 22.9482 100.255 23.8477 99.891 24.803C99.1294 26.7957 99.6316 28.3451 101.398 29.4514C101.775 29.6878 102.847 29.9422 104.613 30.2147C106.324 30.4773 107.962 30.9369 109.528 31.5935C111.474 32.4076 112.858 33.3415 113.679 34.3953C114.923 35.9908 115.21 37.9637 114.54 40.3142C114.462 40.59 114.122 41.322 113.521 42.5104C113.511 42.5301 113.327 42.8387 112.97 43.4362C112.329 44.5031 112.474 45.483 113.403 46.3759C114.01 46.9602 114.852 47.4707 115.929 47.9073C116.888 48.2914 117.782 48.7773 118.613 49.3649C119.496 49.9919 120.144 50.7486 120.558 51.6349C121.713 54.1069 121.336 56.5181 119.425 58.8686C118.673 59.7943 117.882 60.684 117.052 61.5375C116.083 62.5387 115.314 63.6648 114.742 64.9155C114.486 65.4801 114.275 66.2549 114.107 67.2397C113.91 68.4117 113.726 69.2028 113.556 69.6132C112.292 72.6596 110.079 74.1615 106.918 74.1188C106.484 74.1123 105.746 74.0154 104.702 73.8283C103.806 73.6641 103.064 73.5722 102.476 73.5525C101.367 73.5131 100.334 73.8825 99.3788 74.6605C99.0735 74.6014 98.7929 74.649 98.5368 74.8033L97.1827 73.7791C97.6061 73.4081 97.5717 73.1684 97.0793 73.0601L95.3706 67.5795C95.3271 67.4363 95.3381 67.2816 95.4015 67.1441C95.4648 67.0066 95.5762 66.8953 95.7152 66.831C97.9771 65.7871 99.1967 63.9241 99.3739 61.242C99.5315 58.8751 98.8224 56.9941 97.2467 55.5989C96.403 54.8504 95.474 54.4401 94.4596 54.3679C93.4715 54.2956 92.421 54.4696 91.3081 54.8898C91.2681 54.9047 91.2254 54.9112 91.183 54.9088C91.1406 54.9064 91.0995 54.8953 91.0625 54.8761C91.0255 54.8569 90.9935 54.8302 90.9688 54.7977C90.944 54.7652 90.9271 54.7277 90.9191 54.6879L90.5645 52.8364C90.7418 52.2423 90.6204 51.7515 90.2002 51.3641C90.0885 51.2591 89.7734 51.1031 89.2547 50.8963C88.9954 50.7945 88.6737 50.6419 88.2896 50.4384C86.2083 49.3452 83.8381 48.8905 81.179 49.0743C79.5934 49.1531 78.9648 48.4769 79.2931 47.0456C79.467 46.2938 79.9053 45.9688 80.6078 46.0706L86.2017 46.8732C86.3396 46.8929 86.3593 46.8601 86.2608 46.7748C85.1775 45.8227 84.3207 44.7132 83.6904 43.446C83.3654 42.796 83.1733 41.9655 83.1142 40.9544C83.0486 39.8645 82.9682 39.0044 82.873 38.3741C82.3904 35.1865 80.7802 32.7671 78.0423 31.1158C77.0772 30.5315 76.0611 30.4281 74.9942 30.8056C74.492 30.9796 73.6302 31.431 72.409 32.1598C69.6121 33.8208 66.3736 34.7466 62.6936 34.937C63.4651 34.3428 64.5287 33.9916 65.8845 33.8832C66.7774 33.811 67.8328 33.5566 69.0507 33.12C69.8123 32.8508 70.789 32.3896 71.9806 31.7363C72.9589 31.2012 73.9454 30.6808 74.9401 30.1753C75.7641 29.7584 76.5995 29.7469 77.4465 30.1408C78.1227 30.456 78.753 30.6809 79.3374 30.8155C79.7571 30.9132 80.1213 31.1713 80.3518 31.5344C80.923 32.4273 81.5992 32.8327 82.3805 32.7507C82.4509 32.7433 82.522 32.7566 82.5849 32.789C82.6479 32.8213 82.7001 32.8713 82.7351 32.9329C82.9255 33.2677 83.193 33.5221 83.5377 33.6961C83.5977 33.7252 83.6674 33.7303 83.7342 33.7105C83.8009 33.6906 83.8605 33.6471 83.9021 33.5878C84.4635 32.8163 85.1561 32.1942 85.9801 31.7215C86.1068 31.6487 86.2684 31.6276 86.4331 31.6624C87.1915 31.8233 87.9367 31.7527 88.6687 31.4507C89.4336 33.3941 90.7221 34.6974 92.5342 35.3605C94.261 35.9908 96.6656 36.7212 99.7482 37.5518C101.823 38.1098 103.379 39.0815 104.416 40.4669C105.67 42.1477 105.672 43.8137 104.421 45.4649C104.07 45.9344 103.714 46.3989 103.353 46.8585C102.923 47.41 102.622 47.904 102.452 48.3406C101.608 50.4942 102.026 52.3719 103.707 53.9739C104.022 54.2727 104.311 54.5616 104.574 54.8406C104.856 55.1393 105.158 55.4167 105.48 55.6728C105.69 55.8402 105.798 55.8238 105.805 55.6236C105.808 55.5087 105.715 55.3806 105.524 55.2394C104.766 54.6847 104.111 53.9756 103.559 53.1122C102.975 52.1963 102.667 51.31 102.634 50.4531C102.591 49.36 102.916 48.3341 103.609 47.3755C104.183 46.5844 104.74 45.7801 105.278 44.9627C105.856 44.0862 105.903 43.0242 105.421 41.7767C104.676 39.8366 103.349 38.4447 101.442 37.601C100.579 37.2169 99.6891 36.9018 98.7732 36.6555C96.6722 36.0909 94.5925 35.454 92.5342 34.745C91.5264 34.397 90.6466 33.463 89.8949 31.9431C90.4595 32.0547 90.837 32.0711 91.0274 31.9923C91.1363 31.9474 91.2534 31.926 91.371 31.9294C91.4886 31.9329 91.604 31.9611 91.7097 32.0123C91.8154 32.0635 91.9088 32.1365 91.9839 32.2264C92.059 32.3164 92.1139 32.4212 92.1452 32.534C92.3455 33.2398 92.6705 33.6747 93.1202 33.8389C93.1629 33.8553 93.2614 33.8996 93.4157 33.9719C93.5634 34.0408 93.6422 33.9834 93.652 33.7995C93.6536 33.7749 93.6605 33.751 93.6721 33.7292C93.6838 33.7075 93.6999 33.6886 93.7195 33.6736C93.7391 33.6587 93.7617 33.6481 93.7858 33.6427C93.8098 33.6372 93.8347 33.637 93.8588 33.6419L95.0653 33.8635C95.1344 33.8759 95.2093 33.87 95.2843 33.8461C95.3592 33.8223 95.4325 33.7811 95.4986 33.7256C96.3817 32.987 97.1367 31.9956 97.7637 30.7514C97.8591 30.5642 97.8852 30.3496 97.8376 30.1457C97.5323 28.8326 97.6291 27.6836 98.1281 26.6988C98.2561 26.4427 98.3201 26.4575 98.3201 26.7431C98.3201 27.5967 98.4597 27.9118 98.7387 27.6886C98.789 27.6487 98.8263 27.588 98.8463 27.5131C98.8663 27.4383 98.8683 27.3524 98.852 27.2651C98.678 26.3131 98.8634 25.4448 99.4084 24.6602C99.5003 24.5289 99.5561 24.3812 99.5758 24.217C99.6776 23.4554 99.9796 22.7513 100.482 22.1046Z" fill="#200E21"/>
<path d="M88.1714 23.4684C87.505 23.0384 87.5788 22.8332 88.393 22.8529C88.5637 22.8562 88.7278 22.9005 88.8854 22.9859C90.5957 23.9346 92.05 25.187 93.2482 26.743C93.3762 26.9072 93.368 26.9991 93.2236 27.0188C93.1579 27.0254 93.0775 26.9909 92.9823 26.9154C91.4361 25.6876 89.8325 24.5386 88.1714 23.4684Z" fill="#51475F"/>
<path d="M18.1149 23.6951C19.7563 27.8314 19.932 31.8528 18.6418 35.7593C18.1199 37.3384 17.373 39.2572 16.4013 41.5157C14.0869 46.893 12.5719 52.4885 11.8563 58.3023C10.425 69.8807 13.5584 79.6323 21.2566 87.557C25.2911 91.7097 30.4517 94.592 36.7382 96.2038C38.0448 96.5387 39.8503 96.7028 42.1549 96.6963C43.9538 96.6897 46.7032 96.3204 50.4029 95.5883C51.3188 95.4078 53.2885 95.3733 56.3119 95.4849L54.815 96.5732C52.6647 97.1706 50.6704 98.0586 48.8321 99.2371C46.1369 99.8707 43.6485 100.931 41.367 102.418C41.0289 102.32 40.7268 102.351 40.4609 102.512C33.7312 106.651 26.7142 111.487 19.41 117.018C12.3421 109.396 7.36706 100.98 4.48477 91.7721C0.496168 79.0348 -0.0684743 66.2828 2.79084 53.516C5.2792 42.407 10.3872 32.4667 18.1149 23.6951Z" fill="#C7B2C0"/>
<path d="M89.895 31.9429C90.6468 33.4628 91.5265 34.3968 92.5344 34.7448C94.5927 35.4539 96.6723 36.0907 98.7733 36.6554C99.6892 36.9016 100.579 37.2167 101.442 37.6008C103.35 38.4445 104.676 39.8364 105.421 41.7765C105.904 43.024 105.856 44.086 105.278 44.9625C104.74 45.7799 104.183 46.5842 103.609 47.3753C102.916 48.3339 102.591 49.3598 102.634 50.453C102.667 51.3098 102.975 52.1961 103.56 53.112C104.111 53.9754 104.766 54.6845 105.524 55.2393C105.715 55.3804 105.808 55.5085 105.805 55.6234C105.799 55.8236 105.69 55.84 105.48 55.6726C105.158 55.4165 104.856 55.1391 104.574 54.8404C104.311 54.5614 104.023 54.2725 103.707 53.9737C102.027 52.3717 101.608 50.494 102.452 48.3405C102.622 47.9039 102.923 47.4098 103.353 46.8583C103.714 46.3987 104.07 45.9342 104.421 45.4648C105.672 43.8135 105.67 42.1475 104.416 40.4667C103.379 39.0813 101.823 38.1096 99.7483 37.5516C96.6658 36.721 94.2611 35.9906 92.5344 35.3603C90.7223 34.6972 89.4338 33.3939 88.6689 31.4505C87.1391 29.2543 85.1612 27.5702 82.7352 26.3983C82.4857 26.2768 82.4742 26.1997 82.7007 26.1668C82.75 26.1603 82.8025 26.1668 82.8583 26.1865C85.8358 27.3716 88.1814 29.2904 89.895 31.9429Z" fill="#51475F"/>
<path d="M65.4512 28.9245C65.8944 28.9344 66.0027 29.0164 65.7762 29.1707C65.7138 29.2134 65.6367 29.238 65.5448 29.2446C63.3289 29.4547 61.1113 29.6221 58.8922 29.7469C57.0078 29.8552 55.1416 30.085 53.2934 30.4363C51.6914 30.7416 50.457 31.2586 49.5904 31.9874C47.4533 33.7864 46.9018 36.255 47.9358 39.3934C48.2313 40.2863 48.553 41.171 48.901 42.0475C49.3573 43.1932 49.2572 44.2782 48.6006 45.3024C47.793 46.563 46.7212 47.5363 45.3851 48.2224C44.5546 48.6459 43.8208 49.1909 43.184 49.8573C43.0297 50.0214 42.9591 50.0017 42.9722 49.7982C42.9854 49.6144 43.1134 49.4387 43.3563 49.2713C45.2866 47.9221 46.5784 46.9569 47.2317 46.3759C48.5514 45.2039 48.8599 43.8498 48.1574 42.3134C47.6781 41.2662 47.2941 40.4143 47.0052 39.7578C46.5948 38.8222 46.4028 37.9243 46.429 37.0642C46.5571 32.9279 48.8205 30.5036 53.2195 29.7912C57.2705 29.1346 61.3477 28.8457 65.4512 28.9245Z" fill="#473552"/>
<path d="M81.1792 49.0741C80.9625 49.6224 80.5505 49.8407 79.9432 49.7291C79.8745 49.7165 79.8061 49.687 79.7418 49.6421C79.6776 49.5973 79.6188 49.5382 79.569 49.4681C79.0371 48.7131 78.3839 48.411 77.6091 48.562C76.4405 48.7918 75.385 49.5928 74.4429 50.965C73.3169 55.6759 73.7601 60.2455 75.7724 64.674C75.1585 66.1775 74.0785 67.1427 72.5323 67.5694C71.6098 67.8222 71.6147 68.052 72.5471 68.2588C73.266 68.423 74.1097 68.5067 75.0781 68.51C76.0695 68.5132 76.8968 68.377 77.5599 68.1012C79.6018 67.2576 80.1828 65.5965 79.3031 63.118C79.0142 62.3104 78.9518 61.5406 79.1159 60.8085C79.3129 59.9156 79.413 59.456 79.4163 59.4297C79.5542 58.2709 79.6904 57.1104 79.825 55.9483C79.8513 55.7251 80.0089 55.643 80.2977 55.7021C80.2682 57.6849 81.1677 58.701 82.9962 58.7502C83.0745 58.7518 83.1518 58.7362 83.2225 58.7047C83.2932 58.6732 83.3555 58.6265 83.4049 58.568C84.0516 57.7933 84.2601 56.879 84.0303 55.8252L85.6109 55.6824L88.009 57.8835C88.2323 58.0903 88.2717 58.0641 88.1272 57.8048L87.4378 56.5639C87.8744 54.7977 88.9167 53.5552 90.5647 52.8362L90.9192 54.6877C90.9272 54.7275 90.9442 54.765 90.9689 54.7975C90.9937 54.8299 91.0257 54.8567 91.0626 54.8759C91.0996 54.8951 91.1407 54.9062 91.1831 54.9086C91.2255 54.911 91.2682 54.9045 91.3082 54.8896C92.4211 54.4694 93.4716 54.2954 94.4597 54.3676C95.4741 54.4399 96.4031 54.8502 97.2468 55.5987C98.8226 56.9939 99.5317 58.8749 99.3741 61.2418C99.1968 63.9239 97.9772 65.7869 95.7154 66.8308C95.5764 66.8951 95.4649 67.0064 95.4016 67.1439C95.3383 67.2814 95.3273 67.4361 95.3707 67.5793L97.0794 73.0599C96.9448 73.4013 96.6986 73.3209 96.3408 72.8186C96.1733 72.5823 96.0305 72.2802 95.9124 71.9126L94.5287 67.6531C94.5056 67.581 94.4652 67.5146 94.4106 67.4591C94.356 67.4037 94.2886 67.3605 94.2135 67.3331C93.1006 66.9063 92.449 67.2149 92.2586 68.2588C91.1851 74.1711 88.7657 79.2217 85.0003 83.4106C84.6753 83.624 84.3553 83.8784 84.0401 84.1738C83.6528 84.5349 83.3442 84.7959 83.1144 84.9567C75.0354 90.6196 67.0861 90.3816 59.2665 84.2428C59.0991 84.1016 58.9005 84.0261 58.6707 84.0162L56.6813 82.0269C53.3197 77.9004 51.2975 73.1009 50.6147 67.6285C50.6103 67.589 50.5975 67.551 50.577 67.5167C50.5565 67.4823 50.5288 67.4525 50.4955 67.429C50.4623 67.4054 50.4243 67.3887 50.3838 67.3799C50.3433 67.371 50.3012 67.3701 50.2602 67.3774L48.0935 67.7615C48.0172 67.7748 47.9461 67.8064 47.8874 67.853C47.8287 67.8996 47.7843 67.9597 47.7587 68.0274C47.1907 69.4685 46.7377 70.9458 46.3996 72.4592C46.2748 73.0172 45.9433 73.2995 45.4049 73.3061C45.3529 73.3069 45.3013 73.2958 45.2544 73.274C45.2075 73.2521 45.1666 73.22 45.1353 73.1805C45.1039 73.1409 45.0829 73.095 45.0742 73.0466C45.0654 72.9982 45.069 72.9487 45.0848 72.9023L46.7541 68.0274C46.7984 67.9012 46.8042 67.7666 46.7704 67.644C46.7366 67.5213 46.6652 67.4174 46.567 67.3479C44.0951 65.5784 43.0413 63.1738 43.4057 60.1339C43.9244 55.8269 46.3553 54.018 50.6984 54.7074C50.7701 54.7182 50.8433 54.7125 50.9125 54.6908C50.9817 54.6691 51.045 54.6319 51.0977 54.5821C51.1504 54.5323 51.191 54.4711 51.2165 54.4032C51.242 54.3354 51.2518 54.2626 51.245 54.1904C51.1006 52.6705 51.2909 51.2507 51.8162 49.931C51.8442 49.8597 51.8879 49.7944 51.9447 49.7393C52.0015 49.6842 52.0701 49.6405 52.1461 49.6109C52.911 49.3187 54.5458 48.6408 57.0506 47.5772C59.5127 46.5333 60.6272 44.8344 60.3941 42.4807C60.3547 42.0572 60.1791 41.3875 59.8673 40.4716C59.644 39.8085 59.4438 39.1388 59.2665 38.4625C59.1089 37.8683 59.2419 37.348 59.6654 36.9015C60.509 36.0086 61.5185 35.3537 62.6937 34.9368C66.3738 34.7464 69.6122 33.8206 72.4092 32.1595C73.6304 31.4308 74.4921 30.9794 74.9944 30.8054C76.0613 30.4279 77.0773 30.5313 78.0425 31.1156C80.7803 32.7669 82.3905 35.1863 82.8731 38.3739C82.9683 39.0042 83.0487 39.8643 83.1144 40.9541C83.1735 41.9652 83.3655 42.7958 83.6905 43.4458C84.3208 44.7129 85.1776 45.8225 86.2609 46.7745C86.3594 46.8599 86.3397 46.8927 86.2018 46.873L80.608 46.0704C79.9054 45.9686 79.4672 46.2936 79.2932 47.0454C78.9649 48.4767 79.5936 49.1529 81.1792 49.0741ZM61.3494 45.0314C61.5956 45.1758 61.8583 45.2004 62.1373 45.1052C67.8428 43.1257 73.6993 42.543 79.7068 43.3572C79.7867 43.3679 79.8662 43.3604 79.9377 43.3354C80.0093 43.3104 80.0705 43.2687 80.1155 43.2144C80.3322 42.955 80.2682 42.8106 79.9235 42.781C79.7101 42.7613 79.5657 42.7433 79.4902 42.7269C73.289 41.3448 67.2486 41.9669 61.3691 44.5931C61.077 44.7244 61.0704 44.8705 61.3494 45.0314ZM64.1759 47.1734C60.7684 47.0651 57.566 47.9334 54.5688 49.7783C53.6496 50.3429 53.3673 51.3229 53.7219 52.7181C53.732 52.7559 53.7512 52.7907 53.7778 52.8193C53.8044 52.848 53.8375 52.8697 53.8741 52.8824C53.9107 52.8951 53.9497 52.8984 53.9876 52.8921C54.0255 52.8857 54.0611 52.8699 54.0912 52.8461C56.8553 50.686 60.0593 49.5863 63.7032 49.5469C63.7262 49.5469 63.887 49.56 64.1858 49.5863C64.9507 49.6519 65.1887 49.0479 64.8998 47.7742C64.8628 47.608 64.7716 47.4588 64.6406 47.35C64.5095 47.2413 64.3461 47.1792 64.1759 47.1734ZM58.8972 56.3373C58.3884 57.5749 58.4934 58.4744 59.2123 59.0358C59.8459 59.5315 60.5731 59.6563 61.3938 59.4101C62.3655 59.1146 62.7528 58.266 62.5559 56.8642C63.2387 57.2943 63.695 57.9328 63.9248 58.7797C63.9478 59.0752 64.0298 59.3362 64.171 59.5627C64.186 59.5882 64.2072 59.6096 64.2326 59.6248C64.258 59.64 64.2867 59.6486 64.3159 59.6496C64.3451 59.6505 64.3738 59.644 64.3993 59.6305C64.4249 59.617 64.4463 59.597 64.4615 59.5725C64.7209 59.1753 64.7061 58.7469 64.4172 58.2873L63.3142 56.096C63.1927 55.8564 63.2567 55.7563 63.5062 55.7957C65.105 56.055 66.1325 56.5638 66.5888 57.3222C66.9203 57.8671 67.0648 57.8228 67.0221 57.1892C66.9499 56.0665 66.5773 55.1588 65.9043 54.4661C65.3462 53.8917 64.5058 53.5585 63.3831 53.4665C61.7844 53.3385 60.3301 53.4682 59.0203 53.8555C56.9554 54.4661 55.552 55.8416 54.8101 57.982C54.7346 58.1987 54.7018 58.4104 54.7116 58.6172C54.7412 59.4084 55.0596 59.3706 55.6669 58.504C56.3103 57.5782 57.3871 56.856 58.8972 56.3373ZM47.4189 63.7335C49.2835 64.61 50.5195 64.2686 51.1268 62.7092C51.4321 61.9246 51.4945 61.1204 51.3139 60.2964C51.071 59.177 50.5786 58.4531 49.8367 58.1248C49.1177 57.8064 48.3725 57.8967 47.6011 58.3956C46.7804 58.9242 46.2962 59.7465 46.1485 60.8627C45.9548 62.2907 46.3782 63.2476 47.4189 63.7335ZM94.1495 58.3612C92.9414 57.5536 92.1601 57.8195 91.8056 59.1589C91.5791 60.0026 91.4707 60.861 91.4806 61.7343C91.5068 63.5759 92.3456 64.1176 93.9968 63.3592C95.0966 62.857 95.6038 61.9854 95.5184 60.7445C95.4462 59.7203 94.9899 58.9258 94.1495 58.3612ZM82.7254 67.9831C85.2498 69.6737 87.5445 69.7968 89.6094 68.3524C90.4859 67.7352 91.0226 66.99 91.2196 66.1168C91.4822 64.935 91.0391 63.9764 89.8901 63.2411C88.8987 62.6108 87.7464 62.2152 86.4333 62.0543C85.0447 61.8869 83.9088 62.1331 83.0257 62.793C81.8144 63.699 81.4205 65.0121 81.8439 66.7323C81.9753 67.2641 82.2691 67.681 82.7254 67.9831ZM54.2241 70.0758C55.7638 71.146 57.2591 71.4333 58.7101 70.9376C60.056 70.478 61.0655 69.5588 61.7385 68.18C62.4574 66.7061 62.1357 65.4586 60.7733 64.4376C59.8213 63.7253 58.7413 63.4085 57.5332 63.4873C56.0494 63.5825 54.7067 64.1553 53.5052 65.2058C52.481 66.102 52.261 67.1804 52.8454 68.441C53.1572 69.1074 53.6168 69.6524 54.2241 70.0758ZM68.8096 77.0879C71.879 78.6242 74.8844 78.4207 77.8258 76.4773C79.3589 75.4629 80.5341 74.2499 81.3515 72.8383C82.4316 71.2035 82.1607 70.5781 80.539 70.9622C79.9251 71.1066 79.6116 71.1805 79.5985 71.1838C74.3986 72.2047 69.279 72.5527 64.2399 72.2277C63.6392 72.1883 63.498 72.423 63.8165 72.9319C65.018 74.8523 66.6823 76.2376 68.8096 77.0879Z" fill="#FCBFAF"/>
<path d="M61.3495 45.0315C61.0704 44.8707 61.077 44.7246 61.3692 44.5933C67.2487 41.967 73.289 41.345 79.4902 42.727C79.5657 42.7434 79.7102 42.7615 79.9235 42.7812C80.2682 42.8107 80.3323 42.9552 80.1156 43.2145C80.0705 43.2689 80.0093 43.3105 79.9378 43.3355C79.8663 43.3605 79.7868 43.368 79.7069 43.3573C73.6994 42.5432 67.8429 43.1258 62.1374 45.1054C61.8583 45.2006 61.5957 45.176 61.3495 45.0315Z" fill="#E7B1A7"/>
<path d="M64.1758 47.1736C64.346 47.1793 64.5094 47.2415 64.6405 47.3502C64.7715 47.4589 64.8627 47.6081 64.8997 47.7743C65.1886 49.0481 64.9506 49.6521 64.1857 49.5864C63.8869 49.5602 63.7261 49.547 63.7031 49.547C60.0592 49.5864 56.8552 50.6862 54.0911 52.8462C54.061 52.8701 54.0254 52.8859 53.9875 52.8922C53.9496 52.8986 53.9106 52.8952 53.874 52.8826C53.8374 52.8699 53.8043 52.8482 53.7777 52.8195C53.7511 52.7908 53.7319 52.756 53.7218 52.7182C53.3672 51.323 53.6495 50.3431 54.5687 49.7785C57.5659 47.9335 60.7683 47.0652 64.1758 47.1736Z" fill="#221824"/>
<path d="M24.1714 49.936C23.9912 51.0612 24.189 52.0284 24.6133 52.0963C25.0376 52.1643 25.5276 51.3073 25.7079 50.1821C25.8881 49.057 25.6902 48.0897 25.2659 48.0218C24.8417 47.9538 24.3516 48.8109 24.1714 49.936Z" fill="#6D5E73"/>
<path d="M81.1791 49.0743C83.8381 48.8905 86.2083 49.3452 88.2896 50.4383C88.6737 50.6419 88.9954 50.7945 89.2548 50.8963C89.7734 51.1031 90.0886 51.259 90.2002 51.3641C90.6204 51.7515 90.7419 52.2422 90.5646 52.8364C88.9166 53.5554 87.8744 54.7979 87.4377 56.564C85.7011 54.0888 83.3687 53.2747 80.4405 54.1216C78.7432 54.7716 77.6911 55.9272 77.284 57.5883C77.1757 58.0282 76.9919 58.7208 76.7325 59.6663C76.5356 60.3786 76.4863 61.1124 76.5848 61.8674C76.5967 61.9511 76.5911 62.0331 76.5686 62.105C76.5461 62.1768 76.5075 62.2359 76.4568 62.2761C76.2631 62.4271 76.0317 62.4583 75.7625 62.3697C74.7547 58.6798 74.3148 54.8783 74.4428 50.9652C75.385 49.593 76.4404 48.792 77.609 48.5622C78.3838 48.4112 79.0371 48.7132 79.5689 49.4683C79.6187 49.5384 79.6775 49.5975 79.7418 49.6423C79.806 49.6871 79.8745 49.7167 79.9431 49.7293C80.5504 49.8409 80.9624 49.6226 81.1791 49.0743Z" fill="#FDB1A1"/>
<path d="M74.4427 50.9652C74.3146 54.8783 74.7545 58.6798 75.7623 62.3696C75.8214 62.9507 75.9544 63.5153 76.1612 64.0636C76.368 64.6019 76.2383 64.8055 75.7722 64.6742C73.7598 60.2457 73.3167 55.676 74.4427 50.9652Z" fill="#DF6B57"/>
<path d="M64.417 58.2876C64.0099 58.1924 63.8458 58.3565 63.9246 58.78C63.6948 57.9331 63.2385 57.2946 62.5557 56.8645C62.2536 55.4759 61.3492 54.9441 59.8424 55.2691C59.2876 55.3873 58.9725 55.7434 58.897 56.3376C57.3869 56.8563 56.3101 57.5785 55.6667 58.5043C55.0594 59.3709 54.741 59.4087 54.7114 58.6175C54.7016 58.4107 54.7344 58.199 54.8099 57.9823C55.5518 55.8419 56.9552 54.4664 59.0201 53.8558C60.3299 53.4685 61.7842 53.3388 63.3829 53.4668C64.5056 53.5588 65.346 53.8919 65.9041 54.4664C66.5771 55.1591 66.9497 56.0668 67.0219 57.1895C67.0646 57.8231 66.9201 57.8674 66.5886 57.3225C66.1323 56.5641 65.1048 56.0553 63.506 55.796C63.2565 55.7566 63.1925 55.8567 63.314 56.0963L64.417 58.2876Z" fill="#BE6146"/>
<path d="M87.4377 56.5641L88.127 57.805C88.2715 58.0643 88.2321 58.0906 88.0089 57.8838L85.6108 55.6827C84.8196 54.7208 84.2927 54.7684 84.0301 55.8255C84.2599 56.8792 84.0515 57.7935 83.4047 58.5682C83.3554 58.6267 83.293 58.6734 83.2223 58.705C83.1516 58.7365 83.0743 58.752 82.996 58.7504C81.1675 58.7012 80.268 57.6852 80.2976 55.7024C80.6094 55.1705 80.657 54.6436 80.4404 54.1217C83.3686 53.2747 85.7011 54.0889 87.4377 56.5641Z" fill="#53302E"/>
<path d="M80.4404 54.1217C80.6571 54.6437 80.6095 55.1706 80.2976 55.7024C80.0087 55.6433 79.8512 55.7254 79.8249 55.9486C79.6903 57.1107 79.5541 58.2712 79.4162 59.43C79.4129 59.4563 79.3128 59.9158 79.1158 60.8088C78.9517 61.5408 79.0141 62.3106 79.3029 63.1182C80.1827 65.5967 79.6017 67.2578 77.5598 68.1015C76.8966 68.3773 76.0694 68.5135 75.078 68.5102C74.1096 68.5069 73.2659 68.4232 72.5469 68.2591C71.6146 68.0523 71.6097 67.8225 72.5322 67.5697C74.0784 67.1429 75.1584 66.1778 75.7723 64.6742C76.2384 64.8056 76.3681 64.602 76.1613 64.0637C75.9545 63.5154 75.8215 62.9508 75.7624 62.3697C76.0316 62.4584 76.2631 62.4272 76.4568 62.2762C76.5075 62.236 76.5461 62.1769 76.5686 62.105C76.5911 62.0332 76.5967 61.9512 76.5848 61.8675C76.4863 61.1124 76.5355 60.3787 76.7325 59.6664C76.9918 58.7209 77.1757 58.0283 77.284 57.5884C77.6911 55.9273 78.7432 54.7717 80.4404 54.1217Z" fill="#F98D7D"/>
<path d="M85.6107 55.6826L84.03 55.8254C84.2927 54.7683 84.8195 54.7207 85.6107 55.6826Z" fill="#EB8075"/>
<path d="M62.5558 56.8643C62.7528 58.2661 62.3654 59.1147 61.3937 59.4102C60.573 59.6564 59.8459 59.5316 59.2123 59.0359C58.4933 58.4746 58.3883 57.5751 58.8971 56.3375C58.9726 55.7433 59.2878 55.3871 59.8426 55.2689C61.3494 54.9439 62.2538 55.4757 62.5558 56.8643Z" fill="#36292B"/>
<path d="M47.4188 63.7336C46.3782 63.2478 45.9547 62.2908 46.1484 60.8628C46.2961 59.7467 46.7803 58.9243 47.601 58.3958C48.3725 57.8968 49.1177 57.8065 49.8366 58.125C50.5785 58.4533 51.0709 59.1771 51.3139 60.2966C51.4944 61.1205 51.432 61.9248 51.1267 62.7094C50.5194 64.2687 49.2834 64.6101 47.4188 63.7336Z" fill="#F98D7D"/>
<path d="M94.1495 58.3613C94.9899 58.926 95.4462 59.7204 95.5184 60.7446C95.6038 61.9855 95.0966 62.8571 93.9969 63.3594C92.3456 64.1177 91.5069 63.5761 91.4806 61.7344C91.4707 60.8612 91.5791 60.0027 91.8056 59.1591C92.1601 57.8197 92.9414 57.5538 94.1495 58.3613Z" fill="#FB9684"/>
<path d="M64.4171 58.2875C64.706 58.7471 64.7208 59.1755 64.4614 59.5727C64.4462 59.5972 64.4248 59.6172 64.3992 59.6307C64.3737 59.6441 64.345 59.6507 64.3157 59.6497C64.2865 59.6488 64.2579 59.6402 64.2325 59.625C64.2071 59.6098 64.1859 59.5884 64.1709 59.5629C64.0297 59.3364 63.9477 59.0754 63.9247 58.7799C63.8459 58.3564 64.01 58.1923 64.4171 58.2875Z" fill="#913C32"/>
<path d="M82.7254 67.9833C82.2691 67.6813 81.9753 67.2644 81.844 66.7326C81.4205 65.0124 81.8144 63.6993 83.0258 62.7932C83.9089 62.1334 85.0447 61.8872 86.4333 62.0546C87.7465 62.2155 88.8987 62.611 89.8901 63.2413C91.0391 63.9767 91.4823 64.9353 91.2197 66.1171C91.0227 66.9903 90.4859 67.7355 89.6094 68.3526C87.5446 69.7971 85.2499 69.674 82.7254 67.9833Z" fill="#FB887C"/>
<path d="M54.224 70.0761C53.6167 69.6526 53.1571 69.1076 52.8453 68.4412C52.2609 67.1806 52.4809 66.1022 53.5051 65.206C54.7066 64.1555 56.0493 63.5827 57.5331 63.4875C58.7412 63.4087 59.8212 63.7255 60.7732 64.4378C62.1356 65.4588 62.4573 66.7063 61.7384 68.1802C61.0654 69.559 60.0559 70.4782 58.71 70.9378C57.259 71.4335 55.7637 71.1462 54.224 70.0761Z" fill="#FA8777"/>
<path d="M124.861 69.0124C125.531 69.0124 126.073 68.47 126.073 67.801C126.073 67.132 125.531 66.5897 124.861 66.5897C124.192 66.5897 123.65 67.132 123.65 67.801C123.65 68.47 124.192 69.0124 124.861 69.0124Z" fill="#B5A9BC"/>
<path d="M97.0793 73.0601C97.5717 73.1684 97.6062 73.408 97.1827 73.779C95.0456 73.953 94.1428 75.1085 94.4744 77.2456C94.6779 78.5587 95.3509 79.2941 96.4933 79.4517C97.1499 79.5436 97.7276 79.3827 98.2266 78.9691C98.7223 78.5587 99.072 78.0187 99.2755 77.349C99.5906 76.315 99.3444 75.4663 98.5369 74.8032C98.7929 74.6489 99.0736 74.6013 99.3789 74.6604C99.8746 75.9341 99.7876 77.1586 99.1179 78.3339C97.5586 81.0816 95.2623 82.8018 92.229 83.4944C90.0656 83.9868 87.8185 84.0443 85.4877 83.6668L85.0002 83.4107C88.7656 79.2219 91.185 74.1713 92.2585 68.259C92.4489 67.215 93.1005 66.9065 94.2134 67.3332C94.2885 67.3607 94.3559 67.4038 94.4105 67.4593C94.4651 67.5148 94.5055 67.5811 94.5286 67.6533L95.9123 71.9127C96.0304 72.2804 96.1732 72.5824 96.3407 72.8188C96.6985 73.321 96.9447 73.4015 97.0793 73.0601Z" fill="#180B1D"/>
<path d="M81.3514 72.8384C78.2131 77.0174 74.0324 78.4339 68.8095 77.088C66.6822 76.2377 65.0179 74.8524 63.8163 72.9319C63.4979 72.4231 63.6391 72.1884 64.2398 72.2278C69.2789 72.5528 74.3984 72.2048 79.5984 71.1839C79.6115 71.1806 79.925 71.1067 80.5389 70.9623C82.1606 70.5782 82.4314 71.2036 81.3514 72.8384Z" fill="#FDFDFD"/>
<path d="M121.016 74.7539C121.788 74.7539 122.414 74.1278 122.414 73.3554C122.414 72.5831 121.788 71.957 121.016 71.957C120.243 71.957 119.617 72.5831 119.617 73.3554C119.617 74.1278 120.243 74.7539 121.016 74.7539Z" fill="#B5A9BC"/>
<path d="M81.3513 72.8384C80.5338 74.25 79.3586 75.463 77.8255 76.4774C74.8841 78.4208 71.8787 78.6244 68.8093 77.088C74.0323 78.434 78.2129 77.0174 81.3513 72.8384Z" fill="#EB8075"/>
<path d="M43.3385 76.5036C43.2215 78.0603 44.2324 79.4053 45.5965 79.5079C46.9606 79.6104 48.1613 78.4317 48.2783 76.8751C48.3954 75.3184 47.3844 73.9734 46.0203 73.8708C44.6562 73.7682 43.4556 74.947 43.3385 76.5036Z" fill="#FAF9F9"/>
<path d="M97.1826 73.7791L98.5367 74.8033C99.3443 75.4664 99.5905 76.315 99.2754 77.3491C99.0718 78.0188 98.7222 78.5588 98.2265 78.9691C97.7275 79.3828 97.1498 79.5436 96.4932 79.4517C95.3508 79.2941 94.6778 78.5588 94.4743 77.2457C94.1427 75.1086 95.0455 73.953 97.1826 73.7791Z" fill="#FAF9F9"/>
<path d="M34.35 79.8012C35.0489 79.8012 35.6155 79.2347 35.6155 78.5357C35.6155 77.8368 35.0489 77.2702 34.35 77.2702C33.6511 77.2702 33.0845 77.8368 33.0845 78.5357C33.0845 79.2347 33.6511 79.8012 34.35 79.8012Z" fill="#AC9FB8"/>
<path d="M116.633 81.0127C117.425 81.0127 118.066 80.3712 118.066 79.5798C118.066 78.7884 117.425 78.1469 116.633 78.1469C115.842 78.1469 115.2 78.7884 115.2 79.5798C115.2 80.3712 115.842 81.0127 116.633 81.0127Z" fill="#B4A4B3"/>
<path d="M28.2967 84.3792C29.0135 84.2203 29.4873 83.6072 29.3549 83.0098C29.2224 82.4124 28.5339 82.0569 27.8171 82.2158C27.1002 82.3748 26.6264 82.9879 26.7588 83.5853C26.8913 84.1827 27.5798 84.5381 28.2967 84.3792Z" fill="#AC9FB8"/>
<path d="M38.8563 85.7316C39.7218 85.6726 40.3791 84.9737 40.3243 84.1706C40.2696 83.3675 39.5235 82.7643 38.658 82.8233C37.7925 82.8823 37.1352 83.5812 37.19 84.3843C37.2447 85.1874 37.9907 85.7907 38.8563 85.7316Z" fill="#B4A4B3"/>
<path d="M85.0002 83.4108L85.4877 83.6668C85.2546 84.1133 85.138 84.5286 85.138 84.9126C82.7777 88.5894 79.9709 91.3174 76.7177 93.0966C74.2129 94.4656 71.6868 94.7857 69.1393 94.0569C67.2517 93.5185 65.3149 92.2481 63.3288 90.2456C61.5955 88.5024 60.1592 86.6312 59.0201 84.632C58.8658 84.3628 58.9479 84.2331 59.2663 84.243C67.0859 90.3818 75.0352 90.6198 83.1142 84.9569C83.344 84.7961 83.6526 84.5351 84.04 84.174C84.3551 83.8786 84.6752 83.6241 85.0002 83.4108Z" fill="#F4867C"/>
<path d="M112.608 86.1452C113.262 85.5627 113.383 84.6312 112.878 84.0646C112.373 83.4981 111.434 83.5111 110.78 84.0937C110.126 84.6762 110.006 85.6077 110.51 86.1742C111.015 86.7407 111.954 86.7277 112.608 86.1452Z" fill="#B5A9BC"/>
<path d="M58.6706 84.0164C58.9004 84.0263 59.099 84.1018 59.2665 84.2429C58.948 84.2331 58.8659 84.3628 59.0202 84.6319C60.1594 86.6312 61.5956 88.5024 63.3289 90.2455C65.315 92.248 67.2519 93.5185 69.1395 94.0569C71.6869 94.7856 74.213 94.4656 76.7178 93.0966C79.971 91.3174 82.7778 88.5894 85.1382 84.9126C85.4566 90.0699 85.6962 93.2591 85.8571 94.4803C85.9687 95.3339 86.4907 96.0889 87.423 96.7455C88.1715 97.2707 89.0644 97.727 90.1018 98.1144C91.2113 102.251 91.4149 106.395 90.7124 110.548C90.5055 111.772 90.1953 112.762 89.7817 113.517C89.2761 114.446 88.6114 115.267 87.7874 115.979C85.6765 117.801 83.2785 119.1 80.5931 119.874C76.1285 121.161 71.595 121.447 66.9925 120.731C63.864 120.245 61.1655 119.108 58.8971 117.319C57.305 116.061 56.1429 114.601 55.4108 112.936C54.6689 111.255 54.2717 109.371 54.2192 107.283C54.1141 103.085 54.3127 99.5145 54.815 96.5731L56.3119 95.4849C57.8253 94.6116 58.605 93.2099 58.6509 91.2796C58.7297 88.0559 58.7363 85.6348 58.6706 84.0164ZM70.518 105.325C70.5182 105.258 70.492 105.194 70.445 105.147C70.3981 105.1 70.3343 105.073 70.2677 105.073L69.8738 105.072C69.8408 105.072 69.8081 105.078 69.7776 105.09C69.7471 105.103 69.7194 105.121 69.696 105.145C69.6726 105.168 69.654 105.195 69.6412 105.226C69.6285 105.256 69.6219 105.289 69.6218 105.322L69.5927 113.654C69.5925 113.72 69.6187 113.784 69.6657 113.831C69.7126 113.879 69.7764 113.905 69.843 113.906L70.2369 113.907C70.2699 113.907 70.3026 113.901 70.3331 113.888C70.3636 113.876 70.3913 113.857 70.4148 113.834C70.4382 113.811 70.4568 113.783 70.4695 113.753C70.4822 113.722 70.4888 113.69 70.4889 113.657L70.518 105.325Z" fill="#FDBCAB"/>
<path d="M106.268 91.5156C107.203 91.4387 107.904 90.6777 107.833 89.8158C107.762 88.9539 106.947 88.3175 106.011 88.3944C105.076 88.4712 104.376 89.2323 104.447 90.0942C104.518 90.9561 105.333 91.5925 106.268 91.5156Z" fill="#AC9FB8"/>
<path d="M100.157 94.2923C100.922 94.2172 101.491 93.6187 101.426 92.9556C101.361 92.2925 100.687 91.8158 99.9211 91.8909C99.1551 91.966 98.5869 92.5645 98.6519 93.2276C98.7169 93.8907 99.3906 94.3674 100.157 94.2923Z" fill="#BDABBB"/>
<path d="M54.815 96.5731C54.3127 99.5145 54.1141 103.085 54.2191 107.283C54.2717 109.371 54.6689 111.255 55.4108 112.936C56.1429 114.601 57.305 116.061 58.8971 117.319C61.1655 119.108 63.864 120.245 66.9925 120.731C71.595 121.447 76.1285 121.161 80.5931 119.874C83.2785 119.1 85.6765 117.801 87.7874 115.979C88.6114 115.267 89.2761 114.446 89.7817 113.517C90.1953 112.762 90.5055 111.772 90.7124 110.548C91.4149 106.395 91.2113 102.251 90.1017 98.1144C91.3262 98.7578 92.7641 99.2207 94.4153 99.503C95.0489 105.405 95.2689 111.273 95.0752 117.107C93.332 119.362 91.6857 121.043 90.1362 122.149C86.5055 124.736 82.4479 126.335 77.9636 126.946C74.845 127.372 71.5704 127.384 68.1398 126.98C64.5583 126.557 61.159 125.603 57.9418 124.119C53.9335 122.268 50.7016 119.339 48.2461 115.334L48.8321 99.2371C50.6704 98.0586 52.6647 97.1706 54.815 96.5731Z" fill="#FDFDFD"/>
<path d="M48.8319 99.2369L48.2459 115.334L47.9012 135.435C44.9861 134.529 42.2023 133.352 39.5498 131.904L41.3668 102.418C43.6484 100.931 46.1367 99.8705 48.8319 99.2369Z" fill="#241225"/>
<path d="M102.043 101.665L103.584 129.545C101.027 131.233 98.3185 132.628 95.4592 133.731C95.7186 128.199 95.5905 122.658 95.0751 117.107C95.2688 111.273 95.0489 105.405 94.4153 99.5029C97.0054 99.8705 99.5479 100.591 102.043 101.665Z" fill="#241225"/>
<path d="M122.139 113.32C116.866 119.82 110.682 125.229 103.584 129.545L102.043 101.665C105.011 102.6 108.141 104.073 111.433 106.082C115.744 108.714 119.312 111.127 122.139 113.32Z" fill="#FC9146"/>
<path d="M41.3669 102.418L39.5499 131.904C31.8616 128.339 25.1482 123.377 19.4099 117.018C26.7141 111.487 33.7311 106.651 40.4608 102.512C40.7267 102.351 41.0288 102.32 41.3669 102.418Z" fill="#FC9146"/>
<path d="M70.2676 105.073L69.8737 105.072C69.735 105.071 69.6222 105.183 69.6217 105.322L69.5926 113.654C69.5921 113.792 69.7042 113.905 69.8429 113.906L70.2368 113.907C70.3755 113.907 70.4883 113.795 70.4888 113.657L70.5179 105.325C70.5184 105.186 70.4063 105.073 70.2676 105.073Z" fill="#FB9684"/>
<path d="M48.2461 115.334C50.7016 119.339 53.9335 122.267 57.9418 124.119C61.1589 125.603 64.5583 126.556 68.1398 126.98C71.5703 127.384 74.8449 127.372 77.9636 126.945C82.4479 126.335 86.5054 124.736 90.1362 122.149C91.6857 121.043 93.332 119.362 95.0752 117.107C95.5906 122.658 95.7186 128.199 95.4592 133.731C79.8594 140.274 64.0068 140.841 47.9014 135.435L48.2461 115.334Z" fill="#FC9149"/>
</svg>
