<svg width="139" height="140" viewBox="0 0 139 140" fill="none" xmlns="http://www.w3.org/2000/svg">
<path d="M18.7029 117.511C22.5438 122.022 26.9657 125.91 31.9687 129.177" stroke="#FDDDD3" stroke-width="2"/>
<path d="M31.9685 129.177C38.3338 133.641 45.3836 136.783 53.1179 138.602C53.1855 138.617 53.2557 138.617 53.3233 138.602C53.3909 138.587 53.4542 138.557 53.5086 138.514C53.5629 138.471 53.6069 138.416 53.6373 138.354C53.6677 138.291 53.6837 138.223 53.6842 138.154L53.7039 129.329" stroke="#9E919B" stroke-width="2"/>
<path d="M53.7041 129.329L53.8174 126.006C53.8202 125.902 53.8367 125.806 53.8647 125.729C53.8928 125.653 53.9312 125.6 53.975 125.577L54.3196 125.39" stroke="#FCF9F7" stroke-width="2"/>
<path d="M54.3196 125.39C56.6044 128.24 59.357 130.273 62.5775 131.491C65.4959 132.591 68.7261 132.924 72.2683 132.491C77.2417 131.88 81.7671 129.892 85.8443 126.528C86.9637 125.605 87.8123 124.564 88.3901 123.406" stroke="#FEDCD3" stroke-width="2"/>
<path d="M88.3901 123.406L88.2769 137.71C88.2773 137.763 88.2897 137.815 88.3131 137.861C88.3366 137.908 88.3704 137.949 88.4119 137.981C88.4534 138.012 88.5014 138.033 88.5523 138.043C88.6032 138.052 88.6556 138.05 88.7053 138.035C94.6471 136.351 100.12 133.925 105.123 130.757" stroke="#9E919B" stroke-width="2"/>
<path d="M105.122 130.758C111.957 126.556 117.771 121.208 122.564 114.715" stroke="#FDDBD2" stroke-width="2"/>
<path d="M122.564 114.714C123.244 113.841 123.987 112.832 124.795 111.686C125.363 110.879 125.482 109.922 125.154 108.815" stroke="#E5AB99" stroke-width="2"/>
<path d="M125.154 108.815C126.132 109.078 126.776 108.782 127.084 107.929" stroke="#FCF7F4" stroke-width="2"/>
<path d="M127.084 107.929C128.276 106.839 128.819 105.652 128.714 104.369" stroke="#F7B89C" stroke-width="2"/>
<path d="M128.714 104.369C129.358 104.162 129.739 103.937 129.857 103.694C139.919 83.1011 140.278 62.3095 130.935 41.3193C127.291 33.1287 122.234 25.9328 115.764 19.7316C107.485 11.8004 97.8988 6.33455 87.0064 3.33407C83.8779 2.47398 80.6575 1.85353 77.3452 1.47273C69.1677 0.530566 61.271 0.996722 53.6549 2.8712C41.4297 5.87824 30.8017 11.848 21.7707 20.7805C19.4793 23.0456 17.3291 25.5209 15.32 28.2062C3.27545 44.282 -1.17112 62.5196 1.98037 82.9189C3.69071 93.9951 8.05026 104.203 15.059 113.542C15.6467 114.324 16.8613 115.647 18.7029 117.511" stroke="#FEF3F0" stroke-width="2"/>
<path d="M128.714 104.369C128.554 99.5692 126.632 95.7119 122.948 92.7968C122.2 92.2026 121.461 91.5936 120.732 90.9699C119.094 89.5682 118.093 87.8529 117.729 85.8242C117.614 85.1774 117.601 84.1401 117.689 82.7121C117.752 81.6747 117.796 80.6357 117.822 79.595C117.937 74.6774 115.752 71.3224 111.268 69.53C108.957 68.6042 106.769 67.4635 104.704 66.1077C103.526 65.3362 102.703 64.6009 102.237 63.9016C101.603 62.9529 101.244 61.8663 101.159 60.6418C101.096 59.7522 101.07 58.4784 101.08 56.8206C101.086 55.7242 101.213 54.7492 101.459 53.8957" stroke="#F7AD8D" stroke-width="2"/>
<path d="M101.459 53.8957C104.029 51.8702 105.8 49.4032 106.772 46.4946C107.445 44.4823 107.552 42.401 107.092 40.2507C106.137 35.7763 103.512 32.3933 99.2184 30.102C97.5212 29.1959 96.6694 27.7613 96.6628 25.7982C96.6497 22.2659 95.3103 19.3738 92.6447 17.1218C89.5917 14.5382 86.1628 12.8853 82.358 12.1631C79.63 11.6477 77.2648 11.6871 75.2623 12.2813C72.9183 12.9772 70.8748 14.379 69.1316 16.4866C69.1021 16.5226 69.0649 16.5517 69.0227 16.5716C68.9806 16.5916 68.9345 16.6019 68.8879 16.6019C68.8413 16.6019 68.7952 16.5916 68.7531 16.5716C68.7109 16.5517 68.6737 16.5226 68.6441 16.4866C67.5936 15.226 66.4135 14.3347 65.1036 13.8127C61.7913 12.4898 58.3952 12.2583 54.9155 13.1184C51.7903 13.8899 49.2953 15.3573 47.4307 17.5206C46.6231 18.453 45.9469 19.6413 45.4019 21.0858C44.9161 22.3792 44.5271 23.7054 44.2349 25.0645C43.5225 28.4195 41.8844 31.2214 39.3206 33.4701C37.1802 35.3511 35.9048 36.5379 35.4945 37.0303C32.645 40.4575 32.686 43.9669 35.6176 47.5582C36.5335 48.6777 38.1552 49.866 40.4827 51.1233" stroke="#FDBC96" stroke-width="2"/>
<path d="M40.4824 51.1234L42.1862 54.0779" stroke="#928082" stroke-width="2"/>
<path d="M42.1862 54.0779C37.6363 56.6221 35.0855 60.4925 34.534 65.6892C34.3075 67.8394 34.0843 69.315 33.8643 70.116C33.4704 71.5506 32.7252 72.7751 31.6288 73.7895C30.3485 74.9713 29.0715 76.1547 27.7977 77.3398C25.2043 79.7592 24.0652 82.7646 24.3803 86.356C24.492 87.6363 24.62 88.9166 24.7644 90.1969C25.0303 92.5769 24.2375 94.4908 22.386 95.9385C20.8989 97.1006 19.8337 98.6402 19.1902 100.557C18.7733 101.811 18.5567 103.615 18.5402 105.969C18.5206 109.488 18.7044 113.001 19.0918 116.507" stroke="#F7AD8D" stroke-width="2"/>
<path d="M19.0919 116.507L18.7029 117.511" stroke="#FCD2C5" stroke-width="2"/>
<path d="M101.459 53.8957C101.994 52.9601 101.71 52.4168 100.607 52.2658" stroke="#F78142" stroke-width="2"/>
<path d="M100.607 52.2658C100.958 49.8957 100.205 48.0556 98.3469 46.7458C97.0567 45.8365 95.6549 45.1635 94.1416 44.7269C94.0791 44.7089 94.0218 44.6709 93.9759 44.6172C93.9299 44.5634 93.897 44.4958 93.8806 44.4216C93.8576 44.3034 93.8166 44.1984 93.7575 44.1064C93.6754 43.9751 93.5211 43.8881 93.2946 43.8455C91.1181 43.4351 89.3635 43.0001 88.0307 42.5405C86.1398 41.8873 84.5082 40.6874 83.136 38.941C82.358 37.9463 80.9661 35.6779 78.9603 32.1357C77.7851 30.061 76.5721 28.6149 75.3213 27.7975C74.2249 27.0819 73.1678 26.7848 72.1501 26.9062C69.9868 27.1623 68.1484 28.239 66.635 30.1365C65.4828 31.5842 64.4881 33.1271 63.651 34.7652C62.3871 37.2372 61.6124 38.6504 61.3268 39.005C60.0826 40.5709 58.4855 41.751 56.5355 42.5455C52.7275 44.0982 48.8111 45.3227 44.7864 46.2189" stroke="#FDA579" stroke-width="2"/>
<path d="M44.7862 46.2189C43.3516 47.0035 42.0779 47.944 40.965 49.0405C40.8993 49.1061 40.8501 49.1809 40.8238 49.2555C40.7975 49.33 40.7952 49.4009 40.8173 49.459C40.8534 49.551 40.9158 49.6314 41.0044 49.7003" stroke="#F8AC83" stroke-width="2"/>
<path d="M41.0044 49.7002L40.4824 51.1233" stroke="#925436" stroke-width="2"/>
<path d="M127.084 107.929C127.298 103.756 126.288 100.029 124.056 96.7461C123.528 95.9648 122.599 95.0062 121.269 93.8703C120.14 92.9052 119.074 91.8744 118.073 90.778C117.167 89.7866 116.555 88.8854 116.237 88.0745C115.826 87.0339 115.646 85.9309 115.695 84.7655C115.783 82.7138 115.826 80.662 115.823 78.6103C115.82 76.3845 115.224 74.6512 114.035 73.4103C112.955 72.281 111.279 71.2404 109.008 70.2884C107.058 69.4709 105.349 68.6027 103.882 67.6835C100.671 65.6777 99.1249 62.7035 99.2431 58.7608" stroke="#F5B191" stroke-width="2"/>
<path d="M98.2484 58.5638C97.8676 58.7214 97.5738 58.961 97.367 59.2827C97.0617 59.762 96.8548 60.0542 96.7465 60.1592C96.3723 60.5203 95.998 60.8798 95.6238 61.2376C95.5632 61.2952 95.5171 61.3636 95.4896 61.4367C95.4621 61.5097 95.454 61.5851 95.4662 61.6562L95.6484 62.7247" stroke="#8F868A" stroke-width="2"/>
<path d="M95.6484 62.7248C95.2774 62.7904 95.046 62.6591 94.9541 62.3309C94.7735 61.6677 94.4354 61.5889 93.9397 62.0945" stroke="#75362A" stroke-width="2"/>
<path d="M93.9395 62.0945L92.0732 62.9759" stroke="#936964" stroke-width="2"/>
<path d="M92.0734 62.976C88.6101 64.3876 85.0499 64.7618 81.3928 64.0987" stroke="#91504D" stroke-width="2"/>
<path d="M81.3928 64.0987C79.7153 63.1073 78.4137 61.8171 77.4879 60.2283C76.1091 57.8548 75.208 55.3123 74.7845 52.6007C74.7123 52.1411 74.6122 51.7865 74.4841 51.537C74.018 50.6408 73.5338 50.7607 73.0315 51.8965" stroke="#926965" stroke-width="2"/>
<path d="M73.0316 51.8965L72.6426 53.8465" stroke="#8F4B47" stroke-width="2"/>
<path d="M72.6424 53.8465C71.7856 57.103 70.1114 59.5422 67.6198 61.1639C65.4827 62.5558 62.8055 63.2501 59.5884 63.2468C56.3187 63.2435 53.1607 62.4901 50.1143 60.9866" stroke="#936964" stroke-width="2"/>
<path d="M50.1142 60.9866L46.1946 58.5442" stroke="#8E5857" stroke-width="2"/>
<path d="M46.1945 58.5442L43.5896 56.0624" stroke="#8F868A" stroke-width="2"/>
<path d="M43.5898 56.0624C43.4618 55.8949 43.2977 55.7718 43.0974 55.6931" stroke="#6B2C2C" stroke-width="2"/>
<path d="M43.0973 55.6931C43.1925 55.2991 43.0694 55.0529 42.728 54.9544" stroke="#918689" stroke-width="2"/>
<path d="M42.7279 54.9544L42.1863 54.0779" stroke="#8C452E" stroke-width="2"/>
<path d="M41.0044 49.7004C41.8842 48.5021 42.9823 47.665 44.2987 47.189C45.1719 46.8706 46.1042 46.9953 47.0956 47.5633" stroke="#8D706F" stroke-width="2"/>
<path d="M47.6326 48.3264C47.8624 48.7794 47.9674 49.262 47.9477 49.7741C47.9444 49.9153 47.9707 49.9235 48.0265 49.7987C48.7257 48.3182 49.9157 47.312 51.5965 46.7802" stroke="#90777C" stroke-width="2"/>
<path d="M42.728 54.9544C40.7058 56.5564 39.506 57.579 39.1284 58.0222C37.1522 60.3235 36.0295 62.9989 35.7603 66.0486C35.5174 68.8456 35.2859 70.5198 35.066 71.0713C34.3832 72.7882 33.354 74.2638 31.9785 75.4982C31.2235 76.1777 30.4651 76.8491 29.7035 77.5122C26.2336 80.5291 25.1043 84.3043 26.3157 88.8378C27.1232 91.858 26.3469 94.4301 23.9865 96.554C21.7739 98.5401 20.5117 101.094 20.1998 104.216C19.9503 106.708 20.039 110.483 20.4657 115.542" stroke="#F5B395" stroke-width="2"/>
<path d="M20.4656 115.542C20.1899 116.116 19.7319 116.438 19.0918 116.507" stroke="#F69771" stroke-width="2"/>
<path d="M100.607 52.2658C100.485 53.9105 100.192 55.2647 99.7254 56.3283C99.3249 57.2409 99.164 58.0518 99.2428 58.7609" stroke="#F79671" stroke-width="2"/>
<path d="M99.2432 58.7609C98.7048 58.7018 98.4487 58.7937 98.475 59.0366" stroke="#FCD4C9" stroke-width="2"/>
<path d="M98.4748 59.0366L98.2483 58.7707" stroke="#ED7365" stroke-width="2"/>
<path d="M98.2483 58.7706V58.5638" stroke="#FAD6CD" stroke-width="2"/>
<path d="M98.2485 58.5639C99.5386 56.2758 100.198 53.8071 100.228 51.1579C100.244 49.5953 99.6765 48.3544 98.5243 47.4352C97.5755 46.6769 96.5119 46.1303 95.3334 45.7954C94.8147 45.6477 93.6559 45.4458 91.8569 45.1898C88.387 44.6941 84.8957 44.4922 81.3831 44.5841C78.445 44.6629 76.0125 45.779 74.0855 47.9326C73.4453 48.6482 72.8101 48.6433 72.1798 47.9178C70.4859 45.958 68.3012 44.8631 65.6257 44.6333C61.3384 44.2624 56.662 44.978 51.5967 46.7803" stroke="#926965" stroke-width="2"/>
<path d="M51.5965 46.7802C50.1193 46.8393 48.798 47.3547 47.6326 48.3264" stroke="#FBC8BF" stroke-width="2"/>
<path d="M47.6325 48.3264L47.0957 47.5632" stroke="#926965" stroke-width="2"/>
<path d="M47.0958 47.5632C46.715 46.6933 45.9452 46.2452 44.7864 46.2189" stroke="#F8C0B2" stroke-width="2"/>
<path d="M40.389 75.8823C39.3747 77.2413 38.2979 78.387 37.1588 79.3193C34.654 81.3645 33.6019 83.9136 34.0024 86.9666C34.0057 86.9764 34.2305 87.8546 34.677 89.6011C35.2712 91.922 35.0693 94.1724 34.0713 96.3521C34.068 96.3587 33.7135 96.9644 33.0077 98.1691C31.9243 100.014 31.601 102.028 32.0376 104.211C32.4085 106.066 32.2822 107.995 31.6584 109.997" stroke="#E6A995" stroke-width="2"/>
<path d="M31.6585 109.997L22.6816 114.064" stroke="#E68A6D" stroke-width="2"/>
<path d="M37.5576 108.505L33.9875 109.529" stroke="#873D37" stroke-width="2"/>
<path d="M33.9875 109.529L33.4951 109.244" stroke="#E6896F" stroke-width="2"/>
<path d="M33.495 109.244C33.8857 107.189 33.8315 105.084 33.3325 102.931C33.1815 102.284 33.239 101.659 33.5049 101.055C34.2238 99.4231 34.9592 97.7046 35.7109 95.899C36.1705 94.7862 36.3347 93.7422 36.2033 92.7673C36.0687 91.7791 35.6682 89.9227 35.0018 87.198C34.3223 84.4207 35.0921 81.9685 37.3113 79.8412C38.7262 78.4854 39.8341 77.2199 40.6351 76.0447" stroke="#E5A897" stroke-width="2"/>
<path d="M53.7041 124.775V129.329" stroke="#9C8B94" stroke-width="2"/>
<path d="M31.9685 129.177C33.0321 122.588 33.7051 116.039 33.9874 109.529" stroke="#9C6F70" stroke-width="2"/>
<path d="M33.4952 109.244C32.9437 109.687 32.3314 109.938 31.6584 109.997" stroke="#FBDAD1" stroke-width="2"/>
<path d="M43.0972 55.6931L41.9893 56.801" stroke="#D49A93" stroke-width="2"/>
<path d="M41.9894 56.801C40.4563 57.8417 39.3188 59.2139 38.5769 60.9177C37.6052 63.1368 37.162 65.4643 37.2474 67.9002C37.3688 71.3307 36.1952 74.1982 33.7265 76.5027C32.4758 77.6747 31.2792 78.8992 30.1368 80.1762C28.8992 81.5648 28.2115 83.1455 28.0736 84.9182C28.0243 85.5321 28.1474 86.4824 28.4429 87.7693C28.6628 88.7114 28.8237 89.6635 28.9255 90.6253C29.0896 92.1354 28.9452 93.4551 28.4922 94.5844C27.9603 95.8942 27.1757 97.0219 26.1384 97.9673C25.0157 98.9915 24.1457 100.127 23.5286 101.375C23.023 102.396 22.6947 103.755 22.5437 105.452C22.2909 108.321 22.3369 111.192 22.6816 114.064" stroke="#E6A691" stroke-width="2"/>
<path d="M22.6817 114.065C22.1072 114.81 21.3686 115.302 20.4658 115.542" stroke="#FBD7CC" stroke-width="2"/>
<path d="M125.154 108.815C124.763 105.726 123.939 102.69 122.682 99.7055C121.953 97.982 120.744 96.531 119.053 95.3525C117.582 94.325 116.156 92.961 114.774 91.2605C113.346 89.4976 112.837 87.3572 113.247 84.8393C113.756 81.7404 113.845 79.4998 113.513 78.1178C113.087 76.3352 112.174 74.9909 110.775 74.0849C109.528 73.2773 107.348 72.0545 104.236 70.4163C101.223 68.834 99.2923 66.4097 98.4453 63.1433" stroke="#E3A48F" stroke-width="2"/>
<path d="M74.5235 68.4516C73.473 68.921 72.3699 69.1492 71.2144 69.1361C71.0831 69.1328 70.9666 69.141 70.8648 69.1607C70.2312 69.2821 70.2476 69.4414 70.914 69.6383C72.4931 70.1045 73.9999 70.0733 75.4344 69.5448" stroke="#FDA895" stroke-width="2"/>
<path d="M79.2705 64.9456C79.6283 64.5845 79.9911 64.5238 80.3587 64.7634C80.5163 64.8652 80.6608 64.9325 80.7921 64.9653C81.2845 65.0835 81.6144 65.3133 81.7818 65.6547C82.4351 66.9646 82.8455 67.7442 83.0129 67.9937C84.024 69.4907 85.4963 70.0619 87.4299 69.7073C88.8021 69.4545 89.8953 68.8013 90.7094 67.7475C91.4349 66.8053 92.0488 65.7171 92.551 64.4828C92.6791 64.1676 92.7021 63.8968 92.62 63.6703C92.5182 63.3978 92.336 63.1664 92.0734 62.976" stroke="#FCA08F" stroke-width="2"/>
<path d="M93.9398 62.0945C93.1191 67.7738 91.5499 73.1461 89.2323 78.2114C87.929 81.0576 86.1038 83.5279 83.7566 85.6223" stroke="#E0866C" stroke-width="2"/>
<path d="M83.7564 85.6222C78.6615 90.1821 72.956 91.528 66.6399 89.6601C63.8922 88.846 60.9688 87.262 57.8699 84.9082" stroke="#F9A091" stroke-width="2"/>
<path d="M57.8699 84.9083C53.471 81.0609 50.3113 76.3747 48.3908 70.8498C48.3779 70.815 48.3585 70.7848 48.3355 70.7636C48.3125 70.7424 48.2871 70.7312 48.2628 70.7316H48.1643" stroke="#E2866B" stroke-width="2"/>
<path d="M48.1642 70.7316L48.0017 69.993" stroke="#FCD9D0" stroke-width="2"/>
<path d="M48.0019 69.9928C47.434 67.7474 46.7938 65.85 46.0815 64.3005C45.3067 62.6098 45.0605 60.8634 45.3428 59.0611" stroke="#E7886E" stroke-width="2"/>
<path d="M45.3428 59.0611C46.1602 60.6106 46.9677 62.1486 47.7655 63.6751C48.5927 65.2509 49.53 66.7577 50.5772 68.1955C51.7557 69.8107 53.2428 70.6149 55.0385 70.6084C59.1847 70.5952 61.0313 68.5123 60.5782 64.3596C60.5703 64.29 60.5379 64.2253 60.4867 64.1768C60.4354 64.1282 60.3685 64.0988 60.2976 64.0937C57.4579 63.8507 54.679 63.3074 51.9609 62.4637" stroke="#FDA191" stroke-width="2"/>
<path d="M51.9609 62.4638C51.1369 62.2734 50.4902 61.9829 50.0207 61.5923C49.7154 61.3329 49.7466 61.131 50.1143 60.9866" stroke="#FAA999" stroke-width="2"/>
<path d="M81.3929 64.0987C80.2931 64.0199 79.3526 63.5636 78.5713 62.7298" stroke="#FCA090" stroke-width="2"/>
<path d="M78.5712 62.7297C76.6803 60.3726 75.4427 57.9105 74.8584 55.3434C74.4809 53.6954 74.2084 52.5924 74.041 52.0343C74.0248 51.9789 73.9847 51.931 73.9273 51.8988C73.87 51.8665 73.7988 51.8518 73.7258 51.8571L73.0315 51.8965" stroke="#FA9C8A" stroke-width="2"/>
<path d="M98.2482 58.7707C97.8313 59.1121 97.6196 59.5701 97.613 60.1445" stroke="#E99089" stroke-width="2"/>
<path d="M97.6131 60.1446C96.8581 60.4138 96.4543 60.9062 96.4018 61.6218C96.103 65.7352 96.602 69.9207 97.8987 74.1785" stroke="#E1A693" stroke-width="2"/>
<path d="M97.8986 74.1785C97.4883 74.405 97.4062 74.6923 97.6524 75.0403" stroke="#F8E5E3" stroke-width="2"/>
<path d="M97.6525 75.0403C98.0629 77.243 97.8019 79.3571 96.8696 81.3826C96.2393 82.7515 95.6763 84.1484 95.1806 85.5731C94.7867 86.7155 94.7079 87.8809 94.9442 89.0693C95.2955 90.8157 95.3612 92.5589 95.1412 94.2988C94.9672 95.671 94.8999 96.5442 94.9393 96.9184C95.0214 97.7227 95.2315 98.5861 95.5696 99.5086C96.3312 101.577 96.3214 103.768 95.5401 106.082" stroke="#E0A592" stroke-width="2"/>
<path d="M95.54 106.082L93.8264 105.935" stroke="#9A8B95" stroke-width="2"/>
<path d="M93.8263 105.935C94.4337 103.752 94.5026 101.793 94.0332 100.06C93.5145 98.1593 93.3651 96.3784 93.5851 94.7173C93.782 93.2434 93.8805 92.4292 93.8805 92.2749C93.8805 91.5264 93.8181 90.7057 93.6934 89.8128C93.3651 87.4394 93.7262 85.1529 94.7767 82.9534C95.3742 81.6994 95.6746 81.0691 95.6778 81.0625C96.6496 78.5807 96.8941 75.9988 96.4115 73.3168C95.7845 69.8173 95.5301 66.2867 95.6483 62.7248" stroke="#DCA391" stroke-width="2"/>
<path d="M93.8264 105.935L89.0352 105.447" stroke="#803B35" stroke-width="2"/>
<path d="M89.0352 105.447C86.4451 104.791 84.9612 103.231 84.5837 100.769C84.1176 97.7293 83.8943 93.0365 83.914 86.6909" stroke="#E0866D" stroke-width="2"/>
<path d="M83.9142 86.6909C84.0849 86.4742 84.0323 86.118 83.7566 85.6223" stroke="#DB6D57" stroke-width="2"/>
<path d="M43.5898 56.0624C43.3403 56.1313 43.2172 56.2955 43.2205 56.5548" stroke="#D29A93" stroke-width="2"/>
<path d="M43.2203 56.5548C42.8362 56.8404 42.4259 56.9225 41.9893 56.801" stroke="#C04D33" stroke-width="2"/>
<path d="M46.1946 58.5442C46.2077 58.7346 46.1191 58.8232 45.9287 58.8101" stroke="#F6C6BE" stroke-width="2"/>
<path d="M45.9286 58.81C45.5774 58.728 45.2688 58.572 45.0029 58.3422C44.9799 58.3228 44.9526 58.3086 44.9236 58.3008C44.8946 58.2931 44.8649 58.2922 44.8373 58.2981C44.8096 58.304 44.785 58.3166 44.7657 58.3347C44.7464 58.3528 44.7331 58.3757 44.7271 58.4013L44.5745 59.1399" stroke="#F9BEB7" stroke-width="2"/>
<path d="M44.5747 59.14C43.9477 62.1077 43.2829 65.0671 42.5804 68.0183C42.3211 69.1082 42.2883 70.3409 42.4819 71.7164C42.9744 75.2389 43.3289 77.4482 43.5456 78.3444C43.9132 79.8709 43.8706 81.3317 43.4175 82.7269C43.2436 83.262 42.7643 84.1467 41.9797 85.3811C41.2016 86.6055 40.7535 87.5083 40.6354 88.0894C40.3366 89.5699 40.3054 90.709 40.5418 91.5068C41.2181 93.7719 41.5775 95.259 41.6202 95.9681C41.6924 97.2123 41.4216 98.3711 40.8077 99.4446C40.5779 99.8385 40.12 100.659 39.4339 101.907C38.3374 103.899 38.2045 106.058 39.035 108.382" stroke="#E3A593" stroke-width="2"/>
<path d="M39.0349 108.382C38.5556 108.543 38.0632 108.584 37.5576 108.505" stroke="#9A8B95" stroke-width="2"/>
<path d="M37.5577 108.505C36.9175 105.925 37.236 103.491 38.513 101.202C38.9791 100.369 39.4453 99.5348 39.9115 98.701C40.4958 97.6603 40.742 96.5819 40.6501 95.4658C40.6501 95.4592 40.3858 94.5187 39.8573 92.6442C39.355 90.865 39.4075 89.1087 40.0148 87.3753C40.1856 86.8928 40.6534 86.1492 41.4183 85.1447C42.8758 83.2308 43.3945 81.0527 42.9743 78.6103C42.4819 75.7378 42.1667 73.4563 42.0289 71.7656C42.0223 71.7066 42.0059 71.6557 41.9796 71.613C41.891 71.4784 41.8384 71.5556 41.822 71.8444C41.74 73.348 41.3444 74.7481 40.6353 76.0448" stroke="#E3A593" stroke-width="2"/>
<path d="M40.6351 76.0447L40.3889 75.8823" stroke="#F8F6F5" stroke-width="2"/>
<path d="M40.3889 75.8823C40.6778 75.1338 40.883 74.0735 41.0044 72.7012C41.185 70.6856 41.9072 67.1747 43.1711 62.1684C43.3549 61.433 43.4862 60.6501 43.565 59.8196C43.6405 59.0218 43.7308 58.2274 43.8359 57.4362C43.8785 57.1178 43.6734 56.824 43.2203 56.5548" stroke="#E4A691" stroke-width="2"/>
<path d="M78.5713 62.7298C78.6402 63.5111 78.8733 64.2497 79.2705 64.9457" stroke="#F98371" stroke-width="2"/>
<path d="M79.2703 64.9456C79.7168 67.8706 78.4381 69.4037 75.4343 69.5449" stroke="#FB9C89" stroke-width="2"/>
<path d="M75.4346 69.5448C77.2369 69.1147 78.3399 68.0708 78.7437 66.413C78.782 66.2666 78.7664 66.1034 78.6994 65.9501C78.0428 64.417 77.3748 62.8889 76.6952 61.3657C76.4064 60.7189 76.2143 60.6943 76.1191 61.2918C76.0961 61.4165 76.1043 61.5511 76.1437 61.6956C76.5311 63.0809 76.6362 64.5746 76.4589 66.1766C76.3112 67.493 75.6661 68.2513 74.5237 68.4516" stroke="#F98A78" stroke-width="2"/>
<path d="M74.5236 68.4517C74.7501 64.1085 74.5745 59.8294 73.9967 55.6143C73.977 55.4567 73.9163 55.3123 73.8145 55.181C73.46 54.7116 73.2745 54.3964 73.2581 54.2355C73.222 53.904 73.0168 53.7743 72.6426 53.8465" stroke="#FB9C89" stroke-width="2"/>
<path d="M98.4749 59.0366L98.4453 63.1434" stroke="#EB8E85" stroke-width="2"/>
<path d="M98.4452 63.1434C97.9462 62.2373 97.6688 61.2377 97.613 60.1446" stroke="#D4422B" stroke-width="2"/>
<path d="M57.8699 84.9082C57.7419 85.6501 57.7911 86.3034 58.0176 86.8681" stroke="#DD6C56" stroke-width="2"/>
<path d="M58.0176 86.8682C58.0472 89.153 58.039 93.3353 57.993 99.415C57.9668 102.701 56.4419 104.794 53.4185 105.693" stroke="#E1866C" stroke-width="2"/>
<path d="M53.4185 105.693L48.6567 106.186" stroke="#813B34" stroke-width="2"/>
<path d="M89.0352 105.447L88.3901 123.406" stroke="#9D6E70" stroke-width="2"/>
<path d="M54.3196 125.39C54.3426 124.934 54.1374 124.729 53.7041 124.775" stroke="#FCD6CC" stroke-width="2"/>
<path d="M53.704 124.775L53.4185 105.693" stroke="#9D6E70" stroke-width="2"/>
<path d="M48.0017 69.993C47.3386 70.9548 47.0169 71.9396 47.0366 72.9475C47.0727 74.6578 47.2532 76.8376 47.5782 79.4868C47.5782 79.5032 47.6374 79.9037 47.7555 80.6883C48.0411 82.5792 47.8967 84.4422 47.3222 86.2773C46.7543 88.1025 46.7067 90.0213 47.1794 92.0337C47.3862 92.9167 47.314 93.7752 46.9627 94.609C46.5163 95.6661 46.0649 96.792 45.6086 97.987C45.0472 99.4642 44.7534 100.633 44.7271 101.493C44.668 103.466 45.3558 105.229 46.7904 106.782" stroke="#E5A897" stroke-width="2"/>
<path d="M46.7905 106.782L39.0349 108.382" stroke="#873D37" stroke-width="2"/>
<path d="M48.1644 70.7316C47.7507 73.7288 47.841 76.7128 48.4352 79.6837C48.944 82.241 48.8882 84.5915 48.2678 86.7352C48.0216 87.5887 47.8853 88.3749 47.8591 89.0939C47.8459 89.4648 48.0084 90.2264 48.3465 91.3787C48.5599 92.1141 48.6551 92.8625 48.6322 93.6241C48.6125 94.1986 48.4204 94.911 48.056 95.7613C47.4914 97.0678 47.0023 98.4006 46.5886 99.7597C46.3523 100.544 46.2653 101.229 46.3276 101.813C46.4163 102.621 46.6625 103.289 47.0663 103.817C47.6473 104.572 48.1775 105.362 48.6568 106.186" stroke="#E0A695" stroke-width="2"/>
<path d="M48.6568 106.186C48.1348 106.619 47.5127 106.818 46.7905 106.782" stroke="#9C8E99" stroke-width="2"/>
<path d="M122.564 114.714C119.344 112.499 116.039 110.552 112.652 108.874" stroke="#E4886D" stroke-width="2"/>
<path d="M112.652 108.874C113.279 106.412 113.59 103.924 113.587 101.409C113.587 99.6793 113.318 98.312 112.78 97.3075C112.136 96.1092 111.16 95.0374 109.85 94.092C107.302 92.2503 106.345 89.7291 106.979 86.5284C107.225 85.2941 107.35 84.6671 107.353 84.6474C107.514 83.4065 107.516 82.42 107.358 81.6879C107.095 80.47 106.265 79.4934 104.866 78.758C103.56 78.0719 102.229 77.4318 100.873 76.8376C99.5893 76.2697 98.5979 75.3833 97.8987 74.1785" stroke="#E39785" stroke-width="2"/>
<path d="M83.9139 86.6909C82.3809 89.1858 80.7887 91.1604 79.1375 92.6147C76.0779 95.3033 72.759 96.1897 69.1807 95.2738C67.3325 94.7977 65.3054 93.6422 63.0994 91.8071C61.2807 90.2937 59.5868 88.6474 58.0176 86.8682" stroke="#F9A092" stroke-width="2"/>
<path d="M45.9287 58.81L47.6078 60.3365C47.6545 60.38 47.6934 60.44 47.7222 60.5128C47.751 60.5856 47.769 60.6697 47.7753 60.76C47.8147 61.2918 48.0921 61.712 48.6075 62.0206C49.7072 62.6804 50.825 62.8281 51.9608 62.4637" stroke="#F89084" stroke-width="2"/>
<path d="M45.3426 59.0612C45.0537 58.8609 44.7977 58.8872 44.5745 59.14" stroke="#E67059" stroke-width="2"/>
<path d="M101.922 107.171L105.122 130.757" stroke="#9D6D6F" stroke-width="2"/>
<path d="M112.652 108.874C112.343 108.956 111.926 108.907 111.401 108.727" stroke="#FBC7BD" stroke-width="2"/>
<path d="M111.401 108.727C112.021 106.074 112.415 103.397 112.583 100.695C112.655 99.4971 112.502 98.5106 112.125 97.7359C111.665 96.7904 111.01 95.9828 110.16 95.3132C109.3 94.6303 108.865 94.2856 108.855 94.2791C106.616 92.1354 105.869 89.4107 106.614 86.1049C106.775 85.386 106.905 84.6605 107.003 83.9284C107.302 81.6731 106.447 80.0416 104.438 79.0338C103.148 78.3838 101.833 77.7814 100.494 77.2266C99.3512 76.7506 98.4041 76.0218 97.6523 75.0403" stroke="#E29684" stroke-width="2"/>
<path d="M111.401 108.727C108.42 107.893 105.26 107.374 101.922 107.171" stroke="#E3876C" stroke-width="2"/>
<path d="M101.922 107.171L95.54 106.082" stroke="#843D35" stroke-width="2"/>
<path d="M115.842 51.276C116.437 51.4762 116.927 51.2415 117.315 50.5718C118.818 48.0014 119.048 45.3752 118.004 42.6931C117.607 41.6754 117.065 41.5917 116.379 42.442C114.662 44.5692 114.137 47.1298 114.803 50.1237C114.935 50.7048 115.281 51.0889 115.842 51.276Z" stroke="#FACCBA" stroke-width="2"/>
<path d="M122.894 71.0909C123.521 71.6227 124.199 71.6983 124.927 71.3175C126.552 70.4705 127.784 69.228 128.621 67.5898C130.423 64.0608 131.219 60.307 131.009 56.3282C130.841 53.1439 129.637 52.6006 127.395 54.6983C123.695 58.1551 121.796 62.6279 121.697 68.1167C121.674 69.4069 122.073 70.3983 122.894 71.0909Z" stroke="#FCC7AB" stroke-width="2"/>
<path d="M12.6313 87.9957C13.4717 87.9695 14.143 87.6248 14.6453 86.9616C15.9059 85.3006 16.8218 83.4884 17.393 81.5253C17.7804 80.2056 18.0955 78.8384 18.3384 77.4235C18.5748 76.0283 18.6437 74.6183 18.5453 73.1936C18.4993 72.5797 18.3138 72.1464 17.9888 71.8936C17.4833 71.4964 16.9071 71.6014 16.2604 72.2087C12.8562 75.4062 11.0933 79.4276 10.9718 84.273C10.9456 85.271 11.0637 86.2 11.3264 87.0601C11.5233 87.7068 11.9583 88.0187 12.6313 87.9957Z" stroke="#FCC2A3" stroke-width="2"/>
<path d="M50.8479 21.2335C49.978 22.481 49.3591 23.8367 48.9915 25.3009C48.6238 26.7519 48.4367 27.4856 48.4301 27.502C47.6193 29.9707 46.4178 32.2423 44.8256 34.3171C43.9918 35.407 42.8313 36.2096 41.3442 36.725C40.1887 37.1255 38.7295 37.7821 36.9666 38.6947C36.8845 38.7374 36.8107 38.7866 36.745 38.8424C36.1836 39.3184 36.2395 39.4202 36.9124 39.1477C38.8263 38.3697 40.7582 37.6376 42.7082 36.9515C43.8802 36.5379 44.6976 36.011 45.1605 35.3709C46.769 33.132 48.1068 30.4056 49.1737 27.1918C49.177 27.1819 49.3641 26.4925 49.735 25.1236C50.5787 22.0148 52.5041 19.7513 55.5111 18.3331C56.0594 18.0771 55.9937 17.9753 55.3142 18.0278C55.2124 18.0377 55.1123 18.059 55.0138 18.0919C53.287 18.6795 51.8984 19.7267 50.8479 21.2335Z" stroke="#F9A268" stroke-width="2"/>
<path d="M80.0191 19.1161C84.0733 20.3274 87.1493 22.6943 89.247 26.2168C89.5983 26.8077 89.8412 27.5824 89.9758 28.541C90.6422 33.2945 93.1536 36.812 97.5098 39.0936C99.3351 40.0456 101.034 41.1798 102.606 42.4962C103.174 42.9722 103.36 42.8441 103.163 42.1121C103.075 41.7842 102.861 41.5045 102.567 41.3341C100.371 40.0538 98.3158 38.849 96.4019 37.7197C93.6608 36.1013 91.8092 33.8279 90.8474 30.8997C90.8408 30.88 90.6504 30.015 90.2762 28.3046C89.8888 26.5385 89.1305 24.8922 88.0012 23.3657C86.025 20.7 83.4036 19.1752 80.1373 18.7911C80.0585 18.7845 79.9846 18.7878 79.9157 18.8009C79.5513 18.883 79.5858 18.9881 80.0191 19.1161Z" stroke="#F9A268" stroke-width="2"/>
<path d="M80.5854 23.1687C81.9904 24.1896 83.1049 25.3353 83.9289 26.6058C84.0063 26.7284 84.0523 26.8849 84.0619 27.0588C84.0881 27.5512 84.2309 28.065 84.4903 28.6001C84.9039 29.4438 85.0582 30.3974 84.9531 31.461C84.917 31.8221 85.1583 32.912 85.677 34.7307C85.828 35.2527 86.0299 35.3758 86.2827 35.1C86.3299 35.0498 86.3639 34.9839 86.3819 34.9076C86.3999 34.8314 86.4013 34.7471 86.3861 34.6618C86.1793 33.5489 86.0266 32.4278 85.9281 31.2985C85.8001 29.8935 85.5703 28.8036 85.2388 28.0289C84.5067 26.3185 83.466 24.7953 82.1168 23.4592C81.5751 22.9241 81.1418 22.6336 80.8168 22.5876C79.9797 22.4793 79.9026 22.673 80.5854 23.1687Z" stroke="#FC9B53" stroke-width="2"/>
<path d="M50.9415 39.8077C50.3735 40.415 49.6825 40.8023 48.8684 40.9698C46.9184 41.367 44.9471 41.8709 42.9544 42.4815C40.6368 43.1939 39.2482 44.7318 38.7886 47.0955C38.6605 47.7586 38.7935 48.3232 39.1874 48.7894C39.2761 48.8944 39.3795 48.9502 39.4976 48.9568C39.5284 48.959 39.5592 48.9528 39.5878 48.9387C39.6165 48.9246 39.6424 48.9028 39.6638 48.8748C39.6853 48.8469 39.7017 48.8134 39.7121 48.7765C39.7225 48.7397 39.7267 48.7005 39.7242 48.6613C39.5699 46.2682 40.5711 44.7203 42.7279 44.0178C44.9898 43.2792 47.2434 42.5192 49.4888 41.7379C50.1552 41.5048 50.692 41.1339 51.099 40.6251C53.2887 37.8806 54.7676 34.8014 55.5358 31.3873C55.9921 29.3519 56.3745 28.047 56.6831 27.4725C57.4907 25.969 58.656 24.7462 60.1793 23.804C60.5075 23.6005 60.7866 23.3608 61.0164 23.0851C61.3118 22.7305 61.2495 22.6485 60.8293 22.8389C58.6298 23.8368 57.0114 25.3798 55.974 27.4676C55.7541 27.9141 55.5226 28.5608 55.2797 29.4077C55.0893 30.0774 54.894 30.7438 54.6937 31.407C54.6839 31.4365 54.4524 32.3688 53.9994 34.2039C53.4742 36.3115 52.4548 38.1794 50.9415 39.8077Z" stroke="#FAAF7A" stroke-width="2"/>
<path d="M64.6947 28.0388C64.1531 28.83 64.2319 28.7988 64.9311 27.9453C65.2725 27.5283 65.2233 27.5251 64.7834 27.9354C64.7505 27.9682 64.721 28.0027 64.6947 28.0388Z" stroke="#F08140" stroke-width="2"/>
<path d="M58.4066 34.1349C58.4493 34.148 58.4903 34.1332 58.5297 34.0906C58.5626 34.0545 58.5806 34.0019 58.5839 33.933C58.6397 33.063 58.7382 32.1997 58.8793 31.3429C58.9581 30.8439 58.8662 30.6486 58.6036 30.7569C58.5383 30.7828 58.479 30.8286 58.4309 30.8905C58.3828 30.9523 58.3474 31.0281 58.3278 31.1114L57.6729 33.805C57.6526 33.888 57.6541 33.9724 57.6771 34.0459C57.7001 34.1194 57.7435 34.1782 57.8009 34.2137C57.9519 34.3089 58.1062 34.2859 58.2638 34.1447C58.2789 34.1317 58.3002 34.1239 58.3254 34.1221C58.3506 34.1204 58.3788 34.1248 58.4066 34.1349Z" stroke="#F08140" stroke-width="2"/>
<path d="M52.862 34.8243C53.1213 34.5419 53.2444 34.2416 53.2313 33.9231C53.2215 33.7459 53.1476 33.7196 53.0097 33.8443C49.983 36.6446 46.4425 38.4829 42.3882 39.3595C40.842 39.691 39.3566 40.1933 37.9318 40.8663C37.8982 40.8815 37.8676 40.903 37.8423 40.9291C37.8169 40.9552 37.7974 40.9853 37.7852 41.0173C37.773 41.0493 37.7683 41.0824 37.7715 41.1141C37.7747 41.1459 37.7857 41.1756 37.8038 41.2011C37.9187 41.3652 38.1239 41.4013 38.4193 41.3094C39.9557 40.8269 41.5002 40.3755 43.053 39.9553C43.0825 39.9454 43.6898 39.7993 44.8749 39.517C48.0002 38.7718 50.6625 37.2076 52.862 34.8243Z" stroke="#FAA971" stroke-width="2"/>
<path d="M93.5853 42.5848C95.9358 43.6057 98.1122 44.9041 100.115 46.4798C100.171 46.5241 100.216 46.583 100.245 46.6516C100.274 46.7203 100.287 46.7965 100.282 46.8738C100.24 47.5041 100.496 47.8832 101.05 48.0113C101.082 48.0183 101.115 48.0184 101.146 48.0115C101.178 48.0047 101.208 47.991 101.234 47.9714C101.26 47.9518 101.282 47.9268 101.298 47.898C101.313 47.8692 101.323 47.8373 101.326 47.8044C101.415 46.8163 101.077 46.0564 100.312 45.5245C98.5029 44.2672 96.3576 43.1576 93.8758 42.1958C93.7708 42.1564 93.6706 42.14 93.5754 42.1465C92.955 42.1695 92.9583 42.3156 93.5853 42.5848Z" stroke="#FAA971" stroke-width="2"/>
<path d="M60.0118 42.2451C62.4214 41.7887 64.7341 41.2619 66.95 40.6644C67.6394 40.4773 67.9923 40.108 68.0087 39.5564C68.0112 39.4894 67.9858 39.424 67.9379 39.3743C67.89 39.3246 67.8235 39.2945 67.7527 39.2905C66.5282 39.2085 65.3595 39.3874 64.2467 39.8273C62.9237 40.3492 62.2441 40.6168 62.208 40.6299C61.2035 40.9713 60.4008 41.3226 59.8001 41.6837C58.8087 42.2713 58.8793 42.4584 60.0118 42.2451Z" stroke="#FCA896" stroke-width="2"/>
<path d="M81.2402 46.8492C79.7597 46.9083 78.568 47.4024 77.6653 48.3314C76.9792 49.0372 76.6 50.0352 76.5278 51.3253C76.3013 55.4059 77.7555 58.8446 80.8906 61.6415" stroke="#926C69" stroke-width="2"/>
<path d="M80.8904 61.6415C82.2823 62.541 83.9647 62.8627 85.9377 62.6067C88.5114 62.2751 90.6895 61.676 92.4721 60.8093C95.4496 59.3649 97.0598 56.98 97.3027 53.6545C97.4997 51.0118 96.4393 49.1948 94.1217 48.2034C94.0659 48.1804 93.8689 48.0869 93.5308 47.9227C92.8677 47.6109 92.6822 47.8686 92.9743 48.6958" stroke="#905350" stroke-width="2"/>
<path d="M92.9746 48.6958C92.9943 48.8238 92.9352 48.9239 92.7974 48.9962" stroke="#8E5857" stroke-width="2"/>
<path d="M92.7973 48.9961C92.5248 48.2378 92.0472 47.7175 91.3644 47.4351C90.5437 47.097 89.6688 46.923 88.7397 46.9132" stroke="#8D706F" stroke-width="2"/>
<path d="M88.7395 46.9132C86.2643 46.388 83.7645 46.3667 81.24 46.8492" stroke="#905350" stroke-width="2"/>
<path d="M88.7397 46.9132C89.5342 47.4548 90.4074 47.8274 91.3594 48.031C91.4311 48.0469 91.4958 48.084 91.5444 48.137C91.5931 48.1901 91.6231 48.2563 91.6302 48.3264L91.8272 50.0499" stroke="#F6AA9C" stroke-width="2"/>
<path d="M91.8272 50.05L91.4775 50.0697" stroke="#F17F72" stroke-width="2"/>
<path d="M91.4775 50.0697C88.5427 48.3561 85.5028 48.1197 82.3579 49.3606" stroke="#E46B61" stroke-width="2"/>
<path d="M82.3581 49.3605C80.8513 50.2206 79.919 51.4763 79.5612 53.1275C79.3543 54.0959 79.2641 54.8362 79.2903 55.3483C79.333 56.1198 79.6563 56.8321 80.2604 57.4854C81.0417 58.3324 81.5522 58.1929 81.7918 57.0669C82.1792 55.2121 83.0935 53.6643 84.5346 52.4234" stroke="#F17F72" stroke-width="2"/>
<path d="M84.5344 52.4234C84.2817 53.5034 84.3883 54.3849 84.8545 55.0677C85.2616 55.6652 85.8525 55.9852 86.6272 56.0279C87.7237 56.0903 88.2013 55.3599 88.0602 53.8366C87.9682 52.8255 87.507 52.2133 86.6765 51.9999" stroke="#B76C62" stroke-width="2"/>
<path d="M86.6765 51.9998C87.0639 51.6354 87.4512 51.5895 87.8386 51.862C87.9741 51.9566 88.1281 51.9973 88.267 51.9752C89.1534 51.8373 89.9774 52.0097 90.739 52.4923" stroke="#F17F72" stroke-width="2"/>
<path d="M90.7388 52.4923C90.3252 52.4923 90.2382 52.6663 90.4778 53.0143C90.7897 53.4608 90.7799 53.9302 90.4483 54.4226C90.3697 54.5399 90.3153 54.6666 90.289 54.7942C90.2626 54.9217 90.2649 55.047 90.2956 55.1613L91.4233 59.5142C91.4379 59.5665 91.4783 59.6128 91.538 59.6458C91.5978 59.6788 91.6735 59.6966 91.7532 59.6964L92.6051 59.7112" stroke="#F6AA9C" stroke-width="2"/>
<path d="M92.6052 59.7112C92.382 60.0264 92.4361 60.1774 92.7677 60.1643C92.8793 60.161 92.9942 60.12 93.1124 60.0412C94.629 59.0563 95.6746 57.932 96.2491 56.6681C96.4789 56.1593 96.5643 55.3484 96.5052 54.2355" stroke="#DC6A58" stroke-width="2"/>
<path d="M96.505 54.2355C96.9942 52.8666 96.8628 51.5666 96.1111 50.3355C95.3856 49.1439 94.34 48.5973 92.9744 48.6958" stroke="#F79384" stroke-width="2"/>
<path d="M80.8906 61.6415C81.2123 61.4872 81.2632 61.3067 81.0432 61.0999C79.1293 59.291 77.9065 57.0801 77.3747 54.467C77.0103 52.6975 76.8921 51.3697 77.0201 50.4833C77.2664 48.7795 78.4744 47.8193 80.6443 47.6026C81.1893 47.5468 81.3879 47.2957 81.2402 46.8492" stroke="#FBA696" stroke-width="2"/>
<path d="M92.7974 48.9961L93.5902 53.1275" stroke="#F4B0A3" stroke-width="2"/>
<path d="M93.5901 53.1276C93.4489 55.35 93.1206 57.5446 92.6052 59.7112" stroke="#D98777" stroke-width="2"/>
<path d="M90.7388 52.4924L92.3194 54.0583C92.4836 54.2224 92.5837 54.2011 92.6198 53.9942C92.9087 52.366 92.6444 51.0512 91.827 50.05" stroke="#EE9C91" stroke-width="2"/>
<path d="M96.5052 54.2355C96.0391 53.9269 95.6681 53.5248 95.3924 53.0291C94.7358 51.8604 94.135 51.8932 93.5901 53.1276" stroke="#DA6F5F" stroke-width="2"/>
<path d="M86.6764 51.9999C85.8951 51.7799 85.1811 51.9211 84.5344 52.4234" stroke="#AF5E56" stroke-width="2"/>
<path d="M91.4775 50.0696C91.379 50.4997 91.1837 50.6474 90.8915 50.5128C88.0618 49.1898 85.2172 48.8057 82.3579 49.3605" stroke="#DC5D56" stroke-width="2"/>
<path d="M48.0018 53.3738C47.4109 54.1124 47.4388 54.8248 48.0855 55.5109" stroke="#884444" stroke-width="2"/>
<path d="M48.0854 55.5108C48.1609 56.2823 48.5401 56.9339 49.2229 57.4657C51.8393 59.5175 54.6871 60.8093 57.7664 61.3411C59.9429 61.7186 61.8912 61.6628 63.6114 61.1737C65.65 60.5893 67.3374 59.4568 68.6735 57.776C70.4199 55.5699 70.9944 53.0783 70.3969 50.301C70.0588 48.7351 69.074 47.7585 67.4424 47.3711C62.3213 46.1631 57.4135 46.5258 52.7191 48.4594C50.4211 49.4081 48.8487 51.0462 48.0017 53.3737" stroke="#915753" stroke-width="2"/>
<path d="M48.0854 55.5109L49.7941 57.1654C49.8479 57.2173 49.9186 57.2492 49.9951 57.2564C50.0717 57.2635 50.1499 57.2454 50.2176 57.2048C50.8282 56.8338 50.7149 56.1034 49.8778 55.0135C49.7561 54.855 49.5914 54.7349 49.4036 54.6676C49.2158 54.6004 49.0129 54.5888 48.8191 54.6344C48.284 54.7591 48.0116 54.3389 48.0017 53.3738" stroke="#F28375" stroke-width="2"/>
<path d="M47.8738 50.8821C47.5816 51.5617 47.4356 52.2724 47.4356 53.0143C47.4353 53.0422 47.4433 53.069 47.458 53.0891C47.4726 53.1093 47.4928 53.1213 47.5143 53.1226L47.5931 53.1325C47.6284 53.1371 47.6668 53.1207 47.7011 53.0863C47.7355 53.052 47.7636 53.0019 47.7803 52.9454L48.2874 51.1136C48.3123 51.0221 48.3246 50.9339 48.3238 50.8543C48.3229 50.7747 48.3089 50.7054 48.2825 50.6507C48.1742 50.4307 48.038 50.5079 47.8738 50.8821Z" stroke="#5E5B4B" stroke-width="2"/>
<path d="M58.6724 53.9991L60.3121 53.4969" stroke="#CD6B5D" stroke-width="2"/>
<path d="M60.3125 53.4969C60.1451 55.4075 60.7672 56.3595 62.1788 56.3529C63.1078 56.3529 63.748 55.9672 64.0992 55.1958C64.4702 54.3849 64.3553 53.4953 63.7545 52.5269" stroke="#AB6B61" stroke-width="2"/>
<path d="M63.7544 52.5268C64.5981 52.0737 65.4696 51.8259 66.3691 51.7832C66.4394 51.7787 66.5111 51.795 66.5768 51.8305C66.6426 51.8659 66.7001 51.9193 66.7434 51.9851L67.4525 53.0487C67.5059 53.129 67.5693 53.1956 67.636 53.2415C67.7026 53.2874 67.7702 53.3109 67.8316 53.3097C68.0417 53.3031 68.1074 53.075 68.0286 52.6252C67.6675 50.5866 66.4545 49.4114 64.3896 49.0995C62.7974 48.8599 61.2988 49.0339 59.8938 49.6215C58.6398 50.1435 57.6911 50.672 57.0476 51.2071C56.1941 51.9227 55.6327 52.9174 55.3635 54.1911C55.1698 55.1235 55.4883 55.4058 56.3188 55.0381L58.6726 53.9991" stroke="#F28272" stroke-width="2"/>
<path d="M63.7542 52.5267C62.7169 52.031 61.6582 52.0327 60.5781 52.5317" stroke="#A1574F" stroke-width="2"/>
<path d="M60.578 52.5316C59.6194 52.6104 58.9842 53.0996 58.6724 53.999" stroke="#C4574A" stroke-width="2"/>
<path d="M60.3123 53.4968L60.5782 52.5316" stroke="#7D403A" stroke-width="2"/>
<path d="M81.8704 72.2481C77.8786 73.256 73.8177 73.7008 69.688 73.5826" stroke="#FEDBD2" stroke-width="2"/>
<path d="M69.6879 73.5826C68.0071 73.1099 66.154 72.8423 64.1285 72.7799C63.7706 72.7701 63.6803 72.9211 63.8576 73.233C65.394 75.915 67.4047 78.0127 69.8898 79.5261C71.866 80.7309 73.8226 81.0706 75.7594 80.5454C77.3253 80.1154 78.7517 79.1322 80.0385 77.5958C81.1941 76.217 82.0279 74.6315 82.54 72.8391C82.5991 72.6388 82.6155 72.4632 82.5893 72.3122C82.5171 71.8394 82.2774 71.8181 81.8703 72.2481" stroke="#ED8679" stroke-width="2"/>
<path d="M69.688 73.5826C70.4102 74.9088 71.1899 76.0512 72.027 77.0098C73.0118 78.1358 74.1559 78.666 75.4591 78.6003C76.4965 78.5478 77.5355 78.0652 78.5762 77.1526C80.0534 75.8625 81.1515 74.2277 81.8704 72.2481" stroke="#ECA8A4" stroke-width="2"/>
<path d="M70.0581 107.798C70.0585 107.676 70.0106 107.56 69.9251 107.473C69.8395 107.387 69.7232 107.339 69.6017 107.338L69.5722 107.338C69.512 107.338 69.4525 107.349 69.3968 107.372C69.3412 107.395 69.2906 107.429 69.2479 107.471C69.2052 107.513 69.1713 107.564 69.1481 107.619C69.1249 107.675 69.1128 107.734 69.1126 107.794L69.0813 116.776C69.0809 116.898 69.1287 117.014 69.2143 117.1C69.2999 117.187 69.4162 117.235 69.5376 117.236L69.5672 117.236C69.6273 117.236 69.6869 117.224 69.7425 117.201C69.7982 117.179 69.8488 117.145 69.8915 117.103C69.9341 117.06 69.9681 117.01 69.9913 116.955C70.0145 116.899 70.0265 116.84 70.0267 116.779L70.0581 107.798Z" stroke="#FBA393" stroke-width="2"/>
<path d="M128.714 104.369C128.554 99.5692 126.631 95.712 122.948 92.7968C122.2 92.2027 121.461 91.5937 120.732 90.97C119.094 89.5682 118.093 87.853 117.728 85.8242C117.614 85.1775 117.6 84.1401 117.689 82.7121C117.751 81.6747 117.796 80.6357 117.822 79.5951C117.937 74.6774 115.752 71.3224 111.268 69.53C108.957 68.6043 106.769 67.4635 104.704 66.1077C103.525 65.3362 102.703 64.6009 102.237 63.9017C101.603 62.9529 101.244 61.8663 101.159 60.6419C101.096 59.7522 101.07 58.4785 101.08 56.8207C101.086 55.7242 101.213 54.7492 101.459 53.8957C104.029 51.8702 105.8 49.4032 106.772 46.4946C107.445 44.4823 107.552 42.401 107.092 40.2508C106.137 35.7763 103.512 32.3934 99.2184 30.102C97.5212 29.1959 96.6694 27.7614 96.6628 25.7982C96.6497 22.266 95.3103 19.3738 92.6446 17.1218C89.5916 14.5383 86.1628 12.8854 82.358 12.1632C79.63 11.6478 77.2647 11.6871 75.2622 12.2813C72.9183 12.9773 70.8748 14.379 69.1316 16.4866C69.1021 16.5227 69.0648 16.5517 69.0227 16.5717C68.9805 16.5916 68.9345 16.602 68.8879 16.602C68.8412 16.602 68.7952 16.5916 68.753 16.5717C68.7109 16.5517 68.6737 16.5227 68.6441 16.4866C67.5936 15.226 66.4135 14.3347 65.1036 13.8128C61.7913 12.4898 58.3952 12.2584 54.9155 13.1184C51.7902 13.8899 49.2953 15.3573 47.4307 17.5207C46.6231 18.453 45.9469 19.6414 45.4019 21.0858C44.9161 22.3792 44.5271 23.7055 44.2349 25.0645C43.5225 28.4196 41.8844 31.2214 39.3205 33.4701C37.1802 35.3512 35.9048 36.5379 35.4944 37.0303C32.645 40.4576 32.686 43.9669 35.6175 47.5583C36.5334 48.6777 38.1551 49.8661 40.4826 51.1234L42.1864 54.0779C37.6365 56.6221 35.0857 60.4925 34.5342 65.6892C34.3077 67.8394 34.0845 69.315 33.8645 70.116C33.4706 71.5506 32.7254 72.7751 31.629 73.7895C30.3487 74.9713 29.0716 76.1547 27.7979 77.3398C25.2045 79.7592 24.0654 82.7646 24.3805 86.356C24.4921 87.6363 24.6202 88.9166 24.7646 90.1969C25.0305 92.5769 24.2377 94.4908 22.3862 95.9385C20.8991 97.1006 19.8339 98.6402 19.1904 100.557C18.7735 101.811 18.5569 103.615 18.5404 105.969C18.5207 109.488 18.7046 113.001 19.0919 116.507L18.7029 117.511C16.8613 115.647 15.6467 114.324 15.059 113.542C8.05026 104.203 3.69071 93.9951 1.98037 82.9189C-1.17112 62.5196 3.27545 44.282 15.32 28.2062C17.3291 25.5209 19.4793 23.0456 21.7707 20.7805C30.8017 11.848 41.4297 5.87824 53.6549 2.8712C61.271 0.996722 69.1677 0.530566 77.3452 1.47273C80.6575 1.85353 83.8779 2.47398 87.0064 3.33407C97.8988 6.33455 107.485 11.8004 115.764 19.7316C122.234 25.9328 127.291 33.1287 130.935 41.3193C140.278 62.3095 139.919 83.1011 129.857 103.694C129.739 103.937 129.358 104.162 128.714 104.369ZM115.843 51.276C116.437 51.4763 116.927 51.2416 117.315 50.5719C118.818 48.0014 119.048 45.3752 118.004 42.6932C117.607 41.6755 117.065 41.5918 116.379 42.442C114.662 44.5693 114.137 47.1299 114.804 50.1238C114.935 50.7048 115.281 51.0889 115.843 51.276ZM122.894 71.091C123.521 71.6228 124.199 71.6983 124.928 71.3175C126.553 70.4705 127.784 69.228 128.621 67.5899C130.423 64.0609 131.219 60.307 131.009 56.3283C130.842 53.1439 129.637 52.6006 127.395 54.6983C123.695 58.1551 121.796 62.6279 121.697 68.1168C121.674 69.4069 122.073 70.3983 122.894 71.091ZM12.6314 87.9958C13.4718 87.9695 14.1431 87.6248 14.6454 86.9617C15.906 85.3006 16.8219 83.4885 17.3931 81.5254C17.7805 80.2057 18.0956 78.8384 18.3385 77.4235C18.5749 76.0283 18.6439 74.6184 18.5454 73.1936C18.4994 72.5797 18.3139 72.1464 17.9889 71.8936C17.4834 71.4964 16.9072 71.6015 16.2605 72.2088C12.8563 75.4062 11.0934 79.4277 10.972 84.2731C10.9457 85.271 11.0639 86.2001 11.3265 87.0601C11.5234 87.7068 11.9584 88.0187 12.6314 87.9958Z" fill="#FDE8E1"/>
<path d="M101.459 53.8957C101.994 52.9601 101.71 52.4168 100.607 52.2658C100.958 49.8956 100.205 48.0556 98.3469 46.7457C97.0567 45.8364 95.655 45.1634 94.1416 44.7268C94.0791 44.7088 94.0219 44.6709 93.9759 44.6171C93.93 44.5633 93.897 44.4957 93.8806 44.4215C93.8577 44.3033 93.8166 44.1983 93.7575 44.1064C93.6755 43.9751 93.5212 43.8881 93.2947 43.8454C91.1182 43.435 89.3635 43.0001 88.0307 42.5405C86.1398 41.8872 84.5083 40.6873 83.136 38.9409C82.358 37.9462 80.9661 35.6778 78.9603 32.1357C77.7851 30.0609 76.5721 28.6149 75.3213 27.7974C74.2249 27.0818 73.1678 26.7847 72.1502 26.9062C69.9868 27.1622 68.1484 28.239 66.6351 30.1364C65.4828 31.5841 64.4881 33.1271 63.651 34.7652C62.3871 37.2371 61.6124 38.6504 61.3268 39.0049C60.0826 40.5708 58.4855 41.751 56.5355 42.5454C52.7275 44.0982 48.8111 45.3227 44.7864 46.2189C43.3518 47.0034 42.0781 47.944 40.9652 49.0404C40.8995 49.106 40.8503 49.1809 40.824 49.2554C40.7977 49.33 40.7954 49.4008 40.8175 49.459C40.8536 49.5509 40.916 49.6313 41.0046 49.7003L40.4827 51.1233C38.1552 49.866 36.5335 48.6777 35.6176 47.5582C32.686 43.9669 32.645 40.4575 35.4945 37.0303C35.9048 36.5379 37.1802 35.3511 39.3206 33.4701C41.8844 31.2214 43.5225 28.4195 44.2349 25.0645C44.5271 23.7054 44.9161 22.3792 45.4019 21.0858C45.9469 19.6413 46.6231 18.453 47.4307 17.5206C49.2953 15.3573 51.7903 13.8899 54.9155 13.1184C58.3952 12.2583 61.7913 12.4898 65.1036 13.8127C66.4135 14.3347 67.5936 15.226 68.6441 16.4866C68.6737 16.5226 68.7109 16.5517 68.7531 16.5716C68.7952 16.5916 68.8413 16.6019 68.8879 16.6019C68.9345 16.6019 68.9806 16.5916 69.0227 16.5716C69.0649 16.5517 69.1021 16.5226 69.1316 16.4866C70.8748 14.379 72.9183 12.9772 75.2623 12.2813C77.2648 11.6871 79.63 11.6477 82.358 12.1631C86.1628 12.8853 89.5917 14.5382 92.6447 17.1218C95.3103 19.3738 96.6497 22.2659 96.6628 25.7982C96.6694 27.7613 97.5212 29.1959 99.2184 30.102C103.512 32.3933 106.137 35.7763 107.092 40.2507C107.552 42.401 107.445 44.4823 106.772 46.4946C105.8 49.4032 104.029 51.8702 101.459 53.8957ZM50.8481 21.2335C49.9782 22.481 49.3593 23.8367 48.9917 25.3009C48.624 26.7519 48.4369 27.4856 48.4303 27.502C47.6195 29.9706 46.418 32.2423 44.8258 34.3171C43.992 35.407 42.8315 36.2096 41.3444 36.725C40.1889 37.1255 38.7296 37.7821 36.9668 38.6947C36.8847 38.7374 36.8108 38.7866 36.7452 38.8424C36.1838 39.3184 36.2397 39.4202 36.9126 39.1477C38.8265 38.3697 40.7584 37.6376 42.7084 36.9515C43.8804 36.5379 44.6978 36.011 45.1607 35.3709C46.7692 33.132 48.107 30.4056 49.1739 27.1918C49.1772 27.1819 49.3643 26.4925 49.7352 25.1236C50.5789 22.0148 52.5043 19.7513 55.5113 18.3331C56.0595 18.0771 55.9939 17.9753 55.3143 18.0278C55.2126 18.0377 55.1125 18.059 55.014 18.0919C53.2872 18.6795 51.8986 19.7267 50.8481 21.2335ZM80.019 19.1161C84.0733 20.3274 87.1492 22.6943 89.247 26.2168C89.5982 26.8077 89.8412 27.5824 89.9758 28.541C90.6422 33.2945 93.1535 36.812 97.5098 39.0935C99.335 40.0456 101.034 41.1798 102.606 42.4962C103.174 42.9722 103.36 42.8441 103.163 42.1121C103.075 41.7842 102.86 41.5045 102.567 41.334C100.371 40.0538 98.3157 38.849 96.4018 37.7197C93.6607 36.1013 91.8092 33.8279 90.8473 30.8997C90.8408 30.88 90.6504 30.015 90.2761 28.3046C89.8888 26.5385 89.1304 24.8922 88.0011 23.3657C86.0249 20.7 83.4036 19.1752 80.1372 18.7911C80.0584 18.7845 79.9846 18.7878 79.9156 18.8009C79.5512 18.883 79.5857 18.9881 80.019 19.1161ZM80.5853 23.1687C81.9903 24.1896 83.1048 25.3354 83.9288 26.6058C84.0062 26.7284 84.0522 26.8849 84.0618 27.0588C84.0881 27.5512 84.2309 28.065 84.4902 28.6001C84.9038 29.4438 85.0581 30.3974 84.9531 31.461C84.917 31.8221 85.1582 32.912 85.6769 34.7307C85.8279 35.2527 86.0298 35.3758 86.2826 35.1C86.3298 35.0498 86.3638 34.9839 86.3818 34.9076C86.3998 34.8314 86.4012 34.7471 86.386 34.6618C86.1792 33.5489 86.0265 32.4278 85.9281 31.2985C85.8 29.8935 85.5702 28.8036 85.2387 28.0289C84.5066 26.3185 83.466 24.7953 82.1167 23.4592C81.5751 22.9241 81.1417 22.6336 80.8167 22.5876C79.9796 22.4793 79.9025 22.673 80.5853 23.1687ZM50.9417 39.8076C50.3737 40.4149 49.6827 40.8022 48.8686 40.9697C46.9186 41.3669 44.9473 41.8708 42.9546 42.4814C40.637 43.1938 39.2483 44.7317 38.7887 47.0954C38.6607 47.7585 38.7937 48.3231 39.1876 48.7893C39.2762 48.8943 39.3796 48.9501 39.4978 48.9567C39.5286 48.9589 39.5594 48.9527 39.588 48.9386C39.6167 48.9245 39.6426 48.9027 39.664 48.8747C39.6855 48.8468 39.7019 48.8133 39.7123 48.7765C39.7227 48.7396 39.7268 48.7004 39.7244 48.6612C39.5701 46.2681 40.5713 44.7203 42.7281 44.0177C44.9899 43.2791 47.2436 42.5191 49.489 41.7378C50.1554 41.5048 50.6922 41.1338 51.0992 40.625C53.2889 37.8805 54.7678 34.8013 55.5359 31.3872C55.9922 29.3518 56.3747 28.0469 56.6833 27.4724C57.4909 25.9689 58.6562 24.7461 60.1794 23.8039C60.5077 23.6004 60.7868 23.3607 61.0166 23.085C61.312 22.7304 61.2496 22.6484 60.8294 22.8388C58.63 23.8367 57.0116 25.3797 55.9742 27.4675C55.7542 27.914 55.5228 28.5607 55.2799 29.4076C55.0895 30.0773 54.8941 30.7438 54.6939 31.4069C54.684 31.4364 54.4526 32.3687 53.9996 34.2038C53.4743 36.3114 52.455 38.1793 50.9417 39.8076ZM64.6949 28.0387C64.1533 28.8299 64.2321 28.7987 64.9313 27.9452C65.2727 27.5282 65.2235 27.525 64.7836 27.9353C64.7507 27.9681 64.7212 28.0026 64.6949 28.0387ZM58.4067 34.1349C58.4494 34.148 58.4905 34.1332 58.5299 34.0906C58.5627 34.0544 58.5807 34.0019 58.584 33.933C58.6398 33.063 58.7383 32.1997 58.8795 31.3429C58.9582 30.8439 58.8663 30.6486 58.6037 30.7569C58.5384 30.7828 58.4791 30.8286 58.431 30.8904C58.383 30.9523 58.3475 31.0281 58.3279 31.1114L57.673 33.805C57.6527 33.888 57.6542 33.9724 57.6772 34.0459C57.7003 34.1194 57.7436 34.1782 57.8011 34.2137C57.9521 34.3089 58.1064 34.2859 58.2639 34.1447C58.279 34.1317 58.3003 34.1239 58.3255 34.1221C58.3508 34.1204 58.3789 34.1248 58.4067 34.1349ZM52.8621 34.8243C53.1214 34.5419 53.2445 34.2416 53.2314 33.9231C53.2216 33.7459 53.1477 33.7196 53.0098 33.8443C49.9831 36.6446 46.4426 38.4829 42.3883 39.3595C40.8421 39.691 39.3567 40.1933 37.9319 40.8663C37.8983 40.8815 37.8677 40.903 37.8424 40.9291C37.817 40.9552 37.7975 40.9853 37.7853 41.0173C37.7731 41.0493 37.7684 41.0824 37.7716 41.1141C37.7748 41.1459 37.7859 41.1756 37.8039 41.2011C37.9188 41.3652 38.124 41.4013 38.4194 41.3094C39.9558 40.8269 41.5003 40.3755 43.0531 39.9553C43.0826 39.9454 43.69 39.7993 44.875 39.517C48.0003 38.7718 50.6626 37.2076 52.8621 34.8243ZM93.5852 42.5848C95.9357 43.6057 98.1121 44.9041 100.115 46.4798C100.171 46.5241 100.215 46.583 100.245 46.6516C100.274 46.7203 100.287 46.7965 100.282 46.8738C100.239 47.5041 100.495 47.8832 101.05 48.0113C101.082 48.0183 101.114 48.0184 101.146 48.0115C101.178 48.0047 101.208 47.991 101.234 47.9714C101.26 47.9518 101.282 47.9268 101.297 47.898C101.313 47.8692 101.323 47.8373 101.326 47.8044C101.415 46.8163 101.077 46.0564 100.312 45.5245C98.5028 44.2672 96.3575 43.1576 93.8757 42.1958C93.7707 42.1564 93.6705 42.14 93.5753 42.1465C92.9549 42.1695 92.9582 42.3156 93.5852 42.5848Z" fill="#FD904A"/>
<path d="M50.8479 21.2335C51.8984 19.7267 53.287 18.6795 55.0138 18.0919C55.1123 18.059 55.2124 18.0377 55.3142 18.0278C55.9937 17.9753 56.0594 18.0771 55.5111 18.3331C52.5041 19.7513 50.5787 22.0148 49.735 25.1236C49.3641 26.4925 49.177 27.1819 49.1737 27.1918C48.1068 30.4056 46.769 33.132 45.1605 35.3709C44.6976 36.011 43.8802 36.5379 42.7082 36.9515C40.7582 37.6376 38.8263 38.3697 36.9124 39.1477C36.2395 39.4202 36.1836 39.3184 36.745 38.8424C36.8107 38.7866 36.8845 38.7374 36.9666 38.6947C38.7295 37.7821 40.1887 37.1255 41.3442 36.725C42.8313 36.2096 43.9918 35.407 44.8256 34.3171C46.4178 32.2423 47.6193 29.9707 48.4301 27.502C48.4367 27.4856 48.6238 26.7519 48.9915 25.3009C49.3591 23.8367 49.978 22.481 50.8479 21.2335Z" fill="#F5B486"/>
<path d="M80.0191 19.1161C79.5858 18.9881 79.5513 18.883 79.9157 18.8009C79.9846 18.7878 80.0585 18.7845 80.1373 18.7911C83.4036 19.1752 86.025 20.7 88.0012 23.3657C89.1305 24.8922 89.8888 26.5385 90.2762 28.3046C90.6504 30.015 90.8408 30.88 90.8474 30.8997C91.8092 33.8279 93.6608 36.1013 96.4019 37.7197C98.3158 38.849 100.371 40.0538 102.567 41.3341C102.861 41.5045 103.075 41.7842 103.163 42.1121C103.36 42.8441 103.174 42.9722 102.606 42.4962C101.034 41.1798 99.3351 40.0456 97.5098 39.0936C93.1536 36.812 90.6422 33.2945 89.9758 28.541C89.8412 27.5824 89.5983 26.8077 89.247 26.2168C87.1493 22.6943 84.0733 20.3274 80.0191 19.1161Z" fill="#F5B486"/>
<path d="M80.5854 23.1687C79.9026 22.673 79.9797 22.4793 80.8168 22.5876C81.1418 22.6336 81.5751 22.9241 82.1168 23.4592C83.466 24.7953 84.5067 26.3185 85.2388 28.0289C85.5703 28.8036 85.8001 29.8935 85.9281 31.2985C86.0266 32.4278 86.1793 33.5489 86.3861 34.6618C86.4013 34.7471 86.3999 34.8314 86.3819 34.9076C86.3639 34.9839 86.3299 35.0498 86.2827 35.1C86.0299 35.3758 85.828 35.2527 85.677 34.7307C85.1583 32.912 84.917 31.8221 84.9531 31.461C85.0582 30.3974 84.9039 29.4438 84.4903 28.6001C84.2309 28.065 84.0881 27.5512 84.0619 27.0588C84.0523 26.8849 84.0063 26.7284 83.9289 26.6058C83.1049 25.3353 81.9904 24.1896 80.5854 23.1687Z" fill="#FAA65C"/>
<path d="M50.9415 39.8077C52.4548 38.1794 53.4742 36.3115 53.9994 34.2039C54.4524 32.3688 54.6839 31.4365 54.6937 31.407C54.894 30.7438 55.0893 30.0774 55.2797 29.4077C55.5226 28.5608 55.7541 27.9141 55.974 27.4676C57.0114 25.3798 58.6298 23.8368 60.8293 22.8389C61.2495 22.6485 61.3118 22.7305 61.0164 23.0851C60.7866 23.3608 60.5075 23.6005 60.1793 23.804C58.656 24.7462 57.4907 25.969 56.6831 27.4725C56.3745 28.047 55.9921 29.3519 55.5358 31.3873C54.7676 34.8014 53.2887 37.8806 51.099 40.6251C50.692 41.1339 50.1552 41.5048 49.4888 41.7379C47.2434 42.5192 44.9898 43.2792 42.7279 44.0178C40.5711 44.7204 39.5699 46.2682 39.7242 48.6613C39.7267 48.7005 39.7225 48.7397 39.7121 48.7765C39.7017 48.8134 39.6853 48.8469 39.6638 48.8748C39.6424 48.9028 39.6165 48.9246 39.5878 48.9387C39.5592 48.9528 39.5284 48.959 39.4976 48.9568C39.3795 48.9502 39.2761 48.8944 39.1874 48.7894C38.7935 48.3232 38.6605 47.7586 38.7886 47.0955C39.2482 44.7318 40.6368 43.1939 42.9544 42.4815C44.9471 41.8709 46.9184 41.367 48.8684 40.9698C49.6825 40.8023 50.3735 40.415 50.9415 39.8077Z" fill="#F6CDAA"/>
<path d="M100.607 52.2658C100.486 53.9105 100.192 55.2647 99.7256 56.3283C99.3251 57.2409 99.1643 58.0518 99.2431 58.7608C98.7047 58.7018 98.4486 58.7937 98.4749 59.0366L98.2484 58.7707V58.5639C99.5385 56.2758 100.198 53.8071 100.228 51.1579C100.244 49.5953 99.6764 48.3544 98.5241 47.4352C97.5754 46.6769 96.5118 46.1303 95.3332 45.7954C94.8146 45.6477 93.6557 45.4458 91.8568 45.1898C88.3869 44.6941 84.8956 44.4922 81.383 44.5841C78.4449 44.6629 76.0123 45.779 74.0853 47.9325C73.4452 48.6482 72.81 48.6433 72.1797 47.9178C70.4858 45.9579 68.3011 44.8631 65.6256 44.6333C61.3382 44.2624 56.6619 44.978 51.5965 46.7803C50.1193 46.8394 48.798 47.3548 47.6326 48.3265L47.0958 47.5632C46.715 46.6933 45.9452 46.2452 44.7864 46.2189C48.8111 45.3227 52.7275 44.0982 56.5355 42.5455C58.4855 41.751 60.0826 40.5709 61.3268 39.005C61.6124 38.6504 62.3871 37.2372 63.651 34.7652C64.4881 33.1271 65.4828 31.5842 66.635 30.1365C68.1484 28.239 69.9868 27.1623 72.1501 26.9062C73.1678 26.7848 74.2249 27.0819 75.3213 27.7975C76.5721 28.6149 77.7851 30.061 78.9603 32.1357C80.9661 35.6779 82.358 37.9463 83.136 38.941C84.5082 40.6874 86.1398 41.8873 88.0307 42.5405C89.3635 43.0001 91.1181 43.4351 93.2946 43.8455C93.5211 43.8881 93.6754 43.9751 93.7575 44.1064C93.8166 44.1984 93.8576 44.3034 93.8806 44.4216C93.897 44.4958 93.9299 44.5634 93.9759 44.6172C94.0218 44.6709 94.0791 44.7089 94.1416 44.7269C95.6549 45.1635 97.0567 45.8365 98.3469 46.7458C100.205 48.0556 100.958 49.8957 100.607 52.2658ZM60.012 42.2451C62.4216 41.7888 64.7343 41.2619 66.9502 40.6644C67.6396 40.4773 67.9925 40.108 68.0089 39.5565C68.0114 39.4895 67.9859 39.4241 67.938 39.3743C67.8901 39.3246 67.8237 39.2945 67.7528 39.2906C66.5283 39.2085 65.3597 39.3874 64.2468 39.8273C62.9238 40.3493 62.2443 40.6168 62.2082 40.63C61.2036 40.9714 60.401 41.3226 59.8002 41.6837C58.8088 42.2714 58.8794 42.4585 60.012 42.2451Z" fill="#FDB9A8"/>
<path d="M64.7834 27.9354C65.2233 27.5251 65.2725 27.5283 64.9311 27.9453C64.2319 28.7988 64.1531 28.83 64.6947 28.0388C64.721 28.0027 64.7505 27.9682 64.7834 27.9354Z" fill="#E27136"/>
<path d="M58.2638 34.1447C58.1062 34.2859 57.9519 34.3089 57.8009 34.2137C57.7435 34.1782 57.7001 34.1194 57.6771 34.0459C57.6541 33.9724 57.6526 33.888 57.6729 33.805L58.3278 31.1114C58.3474 31.0281 58.3828 30.9523 58.4309 30.8905C58.479 30.8286 58.5383 30.7828 58.6036 30.7569C58.8662 30.6486 58.9581 30.8439 58.8793 31.3429C58.7382 32.1997 58.6397 33.063 58.5839 33.933C58.5806 34.0019 58.5626 34.0545 58.5297 34.0906C58.4903 34.1332 58.4493 34.148 58.4066 34.1349C58.3788 34.1248 58.3506 34.1204 58.3254 34.1221C58.3002 34.1239 58.2789 34.1317 58.2638 34.1447Z" fill="#E27136"/>
<path d="M52.862 34.8243C50.6625 37.2076 48.0002 38.7718 44.8749 39.517C43.6898 39.7993 43.0825 39.9454 43.053 39.9553C41.5002 40.3755 39.9557 40.8269 38.4193 41.3094C38.1239 41.4013 37.9187 41.3652 37.8038 41.2011C37.7857 41.1756 37.7747 41.1459 37.7715 41.1141C37.7683 41.0824 37.773 41.0493 37.7852 41.0173C37.7974 40.9853 37.8169 40.9552 37.8423 40.9291C37.8676 40.903 37.8982 40.8815 37.9318 40.8663C39.3566 40.1933 40.842 39.691 42.3882 39.3595C46.4425 38.4829 49.983 36.6446 53.0097 33.8443C53.1476 33.7196 53.2215 33.7459 53.2313 33.9231C53.2444 34.2416 53.1213 34.5419 52.862 34.8243Z" fill="#F6C197"/>
<path d="M60.0118 42.2451C58.8793 42.4584 58.8087 42.2713 59.8001 41.6837C60.4008 41.3226 61.2035 40.9713 62.208 40.6299C62.2441 40.6168 62.9237 40.3492 64.2467 39.8273C65.3595 39.3874 66.5282 39.2085 67.7527 39.2905C67.8235 39.2945 67.89 39.3246 67.9379 39.3743C67.9858 39.424 68.0112 39.4894 68.0087 39.5564C67.9923 40.108 67.6394 40.4773 66.95 40.6644C64.7341 41.2619 62.4214 41.7887 60.0118 42.2451Z" fill="#FB9684"/>
<path d="M93.5853 42.5848C92.9583 42.3156 92.955 42.1695 93.5754 42.1465C93.6706 42.14 93.7708 42.1564 93.8758 42.1958C96.3576 43.1576 98.5029 44.2672 100.312 45.5245C101.077 46.0564 101.415 46.8163 101.326 47.8044C101.323 47.8373 101.313 47.8692 101.298 47.898C101.282 47.9268 101.26 47.9518 101.234 47.9714C101.208 47.991 101.178 48.0047 101.146 48.0115C101.115 48.0184 101.082 48.0183 101.05 48.0113C100.496 47.8832 100.24 47.5041 100.282 46.8738C100.287 46.7965 100.274 46.7203 100.245 46.6516C100.216 46.583 100.171 46.5241 100.115 46.4798C98.1122 44.9041 95.9358 43.6057 93.5853 42.5848Z" fill="#F6C197"/>
<path d="M115.842 51.276C115.281 51.0889 114.935 50.7048 114.803 50.1237C114.137 47.1298 114.662 44.5692 116.379 42.442C117.065 41.5917 117.607 41.6754 118.004 42.6931C119.048 45.3752 118.818 48.0014 117.315 50.5718C116.927 51.2415 116.437 51.4762 115.842 51.276Z" fill="#F7B093"/>
<path d="M98.2481 58.5639C97.8673 58.7215 97.5735 58.9611 97.3667 59.2828C97.0614 59.7621 96.8546 60.0543 96.7463 60.1593C96.372 60.5204 95.9978 60.8799 95.6235 61.2377C95.563 61.2953 95.5168 61.3637 95.4893 61.4368C95.4619 61.5098 95.4538 61.5852 95.466 61.6563L95.6482 62.7248C95.2772 62.7905 95.0458 62.6592 94.9539 62.3309C94.7733 61.6678 94.4352 61.589 93.9395 62.0945L92.0732 62.976C88.6099 64.3876 85.0497 64.7618 81.3926 64.0987C79.7151 63.1073 78.4135 61.8171 77.4878 60.2283C76.109 57.8548 75.2078 55.3123 74.7844 52.6007C74.7121 52.1411 74.612 51.7865 74.484 51.5371C74.0178 50.6409 73.5336 50.7607 73.0313 51.8965L72.6423 53.8465C71.7855 57.103 70.1113 59.5422 67.6197 61.1639C65.4826 62.5558 62.8054 63.2501 59.5883 63.2468C56.3186 63.2435 53.1606 62.4901 50.1141 60.9866L46.1945 58.5442L43.5896 56.0624C43.4616 55.895 43.2974 55.7719 43.0972 55.6931C43.1924 55.2991 43.0693 55.0529 42.7279 54.9544L42.1862 54.0779L40.4824 51.1234L41.0044 49.7003C41.8842 48.5021 42.9823 47.665 44.2987 47.189C45.1719 46.8706 46.1042 46.9953 47.0956 47.5632L47.6324 48.3265C47.8622 48.7795 47.9672 49.2621 47.9475 49.7742C47.9442 49.9154 47.9705 49.9236 48.0263 49.7988C48.7255 48.3183 49.9155 47.3121 51.5963 46.7803C56.6617 44.978 61.338 44.2624 65.6254 44.6333C68.3008 44.8631 70.4855 45.958 72.1795 47.9178C72.8098 48.6433 73.445 48.6482 74.0851 47.9326C76.0121 45.779 78.4447 44.6629 81.3828 44.5841C84.8954 44.4922 88.3866 44.6941 91.8566 45.1898C93.6555 45.4458 94.8144 45.6477 95.333 45.7954C96.5116 46.1303 97.5752 46.6769 98.5239 47.4352C99.6762 48.3544 100.244 49.5953 100.228 51.1579C100.198 53.8071 99.5383 56.2758 98.2481 58.5639ZM81.24 46.8492C79.7594 46.9083 78.5678 47.4024 77.665 48.3314C76.9789 49.0372 76.5998 50.0352 76.5275 51.3253C76.301 55.4058 77.7553 58.8446 80.8904 61.6415C82.2823 62.541 83.9647 62.8627 85.9377 62.6067C88.5114 62.2751 90.6895 61.676 92.4721 60.8093C95.4496 59.3649 97.0598 56.9799 97.3027 53.6545C97.4997 51.0118 96.4393 49.1948 94.1217 48.2034C94.0659 48.1804 93.8689 48.0868 93.5308 47.9227C92.8676 47.6108 92.6822 47.8685 92.9743 48.6958C92.994 48.8238 92.9349 48.9239 92.7971 48.9962C92.5246 48.2378 92.047 47.7175 91.3641 47.4352C90.5434 47.0971 89.6686 46.9231 88.7395 46.9132C86.2643 46.388 83.7645 46.3667 81.24 46.8492ZM48.0017 53.3738C47.4108 54.1124 47.4387 54.8248 48.0854 55.5109C48.1609 56.2823 48.54 56.934 49.2229 57.4658C51.8393 59.5175 54.6871 60.8093 57.7663 61.3411C59.9428 61.7187 61.8912 61.6628 63.6114 61.1737C65.65 60.5894 67.3373 59.4568 68.6734 57.776C70.4199 55.57 70.9944 53.0783 70.3969 50.3011C70.0588 48.7352 69.0739 47.7586 67.4424 47.3712C62.3212 46.1631 57.4134 46.5259 52.719 48.4594C50.4211 49.4082 48.8486 51.0463 48.0017 53.3738ZM47.8736 50.8821C47.5815 51.5617 47.4354 52.2724 47.4354 53.0143C47.4351 53.0422 47.4431 53.069 47.4578 53.0892C47.4725 53.1093 47.4927 53.1213 47.5142 53.1226L47.593 53.1325C47.6283 53.1371 47.6666 53.1207 47.7009 53.0863C47.7353 53.052 47.7634 53.002 47.7801 52.9454L48.2873 51.1136C48.3121 51.0222 48.3245 50.9339 48.3236 50.8543C48.3228 50.7747 48.3088 50.7054 48.2824 50.6507C48.174 50.4308 48.0378 50.5079 47.8736 50.8821Z" fill="#271822"/>
<path d="M44.7862 46.2189C45.945 46.2452 46.7149 46.6933 47.0957 47.5632C46.1043 46.9953 45.1719 46.8706 44.2987 47.189C42.9823 47.665 41.8842 48.5021 41.0044 49.7003C40.9158 49.6314 40.8534 49.551 40.8173 49.459C40.7952 49.4009 40.7975 49.33 40.8238 49.2555C40.8501 49.1809 40.8993 49.1061 40.965 49.0405C42.0779 47.944 43.3516 47.0035 44.7862 46.2189Z" fill="#F2C7BB"/>
<path d="M51.5965 46.7802C49.9157 47.312 48.7257 48.3182 48.0265 49.7987C47.9707 49.9235 47.9444 49.9153 47.9477 49.7741C47.9674 49.262 47.8624 48.7794 47.6326 48.3264C48.798 47.3547 50.1193 46.8393 51.5965 46.7802Z" fill="#F9D6D5"/>
<path d="M88.7397 46.9132C89.5342 47.4549 90.4074 47.8275 91.3594 48.031C91.4311 48.0469 91.4958 48.084 91.5444 48.1371C91.593 48.1901 91.6231 48.2564 91.6302 48.3265L91.8272 50.05L91.4776 50.0697C88.5428 48.356 85.5029 48.1197 82.358 49.3606C80.8512 50.2207 79.9188 51.4763 79.561 53.1276C79.3542 54.096 79.2639 54.8363 79.2902 55.3484C79.3329 56.1198 79.6562 56.8322 80.2602 57.4855C81.0416 58.3325 81.5521 58.1929 81.7917 57.0669C82.1791 55.2121 83.0933 53.6643 84.5345 52.4234C84.2817 53.5035 84.3884 54.3849 84.8545 55.0677C85.2616 55.6652 85.8525 55.9853 86.6273 56.0279C87.7237 56.0903 88.2013 55.3599 88.0602 53.8367C87.9683 52.8256 87.507 52.2133 86.6765 51.9999C87.0639 51.6355 87.4512 51.5896 87.8386 51.8621C87.9741 51.9567 88.128 51.9974 88.267 51.9753C89.1533 51.8374 89.9773 52.0098 90.7389 52.4923C90.3253 52.4923 90.2383 52.6663 90.478 53.0143C90.7898 53.4608 90.78 53.9302 90.4484 54.4226C90.3698 54.5399 90.3154 54.6667 90.2891 54.7942C90.2627 54.9218 90.265 55.047 90.2958 55.1613L91.4234 59.5143C91.438 59.5665 91.4784 59.6128 91.5381 59.6458C91.5979 59.6788 91.6736 59.6966 91.7533 59.6964L92.6052 59.7112C92.382 60.0264 92.4362 60.1774 92.7677 60.1643C92.8793 60.161 92.9942 60.1199 93.1124 60.0411C94.6291 59.0563 95.6746 57.9319 96.2491 56.6681C96.4789 56.1592 96.5643 55.3484 96.5052 54.2355C96.9943 52.8666 96.863 51.5666 96.1112 50.3355C95.3857 49.1439 94.3402 48.5973 92.9745 48.6958C92.6824 47.8685 92.8678 47.6108 93.531 47.9227C93.8691 48.0868 94.0661 48.1804 94.1219 48.2034C96.4395 49.1948 97.4999 51.0118 97.3029 53.6545C97.06 56.9799 95.4498 59.3649 92.4723 60.8093C90.6897 61.676 88.5116 62.2751 85.9379 62.6066C83.9649 62.8627 82.2825 62.541 80.8906 61.6415C81.2123 61.4872 81.2632 61.3067 81.0432 61.0998C79.1293 59.291 77.9065 57.0801 77.3747 54.467C77.0103 52.6975 76.8921 51.3696 77.0201 50.4833C77.2664 48.7795 78.4744 47.8193 80.6443 47.6026C81.1893 47.5468 81.3879 47.2957 81.2402 46.8492C83.7647 46.3667 86.2645 46.388 88.7397 46.9132Z" fill="#F98D7D"/>
<path d="M48.0854 55.5108L49.7941 57.1654C49.8479 57.2172 49.9186 57.2492 49.9951 57.2563C50.0717 57.2634 50.1499 57.2453 50.2176 57.2048C50.8282 56.8338 50.7149 56.1034 49.8778 55.0135C49.7561 54.8549 49.5914 54.7348 49.4036 54.6676C49.2158 54.6003 49.0129 54.5888 48.8191 54.6343C48.284 54.7591 48.0116 54.3389 48.0017 53.3737C48.8487 51.0462 50.4211 49.4081 52.7191 48.4594C57.4135 46.5258 62.3213 46.1631 67.4424 47.3711C69.074 47.7585 70.0588 48.7351 70.3969 50.301C70.9944 53.0783 70.4199 55.5699 68.6735 57.776C67.3374 59.4568 65.65 60.5893 63.6114 61.1737C61.8912 61.6628 59.9429 61.7186 57.7664 61.3411C54.6871 60.8093 51.8393 59.5175 49.2229 57.4657C48.5401 56.9339 48.1609 56.2823 48.0854 55.5108ZM58.6724 53.9991L60.3122 53.4968C60.1448 55.4074 60.7669 56.3594 62.1785 56.3529C63.1075 56.3529 63.7476 55.9671 64.0989 55.1957C64.4699 54.3848 64.355 53.4952 63.7542 52.5268C64.5979 52.0737 65.4695 51.8259 66.3689 51.7832C66.4392 51.7787 66.5109 51.795 66.5767 51.8305C66.6424 51.8659 66.6999 51.9193 66.7432 51.9851L67.4523 53.0487C67.5058 53.1291 67.5691 53.1956 67.6358 53.2415C67.7025 53.2874 67.77 53.311 67.8314 53.3097C68.0415 53.3031 68.1072 53.075 68.0284 52.6253C67.6673 50.5866 66.4543 49.4114 64.3894 49.0995C62.7973 48.8599 61.2987 49.0339 59.8936 49.6215C58.6396 50.1435 57.6909 50.672 57.0475 51.2071C56.1939 51.9227 55.6325 52.9174 55.3634 54.1911C55.1697 55.1235 55.4881 55.4058 56.3187 55.0381L58.6724 53.9991Z" fill="#FB9684"/>
<path d="M81.2402 46.8492C81.388 47.2957 81.1893 47.5468 80.6444 47.6026C78.4745 47.8193 77.2664 48.7795 77.0202 50.4833C76.8922 51.3697 77.0103 52.6975 77.3747 54.467C77.9065 57.0801 79.1294 59.291 81.0433 61.0999C81.2632 61.3067 81.2123 61.4872 80.8906 61.6415C77.7555 58.8446 76.3013 55.4059 76.5278 51.3253C76.6 50.0352 76.9792 49.0372 77.6653 48.3314C78.568 47.4024 79.7597 46.9083 81.2402 46.8492Z" fill="#FCBFAF"/>
<path d="M88.7397 46.9132C89.6688 46.923 90.5437 47.097 91.3644 47.4351C92.0472 47.7175 92.5248 48.2378 92.7973 48.9961L93.5901 53.1275C93.4489 55.35 93.1206 57.5445 92.6052 59.7112L91.7534 59.6964C91.6737 59.6965 91.5979 59.6787 91.5382 59.6457C91.4784 59.6127 91.438 59.5664 91.4234 59.5142L90.2958 55.1612C90.265 55.0469 90.2627 54.9217 90.2891 54.7941C90.3155 54.6666 90.3698 54.5398 90.4484 54.4226C90.78 53.9302 90.7898 53.4607 90.478 53.0142C90.2383 52.6663 90.3253 52.4923 90.739 52.4923L92.3196 54.0582C92.4838 54.2223 92.5839 54.201 92.62 53.9942C92.9089 52.3659 92.6446 51.0511 91.8272 50.0499L91.6302 48.3264C91.6231 48.2563 91.5931 48.1901 91.5444 48.137C91.4958 48.084 91.4311 48.0469 91.3594 48.031C90.4074 47.8274 89.5342 47.4548 88.7397 46.9132Z" fill="#F2C7BB"/>
<path d="M91.4775 50.0697C91.379 50.4997 91.1837 50.6474 90.8915 50.5129C88.0618 49.1899 85.2172 48.8058 82.3579 49.3606C85.5028 48.1197 88.5427 48.3561 91.4775 50.0697Z" fill="#CF4945"/>
<path d="M96.5053 54.2355C96.0391 53.9269 95.6682 53.5248 95.3924 53.0291C94.7359 51.8604 94.1351 51.8932 93.5902 53.1276L92.7974 48.9962C92.9352 48.9239 92.9943 48.8238 92.9746 48.6958C94.3403 48.5973 95.3858 49.1439 96.1113 50.3355C96.8631 51.5666 96.9944 52.8666 96.5053 54.2355Z" fill="#F5988B"/>
<path d="M63.7544 52.5268C62.717 52.0311 61.6583 52.0327 60.5783 52.5317C59.6197 52.6105 58.9845 53.0996 58.6726 53.9991L56.3188 55.0381C55.4883 55.4058 55.1698 55.1235 55.3635 54.1911C55.6327 52.9174 56.1941 51.9227 57.0476 51.2071C57.6911 50.672 58.6398 50.1435 59.8938 49.6215C61.2988 49.0339 62.7974 48.8599 64.3896 49.0995C66.4545 49.4114 67.6675 50.5866 68.0286 52.6252C68.1074 53.075 68.0417 53.3031 67.8316 53.3097C67.7702 53.3109 67.7026 53.2874 67.636 53.2415C67.5693 53.1956 67.5059 53.129 67.4525 53.0487L66.7434 51.9851C66.7001 51.9193 66.6426 51.8659 66.5768 51.8305C66.5111 51.795 66.4394 51.7787 66.3691 51.7832C65.4696 51.8259 64.5981 52.0737 63.7544 52.5268Z" fill="#E86E5F"/>
<path d="M91.4777 50.0696L91.8273 50.0499C92.6448 51.0512 92.909 52.3659 92.6201 53.9942C92.584 54.201 92.4839 54.2224 92.3198 54.0582L90.7391 52.4923C89.9775 52.0097 89.1535 51.8374 88.2671 51.9753C88.1282 51.9973 87.9742 51.9566 87.8387 51.862C87.4514 51.5895 87.064 51.6355 86.6766 51.9999C85.8953 51.7799 85.1813 51.9211 84.5346 52.4234C83.0935 53.6643 82.1792 55.2121 81.7918 57.0669C81.5522 58.1929 81.0417 58.3324 80.2604 57.4855C79.6563 56.8322 79.333 56.1198 79.2903 55.3484C79.2641 54.8362 79.3543 54.096 79.5612 53.1275C79.919 51.4763 80.8513 50.2206 82.3581 49.3605C85.2174 48.8057 88.062 49.1898 90.8917 50.5128C91.1839 50.6474 91.3792 50.4997 91.4777 50.0696Z" fill="#E97066"/>
<path d="M47.8738 50.8821C48.038 50.5079 48.1742 50.4307 48.2825 50.6507C48.3089 50.7054 48.3229 50.7747 48.3238 50.8543C48.3246 50.9339 48.3123 51.0221 48.2874 51.1136L47.7803 52.9454C47.7636 53.0019 47.7355 53.052 47.7011 53.0863C47.6668 53.1207 47.6284 53.1371 47.5931 53.1325L47.5143 53.1226C47.4928 53.1213 47.4726 53.1093 47.458 53.0891C47.4433 53.069 47.4353 53.0422 47.4356 53.0143C47.4356 52.2724 47.5816 51.5617 47.8738 50.8821Z" fill="#959E74"/>
<path d="M81.3928 64.0987C80.2931 64.0199 79.3525 63.5636 78.5712 62.7297C76.6803 60.3727 75.4427 57.9106 74.8584 55.3434C74.4809 53.6955 74.2084 52.5925 74.041 52.0344C74.0248 51.9789 73.9847 51.9311 73.9273 51.8988C73.87 51.8665 73.7988 51.8518 73.7258 51.8571L73.0315 51.8965C73.5338 50.7607 74.018 50.6408 74.4841 51.537C74.6122 51.7865 74.7123 52.1411 74.7845 52.6007C75.208 55.3123 76.1091 57.8548 77.4879 60.2283C78.4137 61.8171 79.7153 63.1073 81.3928 64.0987Z" fill="#FDB9A8"/>
<path d="M78.5713 62.7297C78.6402 63.511 78.8733 64.2496 79.2706 64.9456C79.717 67.8706 78.4383 69.4036 75.4346 69.5448C77.2368 69.1147 78.3399 68.0708 78.7437 66.413C78.7819 66.2666 78.7663 66.1034 78.6993 65.9501C78.0428 64.4171 77.3747 62.8889 76.6952 61.3657C76.4063 60.719 76.2143 60.6943 76.1191 61.2918C76.0961 61.4166 76.1043 61.5512 76.1437 61.6956C76.531 63.0809 76.6361 64.5746 76.4588 66.1766C76.3111 67.493 75.666 68.2514 74.5236 68.4516C74.7501 64.1085 74.5745 59.8293 73.9967 55.6142C73.977 55.4566 73.9163 55.3122 73.8145 55.1809C73.46 54.7115 73.2745 54.3963 73.2581 54.2355C73.222 53.9039 73.0168 53.7742 72.6426 53.8464L73.0316 51.8965L73.7259 51.8571C73.7989 51.8518 73.8701 51.8665 73.9274 51.8988C73.9848 51.931 74.0249 51.9789 74.0411 52.0343C74.2085 52.5924 74.4809 53.6954 74.8585 55.3434C75.4428 57.9105 76.6804 60.3726 78.5713 62.7297Z" fill="#F77E6B"/>
<path d="M86.6765 51.9999C87.507 52.2133 87.9682 52.8255 88.0602 53.8366C88.2013 55.3598 87.7237 56.0903 86.6272 56.0279C85.8525 55.9852 85.2616 55.6651 84.8545 55.0677C84.3883 54.3848 84.2817 53.5034 84.5344 52.4234C85.1812 51.9211 85.8951 51.7799 86.6765 51.9999Z" fill="#744B46"/>
<path d="M63.7545 52.5267C64.3553 53.4952 64.4702 54.3848 64.0992 55.1957C63.748 55.9671 63.1078 56.3528 62.1788 56.3528C60.7672 56.3594 60.1451 55.4074 60.3125 53.4968L60.5784 52.5317C61.6585 52.0327 62.7172 52.031 63.7545 52.5267Z" fill="#5A403E"/>
<path d="M96.5052 54.2355C96.5643 55.3484 96.4789 56.1592 96.2491 56.6681C95.6746 57.9319 94.629 59.0563 93.1124 60.0411C92.9942 60.1199 92.8793 60.161 92.7677 60.1642C92.4361 60.1774 92.382 60.0264 92.6052 59.7112C93.1206 57.5446 93.4489 55.35 93.59 53.1276C94.135 51.8932 94.7357 51.8604 95.3923 53.0291C95.6681 53.5248 96.039 53.9269 96.5052 54.2355Z" fill="#BF4633"/>
<path d="M100.607 52.2658C101.71 52.4168 101.994 52.9601 101.459 53.8957C101.212 54.7493 101.086 55.7243 101.08 56.8207C101.07 58.4785 101.096 59.7523 101.158 60.6419C101.244 61.8664 101.603 62.953 102.237 63.9017C102.703 64.6009 103.525 65.3363 104.704 66.1077C106.769 67.4635 108.957 68.6043 111.268 69.5301C115.752 71.3225 117.937 74.6775 117.822 79.5951C117.796 80.6358 117.751 81.6748 117.689 82.7121C117.6 84.1402 117.613 85.1775 117.728 85.8242C118.093 87.853 119.094 89.5682 120.732 90.97C121.461 91.5937 122.199 92.2027 122.948 92.7969C126.631 95.712 128.553 99.5693 128.714 104.369C128.819 105.652 128.276 106.839 127.084 107.929C127.298 103.756 126.288 100.029 124.056 96.7461C123.527 95.9648 122.598 95.0062 121.269 93.8704C120.139 92.9052 119.074 91.8744 118.073 90.778C117.167 89.7866 116.555 88.8854 116.236 88.0746C115.826 87.0339 115.645 85.9309 115.695 84.7655C115.783 82.7138 115.826 80.662 115.823 78.6103C115.819 76.3845 115.223 74.6512 114.035 73.4103C112.955 72.281 111.279 71.2404 109.007 70.2884C107.057 69.471 105.349 68.6027 103.881 67.6835C100.671 65.6777 99.1246 62.7035 99.2428 58.7609C99.164 58.0518 99.3249 57.2409 99.7254 56.3283C100.192 55.2647 100.485 53.9105 100.607 52.2658Z" fill="#F07239"/>
<path d="M60.578 52.5316L60.3121 53.4968L58.6724 53.999C58.9842 53.0996 59.6194 52.6104 60.578 52.5316Z" fill="#9F4035"/>
<path d="M48.0018 53.3738C48.0117 54.3389 48.2841 54.7591 48.8192 54.6344C49.013 54.5888 49.2159 54.6004 49.4037 54.6676C49.5915 54.7349 49.7562 54.855 49.8779 55.0135C50.715 56.1034 50.8283 56.8338 50.2177 57.2048C50.15 57.2454 50.0718 57.2635 49.9952 57.2564C49.9187 57.2492 49.848 57.2173 49.7942 57.1654L48.0855 55.5109C47.4388 54.8248 47.4109 54.1124 48.0018 53.3738Z" fill="#E97066"/>
<path d="M122.894 71.0909C122.073 70.3983 121.674 69.4069 121.697 68.1167C121.796 62.6279 123.695 58.1551 127.395 54.6983C129.637 52.6006 130.841 53.1439 131.009 56.3282C131.219 60.307 130.423 64.0608 128.621 67.5898C127.784 69.228 126.552 70.4705 124.927 71.3175C124.199 71.6983 123.521 71.6227 122.894 71.0909Z" fill="#FAA575"/>
<path d="M42.1862 54.0779L42.7279 54.9544C40.7057 56.5564 39.5058 57.579 39.1283 58.0222C37.1521 60.3234 36.0293 62.9989 35.7601 66.0486C35.5172 68.8456 35.2858 70.5198 35.0658 71.0713C34.383 72.7882 33.3539 74.2638 31.9784 75.4982C31.2233 76.1777 30.465 76.849 29.7034 77.5122C26.2335 80.5291 25.1042 84.3043 26.3155 88.8378C27.1231 91.858 26.3467 94.43 23.9864 96.554C21.7738 98.5401 20.5116 101.094 20.1997 104.216C19.9502 106.708 20.0388 110.483 20.4656 115.542C20.1898 116.116 19.7319 116.438 19.0918 116.507C18.7044 113.001 18.5206 109.488 18.5402 105.969C18.5567 103.615 18.7733 101.811 19.1902 100.557C19.8337 98.6402 20.8989 97.1006 22.386 95.9385C24.2375 94.4908 25.0303 92.5769 24.7644 90.1969C24.62 88.9166 24.492 87.6363 24.3803 86.356C24.0652 82.7646 25.2043 79.7592 27.7977 77.3398C29.0715 76.1547 30.3485 74.9713 31.6288 73.7895C32.7252 72.7751 33.4704 71.5506 33.8643 70.116C34.0843 69.315 34.3075 67.8394 34.534 65.6892C35.0855 60.4925 37.6363 56.6221 42.1862 54.0779Z" fill="#F07239"/>
<path d="M72.6426 53.8465C73.0168 53.7743 73.222 53.904 73.2581 54.2355C73.2745 54.3964 73.46 54.7116 73.8145 55.181C73.9163 55.3123 73.977 55.4567 73.9967 55.6143C74.5745 59.8294 74.7501 64.1085 74.5236 68.4517C73.4731 68.9211 72.3701 69.1493 71.2146 69.1362C71.0832 69.1329 70.9667 69.1411 70.865 69.1608C70.2314 69.2822 70.2478 69.4415 70.9142 69.6384C72.4932 70.1046 74 70.0734 75.4346 69.5449C78.4383 69.4037 79.717 67.8706 79.2706 64.9457C79.6284 64.5846 79.9911 64.5238 80.3588 64.7635C80.5164 64.8652 80.6608 64.9325 80.7921 64.9654C81.2845 65.0835 81.6145 65.3133 81.7819 65.6547C82.4352 66.9646 82.8455 67.7442 83.0129 67.9937C84.024 69.4907 85.4964 70.0619 87.43 69.7074C88.8022 69.4546 89.8953 68.8013 90.7094 67.7475C91.4349 66.8054 92.0488 65.7171 92.5511 64.4828C92.6791 64.1676 92.7021 63.8968 92.62 63.6703C92.5183 63.3978 92.3361 63.1664 92.0735 62.976L93.9397 62.0946C93.119 67.7738 91.5498 73.1461 89.2322 78.2114C87.9289 81.0576 86.1037 83.5279 83.7565 85.6224C78.6616 90.1822 72.9561 91.5281 66.64 89.6602C63.8923 88.8461 60.969 87.2621 57.87 84.9083C53.471 81.0609 50.3114 76.3747 48.3909 70.8498C48.378 70.815 48.3586 70.7849 48.3356 70.7636C48.3126 70.7424 48.2872 70.7312 48.2629 70.7316H48.1644L48.0019 69.993C47.434 67.7475 46.7938 65.8501 46.0815 64.3006C45.3067 62.61 45.0605 60.8635 45.3428 59.0612C46.1603 60.6107 46.9678 62.1487 47.7655 63.6752C48.5928 65.251 49.53 66.7578 50.5773 68.1956C51.7558 69.8108 53.2429 70.6151 55.0386 70.6085C59.1848 70.5954 61.0313 68.5124 60.5783 64.3597C60.5704 64.2901 60.538 64.2255 60.4867 64.1769C60.4355 64.1284 60.3686 64.0989 60.2976 64.0938C57.458 63.8508 54.6791 63.3075 51.961 62.4639C51.137 62.2735 50.4903 61.9829 50.0208 61.5923C49.7155 61.3329 49.7467 61.1311 50.1144 60.9866C53.1608 62.4901 56.3189 63.2435 59.5885 63.2468C62.8057 63.2501 65.4828 62.5558 67.6199 61.1639C70.1115 59.5422 71.7858 57.1031 72.6426 53.8465ZM81.8705 72.2483C77.8786 73.2561 73.8178 73.7009 69.6881 73.5827C68.0073 73.11 66.1541 72.8424 64.1287 72.78C63.7708 72.7702 63.6805 72.9212 63.8578 73.2331C65.3941 75.9151 67.4049 78.0128 69.8899 79.5262C71.8662 80.731 73.8228 81.0708 75.7596 80.5455C77.3255 80.1155 78.7519 79.1323 80.0387 77.5959C81.1943 76.2171 82.0281 74.6316 82.5402 72.8392C82.5993 72.6389 82.6157 72.4633 82.5895 72.3123C82.5172 71.8395 82.2776 71.8182 81.8705 72.2483Z" fill="#FEB9A6"/>
<path d="M42.728 54.9544C43.0694 55.0529 43.1925 55.2991 43.0973 55.6931L41.9894 56.801C40.4563 57.8417 39.3188 59.2139 38.5769 60.9176C37.6052 63.1368 37.162 65.4643 37.2474 67.9001C37.3689 71.3307 36.1953 74.1982 33.7266 76.5027C32.4758 77.6747 31.2793 78.8992 30.1369 80.1762C28.8992 81.5648 28.2115 83.1455 28.0736 84.9182C28.0244 85.532 28.1475 86.4824 28.4429 87.7693C28.6629 88.7114 28.8237 89.6635 28.9255 90.6253C29.0896 92.1354 28.9452 93.4551 28.4922 94.5844C27.9604 95.8942 27.1758 97.0218 26.1384 97.9673C25.0157 98.9915 24.1458 100.127 23.5286 101.375C23.023 102.396 22.6948 103.755 22.5438 105.452C22.291 108.321 22.3369 111.192 22.6816 114.064C22.1071 114.81 21.3685 115.302 20.4657 115.542C20.039 110.483 19.9503 106.708 20.1998 104.216C20.5117 101.094 21.7739 98.5401 23.9865 96.554C26.3469 94.4301 27.1232 91.858 26.3157 88.8378C25.1043 84.3043 26.2336 80.5291 29.7035 77.5122C30.4651 76.8491 31.2235 76.1777 31.9785 75.4982C33.354 74.2638 34.3832 72.7882 35.066 71.0713C35.2859 70.5198 35.5174 68.8456 35.7603 66.0486C36.0295 62.9989 37.1522 60.3235 39.1284 58.0222C39.506 57.579 40.7058 56.5564 42.728 54.9544Z" fill="#FAF3F0"/>
<path d="M43.0972 55.6931C43.2975 55.7718 43.4616 55.8949 43.5896 56.0624C43.3401 56.1313 43.217 56.2954 43.2203 56.5548C42.8362 56.8404 42.4259 56.9225 41.9893 56.801L43.0972 55.6931Z" fill="#AE4035"/>
<path d="M43.5898 56.0624L46.1947 58.5442C46.2078 58.7346 46.1192 58.8232 45.9288 58.8101C45.5776 58.728 45.269 58.5721 45.0031 58.3423C44.9801 58.3229 44.9528 58.3086 44.9238 58.3009C44.8948 58.2932 44.8651 58.2922 44.8375 58.2981C44.8098 58.3041 44.7851 58.3167 44.7659 58.3347C44.7466 58.3528 44.7333 58.3757 44.7273 58.4014L44.5747 59.14C43.9476 62.1076 43.2829 65.0671 42.5804 68.0183C42.321 69.1082 42.2882 70.3409 42.4819 71.7164C42.9743 75.2388 43.3288 77.4482 43.5455 78.3444C43.9132 79.8709 43.8705 81.3317 43.4175 82.7269C43.2435 83.262 42.7642 84.1467 41.9796 85.381C41.2016 86.6055 40.7535 87.5083 40.6353 88.0893C40.3366 89.5699 40.3054 90.709 40.5417 91.5067C41.218 93.7719 41.5775 95.259 41.6201 95.9681C41.6924 97.2122 41.4215 98.3711 40.8076 99.4445C40.5778 99.8385 40.1199 100.659 39.4338 101.907C38.3373 103.899 38.2044 106.058 39.0349 108.382C38.5557 108.543 38.0632 108.584 37.5577 108.505C36.9175 105.925 37.236 103.491 38.513 101.202C38.9791 100.369 39.4453 99.5348 39.9115 98.701C40.4958 97.6603 40.742 96.5819 40.6501 95.4658C40.6501 95.4592 40.3858 94.5187 39.8573 92.6442C39.355 90.8649 39.4075 89.1086 40.0148 87.3753C40.1856 86.8928 40.6534 86.1492 41.4183 85.1447C42.8758 83.2308 43.3945 81.0527 42.9743 78.6103C42.4819 75.7378 42.1667 73.4563 42.0289 71.7656C42.0223 71.7065 42.0059 71.6557 41.9796 71.613C41.891 71.4784 41.8384 71.5555 41.822 71.8444C41.74 73.348 41.3444 74.748 40.6353 76.0448L40.3891 75.8823C40.678 75.1338 40.8832 74.0734 41.0046 72.7012C41.1852 70.6856 41.9074 67.1746 43.1713 62.1684C43.3551 61.433 43.4864 60.6501 43.5652 59.8195C43.6407 59.0218 43.731 58.2274 43.836 57.4362C43.8787 57.1178 43.6735 56.824 43.2205 56.5548C43.2172 56.2955 43.3403 56.1313 43.5898 56.0624Z" fill="#F6F3F1"/>
<path d="M43.2204 56.5548C43.6734 56.824 43.8786 57.1178 43.8359 57.4362C43.7309 58.2274 43.6406 59.0218 43.5651 59.8196C43.4863 60.6501 43.355 61.433 43.1712 62.1684C41.9073 67.1747 41.1851 70.6856 41.0045 72.7012C40.8831 74.0735 40.6779 75.1338 40.389 75.8823C39.3746 77.2414 38.2979 78.3871 37.1587 79.3194C34.654 81.3645 33.6018 83.9136 34.0023 86.9666C34.0056 86.9765 34.2305 87.8546 34.6769 89.6011C35.2711 91.922 35.0692 94.1724 34.0712 96.3522C34.068 96.3587 33.7134 96.9644 33.0076 98.1692C31.9243 100.014 31.6009 102.028 32.0376 104.211C32.4085 106.066 32.2821 107.995 31.6584 109.997L22.6816 114.064C22.3369 111.192 22.2909 108.321 22.5437 105.452C22.6947 103.755 23.023 102.396 23.5286 101.375C24.1457 100.127 25.0157 98.9915 26.1384 97.9673C27.1757 97.0218 27.9603 95.8942 28.4922 94.5844C28.9452 93.4551 29.0896 92.1354 28.9255 90.6253C28.8237 89.6635 28.6628 88.7114 28.4429 87.7693C28.1474 86.4824 28.0243 85.5321 28.0736 84.9182C28.2115 83.1455 28.8992 81.5648 30.1368 80.1762C31.2792 78.8992 32.4758 77.6747 33.7265 76.5027C36.1952 74.1982 37.3688 71.3307 37.2474 67.9002C37.162 65.4643 37.6052 63.1368 38.5769 60.9177C39.3188 59.2139 40.4563 57.8417 41.9894 56.801C42.426 56.9225 42.8363 56.8404 43.2204 56.5548Z" fill="#D15931"/>
<path d="M45.9286 58.81L47.6078 60.3365C47.6544 60.3801 47.6933 60.44 47.7221 60.5128C47.7509 60.5856 47.7689 60.6697 47.7752 60.76C47.8146 61.2918 48.092 61.712 48.6074 62.0206C49.7071 62.6804 50.8249 62.8282 51.9608 62.4638C54.6789 63.3075 57.4578 63.8508 60.2974 64.0937C60.3684 64.0989 60.4353 64.1283 60.4865 64.1768C60.5378 64.2254 60.5702 64.29 60.5781 64.3596C61.0311 68.5123 59.1845 70.5953 55.0384 70.6084C53.2427 70.615 51.7556 69.8107 50.5771 68.1955C49.5298 66.7577 48.5926 65.2509 47.7653 63.6751C46.9676 62.1486 46.1601 60.6106 45.3426 59.0612C45.0537 58.8609 44.7977 58.8872 44.5745 59.1399L44.7271 58.4013C44.7331 58.3757 44.7464 58.3528 44.7657 58.3347C44.785 58.3166 44.8096 58.304 44.8373 58.2981C44.8649 58.2922 44.8946 58.2931 44.9236 58.3008C44.9526 58.3086 44.9799 58.3228 45.0029 58.3422C45.2688 58.572 45.5774 58.728 45.9286 58.81Z" fill="#FB887C"/>
<path d="M46.1946 58.5442L50.1143 60.9866C49.7466 61.131 49.7154 61.3329 50.0207 61.5923C50.4902 61.9829 51.1369 62.2734 51.9608 62.4638C50.825 62.8282 49.7072 62.6805 48.6075 62.0207C48.0921 61.7121 47.8147 61.2919 47.7753 60.7601C47.769 60.6698 47.751 60.5857 47.7222 60.5129C47.6934 60.4401 47.6545 60.3801 47.6078 60.3366L45.9287 58.8101C46.1191 58.8232 46.2077 58.7346 46.1946 58.5442Z" fill="#F5988B"/>
<path d="M98.2483 58.5638V58.7706C97.8313 59.112 97.6196 59.57 97.613 60.1444C96.858 60.4136 96.4542 60.9061 96.4017 61.6217C96.103 65.735 96.6019 69.9206 97.8986 74.1784C97.4883 74.4049 97.4062 74.6922 97.6524 75.0401C98.0628 77.2429 97.8018 79.357 96.8695 81.3825C96.2392 82.7514 95.6762 84.1483 95.1805 85.573C94.7866 86.7154 94.7078 87.8808 94.9441 89.0692C95.2954 90.8156 95.361 92.5588 95.1411 94.2986C94.9671 95.6709 94.8998 96.5441 94.9392 96.9183C95.0213 97.7226 95.2314 98.586 95.5695 99.5085C96.3311 101.577 96.3213 103.768 95.54 106.082L93.8263 105.935C94.4337 103.751 94.5026 101.793 94.0332 100.06C93.5145 98.1592 93.3651 96.3783 93.5851 94.7172C93.782 93.2432 93.8805 92.4291 93.8805 92.2748C93.8805 91.5263 93.8181 90.7056 93.6934 89.8127C93.3651 87.4393 93.7262 85.1528 94.7767 82.9533C95.3742 81.6993 95.6746 81.069 95.6778 81.0624C96.6496 78.5806 96.8941 75.9987 96.4115 73.3167C95.7845 69.8172 95.5301 66.2866 95.6483 62.7247L95.4661 61.6562C95.4539 61.5851 95.462 61.5097 95.4895 61.4367C95.517 61.3636 95.5631 61.2952 95.6237 61.2376C95.9979 60.8798 96.3721 60.5203 96.7464 60.1592C96.8547 60.0542 97.0615 59.762 97.3668 59.2827C97.5737 58.961 97.8675 58.7214 98.2483 58.5638Z" fill="#F6F3F1"/>
<path d="M98.2482 58.7707L98.4748 59.0366L98.4452 63.1434C97.9462 62.2373 97.6688 61.2377 97.613 60.1445C97.6196 59.5701 97.8313 59.1121 98.2482 58.7707Z" fill="#DC2C21"/>
<path d="M99.243 58.7609C99.1248 62.7035 100.671 65.6777 103.882 67.6835C105.349 68.6027 107.058 69.471 109.008 70.2884C111.279 71.2404 112.955 72.2811 114.035 73.4104C115.224 74.6512 115.82 76.3846 115.823 78.6103C115.826 80.662 115.783 82.7138 115.695 84.7655C115.646 85.9309 115.826 87.0339 116.236 88.0746C116.555 88.8854 117.167 89.7866 118.073 90.778C119.074 91.8745 120.14 92.9052 121.269 93.8704C122.598 95.0062 123.527 95.9648 124.056 96.7461C126.288 100.029 127.298 103.757 127.084 107.929C126.776 108.782 126.132 109.078 125.154 108.815C124.763 105.726 123.939 102.69 122.682 99.7056C121.953 97.9821 120.744 96.5311 119.053 95.3526C117.582 94.325 116.156 92.961 114.774 91.2606C113.346 89.4977 112.837 87.3573 113.247 84.8394C113.756 81.7405 113.845 79.4999 113.513 78.1179C113.087 76.3353 112.174 74.991 110.775 74.085C109.528 73.2774 107.348 72.0545 104.236 70.4164C101.223 68.8341 99.2923 66.4098 98.4453 63.1434L98.4749 59.0366C98.4486 58.7937 98.7047 58.7018 99.243 58.7609Z" fill="#FAEFE9"/>
<path d="M45.3429 59.0612C45.0606 60.8634 45.3068 62.6099 46.0815 64.3005C46.7939 65.85 47.434 67.7475 48.002 69.9929C47.3388 70.9548 47.0171 71.9396 47.0368 72.9474C47.0729 74.6578 47.2535 76.8375 47.5785 79.4868C47.5785 79.5032 47.6376 79.9036 47.7558 80.6882C48.0414 82.5791 47.8969 84.4421 47.3224 86.2772C46.7545 88.1024 46.7069 90.0212 47.1796 92.0336C47.3864 92.9167 47.3142 93.7751 46.9629 94.6089C46.5165 95.666 46.0651 96.792 45.6088 97.9869C45.0474 99.4642 44.7536 100.633 44.7274 101.493C44.6683 103.466 45.356 105.229 46.7906 106.782L39.035 108.382C38.2045 106.058 38.3374 103.899 39.4339 101.907C40.12 100.659 40.5779 99.8384 40.8077 99.4445C41.4216 98.371 41.6924 97.2122 41.6202 95.968C41.5775 95.2589 41.2181 93.7718 40.5418 91.5067C40.3054 90.709 40.3366 89.5699 40.6354 88.0893C40.7535 87.5083 41.2016 86.6055 41.9797 85.381C42.7642 84.1467 43.2436 83.262 43.4175 82.7269C43.8706 81.3317 43.9132 79.8708 43.5456 78.3443C43.3289 77.4481 42.9744 75.2388 42.4819 71.7164C42.2883 70.3409 42.3211 69.1082 42.5804 68.0183C43.2829 65.0671 43.9477 62.1076 44.5747 59.14C44.798 58.8872 45.054 58.8609 45.3429 59.0612Z" fill="#D05735"/>
<path d="M97.6131 60.1446C97.6689 61.2377 97.9463 62.2373 98.4453 63.1434C99.2923 66.4098 101.223 68.8341 104.236 70.4164C107.348 72.0545 109.528 73.2774 110.776 74.085C112.174 74.991 113.087 76.3353 113.513 78.1179C113.845 79.4999 113.756 81.7404 113.247 84.8394C112.837 87.3573 113.346 89.4977 114.774 91.2605C116.156 92.961 117.582 94.325 119.053 95.3526C120.744 96.5311 121.953 97.9821 122.682 99.7056C123.94 102.69 124.764 105.726 125.154 108.815C125.482 109.922 125.363 110.879 124.795 111.686C123.987 112.832 123.244 113.841 122.564 114.714C119.344 112.499 116.039 110.552 112.652 108.874C113.279 106.412 113.591 103.924 113.587 101.409C113.587 99.6793 113.318 98.312 112.78 97.3074C112.136 96.1092 111.16 95.0374 109.85 94.092C107.302 92.2503 106.345 89.7291 106.979 86.5284C107.225 85.2941 107.35 84.6671 107.353 84.6474C107.514 83.4065 107.516 82.42 107.358 81.6879C107.095 80.47 106.265 79.4934 104.866 78.758C103.56 78.0719 102.229 77.4318 100.873 76.8376C99.5894 76.2697 98.598 75.3833 97.8987 74.1785C96.602 69.9207 96.103 65.7352 96.4018 61.6218C96.4543 60.9062 96.8581 60.4138 97.6131 60.1446Z" fill="#CC5834"/>
<path d="M75.4344 69.5448C73.9999 70.0733 72.4931 70.1045 70.914 69.6383C70.2476 69.4413 70.2312 69.2821 70.8648 69.1606C70.9666 69.141 71.0831 69.1328 71.2144 69.136C72.3699 69.1492 73.473 68.921 74.5235 68.4516C75.6659 68.2513 76.311 67.493 76.4587 66.1766C76.636 64.5746 76.5309 63.0809 76.1435 61.6956C76.1041 61.5511 76.0959 61.4165 76.1189 61.2918C76.2141 60.6943 76.4061 60.7189 76.695 61.3657C77.3746 62.8889 78.0426 64.417 78.6992 65.9501C78.7661 66.1034 78.7818 66.2666 78.7435 66.413C78.3397 68.0708 77.2367 69.1147 75.4344 69.5448Z" fill="#FB9684"/>
<path d="M95.6485 62.7248C95.5303 66.2866 95.7848 69.8173 96.4118 73.3167C96.8944 75.9988 96.6498 78.5807 95.6781 81.0625C95.6748 81.069 95.3744 81.6994 94.7769 82.9534C93.7264 85.1529 93.3653 87.4393 93.6936 89.8128C93.8184 90.7057 93.8807 91.5264 93.8807 92.2749C93.8807 92.4292 93.7823 93.2433 93.5853 94.7173C93.3653 96.3784 93.5147 98.1593 94.0334 100.06C94.5028 101.793 94.4339 103.752 93.8266 105.935L89.0353 105.447C86.4452 104.791 84.9614 103.231 84.5839 100.769C84.1177 97.7292 83.8945 93.0365 83.9142 86.6908C84.0849 86.4742 84.0323 86.118 83.7566 85.6223C86.1038 83.5279 87.929 81.0576 89.2323 78.2114C91.5499 73.146 93.1191 67.7737 93.9398 62.0945C94.4355 61.5889 94.7737 61.6677 94.9542 62.3309C95.0461 62.6591 95.2775 62.7904 95.6485 62.7248Z" fill="#C25331"/>
<path d="M78.5713 62.7298C79.3526 63.5636 80.2931 64.0199 81.3929 64.0987C85.0499 64.7618 88.6101 64.3876 92.0735 62.976C92.3361 63.1664 92.5183 63.3978 92.62 63.6703C92.7021 63.8968 92.6791 64.1676 92.5511 64.4828C92.0488 65.7171 91.4349 66.8054 90.7094 67.7475C89.8953 68.8013 88.8021 69.4546 87.4299 69.7073C85.4964 70.0619 84.024 69.4907 83.0129 67.9937C82.8455 67.7442 82.4352 66.9646 81.7819 65.6547C81.6145 65.3133 81.2845 65.0835 80.7921 64.9654C80.6608 64.9325 80.5163 64.8652 80.3588 64.7635C79.9911 64.5238 79.6284 64.5845 79.2705 64.9457C78.8733 64.2497 78.6402 63.5111 78.5713 62.7298Z" fill="#FA8777"/>
<path d="M48.0017 69.993L48.1642 70.7316C47.7506 73.7288 47.8409 76.7128 48.4351 79.6838C48.9439 82.2411 48.8881 84.5915 48.2676 86.7352C48.0214 87.5887 47.8852 88.375 47.8589 89.0939C47.8458 89.4648 48.0083 90.2265 48.3464 91.3787C48.5598 92.1141 48.655 92.8625 48.632 93.6242C48.6123 94.1986 48.4203 94.911 48.0559 95.7613C47.4913 97.0678 47.0021 98.4006 46.5885 99.7597C46.3521 100.544 46.2651 101.229 46.3275 101.813C46.4161 102.621 46.6623 103.289 47.0661 103.817C47.6472 104.572 48.1773 105.362 48.6566 106.186C48.1347 106.619 47.5126 106.818 46.7904 106.782C45.3558 105.229 44.668 103.466 44.7271 101.493C44.7534 100.633 45.0472 99.4642 45.6086 97.987C46.0649 96.792 46.5163 95.6661 46.9627 94.609C47.314 93.7752 47.3862 92.9167 47.1794 92.0336C46.7067 90.0213 46.7543 88.1025 47.3222 86.2773C47.8967 84.4422 48.0411 82.5792 47.7555 80.6883C47.6374 79.9037 47.5782 79.5032 47.5782 79.4868C47.2532 76.8376 47.0727 74.6578 47.0366 72.9475C47.0169 71.9396 47.3386 70.9548 48.0017 69.993Z" fill="#FAF9F9"/>
<path d="M48.1644 70.7316H48.2628C48.2871 70.7312 48.3126 70.7424 48.3356 70.7636C48.3586 70.7848 48.3779 70.815 48.3909 70.8498C50.3113 76.3747 53.471 81.0609 57.87 84.9083C57.7419 85.6502 57.7912 86.3035 58.0177 86.8682C58.0472 89.153 58.039 93.3353 57.9931 99.415C57.9668 102.701 56.4419 104.794 53.4185 105.693L48.6568 106.186C48.1775 105.362 47.6473 104.572 47.0663 103.817C46.6625 103.289 46.4163 102.621 46.3276 101.813C46.2653 101.229 46.3523 100.544 46.5886 99.7597C47.0023 98.4006 47.4914 97.0678 48.056 95.7613C48.4204 94.911 48.6125 94.1986 48.6322 93.6242C48.6551 92.8625 48.5599 92.1141 48.3465 91.3787C48.0084 90.2265 47.8459 89.4648 47.8591 89.0939C47.8853 88.375 48.0216 87.5887 48.2678 86.7352C48.8882 84.5915 48.944 82.2411 48.4352 79.6838C47.841 76.7128 47.7507 73.7288 48.1644 70.7316Z" fill="#C55230"/>
<path d="M37.5575 108.505L33.9875 109.529L33.495 109.244C33.8857 107.189 33.8315 105.084 33.3325 102.931C33.1815 102.284 33.239 101.659 33.5049 101.055C34.2238 99.4232 34.9592 97.7047 35.7109 95.8991C36.1705 94.7863 36.3347 93.7423 36.2033 92.7673C36.0687 91.7792 35.6682 89.9228 35.0018 87.1981C34.3223 84.4208 35.0921 81.9686 37.3113 79.8413C38.7262 78.4855 39.8341 77.22 40.6351 76.0448C41.3442 74.7481 41.7398 73.348 41.8218 71.8444C41.8382 71.5556 41.8908 71.4784 41.9794 71.613C42.0057 71.6557 42.0221 71.7066 42.0287 71.7656C42.1665 73.4563 42.4817 75.7378 42.9741 78.6103C43.3943 81.0527 42.8756 83.2308 41.4181 85.1447C40.6532 86.1492 40.1854 86.8928 40.0147 87.3753C39.4073 89.1087 39.3548 90.865 39.8571 92.6442C40.3856 94.5187 40.6499 95.4592 40.6499 95.4658C40.7418 96.5819 40.4956 97.6603 39.9113 98.701C39.4451 99.5348 38.9789 100.369 38.5128 101.202C37.2358 103.491 36.9173 105.925 37.5575 108.505Z" fill="#D05735"/>
<path d="M12.6313 87.9957C11.9583 88.0187 11.5233 87.7068 11.3264 87.0601C11.0637 86.2 10.9456 85.271 10.9718 84.273C11.0933 79.4276 12.8562 75.4062 16.2604 72.2087C16.9071 71.6014 17.4833 71.4964 17.9888 71.8936C18.3138 72.1464 18.4993 72.5797 18.5453 73.1936C18.6437 74.6183 18.5748 76.0283 18.3384 77.4235C18.0955 78.8384 17.7804 80.2056 17.393 81.5253C16.8218 83.4884 15.9059 85.3006 14.6453 86.9616C14.143 87.6248 13.4717 87.9695 12.6313 87.9957Z" fill="#FB9C65"/>
<path d="M69.6879 73.5826C70.4101 74.9088 71.1898 76.0513 72.0269 77.0098C73.0117 78.1358 74.1557 78.666 75.459 78.6003C76.4964 78.5478 77.5354 78.0652 78.576 77.1526C80.0533 75.8625 81.1514 74.2277 81.8703 72.2481C82.2774 71.8181 82.5171 71.8394 82.5893 72.3122C82.6155 72.4632 82.5991 72.6388 82.54 72.8391C82.0279 74.6315 81.1941 76.217 80.0385 77.5958C78.7517 79.1322 77.3253 80.1154 75.7594 80.5454C73.8226 81.0706 71.866 80.7309 69.8898 79.5261C67.4047 78.0127 65.394 75.915 63.8576 73.233C63.6803 72.9211 63.7706 72.7701 64.1285 72.7799C66.154 72.8423 68.0071 73.1099 69.6879 73.5826Z" fill="#DB534B"/>
<path d="M81.8704 72.2481C81.1515 74.2277 80.0534 75.8625 78.5762 77.1526C77.5355 78.0652 76.4965 78.5478 75.4591 78.6003C74.1559 78.666 73.0118 78.1358 72.027 77.0098C71.1899 76.0512 70.4102 74.9088 69.688 73.5826C73.8177 73.7008 77.8786 73.256 81.8704 72.2481Z" fill="#FDFDFD"/>
<path d="M97.8986 74.1785C98.5979 75.3833 99.5893 76.2697 100.873 76.8376C102.229 77.4318 103.56 78.0719 104.866 78.758C106.265 79.4934 107.095 80.47 107.358 81.6879C107.516 82.42 107.514 83.4065 107.353 84.6474C107.35 84.6671 107.225 85.2941 106.979 86.5284C106.345 89.7291 107.302 92.2503 109.85 94.092C111.159 95.0374 112.136 96.1092 112.78 97.3075C113.318 98.312 113.587 99.6793 113.587 101.409C113.59 103.924 113.279 106.412 112.652 108.874C112.343 108.956 111.926 108.907 111.401 108.727C112.021 106.074 112.415 103.397 112.583 100.695C112.655 99.4971 112.502 98.5106 112.125 97.7359C111.665 96.7904 111.01 95.9829 110.16 95.3132C109.3 94.6303 108.865 94.2857 108.855 94.2791C106.616 92.1354 105.869 89.4107 106.614 86.1049C106.775 85.386 106.905 84.6605 107.003 83.9284C107.302 81.6731 106.447 80.0416 104.438 79.0338C103.148 78.3838 101.833 77.7814 100.494 77.2266C99.3513 76.7506 98.4042 76.0218 97.6524 75.0403C97.4062 74.6923 97.4883 74.405 97.8986 74.1785Z" fill="#F9D6D5"/>
<path d="M97.6525 75.0403C98.4043 76.0218 99.3514 76.7506 100.494 77.2266C101.833 77.7814 103.148 78.3838 104.438 79.0338C106.447 80.0416 107.302 81.6731 107.004 83.9284C106.905 84.6605 106.775 85.386 106.615 86.1049C105.869 89.4107 106.616 92.1354 108.855 94.2791C108.865 94.2857 109.3 94.6303 110.16 95.3132C111.01 95.9828 111.665 96.7904 112.125 97.7359C112.502 98.5106 112.655 99.4971 112.583 100.695C112.415 103.397 112.021 106.074 111.401 108.727C108.42 107.893 105.26 107.374 101.922 107.171L95.5401 106.082C96.3214 103.768 96.3312 101.577 95.5696 99.5086C95.2315 98.5861 95.0214 97.7227 94.9393 96.9184C94.8999 96.5442 94.9672 95.671 95.1412 94.2988C95.3612 92.5589 95.2955 90.8157 94.9442 89.0693C94.7079 87.8809 94.7867 86.7155 95.1806 85.5731C95.6763 84.1484 96.2393 82.7515 96.8696 81.3826C97.8019 79.3571 98.0629 77.243 97.6525 75.0403Z" fill="#CA5632"/>
<path d="M40.389 75.8823L40.6352 76.0447C39.8342 77.22 38.7263 78.4855 37.3114 79.8413C35.0922 81.9686 34.3224 84.4208 35.002 87.1981C35.6684 89.9228 36.0689 91.7792 36.2035 92.7673C36.3348 93.7423 36.1706 94.7862 35.711 95.8991C34.9593 97.7046 34.224 99.4232 33.505 101.055C33.2391 101.659 33.1816 102.284 33.3327 102.931C33.8316 105.084 33.8858 107.189 33.4952 109.244C32.9437 109.687 32.3314 109.938 31.6584 109.997C32.2822 107.995 32.4085 106.066 32.0376 104.211C31.601 102.028 31.9243 100.014 33.0077 98.1691C33.7135 96.9644 34.068 96.3587 34.0713 96.3521C35.0693 94.1724 35.2712 91.922 34.677 89.6011C34.2305 87.8546 34.0057 86.9764 34.0024 86.9666C33.6019 83.9136 34.654 81.3645 37.1588 79.3193C38.2979 78.387 39.3747 77.2413 40.389 75.8823Z" fill="#FAF9F9"/>
<path d="M57.8699 84.9082C60.9688 87.262 63.8922 88.846 66.6399 89.6601C72.956 91.528 78.6615 90.1821 83.7564 85.6222C84.0321 86.118 84.0847 86.4741 83.914 86.6908C82.3809 89.1857 80.7887 91.1603 79.1375 92.6146C76.0779 95.3032 72.759 96.1896 69.1807 95.2737C67.3325 94.7977 65.3054 93.6421 63.0994 91.807C61.2807 90.2937 59.5868 88.6474 58.0176 86.8681C57.7911 86.3034 57.7419 85.6501 57.8699 84.9082Z" fill="#F4867C"/>
<path d="M83.914 86.6909C83.8943 93.0365 84.1175 97.7293 84.5837 100.769C84.9612 103.231 86.445 104.791 89.0351 105.447L88.3901 123.406C87.8123 124.564 86.9637 125.605 85.8443 126.528C81.767 129.892 77.2417 131.88 72.2683 132.491C68.7261 132.924 65.4959 132.591 62.5774 131.491C59.357 130.273 56.6044 128.24 54.3196 125.39C54.3425 124.934 54.1374 124.729 53.704 124.775L53.4185 105.693C56.4419 104.794 57.9668 102.701 57.993 99.415C58.039 93.3353 58.0472 89.153 58.0176 86.8682C59.5868 88.6474 61.2807 90.2937 63.0994 91.8071C65.3055 93.6422 67.3326 94.7977 69.1808 95.2738C72.759 96.1897 76.078 95.3033 79.1375 92.6147C80.7888 91.1604 82.3809 89.1858 83.914 86.6909ZM70.0582 107.798C70.0586 107.676 70.0108 107.56 69.9252 107.473C69.8396 107.387 69.7233 107.339 69.6018 107.338L69.5723 107.338C69.5122 107.338 69.4526 107.349 69.3969 107.372C69.3413 107.395 69.2907 107.429 69.248 107.471C69.2053 107.513 69.1714 107.564 69.1482 107.619C69.125 107.675 69.1129 107.734 69.1127 107.794L69.0814 116.776C69.081 116.897 69.1288 117.014 69.2144 117.1C69.3 117.186 69.4163 117.235 69.5377 117.236L69.5673 117.236C69.6274 117.236 69.687 117.224 69.7427 117.201C69.7983 117.179 69.8489 117.145 69.8916 117.103C69.9343 117.06 69.9682 117.01 69.9914 116.954C70.0146 116.899 70.0266 116.839 70.0269 116.779L70.0582 107.798Z" fill="#FDB9A8"/>
<path d="M89.0352 105.447L93.8264 105.935L95.54 106.082L101.922 107.171L105.123 130.758C100.12 133.925 94.6471 136.351 88.7053 138.035C88.6556 138.05 88.6032 138.052 88.5523 138.043C88.5014 138.033 88.4534 138.012 88.4119 137.981C88.3704 137.949 88.3366 137.908 88.3131 137.861C88.2897 137.815 88.2773 137.763 88.2769 137.71L88.3901 123.406L89.0352 105.447Z" fill="#3D2338"/>
<path d="M53.4183 105.693L53.7039 124.775V129.329L53.6842 138.154C53.6837 138.223 53.6677 138.291 53.6373 138.354C53.6069 138.416 53.5629 138.471 53.5086 138.514C53.4542 138.557 53.3909 138.587 53.3233 138.602C53.2556 138.617 53.1855 138.617 53.1179 138.602C45.3836 136.783 38.3338 133.641 31.9685 129.177C33.0321 122.588 33.7051 116.039 33.9874 109.529L37.5575 108.505C38.063 108.584 38.5554 108.543 39.0347 108.382L46.7903 106.782C47.5125 106.818 48.1346 106.619 48.6566 106.186L53.4183 105.693Z" fill="#3D2338"/>
<path d="M111.401 108.727C111.926 108.907 112.343 108.956 112.651 108.874C116.039 110.552 119.343 112.499 122.564 114.714C117.771 121.208 111.957 126.556 105.122 130.757L101.922 107.171C105.26 107.374 108.42 107.893 111.401 108.727Z" fill="#FCB7A5"/>
<path d="M69.6018 107.338L69.5722 107.338C69.3193 107.337 69.1135 107.541 69.1127 107.794L69.0813 116.776C69.0804 117.029 69.2847 117.235 69.5377 117.236L69.5672 117.236C69.8201 117.237 70.0259 117.032 70.0267 116.779L70.0581 107.798C70.059 107.545 69.8547 107.339 69.6018 107.338Z" fill="#F98D7D"/>
<path d="M33.4952 109.244L33.9876 109.529C33.7052 116.039 33.0323 122.588 31.9687 129.177C26.9657 125.91 22.5438 122.022 18.7029 117.511L19.0919 116.507C19.732 116.438 20.19 116.116 20.4657 115.542C21.3685 115.302 22.1071 114.81 22.6816 114.064L31.6584 109.997C32.3314 109.938 32.9436 109.687 33.4952 109.244Z" fill="#FBBBA8"/>
<path d="M53.7041 124.775C54.1374 124.729 54.3426 124.934 54.3196 125.39L53.975 125.577C53.9312 125.6 53.8928 125.653 53.8647 125.729C53.8367 125.806 53.8202 125.902 53.8174 126.006L53.7041 129.329V124.775Z" fill="#FAF3F0"/>
</svg>
