<svg width="319" height="308" viewBox="0 0 319 308" fill="none" xmlns="http://www.w3.org/2000/svg">
<path d="M147.068 3L219.871 45.732V134.483L147.068 175.571L74.2642 129.552V45.732L147.068 3Z" fill="#0E8080"/>
<path d="M74.2642 45.732L147.068 88.464M74.2642 45.732L147.068 3L219.871 45.732M74.2642 45.732V129.552L147.068 175.571M147.068 88.464L219.871 45.732M147.068 88.464V175.571M219.871 45.732V134.483L147.068 175.571" stroke="#F5F5F5" stroke-width="4"/>
<path d="M220.411 132.429L293.214 175.161V263.912L220.411 305L147.607 258.981V175.161L220.411 132.429Z" fill="#0E8080"/>
<path d="M147.607 175.161L220.411 217.893M147.607 175.161L220.411 132.429L293.214 175.161M147.607 175.161V258.981L220.411 305M220.411 217.893L293.214 175.161M220.411 217.893V305M293.214 175.161V263.912L220.411 305" stroke="#F5F5F5" stroke-width="4"/>
<path d="M74.8036 128.114L147.607 170.846V259.597L74.8036 300.686L2 254.667V170.846L74.8036 128.114Z" fill="#0E8080"/>
<path d="M2 170.846L74.8036 213.578M2 170.846L74.8036 128.114L147.607 170.846M2 170.846V254.667L74.8036 300.686M74.8036 213.578L147.607 170.846M74.8036 213.578V300.686M147.607 170.846V259.597L74.8036 300.686" stroke="#F5F5F5" stroke-width="4"/>
<path d="M296.148 77.3136C299.578 80.8355 302.078 85.1555 303.423 89.8843H312.629V106.068H303.423C302.08 110.801 299.58 115.125 296.148 118.65L300.759 126.631L286.748 134.721L282.148 126.739C277.378 127.942 272.384 127.942 267.614 126.739L263.009 134.721L248.998 126.631L253.609 118.65C250.177 115.125 247.677 110.801 246.334 106.068H237.129V89.8897H246.334C247.677 85.157 250.177 80.8331 253.609 77.3082L248.993 69.3321L262.998 61.2429H263.014L267.62 69.2135C272.39 68.0105 277.384 68.0105 282.154 69.2135L286.743 61.2429H286.754L300.764 69.3321L296.153 77.3136H296.148ZM291.057 97.979C291.057 93.6882 289.353 89.5731 286.319 86.539C283.285 83.505 279.169 81.8004 274.879 81.8004C270.588 81.8004 266.473 83.505 263.439 86.539C260.405 89.5731 258.7 93.6882 258.7 97.979C258.7 102.27 260.405 106.385 263.439 109.419C266.473 112.453 270.588 114.158 274.879 114.158C279.169 114.158 283.285 112.453 286.319 109.419C289.353 106.385 291.057 102.27 291.057 97.979Z" fill="#CC9866"/>
<g clip-path="url(#clip0_309_1554)">
<path d="M61.16 114.885L47.8392 101.564C45.2114 98.936 41.2869 98.4241 38.1245 99.9825L25.9981 87.8562V80.792L11.4374 69.8714L4.15705 77.1518L15.0776 91.7125H22.1418L34.2682 103.839C32.7211 107.001 33.2216 110.926 35.8494 113.554L49.1701 126.874C50.831 128.535 53.5156 128.535 55.1651 126.874L61.16 120.879C62.8094 119.219 62.8094 116.534 61.16 114.885ZM41.8898 95.4664C45.1091 95.4664 48.135 96.7177 50.4101 98.9929L52.6169 101.2C54.4143 100.415 56.1206 99.3228 57.5994 97.8439C61.8198 93.6236 63.2531 87.6856 61.9108 82.2935C61.6605 81.2697 60.3751 80.9171 59.6243 81.6679L51.1609 90.1313L43.4369 88.8459L42.1514 81.1219L50.6148 72.6584C51.3656 71.9077 51.0016 70.6222 49.9664 70.3606C44.5744 69.0296 38.6364 70.463 34.4274 74.6719C31.1854 77.9139 29.6611 82.1912 29.7407 86.457L39.08 95.7963C40.0014 95.5802 40.957 95.4664 41.8898 95.4664ZM30.0706 104.794L23.6206 98.3445L6.28428 115.692C3.44039 118.536 3.44039 123.143 6.28428 125.987C9.12817 128.831 13.7353 128.831 16.5792 125.987L30.6394 111.927C29.7748 109.663 29.5132 107.195 30.0706 104.794ZM11.4374 123.564C9.93584 123.564 8.70728 122.336 8.70728 120.834C8.70728 119.321 9.92446 118.104 11.4374 118.104C12.9504 118.104 14.1675 119.321 14.1675 120.834C14.1675 122.336 12.9504 123.564 11.4374 123.564Z" fill="#CC9866"/>
</g>
<defs>
<clipPath id="clip0_309_1554">
<rect width="58.2429" height="58.2429" fill="white" transform="translate(4.15723 69.8714)"/>
</clipPath>
</defs>
</svg>
