<svg width="234" height="234" viewBox="0 0 234 234" fill="none" xmlns="http://www.w3.org/2000/svg">
<rect width="234" height="234" rx="16" fill="#F5F5F5"/>
<path d="M58.75 138V134.981C58.75 129.819 61.2438 126.406 66.2312 124.744C71.2188 123.081 75.725 122.25 79.75 122.25C83.775 122.25 88.2812 123.081 93.2687 124.744C98.2562 126.406 100.75 129.819 100.75 134.981V138H58.75ZM79.75 117C76.8625 117 74.3897 115.971 72.3317 113.913C70.2737 111.855 69.2465 109.384 69.25 106.5C69.25 103.613 70.279 101.14 72.337 99.0818C74.395 97.0238 76.866 95.9965 79.75 96C82.6375 96 85.1103 97.0291 87.1683 99.0871C89.2263 101.145 90.2535 103.616 90.25 106.5C90.25 109.388 89.221 111.86 87.163 113.918C85.105 115.976 82.634 117.004 79.75 117ZM104.294 124.481C103.244 124.481 102.325 124.088 101.537 123.3C100.75 122.513 100.356 121.594 100.356 120.544C100.356 120.019 100.75 119.1 101.537 117.788C102.237 116.913 102.719 115.95 102.981 114.9C103.244 113.85 103.375 112.8 103.375 111.75C103.375 110.7 103.244 109.671 102.981 108.663C102.719 107.655 102.237 106.715 101.537 105.844C101.188 105.406 100.902 104.946 100.682 104.463C100.461 103.98 100.353 103.478 100.356 102.956C100.356 101.819 100.729 100.879 101.474 100.137C102.22 99.3951 103.16 99.0223 104.294 99.0188C104.994 99.0188 105.629 99.2165 106.2 99.612C106.77 100.008 107.272 100.466 107.706 100.988C108.844 102.563 109.719 104.269 110.331 106.106C110.944 107.944 111.25 109.825 111.25 111.75C111.25 113.675 110.944 115.535 110.331 117.331C109.719 119.126 108.844 120.854 107.706 122.513C107.269 123.038 106.767 123.498 106.2 123.893C105.632 124.289 104.997 124.485 104.294 124.481ZM115.45 135.769C114.312 135.769 113.35 135.398 112.562 134.656C111.775 133.914 111.381 132.972 111.381 131.831C111.381 131.306 111.492 130.804 111.712 130.325C111.933 129.845 112.216 129.385 112.562 128.944C114.75 126.494 116.391 123.781 117.487 120.806C118.583 117.831 119.129 114.813 119.125 111.75C119.125 108.688 118.577 105.69 117.482 102.757C116.386 99.8238 114.746 97.134 112.562 94.6875C112.213 94.25 111.927 93.8125 111.707 93.375C111.486 92.9375 111.378 92.4563 111.381 91.9313C111.381 90.7938 111.754 89.8313 112.5 89.0438C113.245 88.2563 114.185 87.8625 115.319 87.8625C115.931 87.8625 116.5 87.9938 117.025 88.2563C117.55 88.5188 118.031 88.8688 118.469 89.3063C121.356 92.5438 123.5 96.0875 124.9 99.9375C126.3 103.788 127 107.725 127 111.75C127 115.775 126.277 119.735 124.832 123.631C123.386 127.526 121.267 131.091 118.474 134.325C118.037 134.763 117.576 135.113 117.093 135.375C116.61 135.638 116.059 135.769 115.45 135.769Z" fill="#0E8080"/>
<path d="M132.25 134.981V138H174.25V134.981C174.25 129.819 171.756 126.406 166.769 124.744C161.781 123.081 157.275 122.25 153.25 122.25C149.225 122.25 144.719 123.081 139.731 124.744C134.744 126.406 132.25 129.819 132.25 134.981Z" fill="#CC9866"/>
<path d="M145.832 113.913C147.89 115.971 150.362 117 153.25 117C156.134 117.004 158.605 115.976 160.663 113.918C162.721 111.86 163.75 109.388 163.75 106.5C163.753 103.616 162.726 101.145 160.668 99.087C158.61 97.029 156.138 96 153.25 96C150.366 95.9965 147.895 97.0238 145.837 99.0818C143.779 101.14 142.75 103.613 142.75 106.5C142.747 109.384 143.774 111.855 145.832 113.913Z" fill="#CC9866"/>
</svg>
