<svg width="112" height="112" viewBox="0 0 112 112" fill="none" xmlns="http://www.w3.org/2000/svg">
<path fill-rule="evenodd" clip-rule="evenodd" d="M72.8091 11.3026C71.7824 10.2759 70.4944 10.3226 69.7851 10.4159C69.1178 10.5092 68.3151 10.7332 67.5498 10.9526L66.9664 11.1159L66.4858 10.8172C65.8599 10.3977 65.2049 10.0234 64.5258 9.69724C63.8258 9.39857 62.6544 9.05324 61.4178 9.7019C60.2044 10.3412 59.8031 11.4799 59.6444 12.2079C59.4995 12.9582 59.4059 13.7175 59.3644 14.4806L59.3178 15.0732V15.1199L58.7951 15.5539C58.1698 16.0672 57.5258 16.5946 57.0684 17.0939C56.5831 17.6259 55.8364 18.6199 56.0278 20.0106C56.2238 21.4432 57.2598 22.1852 57.9084 22.5492C58.4964 22.8759 59.2711 23.1559 59.9944 23.4266L60.4984 23.6132L60.6851 24.1219C60.9558 24.8406 61.2404 25.6152 61.5671 26.2032C61.9264 26.8566 62.6684 27.8926 64.1058 28.0886C65.4918 28.2752 66.4858 27.5286 67.0178 27.0432C67.5171 26.5859 68.0491 25.9419 68.5578 25.3166L68.9871 24.7986H69.0384L69.6358 24.7519C70.4198 24.6866 71.2458 24.6212 71.9038 24.4719C72.6318 24.3086 73.7704 23.9119 74.4098 22.6986C75.0631 21.4619 74.7178 20.2812 74.4098 19.5859C74.085 18.9069 73.7123 18.2519 73.2944 17.6259L72.9958 17.1499L73.1638 16.5619C73.3784 15.7966 73.6071 14.9939 73.6958 14.3266C73.7891 13.6172 73.8358 12.3292 72.8091 11.3026Z" fill="#8B8B8B"/>
<path d="M47.5389 10.08C47.9313 10.32 48.2726 10.635 48.5432 11.007C48.8138 11.3791 49.0084 11.8008 49.1159 12.2481C49.2234 12.6954 49.2417 13.1595 49.1697 13.6138C49.0976 14.0682 48.9368 14.5039 48.6962 14.896C48.3396 15.4775 48.1893 16.1622 48.2698 16.8396C48.3502 17.517 48.6566 18.1475 49.1396 18.6293L49.5969 19.082C52.3456 21.8307 53.3582 25.8673 52.2336 29.582C52.1057 30.0277 51.8907 30.4435 51.6008 30.8053C51.311 31.1672 50.9521 31.4678 50.5451 31.6898C50.1381 31.9118 49.691 32.0508 49.2298 32.0985C48.7687 32.1463 48.3026 32.102 47.8587 31.9681C47.4149 31.8343 47.002 31.6136 46.6441 31.3189C46.2862 31.0241 45.9905 30.6612 45.774 30.2512C45.5576 29.8412 45.4247 29.3923 45.3832 28.9305C45.3417 28.4688 45.3924 28.0034 45.5322 27.5613C45.7178 26.9481 45.7333 26.296 45.5771 25.6746C45.421 25.0532 45.099 24.486 44.6456 24.0333L44.1929 23.576C42.6003 21.9836 41.5898 19.9016 41.324 17.6652C41.0582 15.4288 41.5526 13.168 42.7276 11.2467C43.2107 10.4551 43.9883 9.88758 44.8895 9.66883C45.7907 9.45009 46.7419 9.59797 47.5342 10.08H47.5389ZM99.9129 63.378C99.0855 63.0153 98.1715 62.8972 97.2791 63.0378C96.3867 63.1784 95.5533 63.5718 94.8775 64.1713C93.0362 65.8035 90.7282 66.8151 88.2801 67.063C85.8321 67.3109 83.368 66.7825 81.2369 65.5527L80.2429 64.9833C79.4384 64.5192 78.8512 63.7545 78.6106 62.8575C78.3699 61.9604 78.4954 61.0045 78.9596 60.2C79.4237 59.3955 80.1884 58.8083 81.0854 58.5677C81.9825 58.327 82.9384 58.4525 83.7429 58.9167L84.7369 59.4907C86.4962 60.508 88.7129 60.284 90.2342 58.9353C91.9093 57.4503 93.9745 56.4757 96.1857 56.1268C98.3969 55.7778 100.662 56.069 102.713 56.966L104.071 57.5587C104.492 57.7425 104.873 58.0075 105.192 58.3386C105.511 58.6697 105.762 59.0604 105.929 59.4883C106.097 59.9162 106.179 60.373 106.171 60.8327C106.162 61.2923 106.063 61.7457 105.879 62.167C105.695 62.5883 105.43 62.9693 105.099 63.2882C104.768 63.6071 104.377 63.8577 103.95 64.0256C103.522 64.1935 103.065 64.2755 102.605 64.2669C102.146 64.2582 101.692 64.1592 101.271 63.9753L99.9129 63.378ZM60.2742 33.502C59.8045 33.0329 59.1677 32.7696 58.5039 32.7701C57.8401 32.7705 57.2036 33.0346 56.7346 33.5043C56.2655 33.974 56.0022 34.6108 56.0026 35.2746C56.0031 35.9385 56.2672 36.5749 56.7369 37.044C57.2072 37.5131 57.8446 37.7761 58.5089 37.7752C59.1731 37.7744 59.8098 37.5096 60.2789 37.0393C60.748 36.569 61.011 35.9316 61.0101 35.2674C61.0093 34.6031 60.7445 33.9711 60.2742 33.502Z" fill="#8B8B8B"/>
<path fill-rule="evenodd" clip-rule="evenodd" d="M105.112 41.3654C106.307 43.9507 105.499 46.8861 103.32 49.0654C102.06 50.3254 100.361 50.9041 98.8539 51.1701C97.3139 51.4454 95.6806 51.4501 94.2526 51.3567C92.4994 51.2398 90.758 50.9855 89.0446 50.5961L88.9513 50.5727L88.9279 50.5681H88.9139C88.5013 50.4655 88.1246 50.2523 87.8244 49.9512C87.5242 49.6502 87.312 49.2729 87.2106 48.8601L89.4739 48.3001L87.2106 48.8554L87.2059 48.8461L87.2013 48.8181L87.1779 48.7247C87.0652 48.2341 86.9641 47.7408 86.8746 47.2454C86.6513 46.0136 86.4971 44.7704 86.4126 43.5214C86.2942 41.9856 86.3569 40.4412 86.5993 38.9201C86.8699 37.4081 87.4393 35.7141 88.7086 34.4541C90.8879 32.2701 93.8233 31.4674 96.4086 32.6621C98.3686 33.5674 99.6426 35.3967 100.123 37.6507C102.373 38.1314 104.202 39.4054 105.112 41.3654Z" fill="#8B8B8B"/>
<path d="M82.5536 22.1387C83.463 22.3211 84.2628 22.8571 84.7773 23.6289C85.2918 24.4006 85.4789 25.3451 85.2976 26.2547L84.6256 29.6147C83.7016 34.2347 80.3696 38.0147 75.8989 39.5034C73.8082 40.2034 72.2496 41.9627 71.8202 44.1234L71.1482 47.4834C70.9663 48.3937 70.4302 49.1944 69.6578 49.7095C68.8855 50.2245 67.9402 50.4116 67.0299 50.2297C66.1196 50.0478 65.3188 49.5117 64.8038 48.7393C64.2887 47.967 64.1016 47.0217 64.2836 46.1114L64.9556 42.7514C65.8796 38.1314 69.2116 34.3514 73.6822 32.8627C75.7729 32.1627 77.3316 30.4034 77.7609 28.2427L78.4376 24.8827C78.62 23.9733 79.156 23.1735 79.9277 22.659C80.6995 22.1445 81.6439 21.9573 82.5536 22.1387ZM32.3356 18.494C32.5672 18.2591 32.8431 18.0723 33.1473 17.9445C33.4514 17.8166 33.7779 17.7502 34.1078 17.749C34.4378 17.7479 34.7647 17.812 35.0698 17.9378C35.3748 18.0635 35.652 18.2483 35.8853 18.4816C36.1186 18.715 36.3034 18.9921 36.4292 19.2972C36.5549 19.6022 36.619 19.9291 36.6179 20.2591C36.6167 20.589 36.5503 20.9155 36.4225 21.2197C36.2946 21.5238 36.1078 21.7997 35.8729 22.0314C35.4027 22.4951 34.7682 22.754 34.1078 22.7517C33.4475 22.7494 32.8148 22.486 32.3479 22.0191C31.8809 21.5521 31.6176 20.9195 31.6152 20.2591C31.6129 19.5987 31.8719 18.9642 32.3356 18.494Z" fill="#939393"/>
<path opacity="0.7" d="M92.4794 71.5635C92.2465 71.3309 91.9701 71.1465 91.6659 71.0207C91.3618 70.895 91.0358 70.8304 90.7067 70.8306C90.3776 70.8308 90.0517 70.8958 89.7478 71.022C89.4438 71.1481 89.1676 71.3329 88.935 71.5658C88.7025 71.7987 88.518 72.0751 88.3923 72.3792C88.2666 72.6834 88.2019 73.0093 88.2021 73.3384C88.2024 73.6676 88.2674 73.9934 88.3936 74.2974C88.5197 74.6014 88.7045 74.8775 88.9374 75.1101C89.4077 75.5798 90.0453 75.8435 90.71 75.843C91.3747 75.8426 92.012 75.5781 92.4817 75.1078C92.9514 74.6375 93.215 73.9998 93.2146 73.3351C93.2142 72.6704 92.9497 72.0332 92.4794 71.5635Z" fill="black"/>
<path opacity="0.2" d="M80.0708 47.5067C80.3022 47.2715 80.5778 47.0844 80.8818 46.9562C81.1858 46.8279 81.5121 46.7611 81.842 46.7595C82.1719 46.758 82.4989 46.8217 82.8041 46.947C83.1093 47.0724 83.3867 47.2568 83.6203 47.4898C83.8539 47.7228 84.0391 47.9997 84.1652 48.3046C84.2913 48.6094 84.3559 48.9362 84.3552 49.2661C84.3545 49.5961 84.2886 49.9226 84.1612 50.2269C84.0337 50.5312 83.8474 50.8073 83.6128 51.0393C83.3805 51.2719 83.1047 51.4564 82.8011 51.5824C82.4976 51.7084 82.1721 51.7734 81.8434 51.7736C81.5147 51.7738 81.1892 51.7093 80.8855 51.5837C80.5817 51.4581 80.3057 51.2739 80.0731 51.0417C79.8406 50.8094 79.656 50.5336 79.53 50.23C79.404 49.9264 79.3391 49.601 79.3389 49.2723C79.3387 48.9436 79.4032 48.6181 79.5288 48.3144C79.6543 48.0106 79.8385 47.7346 80.0708 47.502V47.5067Z" fill="black"/>
<path d="M18.7227 73.556L26.6094 49.9007C30.1841 39.1767 31.9714 33.8147 36.1994 32.8207C40.4274 31.8173 44.4267 35.8167 52.4161 43.8107L68.1894 59.5793C76.1787 67.5733 80.1781 71.568 79.1794 75.796C78.1807 80.024 72.8187 81.816 62.0947 85.386L38.4394 93.2727C25.5361 97.5753 19.0821 99.7267 15.6754 96.32C12.2687 92.9133 14.4201 86.4593 18.7227 73.556Z" fill="#CCCCCC"/>
<path d="M41.0666 35.0186L41.3 33.8753C39.4706 32.8019 37.8513 32.4286 36.1993 32.8159C35.5366 32.9715 34.9085 33.2484 34.3466 33.6326L37.5946 34.3046C35.364 33.8379 34.6033 33.6839 34.3466 33.6326C34.2916 33.669 34.2371 33.7064 34.1833 33.7446L34.16 33.8659C33.9293 34.9984 33.7146 36.1341 33.516 37.2726C32.9743 40.2793 32.4904 43.296 32.0646 46.3213C31.0613 53.4753 30.128 62.6173 30.6086 69.9206C30.898 74.3446 31.822 79.8279 32.6386 84.1073C33.0884 86.4525 33.5738 88.7908 34.0946 91.1213L34.1926 91.5553L34.2206 91.6719L34.23 91.7139L34.8693 94.4579L38.4393 93.2726L41.538 92.2413L41.0433 90.0946L41.0153 89.9966L40.922 89.5859L40.586 88.0459C40.2075 86.3002 39.8497 84.5501 39.5126 82.7959C38.7053 78.5633 37.856 73.4299 37.5946 69.4633C37.1653 62.9113 38.0053 54.3619 38.9946 47.2966C39.5637 43.263 40.239 39.2452 41.02 35.2473L41.0573 35.0746L41.0666 35.0279V35.0186ZM60.8533 85.8013L54.208 88.0179L53.7786 86.7206L53.774 86.7066L53.7646 86.6786L53.732 86.5759C53.5419 86.0039 53.3629 85.4283 53.1953 84.8493C52.85 83.6966 52.3926 82.0959 51.9353 80.2619C51.0393 76.6686 50.0593 71.8993 50.0593 67.9233C50.0593 63.9473 51.0393 59.1779 51.9353 55.5893C52.4675 53.4647 53.0667 51.3574 53.732 49.2706L53.7646 49.1726L53.774 49.1399L57.1013 50.2319L53.7786 49.1306L54.768 46.1579L60.3026 51.6973L60.284 51.7626L59.9013 53.0086C59.5793 54.0819 59.1546 55.5753 58.7253 57.2833C57.8526 60.7833 57.0593 64.8526 57.0593 67.9233C57.0593 70.9939 57.8526 75.0679 58.7253 78.5633C59.2183 80.5291 59.7724 82.4792 60.3866 84.4106L60.4146 84.4899L60.4193 84.5086L60.8486 85.8013H60.8533Z" fill="#8B8B8B"/>
</svg>
