<svg width="550" height="594" viewBox="0 0 550 594" fill="none" xmlns="http://www.w3.org/2000/svg">
<path d="M7.84716 93.8626L250.951 3L547 130.357L449.311 394.379L278.169 591L3 398.476L7.84716 93.8626Z" fill="#0E8080"/>
<path d="M7.84716 93.8626L250.951 3L547 130.357M7.84716 93.8626L365.045 283.035M7.84716 93.8626L3 398.476L278.169 591M365.045 283.035L547 130.357M365.045 283.035L278.169 591M547 130.357L449.311 394.379L278.169 591" stroke="white" stroke-width="4"/>
<path d="M44.066 263.044L38.0353 259.024V224.2L44.066 228.22V263.044ZM75.7465 249.34V284.164L72.6513 282.101C72.1854 281.79 71.7926 281.44 71.4731 281.051C71.1536 280.646 70.8408 280.118 70.5346 279.466L56.0968 247.761C56.1368 248.347 56.1634 248.917 56.1767 249.47C56.2033 250.032 56.2167 250.544 56.2167 251.008V271.144L50.9248 267.617V232.793L54.08 234.896C54.3329 235.065 54.5459 235.223 54.719 235.37C54.9053 235.51 55.0718 235.677 55.2182 235.871C55.3646 236.048 55.5044 236.254 55.6376 236.486C55.7707 236.719 55.9171 237.009 56.0769 237.355L70.6145 269.223C70.5612 268.579 70.5213 267.969 70.4946 267.391C70.468 266.797 70.4547 266.244 70.4547 265.732V245.812L75.7465 249.34ZM102.343 293.327C102.676 293.549 102.955 293.88 103.182 294.318L105.558 298.951C104.387 299.962 102.929 300.35 101.185 300.115C99.4542 299.889 97.3907 298.978 94.9944 297.38C92.8244 295.934 90.8741 294.193 89.1434 292.16C87.4127 290.11 85.9417 287.889 84.7302 285.497C83.5187 283.106 82.5868 280.605 81.9345 277.994C81.2822 275.383 80.956 272.789 80.956 270.213C80.956 268.485 81.1091 266.947 81.4153 265.6C81.7348 264.245 82.1941 263.111 82.7932 262.198C83.3923 261.285 84.1111 260.581 84.9499 260.084C85.8019 259.596 86.7604 259.339 87.8254 259.313C88.8904 259.271 90.0487 259.475 91.3001 259.925C92.5648 260.369 93.9094 261.065 95.3338 262.015C96.3989 262.725 97.404 263.507 98.3492 264.361C99.3077 265.224 100.2 266.13 101.025 267.081C101.85 268.031 102.609 269.025 103.302 270.062C104.007 271.093 104.639 272.13 105.199 273.175L103.182 275.142C103.062 275.271 102.909 275.353 102.722 275.388C102.536 275.424 102.283 275.335 101.964 275.122C101.644 274.909 101.318 274.556 100.985 274.062C100.666 273.577 100.266 273.007 99.787 272.351C99.321 271.705 98.7286 271.006 98.0097 270.254C97.3041 269.512 96.4055 268.777 95.3139 268.049C94.1024 267.242 92.9908 266.765 91.979 266.618C90.9672 266.471 90.0953 266.658 89.363 267.178C88.6442 267.691 88.085 268.542 87.6856 269.732C87.2862 270.921 87.0866 272.444 87.0866 274.3C87.0866 276.172 87.2996 277.986 87.7256 279.742C88.1649 281.491 88.7573 283.118 89.5028 284.623C90.2617 286.137 91.1403 287.491 92.1388 288.685C93.1505 289.871 94.2289 290.846 95.3738 291.609C96.0527 292.062 96.6651 292.43 97.2109 292.714C97.7701 293.007 98.2826 293.212 98.7486 293.331C99.2278 293.459 99.6738 293.508 100.087 293.479C100.513 293.459 100.939 293.359 101.365 293.179C101.511 293.133 101.664 293.115 101.824 293.125C101.984 293.136 102.157 293.203 102.343 293.327ZM126.932 312.432V318.288L109.739 306.826V272.002L115.73 275.996V304.964L126.932 312.432ZM142.564 322.949C143.535 323.597 144.407 323.986 145.179 324.117C145.952 324.232 146.604 324.107 147.136 323.742C147.669 323.377 148.075 322.775 148.355 321.938C148.634 321.1 148.774 320.041 148.774 318.761V298.025L154.765 302.019V322.755C154.765 324.867 154.478 326.62 153.906 328.015C153.347 329.402 152.541 330.385 151.49 330.964C150.438 331.543 149.16 331.691 147.656 331.408C146.151 331.125 144.454 330.353 142.564 329.093C140.673 327.833 138.969 326.337 137.451 324.605C135.947 322.882 134.669 321.03 133.617 319.049C132.566 317.068 131.754 315.006 131.181 312.865C130.622 310.716 130.342 308.586 130.342 306.474V285.738L136.333 289.731V310.467C136.333 311.747 136.473 312.993 136.752 314.203C137.032 315.413 137.438 316.556 137.971 317.631C138.503 318.706 139.155 319.701 139.928 320.616C140.7 321.514 141.578 322.292 142.564 322.949ZM176.955 323.485C176.769 323.729 176.576 323.872 176.376 323.915C176.19 323.95 175.943 323.866 175.637 323.662C175.344 323.467 175.025 323.134 174.679 322.663C174.346 322.185 173.953 321.651 173.501 321.062C173.048 320.472 172.529 319.862 171.943 319.231C171.357 318.585 170.672 318 169.886 317.476C168.502 316.553 167.463 316.237 166.771 316.527C166.079 316.802 165.732 317.539 165.732 318.739C165.732 319.507 165.919 320.271 166.292 321.032C166.678 321.785 167.177 322.55 167.789 323.326C168.415 324.111 169.121 324.91 169.906 325.721C170.691 326.533 171.497 327.39 172.322 328.292C173.148 329.178 173.953 330.115 174.739 331.103C175.524 332.091 176.223 333.141 176.835 334.253C177.461 335.374 177.96 336.571 178.333 337.843C178.719 339.109 178.912 340.469 178.912 341.925C178.912 343.509 178.679 344.842 178.213 345.923C177.761 346.998 177.102 347.766 176.236 348.23C175.371 348.677 174.299 348.77 173.021 348.51C171.757 348.259 170.319 347.596 168.708 346.523C167.789 345.91 166.871 345.186 165.952 344.349C165.047 343.522 164.168 342.624 163.316 341.656C162.477 340.697 161.685 339.689 160.94 338.632C160.194 337.575 159.542 336.516 158.983 335.455L160.74 333.219C160.887 333.06 161.08 332.981 161.319 332.981C161.559 332.965 161.812 333.045 162.078 333.223C162.438 333.462 162.817 333.875 163.216 334.462C163.616 335.048 164.075 335.706 164.594 336.436C165.113 337.166 165.713 337.918 166.391 338.69C167.084 339.472 167.909 340.182 168.868 340.821C170.265 341.753 171.344 342.088 172.103 341.826C172.875 341.573 173.261 340.686 173.261 339.166C173.261 338.286 173.068 337.445 172.682 336.644C172.309 335.851 171.816 335.067 171.204 334.291C170.592 333.514 169.893 332.736 169.107 331.957C168.322 331.161 167.516 330.328 166.691 329.458C165.866 328.588 165.06 327.667 164.275 326.695C163.489 325.724 162.79 324.666 162.178 323.521C161.566 322.377 161.066 321.132 160.68 319.787C160.308 318.45 160.121 316.974 160.121 315.358C160.121 314.062 160.334 312.948 160.76 312.016C161.186 311.084 161.812 310.421 162.637 310.027C163.463 309.634 164.474 309.548 165.673 309.771C166.884 310.003 168.269 310.638 169.826 311.676C171.57 312.839 173.181 314.241 174.659 315.882C176.15 317.516 177.408 319.251 178.433 321.086L176.955 323.485ZM190.086 360.391L184.055 356.37V321.546L190.086 325.567V360.391ZM224.942 366.204C224.942 368.748 224.582 370.868 223.863 372.565C223.158 374.271 222.153 375.481 220.848 376.195C219.557 376.918 217.999 377.127 216.175 376.824C214.351 376.504 212.328 375.603 210.105 374.12C207.881 372.638 205.858 370.841 204.034 368.729C202.21 366.601 200.646 364.311 199.341 361.857C198.037 359.403 197.025 356.849 196.306 354.193C195.6 351.547 195.248 348.952 195.248 346.408C195.248 343.864 195.6 341.747 196.306 340.057C197.025 338.361 198.037 337.155 199.341 336.441C200.646 335.727 202.21 335.529 204.034 335.849C205.858 336.153 207.881 337.046 210.105 338.528C212.328 340.011 214.351 341.816 216.175 343.944C217.999 346.055 219.557 348.342 220.848 350.803C222.153 353.257 223.158 355.807 223.863 358.453C224.582 361.092 224.942 363.676 224.942 366.204ZM218.811 362.117C218.811 360.293 218.612 358.528 218.212 356.821C217.813 355.099 217.234 353.481 216.475 351.967C215.729 350.446 214.817 349.062 213.739 347.815C212.674 346.561 211.463 345.482 210.105 344.576C208.747 343.671 207.529 343.131 206.45 342.956C205.372 342.765 204.453 342.929 203.695 343.447C202.949 343.958 202.377 344.808 201.977 345.998C201.578 347.172 201.378 348.671 201.378 350.495C201.378 352.335 201.578 354.116 201.977 355.838C202.377 357.544 202.949 359.15 203.695 360.655C204.453 362.169 205.372 363.557 206.45 364.82C207.529 366.067 208.747 367.143 210.105 368.048C211.463 368.954 212.674 369.497 213.739 369.679C214.817 369.854 215.729 369.686 216.475 369.175C217.234 368.673 217.813 367.835 218.212 366.661C218.612 365.472 218.811 363.957 218.811 362.117ZM254.937 368.801V403.625L251.842 401.561C251.376 401.251 250.984 400.901 250.664 400.512C250.344 400.107 250.032 399.578 249.725 398.926L235.288 367.221C235.328 367.808 235.354 368.378 235.368 368.93C235.394 369.492 235.408 370.005 235.408 370.469V390.605L230.116 387.077V352.253L233.271 354.357C233.524 354.525 233.737 354.683 233.91 354.831C234.096 354.971 234.263 355.138 234.409 355.331C234.556 355.509 234.695 355.714 234.828 355.947C234.962 356.18 235.108 356.469 235.268 356.816L249.805 388.684C249.752 388.04 249.712 387.429 249.686 386.852C249.659 386.258 249.646 385.705 249.646 385.193V365.273L254.937 368.801Z" fill="white"/>
<path d="M247.313 162.851C248.706 163.895 249.746 165.026 250.433 166.241C251.12 167.444 251.442 168.666 251.399 169.905C251.366 171.138 250.968 172.358 250.205 173.564C249.443 174.769 248.309 175.891 246.803 176.928L239.256 182.128L220.191 167.828L227.738 162.629C229.244 161.592 230.851 160.825 232.559 160.329C234.267 159.833 235.984 159.602 237.708 159.637C239.433 159.659 241.116 159.942 242.759 160.486C244.411 161.025 245.929 161.813 247.313 162.851ZM243.148 165.721C242.149 164.972 241.116 164.392 240.048 163.98C238.981 163.569 237.918 163.33 236.861 163.264C235.805 163.198 234.762 163.305 233.734 163.584C232.715 163.858 231.745 164.311 230.826 164.945L227.363 167.33L240.253 176.998L243.715 174.612C244.635 173.979 245.311 173.305 245.743 172.591C246.176 171.865 246.369 171.121 246.322 170.359C246.266 169.591 245.975 168.814 245.448 168.03C244.922 167.246 244.155 166.476 243.148 165.721ZM264.461 164.764L260.376 167.578L241.31 153.279L245.395 150.465L264.461 164.764ZM267.218 135.432L278.385 155.172L274.706 157.706L247.741 148.849L251.015 146.594C251.366 146.352 251.734 146.219 252.116 146.194C252.5 146.157 252.872 146.197 253.234 146.313L268.466 151.625C269.04 151.822 269.649 152.052 270.293 152.314C270.937 152.564 271.594 152.842 272.263 153.15C271.846 152.668 271.464 152.2 271.118 151.746C270.772 151.279 270.474 150.835 270.224 150.414L263.46 139.269C263.331 139.042 263.292 138.786 263.342 138.499C263.392 138.2 263.589 137.932 263.932 137.696L267.218 135.432ZM276.748 133.309L281.649 136.985L288.196 132.475L291.178 134.712L284.632 139.222L289.638 142.977L298.051 137.181L301.139 139.497L288.641 148.107L269.576 133.808L282.073 125.198L285.161 127.514L276.748 133.309ZM300.817 125.274C301.476 124.821 301.965 124.37 302.285 123.923C302.597 123.469 302.766 123.031 302.792 122.609C302.809 122.181 302.697 121.773 302.456 121.385C302.215 120.996 301.867 120.631 301.411 120.29C300.509 119.613 299.497 119.302 298.376 119.356C297.263 119.404 296.076 119.863 294.814 120.732L292.704 122.186L298.735 126.709L300.817 125.274ZM320.365 126.253L316.699 128.778C316.014 129.25 315.264 129.401 314.449 129.231L304.869 127.417C304.488 127.352 304.15 127.345 303.856 127.397C303.57 127.442 303.247 127.589 302.887 127.838L301.507 128.788L308.773 134.238L304.715 137.033L285.65 122.734L291.818 118.485C293.188 117.541 294.501 116.839 295.755 116.378C297 115.911 298.179 115.647 299.292 115.586C300.405 115.525 301.447 115.652 302.419 115.966C303.382 116.273 304.271 116.732 305.085 117.343C305.716 117.816 306.221 118.331 306.601 118.889C306.982 119.433 307.228 120.001 307.341 120.591C307.453 121.182 307.432 121.789 307.277 122.412C307.122 123.035 306.825 123.656 306.386 124.274C306.788 124.199 307.202 124.159 307.629 124.155C308.047 124.144 308.482 124.179 308.934 124.258L320.365 126.253ZM318.042 105.675C318.118 105.913 318.136 106.115 318.097 106.281C318.058 106.433 317.935 106.581 317.728 106.724C317.529 106.861 317.247 106.96 316.881 107.023C316.516 107.074 316.101 107.145 315.637 107.238C315.172 107.331 314.676 107.465 314.148 107.64C313.611 107.808 313.077 108.075 312.545 108.442C311.607 109.088 311.11 109.727 311.052 110.358C310.986 110.984 311.282 111.543 311.939 112.035C312.359 112.351 312.836 112.526 313.369 112.563C313.902 112.586 314.476 112.531 315.093 112.396C315.718 112.255 316.375 112.061 317.065 111.812C317.755 111.564 318.476 111.32 319.227 111.079C319.97 110.832 320.735 110.62 321.521 110.445C322.307 110.269 323.1 110.182 323.9 110.186C324.709 110.183 325.521 110.305 326.334 110.551C327.147 110.785 327.952 111.201 328.749 111.798C329.617 112.449 330.273 113.169 330.72 113.958C331.167 114.734 331.382 115.537 331.365 116.368C331.34 117.192 331.056 118.024 330.514 118.863C329.982 119.697 329.17 120.489 328.079 121.241C327.457 121.669 326.773 122.052 326.029 122.389C325.293 122.719 324.527 123.001 323.731 123.234C322.944 123.461 322.144 123.634 321.333 123.752C320.521 123.87 319.738 123.918 318.983 123.896L318.307 121.677C318.266 121.503 318.283 121.328 318.358 121.15C318.424 120.966 318.547 120.812 318.727 120.688C318.97 120.52 319.315 120.409 319.761 120.354C320.206 120.299 320.71 120.229 321.272 120.145C321.834 120.06 322.433 119.925 323.068 119.74C323.712 119.548 324.358 119.229 325.008 118.781C325.954 118.129 326.475 117.468 326.568 116.799C326.671 116.123 326.306 115.473 325.474 114.849C324.992 114.488 324.471 114.286 323.912 114.242C323.362 114.193 322.778 114.236 322.162 114.37C321.546 114.505 320.902 114.703 320.229 114.964C319.549 115.219 318.841 115.473 318.107 115.727C317.372 115.981 316.617 116.199 315.839 116.381C315.062 116.564 314.265 116.647 313.447 116.631C312.629 116.614 311.792 116.473 310.935 116.206C310.086 115.933 309.22 115.465 308.335 114.801C307.626 114.269 307.082 113.654 306.705 112.956C306.328 112.258 306.161 111.523 306.203 110.75C306.245 109.977 306.514 109.193 307.01 108.397C307.516 107.596 308.296 106.831 309.351 106.105C310.532 105.291 311.803 104.674 313.163 104.254C314.523 103.821 315.866 103.602 317.191 103.596L318.042 105.675ZM342.349 111.108L338.264 113.922L319.199 99.6228L323.283 96.8089L342.349 111.108ZM345 86.4242L339.265 90.3749L355.15 102.289L351.079 105.094L335.194 93.1795L329.459 97.1301L326.279 94.7453L341.82 84.0394L345 86.4242ZM365.402 84.677L372.734 90.1759L368.676 92.9712L361.345 87.4723L342.483 83.5825L346.054 81.1227C346.405 80.8804 346.768 80.7503 347.142 80.7322C347.516 80.7014 347.893 80.7378 348.274 80.8413L357.497 83.1273C358.117 83.2804 358.687 83.4293 359.209 83.5741C359.74 83.7127 360.248 83.8667 360.734 84.0364C360.509 83.6866 360.303 83.3244 360.115 82.9498C359.927 82.5624 359.74 82.1495 359.553 81.711L356.741 75.0085C356.639 74.7763 356.604 74.5166 356.636 74.2296C356.669 73.9425 356.856 73.681 357.199 73.445L360.797 70.9665L365.402 84.677Z" fill="white"/>
<path d="M365.644 380.521V386.725L371.661 381.377V385.153L365.644 390.501V396.838L373.377 389.965V393.874L361.89 404.084V379.95L373.377 369.739V373.648L365.644 380.521ZM379.072 376.735C379.072 378.011 379.196 379.042 379.445 379.83C379.694 380.607 380.05 381.139 380.514 381.425C380.987 381.703 381.558 381.733 382.23 381.513C382.901 381.282 383.659 380.791 384.505 380.04C385.35 379.288 386.104 378.435 386.767 377.48C387.439 376.506 388.006 375.464 388.47 374.353C388.943 373.234 389.303 372.065 389.552 370.846C389.801 369.616 389.925 368.364 389.925 367.088C389.925 365.824 389.801 364.804 389.552 364.027C389.303 363.239 388.943 362.705 388.47 362.427C388.006 362.129 387.439 362.096 386.767 362.327C386.104 362.539 385.35 363.021 384.505 363.773C383.659 364.524 382.901 365.387 382.23 366.36C381.558 367.323 380.987 368.369 380.514 369.499C380.05 370.61 379.694 371.781 379.445 373.011C379.196 374.23 379.072 375.471 379.072 376.735ZM394.711 379.534L391.641 382.263C391.193 382.661 390.791 382.94 390.435 383.102C390.087 383.256 389.763 383.255 389.465 383.099L387.016 381.633C386.212 382.603 385.375 383.475 384.505 384.248C383.121 385.478 381.861 386.288 380.725 386.676C379.59 387.053 378.616 387.054 377.804 386.678C376.992 386.302 376.362 385.559 375.914 384.449C375.475 383.331 375.255 381.891 375.255 380.128C375.255 378.365 375.475 376.539 375.914 374.652C376.362 372.746 376.992 370.883 377.804 369.064C378.616 367.244 379.59 365.519 380.725 363.889C381.861 362.247 383.121 360.811 384.505 359.581C385.889 358.351 387.149 357.547 388.284 357.17C389.419 356.782 390.389 356.785 391.193 357.179C392.005 357.555 392.631 358.301 393.07 359.419C393.518 360.518 393.742 361.944 393.742 363.696C393.742 364.76 393.659 365.854 393.493 366.977C393.335 368.082 393.103 369.198 392.797 370.324C392.49 371.439 392.113 372.556 391.665 373.675C391.218 374.793 390.712 375.875 390.149 376.919L394.711 379.534ZM404.359 362.342C404.964 361.804 405.507 361.189 405.987 360.495C406.468 359.791 406.874 359.042 407.206 358.248C407.537 357.454 407.79 356.625 407.964 355.761C408.138 354.896 408.225 354.021 408.225 353.134V338.763L411.955 335.447V349.818C411.955 351.282 411.776 352.788 411.42 354.335C411.072 355.865 410.571 357.364 409.916 358.833C409.261 360.302 408.465 361.702 407.529 363.034C406.592 364.365 405.536 365.554 404.359 366.6C403.182 367.646 402.121 368.34 401.176 368.68C400.24 369.014 399.444 369.028 398.789 368.723C398.135 368.418 397.629 367.814 397.273 366.911C396.925 365.989 396.751 364.797 396.751 363.333V348.962L400.48 345.647V360.018C400.48 360.905 400.567 361.626 400.741 362.181C400.915 362.736 401.168 363.116 401.499 363.32C401.831 363.524 402.237 363.551 402.718 363.401C403.198 363.24 403.745 362.887 404.359 362.342ZM419.752 352.651L415.998 355.988V331.853L419.752 328.516V352.651ZM436.79 317.397L431.518 322.083V342.192L427.777 345.518V325.409L422.505 330.094V326.069L436.79 313.372V317.397ZM447.68 318.545V327.826L443.951 331.141V321.86L437.399 312.83L440.681 309.913C441.004 309.625 441.261 309.502 441.452 309.544C441.651 309.566 441.808 309.687 441.924 309.906L444.883 314.877C445.082 315.21 445.26 315.529 445.418 315.832C445.583 316.128 445.728 316.443 445.853 316.776C445.969 316.229 446.101 315.668 446.25 315.092C446.408 314.497 446.582 313.866 446.773 313.197L449.706 302.988C449.806 302.633 449.955 302.251 450.154 301.842C450.353 301.432 450.61 301.087 450.925 300.807L454.232 297.868L447.68 318.545Z" fill="white"/>
</svg>
