<svg width="219" height="590" viewBox="0 0 219 590" fill="none" xmlns="http://www.w3.org/2000/svg">
<g opacity="0.05">
<path d="M263.509 4.3014L522 157.276V475.038C522 475.397 521.807 475.729 521.495 475.907L263 623L4.46255 458.228C4.17443 458.044 4 457.726 4 457.385V157.276L262.491 4.3014C262.805 4.11552 263.195 4.11553 263.509 4.3014Z" fill="white"/>
<path d="M4 157.276L263 310.552M4 157.276L262.491 4.3014C262.805 4.11552 263.195 4.11553 263.509 4.3014L522 157.276M4 157.276V457.385C4 457.726 4.17443 458.044 4.46255 458.228L263 623M263 310.552L522 157.276M263 310.552V623M522 157.276V475.038C522 475.397 521.807 475.729 521.495 475.907L263 623" stroke="#0E8080" stroke-width="7" stroke-linejoin="round"/>
<path d="M215.909 216.228L168.818 186.752L327.75 92.4285L374.841 121.905L215.909 216.228Z" fill="#0E8080"/>
<path d="M145.273 169.067L98.1816 139.59L257.113 45.2666L304.204 74.7428L145.273 169.067Z" fill="#0E8080"/>
</g>
</svg>
