<svg width="470" height="559" viewBox="0 0 470 559" fill="none" xmlns="http://www.w3.org/2000/svg">
<path d="M235 4L466 140.5V424L235 555.25L4 408.25V140.5L235 4Z" fill="#12A2A2"/>
<path d="M4 140.5L235 277M4 140.5L235 4L466 140.5M4 140.5V408.25L235 555.25M235 277L466 140.5M235 277V555.25M466 140.5V424L235 555.25" stroke="white" stroke-width="8"/>
<path d="M111.139 163.063L72.1881 138.93L236.288 36.725L275.239 60.8578L111.139 163.063Z" fill="white"/>
<path d="M172.412 202.449L133.461 178.316L297.56 76.1115L336.511 100.244L172.412 202.449Z" fill="white"/>
<path d="M236.338 243.025L197.387 218.892L361.487 116.687L400.437 140.82L236.338 243.025Z" fill="white"/>
</svg>
