<svg width="561" height="561" viewBox="0 0 561 561" fill="none" xmlns="http://www.w3.org/2000/svg">
<rect width="561" height="561" rx="38.359" fill="#F5F5F5"/>
<path d="M279 49L391 114.619V250.905L279 314L167 243.333V114.619L279 49Z" fill="#0E8080"/>
<path d="M167 114.619L279 180.238M167 114.619L279 49L391 114.619M167 114.619V243.333L279 314M279 180.238L391 114.619M279 180.238V314M391 114.619V250.905L279 314" stroke="#F5F5F5" stroke-width="4.06453"/>
<path d="M391.5 247L503 312.619V448.905L391.5 512L280 441.333V312.619L391.5 247Z" fill="#0E8080"/>
<path d="M280 312.619L391.5 378.238M280 312.619L391.5 247L503 312.619M280 312.619V441.333L391.5 512M391.5 378.238L503 312.619M391.5 378.238V512M503 312.619V448.905L391.5 512" stroke="#F5F5F5" stroke-width="4.06453"/>
<path d="M168.5 241L280 306.371V442.143L168.5 505L57 434.6V306.371L168.5 241Z" fill="#0E8080"/>
<path d="M57 306.371L168.5 371.743M57 306.371L168.5 241L280 306.371M57 306.371V434.6L168.5 505M168.5 371.743L280 306.371M168.5 371.743V505M280 306.371V442.143L168.5 505" stroke="#F5F5F5" stroke-width="4.06453"/>
</svg>
