<svg width="316" height="304" viewBox="0 0 316 304" fill="none" xmlns="http://www.w3.org/2000/svg">
<path d="M141.667 155.667C141.667 159.385 143.145 162.949 145.776 165.576L215.346 235.021C219.279 238.947 219.206 245.168 215.139 248.518C206.853 255.344 197.627 260.91 187.455 265.216C173.622 271.071 159.032 274 143.667 274C123.209 274 104.371 268.973 87.1161 258.921C69.8454 248.86 56.1832 235.222 46.1051 217.983C36.0359 200.76 31 181.958 31 161.538C31 141.119 36.0359 122.317 46.1051 105.094C56.1832 87.8546 69.8454 74.2166 87.1161 64.1561C101.012 56.0611 115.928 51.2283 131.882 49.6506C137.167 49.1279 141.667 53.4932 141.667 59.0769V155.667ZM274.868 130.678C275.393 135.961 271.029 140.462 265.444 140.462H174.778C169.255 140.462 164.778 135.984 164.778 130.462V40C164.778 34.4163 169.278 30.051 174.563 30.5736C190.516 32.1514 205.432 36.9842 219.328 45.0791C236.599 55.1397 250.261 68.7777 260.339 86.0166C268.445 99.8813 273.285 114.762 274.868 130.678Z" stroke="#0E8080" stroke-width="4" stroke-linejoin="round"/>
<path d="M200.557 163.539H275C280.586 163.539 284.946 168.039 284.408 173.316C283.281 184.375 280.546 195.016 276.201 205.245C271.884 215.408 266.302 224.624 259.455 232.901C256.103 236.953 249.896 237.022 245.974 233.1L193.485 180.61C187.186 174.31 191.648 163.539 200.557 163.539Z" stroke="#CC9866" stroke-width="4" stroke-linejoin="round"/>
<path d="M117.375 170.297C117.375 173.625 116.82 176.682 115.711 179.466C114.601 182.25 113.042 184.647 111.032 186.657C109.022 188.667 106.604 190.226 103.778 191.336C100.952 192.445 97.8121 193 94.3579 193H77.0556V147.593H94.3579C97.8121 147.593 100.952 148.159 103.778 149.289C106.604 150.399 109.022 151.958 111.032 153.968C113.042 155.957 114.601 158.343 115.711 161.127C116.82 163.912 117.375 166.968 117.375 170.297ZM108.708 170.297C108.708 167.805 108.373 165.576 107.704 163.608C107.055 161.619 106.102 159.945 104.846 158.584C103.611 157.202 102.104 156.145 100.324 155.412C98.5657 154.68 96.5769 154.313 94.3579 154.313H85.5341V186.28H94.3579C96.5769 186.28 98.5657 185.914 100.324 185.181C102.104 184.448 103.611 183.402 104.846 182.041C106.102 180.659 107.055 178.984 107.704 177.017C108.373 175.028 108.708 172.788 108.708 170.297Z" fill="#0E8080"/>
<path d="M200.534 82.3133V94.9053H216.423V101.405H200.534V114.249H220.694V121H192.056V75.5934H220.694V82.3133H200.534Z" fill="#0E8080"/>
<path d="M250.534 216H242.056V170.593H250.534V216Z" fill="#CC9866"/>
</svg>
