<svg width="218" height="217" viewBox="0 0 218 217" fill="none" xmlns="http://www.w3.org/2000/svg">
<g filter="url(#filter0_d_770_4299)">
<rect x="46" y="41" width="126" height="126" rx="18" fill="white"/>
<rect x="46.75" y="41.75" width="124.5" height="124.5" rx="17.25" stroke="#DFDFDF" stroke-width="1.5"/>
<path d="M92.1429 99.5124V104.297H98.1808V106.767H92.1429V111.648H99.8037V114.213H88.9211V96.9589H99.8037V99.5124H92.1429ZM108.34 105.168C108.945 105.168 109.47 105.093 109.915 104.942C110.369 104.791 110.739 104.584 111.025 104.321C111.319 104.051 111.538 103.733 111.681 103.367C111.824 103.001 111.896 102.599 111.896 102.161C111.896 101.286 111.606 100.614 111.025 100.145C110.452 99.6755 109.573 99.4408 108.388 99.4408H106.335V105.168H108.34ZM116.597 114.213H113.698C113.149 114.213 112.751 113.999 112.505 113.569L108.877 108.044C108.742 107.837 108.591 107.69 108.424 107.603C108.265 107.515 108.026 107.471 107.708 107.471H106.335V114.213H103.126V96.9589H108.388C109.557 96.9589 110.56 97.0822 111.395 97.3288C112.238 97.5674 112.926 97.9055 113.459 98.343C114 98.7806 114.398 99.3056 114.652 99.9181C114.907 100.523 115.034 101.191 115.034 101.923C115.034 102.504 114.947 103.052 114.772 103.57C114.605 104.087 114.358 104.556 114.032 104.978C113.714 105.399 113.316 105.769 112.839 106.087C112.369 106.405 111.832 106.656 111.228 106.839C111.435 106.958 111.626 107.102 111.801 107.269C111.976 107.428 112.135 107.619 112.278 107.841L116.597 114.213ZM124.546 105.634C125.135 105.634 125.648 105.562 126.086 105.419C126.523 105.268 126.885 105.057 127.172 104.787C127.466 104.508 127.685 104.174 127.828 103.784C127.971 103.387 128.043 102.945 128.043 102.46C128.043 101.998 127.971 101.581 127.828 101.207C127.685 100.833 127.47 100.515 127.184 100.252C126.897 99.9897 126.535 99.7909 126.098 99.6556C125.66 99.5124 125.143 99.4408 124.546 99.4408H122.148V105.634H124.546ZM124.546 96.9589C125.7 96.9589 126.698 97.0941 127.542 97.3646C128.385 97.635 129.081 98.0129 129.63 98.4982C130.179 98.9834 130.584 99.5641 130.847 100.24C131.117 100.917 131.253 101.656 131.253 102.46C131.253 103.295 131.113 104.063 130.835 104.763C130.556 105.455 130.139 106.051 129.582 106.553C129.025 107.054 128.325 107.444 127.482 107.722C126.647 108 125.668 108.14 124.546 108.14H122.148V114.213H118.938V96.9589H124.546Z" fill="#0E8080"/>
<rect x="58.5" y="54.5" width="100" height="100" rx="5.5" stroke="#0E8080" stroke-width="3"/>
</g>
<defs>
<filter id="filter0_d_770_4299" x="0.960632" y="0.464569" width="216.079" height="216.079" filterUnits="userSpaceOnUse" color-interpolation-filters="sRGB">
<feFlood flood-opacity="0" result="BackgroundImageFix"/>
<feColorMatrix in="SourceAlpha" type="matrix" values="0 0 0 0 0 0 0 0 0 0 0 0 0 0 0 0 0 0 127 0" result="hardAlpha"/>
<feMorphology radius="4.50394" operator="dilate" in="SourceAlpha" result="effect1_dropShadow_770_4299"/>
<feOffset dy="4.50394"/>
<feGaussianBlur stdDeviation="20.2677"/>
<feComposite in2="hardAlpha" operator="out"/>
<feColorMatrix type="matrix" values="0 0 0 0 0 0 0 0 0 0 0 0 0 0 0 0 0 0 0.05 0"/>
<feBlend mode="normal" in2="BackgroundImageFix" result="effect1_dropShadow_770_4299"/>
<feBlend mode="normal" in="SourceGraphic" in2="effect1_dropShadow_770_4299" result="shape"/>
</filter>
</defs>
</svg>
