<svg width="313" height="313" viewBox="0 0 313 313" fill="none" xmlns="http://www.w3.org/2000/svg">
<g clip-path="url(#clip0_309_1526)">
<g clip-path="url(#clip1_309_1526)">
<path fill-rule="evenodd" clip-rule="evenodd" d="M218.1 139.067C217.561 139.067 217.044 139.281 216.662 139.662C216.281 140.044 216.067 140.561 216.067 141.1C216.067 141.639 216.281 142.156 216.662 142.538C217.044 142.919 217.561 143.133 218.1 143.133C218.639 143.133 219.156 142.919 219.538 142.538C219.919 142.156 220.133 141.639 220.133 141.1C220.133 140.561 219.919 140.044 219.538 139.662C219.156 139.281 218.639 139.067 218.1 139.067ZM213.787 136.787C214.931 135.643 216.482 135 218.1 135C219.718 135 221.269 135.643 222.413 136.787C223.063 137.436 223.551 138.217 223.851 139.067H230.3C234.075 139.067 237.695 140.566 240.364 143.236C243.034 145.905 244.533 149.525 244.533 153.3V177.7C244.533 180.396 245.604 182.982 247.511 184.889C249.418 186.796 252.004 187.867 254.7 187.867H261.149C261.449 187.017 261.937 186.236 262.587 185.587C263.731 184.443 265.282 183.8 266.9 183.8C268.518 183.8 270.069 184.443 271.213 185.587C272.357 186.731 273 188.282 273 189.9C273 191.518 272.357 193.069 271.213 194.213C270.069 195.357 268.518 196 266.9 196C265.282 196 263.731 195.357 262.587 194.213C261.937 193.564 261.449 192.783 261.149 191.933H254.7C250.925 191.933 247.305 190.434 244.636 187.764C241.966 185.095 240.467 181.475 240.467 177.7V153.3C240.467 150.604 239.396 148.018 237.489 146.111C235.582 144.204 232.996 143.133 230.3 143.133H223.851C223.551 143.983 223.063 144.764 222.413 145.413C221.269 146.557 219.718 147.2 218.1 147.2C216.482 147.2 214.931 146.557 213.787 145.413C212.643 144.269 212 142.718 212 141.1C212 139.482 212.643 137.931 213.787 136.787ZM266.9 187.867C266.361 187.867 265.844 188.081 265.462 188.462C265.081 188.844 264.867 189.361 264.867 189.9C264.867 190.439 265.081 190.956 265.462 191.338C265.844 191.719 266.361 191.933 266.9 191.933C267.439 191.933 267.956 191.719 268.338 191.338C268.719 190.956 268.933 190.439 268.933 189.9C268.933 189.361 268.719 188.844 268.338 188.462C267.956 188.081 267.439 187.867 266.9 187.867Z" fill="#CC9866"/>
</g>
<g clip-path="url(#clip2_309_1526)">
<path fill-rule="evenodd" clip-rule="evenodd" d="M102.9 166.933C103.439 166.933 103.956 166.719 104.338 166.338C104.719 165.956 104.933 165.439 104.933 164.9C104.933 164.361 104.719 163.844 104.338 163.462C103.956 163.081 103.439 162.867 102.9 162.867C102.361 162.867 101.844 163.081 101.462 163.462C101.081 163.844 100.867 164.361 100.867 164.9C100.867 165.439 101.081 165.956 101.462 166.338C101.844 166.719 102.361 166.933 102.9 166.933ZM107.213 169.213C106.069 170.357 104.518 171 102.9 171C101.282 171 99.7306 170.357 98.5866 169.213C97.9372 168.564 97.4493 167.783 97.1489 166.933H90.7C86.9251 166.933 83.3048 165.434 80.6355 162.764C77.9662 160.095 76.4667 156.475 76.4667 152.7V128.3C76.4667 125.604 75.3955 123.018 73.4889 121.111C71.5823 119.204 68.9964 118.133 66.3 118.133H59.8511C59.5507 118.983 59.0628 119.764 58.4134 120.413C57.2694 121.557 55.7178 122.2 54.1 122.2C52.4822 122.2 50.9306 121.557 49.7866 120.413C48.6427 119.269 48 117.718 48 116.1C48 114.482 48.6427 112.931 49.7866 111.787C50.9306 110.643 52.4822 110 54.1 110C55.7178 110 57.2694 110.643 58.4134 111.787C59.0628 112.436 59.5507 113.217 59.8511 114.067H66.3C70.0749 114.067 73.6952 115.566 76.3645 118.236C79.0338 120.905 80.5333 124.525 80.5333 128.3V152.7C80.5333 155.396 81.6045 157.982 83.5111 159.889C85.4177 161.796 88.0036 162.867 90.7 162.867H97.1489C97.4493 162.017 97.9372 161.236 98.5866 160.587C99.7306 159.443 101.282 158.8 102.9 158.8C104.518 158.8 106.069 159.443 107.213 160.587C108.357 161.731 109 163.282 109 164.9C109 166.518 108.357 168.069 107.213 169.213ZM54.1 118.133C54.6393 118.133 55.1565 117.919 55.5378 117.538C55.9191 117.156 56.1333 116.639 56.1333 116.1C56.1333 115.561 55.9191 115.044 55.5378 114.662C55.1565 114.281 54.6393 114.067 54.1 114.067C53.5607 114.067 53.0435 114.281 52.6622 114.662C52.2809 115.044 52.0667 115.561 52.0667 116.1C52.0667 116.639 52.2809 117.156 52.6622 117.538C53.0435 117.919 53.5607 118.133 54.1 118.133Z" fill="#CC9866"/>
</g>
<g clip-path="url(#clip3_309_1526)">
<path fill-rule="evenodd" clip-rule="evenodd" d="M204.933 50.1C204.933 49.5607 204.719 49.0435 204.338 48.6622C203.956 48.2809 203.439 48.0667 202.9 48.0667C202.361 48.0667 201.844 48.2809 201.462 48.6622C201.081 49.0435 200.867 49.5607 200.867 50.1C200.867 50.6393 201.081 51.1565 201.462 51.5378C201.844 51.9191 202.361 52.1333 202.9 52.1333C203.439 52.1333 203.956 51.9191 204.338 51.5378C204.719 51.1565 204.933 50.6393 204.933 50.1ZM207.213 45.7866C208.357 46.9306 209 48.4822 209 50.1C209 51.7178 208.357 53.2694 207.213 54.4134C206.564 55.0628 205.783 55.5507 204.933 55.8511L204.933 62.3C204.933 66.0749 203.434 69.6952 200.764 72.3645C198.095 75.0338 194.475 76.5333 190.7 76.5333L166.3 76.5333C163.604 76.5333 161.018 77.6045 159.111 79.5111C157.204 81.4177 156.133 84.0036 156.133 86.7L156.133 93.1489C156.983 93.4493 157.764 93.9372 158.413 94.5866C159.557 95.7306 160.2 97.2822 160.2 98.9C160.2 100.518 159.557 102.069 158.413 103.213C157.269 104.357 155.718 105 154.1 105C152.482 105 150.931 104.357 149.787 103.213C148.643 102.069 148 100.518 148 98.9C148 97.2822 148.643 95.7306 149.787 94.5866C150.436 93.9372 151.217 93.4493 152.067 93.1489L152.067 86.7C152.067 82.9251 153.566 79.3048 156.236 76.6355C158.905 73.9662 162.525 72.4667 166.3 72.4667L190.7 72.4667C193.396 72.4667 195.982 71.3955 197.889 69.4889C199.796 67.5823 200.867 64.9964 200.867 62.3L200.867 55.8511C200.017 55.5507 199.236 55.0628 198.587 54.4134C197.443 53.2694 196.8 51.7178 196.8 50.1C196.8 48.4822 197.443 46.9306 198.587 45.7866C199.731 44.6427 201.282 44 202.9 44C204.518 44 206.069 44.6427 207.213 45.7866ZM156.133 98.9C156.133 98.3607 155.919 97.8435 155.538 97.4622C155.156 97.0809 154.639 96.8667 154.1 96.8667C153.561 96.8667 153.044 97.0809 152.662 97.4622C152.281 97.8435 152.067 98.3607 152.067 98.9C152.067 99.4393 152.281 99.9565 152.662 100.338C153.044 100.719 153.561 100.933 154.1 100.933C154.639 100.933 155.156 100.719 155.538 100.338C155.919 99.9565 156.133 99.4393 156.133 98.9Z" fill="#CC9866"/>
</g>
<g clip-path="url(#clip4_309_1526)">
<path fill-rule="evenodd" clip-rule="evenodd" d="M158.933 213.1C158.933 212.561 158.719 212.044 158.338 211.662C157.956 211.281 157.439 211.067 156.9 211.067C156.361 211.067 155.844 211.281 155.462 211.662C155.081 212.044 154.867 212.561 154.867 213.1C154.867 213.639 155.081 214.156 155.462 214.538C155.844 214.919 156.361 215.133 156.9 215.133C157.439 215.133 157.956 214.919 158.338 214.538C158.719 214.156 158.933 213.639 158.933 213.1ZM161.213 208.787C162.357 209.931 163 211.482 163 213.1C163 214.718 162.357 216.269 161.213 217.413C160.564 218.063 159.783 218.551 158.933 218.851L158.933 225.3C158.933 229.075 157.434 232.695 154.764 235.364C152.095 238.034 148.475 239.533 144.7 239.533L120.3 239.533C117.604 239.533 115.018 240.604 113.111 242.511C111.204 244.418 110.133 247.004 110.133 249.7L110.133 256.149C110.983 256.449 111.764 256.937 112.413 257.587C113.557 258.731 114.2 260.282 114.2 261.9C114.2 263.518 113.557 265.069 112.413 266.213C111.269 267.357 109.718 268 108.1 268C106.482 268 104.931 267.357 103.787 266.213C102.643 265.069 102 263.518 102 261.9C102 260.282 102.643 258.731 103.787 257.587C104.436 256.937 105.217 256.449 106.067 256.149L106.067 249.7C106.067 245.925 107.566 242.305 110.236 239.636C112.905 236.966 116.525 235.467 120.3 235.467L144.7 235.467C147.396 235.467 149.982 234.396 151.889 232.489C153.796 230.582 154.867 227.996 154.867 225.3L154.867 218.851C154.017 218.551 153.236 218.063 152.587 217.413C151.443 216.269 150.8 214.718 150.8 213.1C150.8 211.482 151.443 209.931 152.587 208.787C153.731 207.643 155.282 207 156.9 207C158.518 207 160.069 207.643 161.213 208.787ZM110.133 261.9C110.133 261.361 109.919 260.844 109.538 260.462C109.156 260.081 108.639 259.867 108.1 259.867C107.561 259.867 107.044 260.081 106.662 260.462C106.281 260.844 106.067 261.361 106.067 261.9C106.067 262.439 106.281 262.956 106.662 263.338C107.044 263.719 107.561 263.933 108.1 263.933C108.639 263.933 109.156 263.719 109.538 263.338C109.919 262.956 110.133 262.439 110.133 261.9Z" fill="#CC9866"/>
</g>
<path d="M215.375 45C218.787 45 221.703 43.8187 224.123 41.4562C226.542 39.0937 227.751 36.2062 227.75 32.7937C227.75 29.8687 226.869 27.2625 225.106 24.975C223.344 22.6875 221.037 21.225 218.187 20.5875C217.25 17.1375 215.375 14.3438 212.562 12.2063C209.75 10.0688 206.562 9 203 9C198.612 9 194.89 10.5285 191.833 13.5855C188.776 16.6425 187.249 20.364 187.25 24.75C184.662 25.05 182.515 26.166 180.808 28.098C179.101 30.03 178.249 32.289 178.25 34.875C178.25 37.6875 179.235 40.0785 181.204 42.048C183.174 44.0175 185.564 45.0015 188.375 45H215.375ZM215.375 40.5H188.375C186.8 40.5 185.469 39.9562 184.381 38.8687C183.294 37.7812 182.75 36.45 182.75 34.875C182.75 33.3 183.294 31.9688 184.381 30.8813C185.469 29.7938 186.8 29.25 188.375 29.25H191.75V24.75C191.75 21.6375 192.847 18.984 195.042 16.7895C197.236 14.595 199.889 13.4985 203 13.5C206.112 13.5 208.766 14.5972 210.96 16.7917C213.155 18.9862 214.251 21.639 214.25 24.75H215.375C217.55 24.75 219.406 25.5187 220.944 27.0562C222.481 28.5938 223.25 30.45 223.25 32.625C223.25 34.8 222.481 36.6562 220.944 38.1938C219.406 39.7313 217.55 40.5 215.375 40.5Z" fill="#0E8080"/>
<g filter="url(#filter0_d_309_1526)">
<rect x="96" y="92" width="126" height="126" rx="18" fill="white"/>
<path d="M142.143 150.512V155.297H148.181V157.767H142.143V162.648H149.804V165.213H138.921V147.959H149.804V150.512H142.143ZM158.34 156.168C158.945 156.168 159.47 156.093 159.915 155.942C160.369 155.791 160.739 155.584 161.025 155.321C161.319 155.051 161.538 154.733 161.681 154.367C161.824 154.001 161.896 153.599 161.896 153.161C161.896 152.286 161.606 151.614 161.025 151.145C160.452 150.676 159.573 150.441 158.388 150.441H156.335V156.168H158.34ZM166.597 165.213H163.698C163.149 165.213 162.751 164.999 162.505 164.569L158.877 159.044C158.742 158.837 158.591 158.69 158.424 158.603C158.265 158.515 158.026 158.471 157.708 158.471H156.335V165.213H153.126V147.959H158.388C159.557 147.959 160.56 148.082 161.395 148.329C162.238 148.567 162.926 148.906 163.459 149.343C164 149.781 164.398 150.306 164.652 150.918C164.907 151.523 165.034 152.191 165.034 152.923C165.034 153.504 164.947 154.052 164.772 154.57C164.605 155.087 164.358 155.556 164.032 155.978C163.714 156.399 163.316 156.769 162.839 157.087C162.369 157.405 161.832 157.656 161.228 157.839C161.435 157.958 161.626 158.102 161.801 158.269C161.976 158.428 162.135 158.619 162.278 158.841L166.597 165.213ZM174.546 156.634C175.135 156.634 175.648 156.562 176.086 156.419C176.523 156.268 176.885 156.057 177.172 155.787C177.466 155.508 177.685 155.174 177.828 154.784C177.971 154.387 178.043 153.945 178.043 153.46C178.043 152.998 177.971 152.581 177.828 152.207C177.685 151.833 177.47 151.515 177.184 151.252C176.897 150.99 176.535 150.791 176.098 150.656C175.66 150.512 175.143 150.441 174.546 150.441H172.148V156.634H174.546ZM174.546 147.959C175.7 147.959 176.698 148.094 177.542 148.365C178.385 148.635 179.081 149.013 179.63 149.498C180.179 149.983 180.584 150.564 180.847 151.24C181.117 151.917 181.253 152.656 181.253 153.46C181.253 154.295 181.113 155.063 180.835 155.763C180.556 156.455 180.139 157.051 179.582 157.553C179.025 158.054 178.325 158.444 177.482 158.722C176.647 159 175.668 159.14 174.546 159.14H172.148V165.213H168.938V147.959H174.546Z" fill="#0E8080"/>
<rect x="108.5" y="105.5" width="100" height="100" rx="5.5" stroke="#0E8080" stroke-width="3"/>
<rect x="96.75" y="92.75" width="124.5" height="124.5" rx="17.25" stroke="#DFDFDF" stroke-width="1.5"/>
</g>
<path d="M300 165.375C300.895 165.375 301.754 165.731 302.386 166.364C303.019 166.996 303.375 167.855 303.375 168.75V209.25C303.375 210.145 303.019 211.004 302.386 211.636C301.754 212.269 300.895 212.625 300 212.625H279.75C278.855 212.625 277.996 212.269 277.364 211.636C276.731 211.004 276.375 210.145 276.375 209.25V168.75C276.375 167.855 276.731 166.996 277.364 166.364C277.996 165.731 278.855 165.375 279.75 165.375H300ZM279.75 162C277.96 162 276.243 162.711 274.977 163.977C273.711 165.243 273 166.96 273 168.75V209.25C273 211.04 273.711 212.757 274.977 214.023C276.243 215.289 277.96 216 279.75 216H300C301.79 216 303.507 215.289 304.773 214.023C306.039 212.757 306.75 211.04 306.75 209.25V168.75C306.75 166.96 306.039 165.243 304.773 163.977C303.507 162.711 301.79 162 300 162H279.75Z" fill="#0E8080"/>
<path d="M289.875 209.25C290.77 209.25 291.629 208.894 292.261 208.261C292.894 207.629 293.25 206.77 293.25 205.875C293.25 204.98 292.894 204.121 292.261 203.489C291.629 202.856 290.77 202.5 289.875 202.5C288.98 202.5 288.121 202.856 287.489 203.489C286.856 204.121 286.5 204.98 286.5 205.875C286.5 206.77 286.856 207.629 287.489 208.261C288.121 208.894 288.98 209.25 289.875 209.25Z" fill="#0E8080"/>
<path d="M116.056 295.517C116.792 295.383 117.545 295.342 118.298 295.396C119.839 295.506 121.324 296.012 122.612 296.866C123.899 297.719 124.944 298.89 125.646 300.266C126.32 301.587 126.656 303.054 126.624 304.535C124.168 305.711 121.511 306.388 118.806 306.535C118.808 306.488 118.809 306.442 118.81 306.396L118.81 306.386L118.81 306.376L118.812 306.052L118.815 305.72L118.808 305.701C118.758 302.117 117.806 298.616 116.056 295.517ZM97.4093 309.938H97.4062C92.2793 309.938 87.4818 308.537 83.3756 306.098L83.375 306.023C83.3771 302.305 84.8552 298.739 87.4847 296.11C90.116 293.478 93.6849 292 97.4062 292C101.128 292 104.696 293.478 107.328 296.11C109.959 298.741 111.437 302.309 111.438 306.03C111.438 306.03 111.438 306.031 111.438 306.031L111.437 306.1C107.193 308.618 102.347 309.945 97.4093 309.938ZM90.125 277.344C90.125 275.413 90.8921 273.561 92.2576 272.195C93.6231 270.83 95.4751 270.062 97.4062 270.062C99.3374 270.062 101.189 270.83 102.555 272.195C103.92 273.561 104.688 275.413 104.688 277.344C104.688 279.275 103.92 281.127 102.555 282.492C101.189 283.858 99.3374 284.625 97.4062 284.625C95.4751 284.625 93.6231 283.858 92.2576 282.492C90.8921 281.127 90.125 279.275 90.125 277.344ZM112.062 282.406C112.062 281.672 112.207 280.944 112.488 280.266C112.769 279.587 113.181 278.97 113.701 278.451C114.22 277.931 114.837 277.519 115.516 277.238C116.194 276.957 116.922 276.812 117.656 276.812C118.391 276.812 119.118 276.957 119.797 277.238C120.476 277.519 121.092 277.931 121.612 278.451C122.131 278.97 122.543 279.587 122.824 280.266L124.672 279.5L122.824 280.266C123.105 280.944 123.25 281.672 123.25 282.406C123.25 283.89 122.661 285.313 121.612 286.362C120.563 287.411 119.14 288 117.656 288C116.173 288 114.75 287.411 113.701 286.362C112.652 285.313 112.062 283.89 112.062 282.406Z" stroke="#0E8080" stroke-width="4"/>
<path d="M16.5 104.5C14.0025 104.5 12 106.503 12 109V127C12 129.497 14.0025 131.5 16.5 131.5H43.5C45.9975 131.5 48 129.497 48 127V109C48 106.503 45.9975 104.5 43.5 104.5H16.5ZM16.5 109H43.5V127H16.5V109ZM12 133.75C9.5025 133.75 7.5 135.753 7.5 138.25V145C7.5 147.498 9.5025 149.5 12 149.5H48C50.4975 149.5 52.5 147.498 52.5 145V138.25C52.5 135.753 50.4975 133.75 48 133.75H12ZM21 138.25H48V145H21V138.25ZM23.25 139.938V143.312H32.25V139.938H23.25ZM36.75 139.938V143.312H45.75V139.938H36.75Z" fill="#0E8080"/>
</g>
<defs>
<filter id="filter0_d_309_1526" x="50.9606" y="51.4646" width="216.079" height="216.079" filterUnits="userSpaceOnUse" color-interpolation-filters="sRGB">
<feFlood flood-opacity="0" result="BackgroundImageFix"/>
<feColorMatrix in="SourceAlpha" type="matrix" values="0 0 0 0 0 0 0 0 0 0 0 0 0 0 0 0 0 0 127 0" result="hardAlpha"/>
<feMorphology radius="4.50394" operator="dilate" in="SourceAlpha" result="effect1_dropShadow_309_1526"/>
<feOffset dy="4.50394"/>
<feGaussianBlur stdDeviation="20.2677"/>
<feComposite in2="hardAlpha" operator="out"/>
<feColorMatrix type="matrix" values="0 0 0 0 0 0 0 0 0 0 0 0 0 0 0 0 0 0 0.05 0"/>
<feBlend mode="normal" in2="BackgroundImageFix" result="effect1_dropShadow_309_1526"/>
<feBlend mode="normal" in="SourceGraphic" in2="effect1_dropShadow_309_1526" result="shape"/>
</filter>
<clipPath id="clip0_309_1526">
<rect width="313" height="313" fill="white"/>
</clipPath>
<clipPath id="clip1_309_1526">
<rect width="61" height="61" fill="white" transform="translate(212 135)"/>
</clipPath>
<clipPath id="clip2_309_1526">
<rect width="61" height="61" fill="white" transform="matrix(-1 0 0 -1 109 171)"/>
</clipPath>
<clipPath id="clip3_309_1526">
<rect width="61" height="61" fill="white" transform="translate(209 44) rotate(90)"/>
</clipPath>
<clipPath id="clip4_309_1526">
<rect width="61" height="61" fill="white" transform="translate(163 207) rotate(90)"/>
</clipPath>
</defs>
</svg>
