<svg width="36" height="36" viewBox="0 0 36 36" fill="none" xmlns="http://www.w3.org/2000/svg">
<path d="M18 3C9.75 3 3 9.75 3 18C3 26.25 9.75 33 18 33C26.25 33 33 26.25 33 18C33 9.75 26.25 3 18 3ZM18 30C11.385 30 6 24.615 6 18C6 11.385 11.385 6 18 6C24.615 6 30 11.385 30 18C30 24.615 24.615 30 18 30ZM24.885 11.37L15 21.255L11.115 17.385L9 19.5L15 25.5L27 13.5L24.885 11.37Z" fill="#CC9866"/>
<path d="M18 3C9.75 3 3 9.75 3 18C3 26.25 9.75 33 18 33C26.25 33 33 26.25 33 18C33 9.75 26.25 3 18 3ZM18 30C11.385 30 6 24.615 6 18C6 11.385 11.385 6 18 6C24.615 6 30 11.385 30 18C30 24.615 24.615 30 18 30ZM24.885 11.37L15 21.255L11.115 17.385L9 19.5L15 25.5L27 13.5L24.885 11.37Z" stroke="#CC9866"/>
</svg>
