<svg width="234" height="234" viewBox="0 0 234 234" fill="none" xmlns="http://www.w3.org/2000/svg">
<rect width="234" height="234" rx="16" fill="#F5F5F5"/>
<path d="M117 138.333C86.2801 138.333 80.8401 107.72 79.8801 83.432C79.6135 76.68 79.4748 73.2986 82.0135 70.1786C84.5521 67.0533 87.5868 66.5413 93.6615 65.5173C101.376 64.2529 109.183 63.6339 117 63.6666C126.509 63.6666 134.349 64.504 140.344 65.5173C146.413 66.5413 149.453 67.0533 151.987 70.1786C154.525 73.304 154.392 76.68 154.12 83.432C153.16 107.715 147.72 138.333 117 138.333Z" fill="#0E8080"/>
<path d="M147.08 119.251L162.104 110.904C166.115 108.675 168.12 107.56 169.229 105.683C170.333 103.805 170.333 101.512 170.333 96.92V96.5306C170.333 90.968 170.333 88.184 168.824 86.088C167.315 83.992 164.675 83.112 159.395 81.352L154.333 79.6666L154.243 80.12C154.216 81.128 154.173 82.2266 154.125 83.432C153.656 95.2986 152.115 108.675 147.085 119.251H147.08ZM79.8801 83.432C80.3441 95.2986 81.8854 108.675 86.9201 119.251L71.8961 110.904C67.8854 108.675 65.8747 107.56 64.7707 105.683C63.6667 103.805 63.6667 101.512 63.6667 96.92V96.5306C63.6667 90.968 63.6667 88.184 65.1761 86.088C66.6854 83.992 69.3254 83.112 74.6054 81.352L79.6667 79.6666L79.7574 80.1306C79.7841 81.1333 79.8267 82.232 79.8747 83.4373L79.8801 83.432Z" fill="#CC9866"/>
<path fill-rule="evenodd" clip-rule="evenodd" d="M81 170.333C81 169.272 81.4214 168.255 82.1716 167.505C82.9217 166.755 83.9391 166.333 85 166.333H149C150.061 166.333 151.078 166.755 151.828 167.505C152.579 168.255 153 169.272 153 170.333C153 171.394 152.579 172.412 151.828 173.162C151.078 173.912 150.061 174.333 149 174.333H85C83.9391 174.333 82.9217 173.912 82.1716 173.162C81.4214 172.412 81 171.394 81 170.333Z" fill="#0E8080"/>
<path d="M135.443 166.333H98.5627L100.147 157C100.388 155.791 101.041 154.704 101.994 153.922C102.947 153.14 104.141 152.713 105.373 152.712H128.627C129.86 152.711 131.056 153.138 132.01 153.92C132.964 154.702 133.617 155.79 133.859 157L135.443 166.333Z" fill="#0E8080"/>
<path d="M112.445 85.1226C114.472 81.48 115.485 79.6666 117 79.6666C118.515 79.6666 119.528 81.48 121.555 85.1226L122.077 86.0613C122.653 87.096 122.941 87.608 123.389 87.9493C123.843 88.2906 124.403 88.4186 125.523 88.6693L126.536 88.904C130.472 89.7946 132.44 90.2373 132.909 91.7413C133.379 93.2506 132.035 94.8186 129.352 97.9546L128.659 98.7653C127.896 99.656 127.512 100.099 127.341 100.653C127.171 101.208 127.229 101.8 127.341 102.989L127.448 104.072C127.853 108.259 128.056 110.355 126.835 111.283C125.608 112.211 123.763 111.363 120.077 109.667L119.128 109.229C118.077 108.749 117.555 108.509 117 108.509C116.445 108.509 115.923 108.749 114.872 109.229L113.923 109.667C110.237 111.368 108.392 112.211 107.165 111.283C105.939 110.355 106.147 108.259 106.552 104.072L106.659 102.989C106.771 101.8 106.829 101.208 106.659 100.653C106.488 100.104 106.104 99.656 105.341 98.7653L104.648 97.9546C101.965 94.8186 100.621 93.2506 101.091 91.7413C101.56 90.2373 103.528 89.7946 107.464 88.904L108.477 88.6693C109.597 88.4186 110.157 88.296 110.611 87.9493C111.059 87.608 111.347 87.096 111.923 86.0613L112.445 85.1226Z" fill="white"/>
<path d="M113 138C114.28 138.123 115.613 138.181 117 138.181C118.335 138.184 119.67 138.123 121 138V152.56H113V138Z" fill="#CC9866"/>
</svg>
