<svg width="234" height="234" viewBox="0 0 234 234" fill="none" xmlns="http://www.w3.org/2000/svg">
<rect width="234" height="234" rx="16" fill="#F5F5F5"/>
<path d="M142.6 70.6C142.6 69.3269 143.106 68.106 144.006 67.2059C144.906 66.3057 146.127 65.8 147.4 65.8H163.4C164.673 65.8 165.894 66.3057 166.794 67.2059C167.694 68.106 168.2 69.3269 168.2 70.6V86.6C168.2 87.873 167.694 89.0939 166.794 89.9941C165.894 90.8943 164.673 91.4 163.4 91.4C162.127 91.4 160.906 90.8943 160.006 89.9941C159.106 89.0939 158.6 87.873 158.6 86.6V82.184L129.992 110.792C129.092 111.691 127.872 112.196 126.6 112.196C125.328 112.196 124.108 111.691 123.208 110.792L107.4 94.984L80.3921 121.992C79.9526 122.464 79.4227 122.842 78.8339 123.104C78.2451 123.367 77.6095 123.508 76.965 123.519C76.3205 123.53 75.6803 123.412 75.0826 123.17C74.4849 122.929 73.942 122.57 73.4862 122.114C73.0304 121.658 72.6711 121.115 72.4297 120.517C72.1883 119.92 72.0697 119.28 72.0811 118.635C72.0924 117.991 72.2335 117.355 72.4959 116.766C72.7582 116.177 73.1365 115.647 73.6081 115.208L104.008 84.808C104.908 83.9091 106.128 83.4042 107.4 83.4042C108.672 83.4042 109.892 83.9091 110.792 84.808L126.6 100.616L151.816 75.4H147.4C146.127 75.4 144.906 74.8943 144.006 73.9941C143.106 73.0939 142.6 71.873 142.6 70.6Z" fill="#0E8080"/>
<path d="M80.3941 144.006C79.4939 143.105 78.273 142.6 77 142.6C75.7269 142.6 74.506 143.105 73.6058 144.006C72.7057 144.906 72.2 146.127 72.2 147.4V163.4C72.2 164.673 72.7057 165.894 73.6058 166.794C74.506 167.694 75.7269 168.2 77 168.2C78.273 168.2 79.4939 167.694 80.3941 166.794C81.2942 165.894 81.8 164.673 81.8 163.4V147.4C81.8 146.127 81.2942 144.906 80.3941 144.006Z" fill="#CC9866"/>
<path d="M105.994 124.806C106.894 125.706 107.4 126.927 107.4 128.2V163.4C107.4 164.673 106.894 165.894 105.994 166.794C105.094 167.694 103.873 168.2 102.6 168.2C101.327 168.2 100.106 167.694 99.2058 166.794C98.3057 165.894 97.7999 164.673 97.7999 163.4V128.2C97.7999 126.927 98.3057 125.706 99.2058 124.806C100.106 123.905 101.327 123.4 102.6 123.4C103.873 123.4 105.094 123.905 105.994 124.806Z" fill="#CC9866"/>
<path d="M131.594 137.606C130.694 136.705 129.473 136.2 128.2 136.2C126.927 136.2 125.706 136.705 124.806 137.606C123.906 138.506 123.4 139.727 123.4 141V163.4C123.4 164.673 123.906 165.894 124.806 166.794C125.706 167.694 126.927 168.2 128.2 168.2C129.473 168.2 130.694 167.694 131.594 166.794C132.494 165.894 133 164.673 133 163.4V141C133 139.727 132.494 138.506 131.594 137.606Z" fill="#CC9866"/>
<path d="M157.194 112.006C158.094 112.906 158.6 114.127 158.6 115.4V163.4C158.6 164.673 158.094 165.894 157.194 166.794C156.294 167.694 155.073 168.2 153.8 168.2C152.527 168.2 151.306 167.694 150.406 166.794C149.506 165.894 149 164.673 149 163.4V115.4C149 114.127 149.506 112.906 150.406 112.006C151.306 111.105 152.527 110.6 153.8 110.6C155.073 110.6 156.294 111.105 157.194 112.006Z" fill="#CC9866"/>
</svg>
