<svg width="36" height="37" viewBox="0 0 36 37" fill="none" xmlns="http://www.w3.org/2000/svg">
<path fill-rule="evenodd" clip-rule="evenodd" d="M6.81494 5.28545C7.26991 5.097 7.75754 5 8.25 5C8.74246 5 9.23009 5.097 9.68506 5.28545C10.14 5.47391 10.5534 5.75013 10.9017 6.09835C11.2499 6.44657 11.5261 6.85997 11.7145 7.31494C11.903 7.76991 12 8.25754 12 8.75C12 9.24246 11.903 9.73009 11.7145 10.1851C11.5261 10.64 11.2499 11.0534 10.9017 11.4017C10.8288 11.4745 10.753 11.5443 10.6746 11.6107L12.2457 16.8464C12.4838 17.6399 12.0336 18.4761 11.2401 18.7142C10.4466 18.9523 9.61039 18.5021 9.37229 17.7086L7.80125 12.4731C7.46294 12.4323 7.13105 12.3455 6.81494 12.2145C6.35997 12.0261 5.94657 11.7499 5.59835 11.4017C5.25013 11.0534 4.97391 10.64 4.78545 10.1851C4.597 9.73009 4.5 9.24246 4.5 8.75C4.5 8.25754 4.597 7.76991 4.78545 7.31494C4.97391 6.85997 5.25013 6.44657 5.59835 6.09835C5.94657 5.75013 6.35997 5.47391 6.81494 5.28545ZM8.49685 9.45821C8.48636 9.46112 8.47587 9.46414 8.46539 9.46729C8.45484 9.47045 8.44436 9.47372 8.43394 9.4771C8.37394 9.49227 8.31216 9.5 8.25 9.5C8.15151 9.5 8.05398 9.4806 7.96299 9.44291C7.87199 9.40522 7.78931 9.34997 7.71967 9.28033C7.65003 9.21069 7.59478 9.12801 7.55709 9.03701C7.5194 8.94602 7.5 8.84849 7.5 8.75C7.5 8.65151 7.5194 8.55398 7.55709 8.46299C7.59478 8.37199 7.65003 8.28931 7.71967 8.21967C7.78931 8.15003 7.87199 8.09478 7.96299 8.05709C8.05398 8.0194 8.15151 8 8.25 8C8.34849 8 8.44602 8.0194 8.53701 8.05709C8.62801 8.09478 8.71069 8.15003 8.78033 8.21967C8.84997 8.28931 8.90522 8.37199 8.94291 8.46299C8.9806 8.55398 9 8.65151 9 8.75C9 8.84849 8.9806 8.94602 8.94291 9.03701C8.90522 9.12801 8.84997 9.21069 8.78033 9.28033C8.71069 9.34997 8.62801 9.40522 8.53701 9.44291C8.52376 9.4484 8.51037 9.4535 8.49685 9.45821ZM25.0984 6.09835C25.8016 5.39509 26.7554 5 27.75 5C28.7446 5 29.6984 5.39509 30.4016 6.09835C31.1049 6.80161 31.5 7.75544 31.5 8.75C31.5 9.74456 31.1049 10.6984 30.4016 11.4017C29.6984 12.1049 28.7446 12.5 27.75 12.5C27.2767 12.5 26.8126 12.4105 26.3804 12.2409L18.5852 20.0362C17.9994 20.6219 17.0496 20.6219 16.4638 20.0362C15.8781 19.4504 15.8781 18.5006 16.4638 17.9148L24.2591 10.1196C24.0895 9.68738 24 9.2233 24 8.75C24 7.75544 24.3951 6.80161 25.0984 6.09835ZM27.2756 9.33086C27.2588 9.31236 27.2415 9.29418 27.2237 9.27634C27.2058 9.2585 27.1876 9.2412 27.1691 9.22445C27.0602 9.09113 27 8.92367 27 8.75C27 8.55109 27.079 8.36032 27.2197 8.21967C27.3603 8.07902 27.5511 8 27.75 8C27.9489 8 28.1397 8.07902 28.2803 8.21967C28.421 8.36032 28.5 8.55109 28.5 8.75C28.5 8.94891 28.421 9.13968 28.2803 9.28033C28.1397 9.42098 27.9489 9.5 27.75 9.5C27.5763 9.5 27.4089 9.43976 27.2756 9.33086ZM17.7827 25.2601C18.0207 24.4666 18.8569 24.0162 19.6504 24.2542L24.8892 25.8255C24.9555 25.7472 25.0253 25.6714 25.0984 25.5984C25.8016 24.8951 26.7554 24.5 27.75 24.5C28.7446 24.5 29.6984 24.8951 30.4016 25.5984C31.1049 26.3016 31.5 27.2554 31.5 28.25C31.5 29.2446 31.1049 30.1984 30.4016 30.9016C29.6984 31.6049 28.7446 32 27.75 32C26.7554 32 25.8016 31.6049 25.0984 30.9016C24.5017 30.305 24.1269 29.5281 24.027 28.6989L18.7886 27.1278C17.9951 26.8898 17.5447 26.0536 17.7827 25.2601ZM27.0229 28.0661C27.0078 28.1257 27 28.1874 27 28.25C27 28.4489 27.079 28.6397 27.2197 28.7803C27.3603 28.921 27.5511 29 27.75 29C27.9489 29 28.1397 28.921 28.2803 28.7803C28.421 28.6397 28.5 28.4489 28.5 28.25C28.5 28.0511 28.421 27.8603 28.2803 27.7197C28.1397 27.579 27.9489 27.5 27.75 27.5C27.5511 27.5 27.3603 27.579 27.2197 27.7197C27.139 27.8003 27.0786 27.8975 27.0418 28.0032C27.0389 28.0136 27.0359 28.024 27.0328 28.0344C27.0296 28.045 27.0263 28.0556 27.0229 28.0661Z" fill="#CC9866"/>
<path fill-rule="evenodd" clip-rule="evenodd" d="M6.91637 17.9164C8.46354 16.3692 10.562 15.5 12.75 15.5C13.5784 15.5 14.25 16.1716 14.25 17C14.25 17.8284 13.5784 18.5 12.75 18.5C11.3576 18.5 10.0223 19.0531 9.03769 20.0377C8.05312 21.0223 7.5 22.3576 7.5 23.75C7.5 25.1424 8.05312 26.4777 9.03769 27.4623C10.0223 28.4469 11.3576 29 12.75 29C14.1424 29 15.4777 28.4469 16.4623 27.4623C17.4469 26.4777 18 25.1424 18 23.75C18 22.9216 18.6716 22.25 19.5 22.25C20.3284 22.25 21 22.9216 21 23.75C21 25.938 20.1308 28.0365 18.5836 29.5836C17.0365 31.1308 14.938 32 12.75 32C10.562 32 8.46354 31.1308 6.91637 29.5836C5.36919 28.0365 4.5 25.938 4.5 23.75C4.5 21.562 5.36919 19.4635 6.91637 17.9164Z" fill="#0E8080"/>
</svg>
