<svg width="36" height="36" viewBox="0 0 36 36" fill="none" xmlns="http://www.w3.org/2000/svg">
<g clip-path="url(#clip0_309_76)">
<path d="M13.125 33.6375C11.975 33.6375 10.9435 33.3375 10.0305 32.7375C9.65547 32.491 9.31536 32.2066 9.01019 31.8842C8.39323 31.2324 7.20653 31.0998 6.3945 31.482C5.7825 31.77 5.151 31.913 4.5 31.911C3.225 31.911 2.156 31.4735 1.293 30.5985C0.430002 29.7235 -0.000998264 28.6615 1.73611e-06 27.4125C1.73611e-06 26.3375 0.350002 25.3689 1.05 24.507C1.34548 24.1431 1.67437 23.8448 2.03666 23.6121C2.71781 23.1745 3.1626 22.2001 2.907 21.432C2.72 20.87 2.626 20.276 2.625 19.65C2.625 18.65 2.8815 17.7125 3.3945 16.8375C3.65535 16.3925 3.96933 15.9896 4.33645 15.6287C4.88667 15.0878 5.76113 15.4319 6.057 16.1445C6.08537 16.2128 6.11428 16.2799 6.14373 16.3457C6.44019 17.0087 6.29524 17.8239 5.9625 18.4694C5.7625 18.8575 5.6625 19.2635 5.6625 19.6875C5.6625 21.0875 6.2375 21.95 7.3875 22.275C8.28933 22.5298 9.15273 22.7462 9.97769 22.9242C10.4046 23.0163 10.7775 23.2772 11.0004 23.6527C11.2301 24.0395 11.2784 24.5078 11.1312 24.9329C10.952 25.4503 10.7916 25.9083 10.65 26.307C10.45 26.87 10.35 27.376 10.35 27.825C10.35 28.575 10.619 29.2315 11.157 29.7945C11.695 30.3575 12.351 30.6385 13.125 30.6375C14.075 30.6375 14.8625 30.2125 15.4875 29.3625C16.1125 28.5125 16.625 27.5125 17.025 26.3625C17.425 25.2125 17.7315 24.05 17.9445 22.875C18.0177 22.4714 18.0856 22.1002 18.1482 21.7615C18.3072 20.9022 19.1657 20.3676 20.0095 20.5948C20.7777 20.8016 21.2542 21.569 21.0901 22.3474C20.9287 23.1125 20.7487 23.9384 20.55 24.825C20.225 26.275 19.7685 27.6565 19.1805 28.9695C18.5935 30.2815 17.8185 31.3875 16.8555 32.2875C15.8925 33.1875 14.649 33.6375 13.125 33.6375ZM4.5 28.9125C4.925 28.9125 5.2815 28.769 5.5695 28.482C5.8575 28.195 6.001 27.838 6 27.411C6 26.986 5.856 26.63 5.568 26.343C5.28 26.056 4.924 25.9125 4.5 25.9125C4.075 25.9125 3.7185 26.0565 3.4305 26.3445C3.1425 26.6325 2.999 26.9885 3 27.4125C3 27.8375 3.144 28.194 3.432 28.482C3.72 28.77 4.076 28.9135 4.5 28.9125Z" fill="#0E8080"/>
<path fill-rule="evenodd" clip-rule="evenodd" d="M14.0947 22.0394C13.353 21.3671 12.6613 20.7272 12.0195 20.1197C11.0825 19.2327 10.276 18.3702 9.6 17.5322C8.925 16.6942 8.4065 15.8567 8.0445 15.0197C7.6825 14.1827 7.501 13.3137 7.5 12.4127C7.5 10.7877 8.0565 9.4187 9.1695 8.3057C10.2825 7.1927 11.651 6.6367 13.275 6.6377C13.375 6.6377 13.4625 6.6442 13.5375 6.6572C13.6624 6.67885 13.7494 6.54815 13.7092 6.42789C13.6533 6.26032 13.6085 6.09276 13.575 5.9252C13.525 5.6752 13.5 5.4127 13.5 5.1377C13.5 3.8877 13.9375 2.8252 14.8125 1.9502C15.6875 1.0752 16.75 0.637695 18 0.637695C19.25 0.637695 20.3125 1.0752 21.1875 1.9502C22.0625 2.8252 22.5 3.8877 22.5 5.1377C22.5 5.4127 22.475 5.6692 22.425 5.9072C22.4088 5.98446 22.3899 6.06231 22.3684 6.14073C22.302 6.38308 22.4737 6.6377 22.725 6.6377C24.225 6.6377 25.5 7.11919 26.55 8.0822C27.2162 8.69317 27.7113 9.39692 28.0353 10.1934C28.3199 10.893 27.6622 11.5502 26.907 11.5502C26.0016 11.5502 25.2006 10.9305 24.5321 10.3198C24.4873 10.2789 24.4409 10.239 24.393 10.2002C23.93 9.8252 23.374 9.6377 22.725 9.6377C21.85 9.6377 21.1685 9.8942 20.6805 10.4072C20.2831 10.825 19.7659 11.3957 19.129 12.1193C18.8397 12.4479 18.4237 12.6377 17.986 12.6377C17.5428 12.6377 17.1223 12.4429 16.8319 12.1081C16.1724 11.3479 15.6428 10.768 15.243 10.3682C14.755 9.8802 14.099 9.6372 13.275 9.6392C12.475 9.6392 11.8125 9.9017 11.2875 10.4267C10.7625 10.9517 10.5 11.6137 10.5 12.4127C10.5 12.9877 10.6625 13.5817 10.9875 14.1947C11.3125 14.8077 11.7685 15.4577 12.3555 16.1447C12.9435 16.8317 13.656 17.5627 14.493 18.3377C14.9908 18.7986 15.522 19.2816 16.0866 19.7867C16.7338 20.3657 16.7673 21.3704 16.1532 21.9845C15.5901 22.5476 14.6848 22.5742 14.0947 22.0394ZM18 6.6377C18.425 6.6377 18.7815 6.49419 19.0695 6.2072C19.3575 5.9202 19.501 5.5637 19.5 5.1377C19.5 4.7127 19.356 4.3567 19.068 4.0697C18.78 3.7827 18.424 3.6387 18 3.6377C17.575 3.6377 17.2185 3.7817 16.9305 4.0697C16.6425 4.3577 16.499 4.7137 16.5 5.1377C16.5 5.5627 16.644 5.9192 16.932 6.2072C17.22 6.4952 17.576 6.6387 18 6.6377Z" fill="#0E8080"/>
<path fill-rule="evenodd" clip-rule="evenodd" d="M22.8375 33.6378C22.2875 33.6378 21.744 33.5628 21.207 33.4128C21.1332 33.3922 21.0597 33.3699 20.9866 33.346C20.2268 33.0974 20.0745 32.1546 20.475 31.4628C20.5788 31.2836 20.679 31.1097 20.7756 30.9412C21.0214 30.5125 21.5732 30.3953 22.05 30.5253C22.325 30.6003 22.6 30.6378 22.875 30.6378C23.675 30.6378 24.344 30.3563 24.882 29.7933C25.42 29.2303 25.6885 28.5618 25.6875 27.7878C25.6875 27.3128 25.5875 26.8003 25.3875 26.2503C25.2459 25.8608 25.0854 25.4085 24.9062 24.8936C24.7587 24.47 24.807 24.003 25.036 23.6173C25.2595 23.2409 25.6341 22.9802 26.0624 22.8894C26.9042 22.711 27.7732 22.4938 28.6695 22.2378C29.8075 21.9128 30.376 21.0503 30.375 19.6503C30.375 18.6503 30.006 17.9253 29.268 17.4753C28.53 17.0253 27.724 16.8003 26.85 16.8003C25.8 16.8003 24.575 17.0003 23.175 17.4003C22.166 17.6886 21.0336 18.0353 19.7778 18.4405C18.9544 18.7062 18.0728 18.2333 17.8479 17.3979C17.6392 16.6226 18.0763 15.8192 18.8427 15.5799C20.247 15.1415 21.5286 14.7608 22.6875 14.4378C24.2125 14.0128 25.6125 13.8003 26.8875 13.8003C28.6125 13.8003 30.125 14.3128 31.425 15.3378C32.725 16.3628 33.375 17.8003 33.375 19.6503C33.375 20.2753 33.2815 20.8693 33.0945 21.4323C32.8397 22.1996 33.2841 23.175 33.9642 23.6122C34.3261 23.8449 34.6548 24.1433 34.95 24.5073C35.65 25.3703 36 26.3388 36 27.4128C36 28.6628 35.5685 29.7253 34.7055 30.6003C33.8425 31.4753 32.774 31.9128 31.5 31.9128C30.85 31.9128 30.2185 31.7693 29.6055 31.4823C28.7932 31.102 27.6056 31.233 26.9888 31.8843C26.6834 32.2068 26.3431 32.4913 25.968 32.7378C25.055 33.3378 24.0115 33.6378 22.8375 33.6378ZM31.5375 28.913C31.9625 28.913 32.3125 28.7695 32.5875 28.4825C32.8625 28.1955 33 27.839 33 27.413C33 26.988 32.856 26.6255 32.568 26.3255C32.28 26.0255 31.924 25.8755 31.5 25.8755C31.075 25.8755 30.7185 26.0195 30.4305 26.3075C30.1425 26.5955 29.999 26.9515 30 27.3755C30 27.8005 30.15 28.163 30.45 28.463C30.75 28.763 31.1125 28.913 31.5375 28.913Z" fill="#CC9866"/>
</g>
<defs>
<clipPath id="clip0_309_76">
<rect width="36" height="36" fill="white"/>
</clipPath>
</defs>
</svg>
