<svg width="234" height="234" viewBox="0 0 234 234" fill="none" xmlns="http://www.w3.org/2000/svg">
<rect width="234" height="234" rx="16" fill="#F5F5F5"/>
<path d="M116.486 53L147.343 71.1116V108.728L116.486 126.143L85.6289 106.638V71.1116L116.486 53Z" fill="#0E8080"/>
<path d="M85.6289 71.1116L116.486 89.2231M85.6289 71.1116L116.486 53L147.343 71.1116M85.6289 71.1116V106.638L116.486 126.143M116.486 89.2231L147.343 71.1116M116.486 89.2231V126.143M147.343 71.1116V108.728L116.486 126.143" stroke="#F5F5F5" stroke-width="1.69536"/>
<path d="M147.572 107.857L178.429 125.969V163.585L147.572 181L116.714 161.495V125.969L147.572 107.857Z" fill="#0E8080"/>
<path d="M116.714 125.969L147.572 144.081M116.714 125.969L147.572 107.857L178.429 125.969M116.714 125.969V161.495L147.572 181M147.572 144.081L178.429 125.969M147.572 144.081V181M178.429 125.969V163.585L147.572 181" stroke="#F5F5F5" stroke-width="1.69536"/>
<path d="M85.8571 106.029L116.714 124.14V161.757L85.8571 179.172L55 159.667V124.14L85.8571 106.029Z" fill="#0E8080"/>
<path d="M55 124.14L85.8571 142.252M55 124.14L85.8571 106.029L116.714 124.14M55 124.14V159.667L85.8571 179.172M85.8571 142.252L116.714 124.14M85.8571 142.252V179.172M116.714 124.14V161.757L85.8571 179.172" stroke="#F5F5F5" stroke-width="1.69536"/>
</svg>
