<svg width="302" height="70" viewBox="0 0 302 70" fill="none" xmlns="http://www.w3.org/2000/svg">
<path fill-rule="evenodd" clip-rule="evenodd" d="M0.166748 18.4904V51.6895L28.4566 69.9083V35.4078L0.166748 18.4904ZM30.2102 35.4078V70L58.5001 53.7332V18.4904L30.2102 35.4078ZM57.6534 16.9354L29.3334 33.8709L1.01344 16.9354L29.3334 0L57.6534 16.9354ZM8.15849 16.729L13.2244 19.9053L34.5669 6.45315L29.501 3.2768L8.15849 16.729ZM21.1934 25.0891L16.1275 21.9127L37.47 8.46055L42.5359 11.6369L21.1934 25.0891ZM24.4414 27.2535L29.5073 30.4299L50.8498 16.9777L45.784 13.8013L24.4414 27.2535Z" fill="white"/>
<path d="M67.8335 23.7577V15.2728H101.546V23.7577H89.879V54.0607H79.5002V23.7577H67.8335ZM112.822 54.0607H101.458L114.261 15.2728H128.655L141.458 54.0607H130.095L121.61 25.9546H121.307L112.822 54.0607ZM110.701 38.7577H132.064V46.6365H110.701V38.7577ZM147.327 54.0607V15.2728H157.858V45.5759H173.54V54.0607H147.327ZM179.93 54.0607V15.2728H190.46V30.9546H190.99L202.657 15.2728H214.93L201.823 32.5456L215.233 54.0607H202.657L193.945 39.5153L190.46 44.0607V54.0607H179.93Z" fill="white"/>
<path d="M234.157 54.0607H219.233V15.2728H234.005C237.995 15.2728 241.442 16.0493 244.346 17.6024C247.263 19.1428 249.51 21.365 251.089 24.269C252.68 27.1605 253.475 30.6264 253.475 34.6668C253.475 38.7072 252.686 42.1794 251.108 45.0834C249.529 47.9748 247.295 50.1971 244.403 51.7501C241.512 53.2905 238.096 54.0607 234.157 54.0607ZM229.763 45.1213H233.778C235.697 45.1213 237.332 44.812 238.683 44.1933C240.047 43.5746 241.082 42.5077 241.789 40.9925C242.509 39.4774 242.869 37.3688 242.869 34.6668C242.869 31.9647 242.503 29.8562 241.771 28.341C241.051 26.8259 239.99 25.7589 238.589 25.1403C237.2 24.5216 235.495 24.2122 233.475 24.2122H229.763V45.1213Z" fill="white"/>
<path d="M257.475 14.6666H286.808V24.3218H257.475V14.6666Z" fill="white"/>
<path d="M257.475 29.839H286.808V39.4942H257.475V29.839Z" fill="white"/>
<path d="M257.475 45.0115H286.808V54.6666H257.475V45.0115Z" fill="white"/>
<path d="M301.339 15.2728V54.0607H290.809V15.2728H301.339Z" fill="white"/>
</svg>
