<svg width="33" height="33" viewBox="0 0 33 33" fill="none" xmlns="http://www.w3.org/2000/svg">
<path fill-rule="evenodd" clip-rule="evenodd" d="M7.12947 0.521897C13.3573 -0.168432 19.6424 -0.168432 25.8703 0.521897C29.2727 0.90173 32.0157 3.58027 32.4153 6.99519C33.1538 13.3102 33.1538 19.6898 32.4153 26.0048C32.0157 29.4197 29.2727 32.0982 25.8721 32.4799C19.6436 33.1704 13.3579 33.1704 7.12947 32.4799C3.72709 32.0982 0.98405 29.4197 0.584508 26.0066C-0.154146 19.691 -0.154146 13.3108 0.584508 6.99519C0.98405 3.58027 3.72709 0.90173 7.12947 0.521897ZM24.4011 11.0891L25.9061 9.65044V9.33331H20.7067L16.9998 18.5783L12.7858 9.33331H7.33192V9.65044L9.08776 11.7646C9.17305 11.841 9.2391 11.9365 9.2805 12.0433C9.32191 12.1501 9.33752 12.2652 9.32605 12.3791V20.6943C9.35113 20.842 9.34118 20.9935 9.29699 21.1367C9.2528 21.2798 9.17561 21.4106 9.07163 21.5184L7.09363 23.9193V24.2328H12.6962V23.9175L10.72 21.5202C10.615 21.4125 10.5359 21.2824 10.4887 21.1396C10.4416 20.9968 10.4275 20.8451 10.4476 20.6961V13.5043L15.3658 24.2346H15.9391L20.162 13.5043V22.0559C20.162 22.2835 20.1621 22.3265 20.0115 22.477L18.4922 23.9515V24.2669H25.8685V23.9515L24.4029 22.511C24.3392 22.4628 24.2898 22.3981 24.2601 22.3239C24.2305 22.2497 24.2216 22.1688 24.2345 22.09V11.5102C24.2216 11.4313 24.2305 11.3504 24.2601 11.2762C24.2898 11.202 24.3374 11.1373 24.4011 11.0891Z" fill="#0E8080"/>
</svg>
