<svg width="33" height="33" viewBox="0 0 33 33" fill="none" xmlns="http://www.w3.org/2000/svg">
<path fill-rule="evenodd" clip-rule="evenodd" d="M7.12971 0.521897C13.3576 -0.168432 19.6427 -0.168432 25.8705 0.521897C29.2729 0.90173 32.016 3.58027 32.4155 6.99519C33.154 13.3102 33.154 19.6898 32.4155 26.0048C32.016 29.4197 29.2729 32.0982 25.8723 32.4799C19.6439 33.1704 13.3582 33.1704 7.12971 32.4799C3.72734 32.0982 0.984294 29.4197 0.584752 26.0066C-0.153902 19.691 -0.153902 13.3108 0.584752 6.99519C0.984294 3.58027 3.72734 0.90173 7.12971 0.521897ZM24.4014 11.0891L25.9064 9.65044V9.33331H20.707L17 18.5783L12.786 9.33331H7.33217V9.65044L9.088 11.7646C9.1733 11.841 9.23934 11.9365 9.28075 12.0433C9.32216 12.1501 9.33776 12.2652 9.32629 12.3791V20.6943C9.35138 20.842 9.34142 20.9935 9.29723 21.1367C9.25304 21.2798 9.17585 21.4106 9.07188 21.5184L7.09388 23.9193V24.2328H12.6964V23.9175L10.7202 21.5202C10.6152 21.4125 10.5362 21.2824 10.489 21.1396C10.4418 20.9968 10.4277 20.8451 10.4479 20.6961V13.5043L15.366 24.2346H15.9393L20.1623 13.5043V22.0559C20.1623 22.2835 20.1623 22.3265 20.0118 22.477L18.4925 23.9515V24.2669H25.8688V23.9515L24.4032 22.511C24.3394 22.4628 24.2901 22.3981 24.2604 22.3239C24.2307 22.2497 24.2218 22.1688 24.2348 22.09V11.5102C24.2218 11.4313 24.2307 11.3504 24.2604 11.2762C24.2901 11.202 24.3376 11.1373 24.4014 11.0891Z" fill="white"/>
</svg>
