<svg width="178" height="44" viewBox="0 0 178 44" fill="none" xmlns="http://www.w3.org/2000/svg">
<g clip-path="url(#clip0_203_2116)">
<path d="M76.2419 15.0281H88.0568L81.7878 7.30349L70.3344 21.3569H65.1502L78.9988 4.52318C79.6021 3.87226 80.5669 3.40662 81.7718 3.40662C82.8566 3.40662 83.8198 3.77716 84.4247 4.43178L98.4093 21.2767H93.2395L90.8282 18.1122H78.8916L76.2419 15.0281ZM130.376 18.0999V3.48814H125.913V19.4956C125.913 19.9612 126.153 20.333 126.516 20.706C126.996 21.0766 127.481 21.2643 128.084 21.2643H148.218L150.871 18.0999H130.376ZM57.3131 15.5061C61.654 15.5061 65.0286 12.8073 65.0286 9.55022C65.0286 6.19928 61.5324 3.59436 57.3131 3.59436H38.021V21.3705H42.482V6.66369H57.0698C58.0593 6.66822 59.0067 6.97367 59.7063 7.51379C60.406 8.0539 60.8017 8.78515 60.8076 9.54898C60.8017 10.3126 60.4063 11.0437 59.7069 11.5837C59.0076 12.1238 58.0607 12.4294 57.0714 12.4343H44.6549L57.7963 21.2754H64.187L55.265 15.5048L57.3131 15.5061ZM10.655 21.2767C4.26429 21.2767 -0.79834 17.2748 -0.79834 12.4355C-0.79834 7.50235 4.38589 3.59436 10.655 3.59436H24.038C30.4287 3.59436 35.4913 7.59622 35.4913 12.4355C35.4913 17.3687 30.3071 21.2767 24.038 21.2767H10.655ZM23.7964 18.1122C25.7754 18.1032 27.67 17.4923 29.0694 16.412C30.4688 15.3318 31.2601 13.8693 31.2719 12.3416C31.2601 10.814 30.4688 9.35148 29.0694 8.27125C27.67 7.19101 25.7754 6.58013 23.7964 6.57105H11.0166C9.03758 6.58013 7.14297 7.19101 5.74358 8.27125C4.34418 9.35148 3.55281 10.814 3.54105 12.3416C3.55281 13.8693 4.34418 15.3318 5.74358 16.412C7.14297 17.4923 9.03758 18.1032 11.0166 18.1122H23.7964ZM107.709 21.2767C101.318 21.2767 96.2556 17.2748 96.2556 12.4355C96.2556 7.50235 101.44 3.59436 107.709 3.59436H123.623L120.97 6.7588H107.949C105.97 6.76787 104.075 7.37875 102.676 8.45899C101.277 9.53922 100.485 11.0017 100.473 12.5294C100.485 14.057 101.277 15.5195 102.676 16.5998C104.075 17.68 105.97 18.2909 107.949 18.3H123.863L121.21 21.4644H107.706L107.709 21.2767ZM161.843 18.1122C158.482 18.1122 155.573 16.3435 154.729 13.9251H173.657L176.31 10.7607H154.85C155.693 8.33978 158.588 6.57352 161.964 6.57352H174.986L177.638 3.40909H161.723C155.332 3.40909 150.269 7.41095 150.269 12.2502C150.269 17.1834 155.453 21.0914 161.723 21.0914H175.347L178 17.927H161.844L161.843 18.1122Z" fill="#515151"/>
<path d="M19.0117 31.9973C18.9648 32.0741 18.9157 32.1317 18.8645 32.1701C18.8133 32.2043 18.7493 32.2214 18.6725 32.2214C18.5915 32.2214 18.4997 32.1872 18.3973 32.1189C18.2992 32.0507 18.1754 31.976 18.0261 31.8949C17.881 31.8096 17.7082 31.7328 17.5077 31.6645C17.3071 31.592 17.0682 31.5557 16.7908 31.5557C16.5348 31.5557 16.3087 31.5877 16.1124 31.6517C15.9204 31.7157 15.7583 31.8053 15.626 31.9205C15.4937 32.0357 15.3934 32.1723 15.3252 32.3302C15.2612 32.4838 15.2292 32.6523 15.2292 32.8358C15.2292 33.0705 15.291 33.2667 15.4148 33.4246C15.5385 33.5782 15.7007 33.7105 15.9012 33.8214C16.106 33.9324 16.3386 34.0305 16.5988 34.1158C16.8591 34.1969 17.1237 34.2844 17.3925 34.3782C17.6655 34.4721 17.9322 34.5788 18.1925 34.6983C18.4528 34.8177 18.6832 34.9692 18.8837 35.1527C19.0885 35.3362 19.2528 35.5602 19.3766 35.8247C19.5003 36.0893 19.5622 36.4114 19.5622 36.7912C19.5622 37.2008 19.4918 37.5848 19.351 37.9432C19.2102 38.3016 19.0053 38.6152 18.7365 38.884C18.472 39.1486 18.1434 39.3577 17.7509 39.5113C17.3626 39.6649 16.9188 39.7417 16.4196 39.7417C16.1252 39.7417 15.8372 39.7118 15.5556 39.6521C15.2782 39.5966 15.0116 39.5177 14.7556 39.4153C14.5038 39.3086 14.267 39.1806 14.0451 39.0313C13.8232 38.8819 13.6248 38.7155 13.4499 38.532L13.8851 37.8152C13.9235 37.7555 13.9726 37.7085 14.0323 37.6744C14.0921 37.6403 14.1582 37.6232 14.2307 37.6232C14.3289 37.6232 14.4377 37.6701 14.5571 37.764C14.6766 37.8536 14.8196 37.9539 14.986 38.0648C15.1566 38.1715 15.3614 38.2718 15.6004 38.3656C15.8393 38.4552 16.1252 38.5 16.458 38.5C16.9999 38.5 17.4181 38.3678 17.7125 38.1032C18.0112 37.8387 18.1605 37.4739 18.1605 37.0088C18.1605 36.7485 18.0986 36.5373 17.9749 36.3751C17.8512 36.2087 17.6869 36.0701 17.4821 35.9591C17.2815 35.8482 17.0511 35.7543 16.7908 35.6775C16.5306 35.6007 16.266 35.5196 15.9972 35.4343C15.7284 35.3447 15.4638 35.2423 15.2036 35.1271C14.9433 35.0076 14.7107 34.854 14.5059 34.6663C14.3054 34.4743 14.1433 34.2396 14.0195 33.9622C13.8958 33.6806 13.8339 33.3307 13.8339 32.9126C13.8339 32.5798 13.8979 32.2576 14.0259 31.9461C14.1582 31.6347 14.3481 31.3594 14.5955 31.1205C14.8473 30.8773 15.1566 30.6831 15.5236 30.5381C15.8905 30.393 16.3087 30.3205 16.778 30.3205C17.3071 30.3205 17.7914 30.4037 18.2309 30.5701C18.6747 30.7365 19.0565 30.9733 19.3766 31.2805L19.0117 31.9973ZM26.3034 33.111V39.6393H25.4713C25.2879 39.6393 25.1705 39.5518 25.1193 39.3769L25.0169 38.7688C24.8804 38.9139 24.7353 39.0462 24.5817 39.1657C24.4324 39.2851 24.2723 39.3875 24.1017 39.4729C23.931 39.5582 23.7475 39.6243 23.5512 39.6713C23.3592 39.7182 23.1523 39.7417 22.9304 39.7417C22.572 39.7417 22.2563 39.682 21.9832 39.5625C21.7101 39.443 21.4797 39.2745 21.2919 39.0569C21.1085 38.8392 20.9698 38.579 20.8759 38.276C20.7821 37.9688 20.7351 37.6317 20.7351 37.2648V33.111H22.1112V37.2648C22.1112 37.7043 22.2115 38.0456 22.412 38.2888C22.6168 38.532 22.9261 38.6536 23.34 38.6536C23.643 38.6536 23.9246 38.5854 24.1849 38.4488C24.4494 38.308 24.6969 38.116 24.9273 37.8728V33.111H26.3034ZM29.3505 38.0008C29.5425 38.2483 29.7516 38.4232 29.9777 38.5256C30.2081 38.6238 30.462 38.6728 30.7394 38.6728C31.277 38.6728 31.6951 38.4766 31.9938 38.084C32.2968 37.6915 32.4482 37.1069 32.4482 36.3303C32.4482 35.9292 32.4141 35.5879 32.3458 35.3063C32.2776 35.0204 32.1794 34.7879 32.0514 34.6087C31.9234 34.4294 31.7677 34.2993 31.5842 34.2182C31.4007 34.1372 31.1938 34.0966 30.9634 34.0966C30.6135 34.0966 30.3105 34.1734 30.0545 34.327C29.8028 34.4764 29.5681 34.6919 29.3505 34.9735V38.0008ZM29.2801 34.0582C29.5532 33.7382 29.8625 33.4801 30.2081 33.2838C30.558 33.0875 30.9634 32.9894 31.4242 32.9894C31.7911 32.9894 32.124 33.0641 32.4226 33.2134C32.7213 33.3585 32.9773 33.5718 33.1907 33.8534C33.404 34.135 33.5683 34.4849 33.6835 34.9031C33.803 35.317 33.8627 35.7927 33.8627 36.3303C33.8627 36.8125 33.7966 37.2626 33.6643 37.6808C33.5363 38.0947 33.3507 38.4552 33.1075 38.7624C32.8643 39.0654 32.5698 39.3043 32.2242 39.4793C31.8786 39.6499 31.4882 39.7353 31.053 39.7353C30.669 39.7353 30.3425 39.6734 30.0737 39.5497C29.8092 39.4259 29.5681 39.2553 29.3505 39.0377V41.809H27.9744V33.111H28.8065C28.9942 33.111 29.1137 33.1985 29.1649 33.3734L29.2801 34.0582ZM36.5758 38.0008C36.7678 38.2483 36.9769 38.4232 37.2031 38.5256C37.4335 38.6238 37.6873 38.6728 37.9647 38.6728C38.5023 38.6728 38.9205 38.4766 39.2191 38.084C39.5221 37.6915 39.6736 37.1069 39.6736 36.3303C39.6736 35.9292 39.6394 35.5879 39.5712 35.3063C39.5029 35.0204 39.4048 34.7879 39.2767 34.6087C39.1487 34.4294 38.993 34.2993 38.8095 34.2182C38.6261 34.1372 38.4191 34.0966 38.1887 34.0966C37.8388 34.0966 37.5359 34.1734 37.2799 34.327C37.0281 34.4764 36.7934 34.6919 36.5758 34.9735V38.0008ZM36.5054 34.0582C36.7785 33.7382 37.0878 33.4801 37.4335 33.2838C37.7833 33.0875 38.1887 32.9894 38.6495 32.9894C39.0165 32.9894 39.3493 33.0641 39.648 33.2134C39.9466 33.3585 40.2027 33.5718 40.416 33.8534C40.6293 34.135 40.7936 34.4849 40.9088 34.9031C41.0283 35.317 41.088 35.7927 41.088 36.3303C41.088 36.8125 41.0219 37.2626 40.8896 37.6808C40.7616 38.0947 40.576 38.4552 40.3328 38.7624C40.0896 39.0654 39.7952 39.3043 39.4496 39.4793C39.1039 39.6499 38.7135 39.7353 38.2783 39.7353C37.8943 39.7353 37.5679 39.6734 37.2991 39.5497C37.0345 39.4259 36.7934 39.2553 36.5758 39.0377V41.809H35.1998V33.111H36.0318C36.2195 33.111 36.339 33.1985 36.3902 33.3734L36.5054 34.0582ZM43.8267 30.1669V39.6393H42.4507V30.1669H43.8267ZM51.3175 33.111L47.7205 41.4954C47.6736 41.5935 47.616 41.6703 47.5477 41.7258C47.4837 41.7812 47.3834 41.809 47.2469 41.809H46.2293L47.4325 39.1977L44.77 33.111H45.9668C46.0821 33.111 46.1695 33.1387 46.2293 33.1942C46.2933 33.2454 46.3402 33.3073 46.3701 33.3798L47.9253 37.0856C47.9637 37.1922 47.9979 37.2989 48.0277 37.4056C48.0619 37.508 48.0939 37.6147 48.1237 37.7256C48.1579 37.6147 48.192 37.5059 48.2261 37.3992C48.2603 37.2925 48.2987 37.1858 48.3414 37.0792L49.8326 33.3798C49.8625 33.303 49.9116 33.239 49.9798 33.1878C50.0524 33.1366 50.1313 33.111 50.2166 33.111H51.3175ZM61.7444 37.5848C61.8255 37.5848 61.8959 37.6168 61.9557 37.6808L62.5509 38.3272C62.1754 38.7795 61.7146 39.1294 61.1684 39.3769C60.6223 39.6201 59.9694 39.7417 59.2099 39.7417C58.5358 39.7417 57.9256 39.6265 57.3795 39.3961C56.8376 39.1614 56.3746 38.8371 55.9906 38.4232C55.6066 38.0051 55.31 37.508 55.101 36.932C54.8961 36.3559 54.7937 35.7223 54.7937 35.0311C54.7937 34.3398 54.9025 33.7062 55.1202 33.1302C55.342 32.5499 55.6514 32.0528 56.0482 31.6389C56.4493 31.2208 56.9272 30.8965 57.4819 30.6661C58.0408 30.4357 58.6552 30.3205 59.3251 30.3205C59.9908 30.3205 60.5775 30.4293 61.0852 30.6469C61.5972 30.8602 62.041 31.1461 62.4165 31.5045L61.9237 32.2021C61.8895 32.2491 61.849 32.2896 61.8021 32.3238C61.7551 32.3579 61.6911 32.375 61.61 32.375C61.5247 32.375 61.4266 32.3366 61.3156 32.2598C61.209 32.1787 61.0703 32.0912 60.8996 31.9973C60.7332 31.8992 60.522 31.8117 60.266 31.7349C60.0142 31.6539 59.6985 31.6133 59.3187 31.6133C58.8793 31.6133 58.476 31.6901 58.1091 31.8437C57.7421 31.9973 57.4264 32.2214 57.1618 32.5158C56.8973 32.8102 56.6904 33.1686 56.541 33.591C56.3959 34.0134 56.3234 34.4935 56.3234 35.0311C56.3234 35.573 56.4002 36.0573 56.5538 36.4839C56.7074 36.9064 56.9186 37.2648 57.1874 37.5592C57.4563 37.8493 57.772 38.0712 58.1347 38.2248C58.4974 38.3784 58.8878 38.4552 59.3059 38.4552C59.562 38.4552 59.7902 38.4424 59.9908 38.4168C60.1956 38.387 60.3833 38.3422 60.554 38.2824C60.7247 38.2184 60.8847 38.1395 61.034 38.0456C61.1876 37.9517 61.3391 37.8365 61.4884 37.7C61.5738 37.6232 61.6591 37.5848 61.7444 37.5848ZM64.9646 33.8854C65.2334 33.6209 65.5278 33.4097 65.8478 33.2518C66.1678 33.0897 66.5412 33.0086 66.9679 33.0086C67.3263 33.0086 67.6399 33.0683 67.9087 33.1878C68.1818 33.3073 68.4101 33.4758 68.5936 33.6934C68.7813 33.911 68.9221 34.1734 69.016 34.4807C69.1098 34.7836 69.1568 35.1185 69.1568 35.4855V39.6393H67.7871V35.4855C67.7871 35.046 67.6847 34.7047 67.4799 34.4615C67.2794 34.2182 66.9722 34.0966 66.5583 34.0966C66.2511 34.0966 65.9652 34.167 65.7006 34.3078C65.4403 34.4487 65.195 34.6407 64.9646 34.8839V39.6393H63.5885V30.1669H64.9646V33.8854ZM74.252 36.7848C73.7613 36.8018 73.3474 36.8424 73.0104 36.9064C72.6733 36.9661 72.4002 37.045 72.1911 37.1432C71.982 37.237 71.8306 37.3501 71.7367 37.4824C71.6471 37.6147 71.6023 37.7597 71.6023 37.9176C71.6023 38.0712 71.6258 38.2035 71.6727 38.3144C71.7239 38.4211 71.7922 38.5107 71.8775 38.5832C71.9671 38.6515 72.0695 38.7027 72.1847 38.7368C72.3042 38.7667 72.4343 38.7816 72.5751 38.7816C72.9335 38.7816 73.2408 38.7155 73.4968 38.5832C73.7571 38.4467 74.0088 38.2504 74.252 37.9944V36.7848ZM70.6038 34.0198C71.342 33.3329 72.221 32.9894 73.2408 32.9894C73.6162 32.9894 73.9491 33.0513 74.2392 33.175C74.5336 33.2945 74.779 33.4651 74.9752 33.687C75.1758 33.9089 75.3273 34.1734 75.4297 34.4807C75.5363 34.7836 75.5897 35.1207 75.5897 35.4919V39.6393H74.9752C74.843 39.6393 74.7427 39.6201 74.6744 39.5817C74.6062 39.539 74.5486 39.4558 74.5016 39.3321L74.3672 38.8008C74.2008 38.9502 74.0365 39.0846 73.8744 39.2041C73.7123 39.3193 73.5437 39.4174 73.3688 39.4985C73.1981 39.5795 73.0125 39.6393 72.8119 39.6777C72.6157 39.7204 72.3981 39.7417 72.1591 39.7417C71.8946 39.7417 71.6471 39.7054 71.4167 39.6329C71.1905 39.5603 70.9943 39.4515 70.8279 39.3065C70.6614 39.1571 70.5292 38.9737 70.431 38.756C70.3372 38.5384 70.2902 38.2824 70.2902 37.988C70.2902 37.7363 70.3564 37.4909 70.4886 37.252C70.6252 37.013 70.8471 36.7997 71.1543 36.6119C71.4658 36.4199 71.8732 36.2621 72.3767 36.1383C72.8845 36.0146 73.5096 35.9442 74.252 35.9271V35.4919C74.252 35.0225 74.1517 34.6727 73.9512 34.4422C73.7507 34.2118 73.4562 34.0966 73.068 34.0966C72.8034 34.0966 72.5815 34.1308 72.4023 34.199C72.2231 34.263 72.0674 34.3334 71.9351 34.4102C71.8028 34.4871 71.6855 34.5596 71.5831 34.6279C71.4807 34.6919 71.3719 34.7239 71.2567 34.7239C71.1628 34.7239 71.0817 34.7004 71.0135 34.6535C70.9495 34.6023 70.8961 34.5404 70.8535 34.4679L70.6038 34.0198ZM78.6353 33.111V39.6393H77.2592V33.111H78.6353ZM78.8657 31.1397C78.8657 31.2634 78.8401 31.3808 78.7889 31.4917C78.742 31.6027 78.6758 31.7008 78.5905 31.7861C78.5052 31.8672 78.4049 31.9333 78.2897 31.9845C78.1788 32.0315 78.0593 32.0549 77.9313 32.0549C77.8075 32.0549 77.6902 32.0315 77.5793 31.9845C77.4726 31.9333 77.3787 31.8672 77.2976 31.7861C77.2166 31.7008 77.1504 31.6027 77.0992 31.4917C77.0523 31.3808 77.0288 31.2634 77.0288 31.1397C77.0288 31.0117 77.0523 30.8922 77.0992 30.7813C77.1504 30.6703 77.2166 30.5743 77.2976 30.4933C77.3787 30.4079 77.4726 30.3418 77.5793 30.2949C77.6902 30.2437 77.8075 30.2181 77.9313 30.2181C78.0593 30.2181 78.1788 30.2437 78.2897 30.2949C78.4049 30.3418 78.5052 30.4079 78.5905 30.4933C78.6758 30.5743 78.742 30.6703 78.7889 30.7813C78.8401 30.8922 78.8657 31.0117 78.8657 31.1397ZM81.6507 33.975C81.7915 33.83 81.9366 33.6998 82.086 33.5846C82.2396 33.4651 82.4017 33.3627 82.5724 33.2774C82.7431 33.1921 82.9244 33.1259 83.1164 33.079C83.3084 33.0321 83.5175 33.0086 83.7436 33.0086C84.102 33.0086 84.4157 33.0683 84.6845 33.1878C84.9576 33.3073 85.1858 33.4758 85.3693 33.6934C85.557 33.911 85.6978 34.1734 85.7917 34.4807C85.8856 34.7836 85.9325 35.1185 85.9325 35.4855V39.6393H84.5629V35.4855C84.5629 35.046 84.4605 34.7047 84.2557 34.4615C84.0551 34.2182 83.7479 34.0966 83.334 34.0966C83.0268 34.0966 82.7409 34.167 82.4764 34.3078C82.2161 34.4487 81.9707 34.6407 81.7403 34.8839V39.6393H80.3643V33.111H81.1963C81.3841 33.111 81.5035 33.1985 81.5547 33.3734L81.6507 33.975ZM100.788 30.4229V39.6393H99.47V33.3222C99.47 33.2198 99.4722 33.1089 99.4764 32.9894C99.485 32.8656 99.4956 32.7419 99.5084 32.6182L96.5451 38.0904C96.4299 38.3166 96.2528 38.4296 96.0139 38.4296H95.8027C95.5595 38.4296 95.3824 38.3166 95.2714 38.0904L92.2633 32.6054C92.2761 32.7291 92.2846 32.8528 92.2889 32.9766C92.2975 33.1003 92.3017 33.2155 92.3017 33.3222V39.6393H90.9833V30.4229H92.1033C92.2356 30.4229 92.338 30.4357 92.4105 30.4613C92.4831 30.4826 92.5492 30.553 92.6089 30.6725L95.5659 36.0295C95.6299 36.1533 95.6896 36.2813 95.7451 36.4135C95.8048 36.5415 95.8581 36.6738 95.9051 36.8104C95.9563 36.6738 96.0096 36.5394 96.0651 36.4071C96.1248 36.2706 96.1867 36.1405 96.2507 36.0167L99.1628 30.6725C99.2226 30.553 99.2887 30.4826 99.3612 30.4613C99.4338 30.4357 99.5362 30.4229 99.6684 30.4229H100.788ZM106.028 36.7848C105.538 36.8018 105.124 36.8424 104.787 36.9064C104.45 36.9661 104.177 37.045 103.968 37.1432C103.758 37.237 103.607 37.3501 103.513 37.4824C103.424 37.6147 103.379 37.7597 103.379 37.9176C103.379 38.0712 103.402 38.2035 103.449 38.3144C103.5 38.4211 103.569 38.5107 103.654 38.5832C103.744 38.6515 103.846 38.7027 103.961 38.7368C104.081 38.7667 104.211 38.7816 104.352 38.7816C104.71 38.7816 105.017 38.7155 105.273 38.5832C105.533 38.4467 105.785 38.2504 106.028 37.9944V36.7848ZM102.38 34.0198C103.118 33.3329 103.997 32.9894 105.017 32.9894C105.393 32.9894 105.725 33.0513 106.016 33.175C106.31 33.2945 106.555 33.4651 106.752 33.687C106.952 33.9089 107.104 34.1734 107.206 34.4807C107.313 34.7836 107.366 35.1207 107.366 35.4919V39.6393H106.752C106.619 39.6393 106.519 39.6201 106.451 39.5817C106.383 39.539 106.325 39.4558 106.278 39.3321L106.144 38.8008C105.977 38.9502 105.813 39.0846 105.651 39.2041C105.489 39.3193 105.32 39.4174 105.145 39.4985C104.975 39.5795 104.789 39.6393 104.588 39.6777C104.392 39.7204 104.174 39.7417 103.936 39.7417C103.671 39.7417 103.424 39.7054 103.193 39.6329C102.967 39.5603 102.771 39.4515 102.604 39.3065C102.438 39.1571 102.306 38.9737 102.207 38.756C102.114 38.5384 102.067 38.2824 102.067 37.988C102.067 37.7363 102.133 37.4909 102.265 37.252C102.402 37.013 102.623 36.7997 102.931 36.6119C103.242 36.4199 103.65 36.2621 104.153 36.1383C104.661 36.0146 105.286 35.9442 106.028 35.9271V35.4919C106.028 35.0225 105.928 34.6727 105.728 34.4422C105.527 34.2118 105.233 34.0966 104.844 34.0966C104.58 34.0966 104.358 34.1308 104.179 34.199C104 34.263 103.844 34.3334 103.712 34.4102C103.579 34.4871 103.462 34.5596 103.36 34.6279C103.257 34.6919 103.148 34.7239 103.033 34.7239C102.939 34.7239 102.858 34.7004 102.79 34.6535C102.726 34.6023 102.673 34.5404 102.63 34.4679L102.38 34.0198ZM110.265 33.975C110.405 33.83 110.55 33.6998 110.7 33.5846C110.853 33.4651 111.015 33.3627 111.186 33.2774C111.357 33.1921 111.538 33.1259 111.73 33.079C111.922 33.0321 112.131 33.0086 112.357 33.0086C112.716 33.0086 113.029 33.0683 113.298 33.1878C113.571 33.3073 113.8 33.4758 113.983 33.6934C114.171 33.911 114.312 34.1734 114.405 34.4807C114.499 34.7836 114.546 35.1185 114.546 35.4855V39.6393H113.177V35.4855C113.177 35.046 113.074 34.7047 112.869 34.4615C112.669 34.2182 112.362 34.0966 111.948 34.0966C111.641 34.0966 111.355 34.167 111.09 34.3078C110.83 34.4487 110.585 34.6407 110.354 34.8839V39.6393H108.978V33.111H109.81C109.998 33.111 110.117 33.1985 110.169 33.3734L110.265 33.975ZM119.642 36.7848C119.151 36.8018 118.737 36.8424 118.4 36.9064C118.063 36.9661 117.79 37.045 117.581 37.1432C117.372 37.237 117.22 37.3501 117.126 37.4824C117.037 37.6147 116.992 37.7597 116.992 37.9176C116.992 38.0712 117.015 38.2035 117.062 38.3144C117.113 38.4211 117.182 38.5107 117.267 38.5832C117.357 38.6515 117.459 38.7027 117.574 38.7368C117.694 38.7667 117.824 38.7816 117.965 38.7816C118.323 38.7816 118.63 38.7155 118.886 38.5832C119.147 38.4467 119.398 38.2504 119.642 37.9944V36.7848ZM115.993 34.0198C116.732 33.3329 117.611 32.9894 118.63 32.9894C119.006 32.9894 119.339 33.0513 119.629 33.175C119.923 33.2945 120.168 33.4651 120.365 33.687C120.565 33.9089 120.717 34.1734 120.819 34.4807C120.926 34.7836 120.979 35.1207 120.979 35.4919V39.6393H120.365C120.232 39.6393 120.132 39.6201 120.064 39.5817C119.996 39.539 119.938 39.4558 119.891 39.3321L119.757 38.8008C119.59 38.9502 119.426 39.0846 119.264 39.2041C119.102 39.3193 118.933 39.4174 118.758 39.4985C118.588 39.5795 118.402 39.6393 118.201 39.6777C118.005 39.7204 117.788 39.7417 117.549 39.7417C117.284 39.7417 117.037 39.7054 116.806 39.6329C116.58 39.5603 116.384 39.4515 116.217 39.3065C116.051 39.1571 115.919 38.9737 115.821 38.756C115.727 38.5384 115.68 38.2824 115.68 37.988C115.68 37.7363 115.746 37.4909 115.878 37.252C116.015 37.013 116.237 36.7997 116.544 36.6119C116.855 36.4199 117.263 36.2621 117.766 36.1383C118.274 36.0146 118.899 35.9442 119.642 35.9271V35.4919C119.642 35.0225 119.541 34.6727 119.341 34.4422C119.14 34.2118 118.846 34.0966 118.457 34.0966C118.193 34.0966 117.971 34.1308 117.792 34.199C117.613 34.263 117.457 34.3334 117.325 34.4102C117.192 34.4871 117.075 34.5596 116.973 34.6279C116.87 34.6919 116.761 34.7239 116.646 34.7239C116.552 34.7239 116.471 34.7004 116.403 34.6535C116.339 34.6023 116.286 34.5404 116.243 34.4679L115.993 34.0198ZM124.921 36.3175C125.348 36.3175 125.668 36.2087 125.881 35.9911C126.094 35.7735 126.201 35.4898 126.201 35.1399C126.201 34.7815 126.094 34.4977 125.881 34.2886C125.668 34.0796 125.348 33.975 124.921 33.975C124.498 33.975 124.178 34.0796 123.961 34.2886C123.747 34.4977 123.641 34.7815 123.641 35.1399C123.641 35.3106 123.669 35.4684 123.724 35.6135C123.779 35.7586 123.861 35.8844 123.967 35.9911C124.074 36.0935 124.206 36.1746 124.364 36.2343C124.526 36.2898 124.712 36.3175 124.921 36.3175ZM126.835 39.9593C126.835 39.8142 126.792 39.699 126.707 39.6137C126.625 39.5241 126.515 39.4558 126.374 39.4089C126.233 39.3577 126.069 39.3214 125.881 39.3001C125.693 39.2745 125.493 39.2574 125.279 39.2489C125.07 39.2361 124.855 39.2254 124.633 39.2169C124.415 39.2041 124.204 39.1827 123.999 39.1529C123.794 39.2595 123.626 39.3875 123.494 39.5369C123.366 39.6862 123.302 39.859 123.302 40.0553C123.302 40.1833 123.334 40.3028 123.398 40.4137C123.466 40.5247 123.568 40.6207 123.705 40.7017C123.846 40.7828 124.023 40.8468 124.236 40.8937C124.454 40.9407 124.714 40.9641 125.017 40.9641C125.623 40.9641 126.077 40.8703 126.38 40.6825C126.683 40.4948 126.835 40.2537 126.835 39.9593ZM128.217 33.3478V33.8598C128.217 34.0305 128.115 34.135 127.91 34.1734L127.257 34.2822C127.368 34.5297 127.423 34.8049 127.423 35.1079C127.423 35.4279 127.359 35.718 127.231 35.9783C127.108 36.2386 126.935 36.4605 126.713 36.6439C126.491 36.8274 126.227 36.9682 125.919 37.0664C125.612 37.1645 125.279 37.2136 124.921 37.2136C124.784 37.2136 124.65 37.2072 124.518 37.1944C124.39 37.1773 124.264 37.156 124.14 37.1304C124.016 37.2029 123.925 37.2797 123.865 37.3608C123.805 37.4419 123.775 37.5251 123.775 37.6104C123.775 37.7512 123.837 37.8557 123.961 37.924C124.085 37.9923 124.247 38.0413 124.447 38.0712C124.652 38.1011 124.885 38.1203 125.145 38.1288C125.405 38.1373 125.67 38.1523 125.939 38.1736C126.207 38.195 126.472 38.2312 126.732 38.2824C126.992 38.3294 127.223 38.4104 127.423 38.5256C127.628 38.6366 127.792 38.788 127.916 38.9801C128.04 39.1721 128.102 39.4217 128.102 39.7289C128.102 40.0105 128.031 40.2857 127.891 40.5545C127.75 40.8233 127.545 41.0623 127.276 41.2714C127.012 41.4804 126.687 41.6468 126.303 41.7706C125.919 41.8986 125.482 41.9626 124.991 41.9626C124.505 41.9626 124.08 41.9157 123.718 41.8218C123.359 41.7279 123.058 41.5999 122.815 41.4378C122.576 41.2799 122.397 41.0964 122.278 40.8873C122.162 40.6783 122.105 40.4607 122.105 40.2345C122.105 39.9273 122.201 39.6649 122.393 39.4473C122.589 39.2297 122.854 39.059 123.186 38.9353C123.007 38.8499 122.862 38.7326 122.751 38.5832C122.645 38.4339 122.591 38.2376 122.591 37.9944C122.591 37.8024 122.662 37.6019 122.802 37.3928C122.943 37.1837 123.154 37.0066 123.436 36.8616C123.112 36.6824 122.856 36.4455 122.668 36.1511C122.48 35.8524 122.386 35.5047 122.386 35.1079C122.386 34.7836 122.448 34.4913 122.572 34.231C122.7 33.9708 122.877 33.7489 123.103 33.5654C123.329 33.3819 123.596 33.2411 123.903 33.143C124.215 33.0449 124.554 32.9958 124.921 32.9958C125.484 32.9958 125.975 33.1131 126.393 33.3478H128.217ZM133.473 35.6391C133.473 35.4087 133.439 35.1954 133.371 34.9991C133.307 34.7985 133.211 34.6257 133.083 34.4807C132.955 34.3313 132.795 34.2161 132.603 34.135C132.415 34.0497 132.197 34.007 131.95 34.007C131.451 34.007 131.058 34.15 130.772 34.4358C130.486 34.7217 130.305 35.1228 130.228 35.6391H133.473ZM130.19 36.4839C130.207 36.8552 130.265 37.1773 130.363 37.4504C130.461 37.7192 130.591 37.9432 130.753 38.1224C130.92 38.3016 131.116 38.436 131.342 38.5256C131.572 38.611 131.828 38.6536 132.11 38.6536C132.379 38.6536 132.611 38.6238 132.808 38.564C133.004 38.5 133.175 38.4318 133.32 38.3592C133.465 38.2824 133.588 38.2142 133.691 38.1544C133.793 38.0904 133.887 38.0584 133.972 38.0584C134.083 38.0584 134.169 38.1011 134.228 38.1864L134.619 38.692C134.457 38.884 134.273 39.0462 134.068 39.1785C133.864 39.3107 133.646 39.4195 133.416 39.5049C133.185 39.5859 132.948 39.6435 132.705 39.6777C132.462 39.7161 132.225 39.7353 131.995 39.7353C131.542 39.7353 131.122 39.6606 130.734 39.5113C130.35 39.3577 130.015 39.1337 129.729 38.8392C129.447 38.5448 129.226 38.18 129.063 37.7448C128.906 37.3096 128.827 36.8082 128.827 36.2407C128.827 35.7884 128.897 35.366 129.038 34.9735C129.183 34.5809 129.388 34.2396 129.652 33.9494C129.921 33.6593 130.245 33.431 130.625 33.2646C131.009 33.0939 131.442 33.0086 131.924 33.0086C132.325 33.0086 132.697 33.0747 133.038 33.207C133.379 33.335 133.674 33.5249 133.921 33.7766C134.169 34.0284 134.361 34.3377 134.497 34.7047C134.638 35.0673 134.709 35.4812 134.709 35.9463C134.709 36.1597 134.685 36.3026 134.638 36.3751C134.591 36.4477 134.506 36.4839 134.382 36.4839H130.19ZM135.992 39.6393V33.111H136.824C137.012 33.111 137.131 33.1985 137.182 33.3734L137.272 33.943C137.391 33.8065 137.515 33.6827 137.643 33.5718C137.771 33.4566 137.908 33.3585 138.053 33.2774C138.202 33.1921 138.36 33.1259 138.526 33.079C138.697 33.0321 138.88 33.0086 139.077 33.0086C139.286 33.0086 139.478 33.0385 139.653 33.0982C139.828 33.1579 139.981 33.2433 140.114 33.3542C140.25 33.4651 140.367 33.5995 140.466 33.7574C140.564 33.9153 140.645 34.0924 140.709 34.2886C140.807 34.0625 140.931 33.8684 141.08 33.7062C141.229 33.5441 141.396 33.4118 141.579 33.3094C141.763 33.207 141.957 33.1323 142.162 33.0854C142.371 33.0342 142.582 33.0086 142.795 33.0086C143.145 33.0086 143.457 33.0641 143.73 33.175C144.007 33.2859 144.24 33.4481 144.427 33.6614C144.619 33.8705 144.764 34.1286 144.863 34.4358C144.961 34.7431 145.01 35.0929 145.01 35.4855V39.6393H143.634V35.4855C143.634 35.0247 143.533 34.6791 143.333 34.4487C143.137 34.214 142.844 34.0966 142.456 34.0966C142.281 34.0966 142.117 34.1265 141.963 34.1862C141.81 34.246 141.675 34.3334 141.56 34.4487C141.445 34.5639 141.353 34.7089 141.285 34.8839C141.221 35.0545 141.189 35.2551 141.189 35.4855V39.6393H139.813V35.4855C139.813 35.0076 139.717 34.6577 139.525 34.4358C139.333 34.2097 139.051 34.0966 138.68 34.0966C138.424 34.0966 138.187 34.1628 137.969 34.295C137.752 34.423 137.551 34.6001 137.368 34.8263V39.6393H135.992ZM150.899 35.6391C150.899 35.4087 150.865 35.1954 150.797 34.9991C150.733 34.7985 150.637 34.6257 150.509 34.4807C150.381 34.3313 150.221 34.2161 150.029 34.135C149.841 34.0497 149.623 34.007 149.376 34.007C148.877 34.007 148.484 34.15 148.198 34.4358C147.912 34.7217 147.731 35.1228 147.654 35.6391H150.899ZM147.616 36.4839C147.633 36.8552 147.69 37.1773 147.788 37.4504C147.887 37.7192 148.017 37.9432 148.179 38.1224C148.345 38.3016 148.542 38.436 148.768 38.5256C148.998 38.611 149.254 38.6536 149.536 38.6536C149.805 38.6536 150.037 38.6238 150.233 38.564C150.43 38.5 150.6 38.4318 150.745 38.3592C150.891 38.2824 151.014 38.2142 151.117 38.1544C151.219 38.0904 151.313 38.0584 151.398 38.0584C151.509 38.0584 151.595 38.1011 151.654 38.1864L152.045 38.692C151.883 38.884 151.699 39.0462 151.494 39.1785C151.289 39.3107 151.072 39.4195 150.841 39.5049C150.611 39.5859 150.374 39.6435 150.131 39.6777C149.888 39.7161 149.651 39.7353 149.421 39.7353C148.968 39.7353 148.548 39.6606 148.16 39.5113C147.776 39.3577 147.441 39.1337 147.155 38.8392C146.873 38.5448 146.651 38.18 146.489 37.7448C146.331 37.3096 146.252 36.8082 146.252 36.2407C146.252 35.7884 146.323 35.366 146.464 34.9735C146.609 34.5809 146.814 34.2396 147.078 33.9494C147.347 33.6593 147.671 33.431 148.051 33.2646C148.435 33.0939 148.868 33.0086 149.35 33.0086C149.751 33.0086 150.122 33.0747 150.464 33.207C150.805 33.335 151.1 33.5249 151.347 33.7766C151.595 34.0284 151.787 34.3377 151.923 34.7047C152.064 35.0673 152.134 35.4812 152.134 35.9463C152.134 36.1597 152.111 36.3026 152.064 36.3751C152.017 36.4477 151.932 36.4839 151.808 36.4839H147.616ZM154.704 33.975C154.845 33.83 154.99 33.6998 155.139 33.5846C155.293 33.4651 155.455 33.3627 155.626 33.2774C155.796 33.1921 155.978 33.1259 156.17 33.079C156.362 33.0321 156.571 33.0086 156.797 33.0086C157.155 33.0086 157.469 33.0683 157.738 33.1878C158.011 33.3073 158.239 33.4758 158.423 33.6934C158.61 33.911 158.751 34.1734 158.845 34.4807C158.939 34.7836 158.986 35.1185 158.986 35.4855V39.6393H157.616V35.4855C157.616 35.046 157.514 34.7047 157.309 34.4615C157.108 34.2182 156.801 34.0966 156.387 34.0966C156.08 34.0966 155.794 34.167 155.53 34.3078C155.269 34.4487 155.024 34.6407 154.794 34.8839V39.6393H153.418V33.111H154.25C154.437 33.111 154.557 33.1985 154.608 33.3734L154.704 33.975ZM162.598 39.7417C162.056 39.7417 161.638 39.5902 161.344 39.2873C161.054 38.9801 160.909 38.5491 160.909 37.9944V34.1926H160.192C160.115 34.1926 160.049 34.1692 159.993 34.1222C159.938 34.071 159.91 33.9964 159.91 33.8982V33.3414L160.966 33.1878L161.267 31.2997C161.288 31.2272 161.325 31.1696 161.376 31.1269C161.427 31.08 161.495 31.0565 161.581 31.0565H162.285V33.2006H164.096V34.1926H162.285V37.8984C162.285 38.1331 162.342 38.3123 162.457 38.436C162.573 38.5598 162.726 38.6216 162.918 38.6216C163.025 38.6216 163.117 38.6088 163.193 38.5832C163.27 38.5534 163.336 38.5235 163.392 38.4936C163.447 38.4595 163.494 38.4296 163.533 38.404C163.575 38.3742 163.616 38.3592 163.654 38.3592C163.731 38.3592 163.793 38.4019 163.84 38.4872L164.25 39.1593C164.036 39.347 163.784 39.4921 163.494 39.5945C163.204 39.6926 162.905 39.7417 162.598 39.7417Z" fill="#515151"/>
</g>
<defs>
<clipPath id="clip0_203_2116">
<rect width="178" height="44" fill="white"/>
</clipPath>
</defs>
</svg>
