<svg width="92" height="46" viewBox="0 0 92 46" fill="none" xmlns="http://www.w3.org/2000/svg">
<g clip-path="url(#clip0_203_2111)">
<path d="M0 45.931H46.4501L92 0H0V45.931Z" fill="#515151"/>
<path fill-rule="evenodd" clip-rule="evenodd" d="M54.5518 8.63262L45.5499 8.63081V30.3567L37.6282 8.63081H29.8865L23.045 26.8005C22.3248 22.2236 17.6438 20.6416 13.863 19.4574C11.5225 18.6619 8.8219 17.4923 9.00193 16.2136C9.00193 15.1529 10.2622 14.1794 12.9628 14.3247C14.7632 14.4174 16.3835 14.5681 19.6242 16.1264L22.8649 10.5924C19.8043 9.09577 15.8434 8.14951 12.6027 8.14587C8.64186 8.14587 5.40115 9.40271 3.42072 11.4859C2.16045 12.9353 1.26025 14.7752 1.26025 16.8148C1.26025 19.6209 2.34049 21.6115 4.32092 23.1971C6.30135 24.532 8.46182 25.402 10.6223 26.0395C13.1428 26.8259 15.1233 27.507 15.1233 28.9673C15.1233 29.5067 14.9432 29.9971 14.5831 30.3912C13.863 31.0433 12.9628 31.2903 11.5225 31.3211C9.00193 31.3684 7.20154 30.9633 4.14088 29.1598L1.26025 34.7629C4.32092 36.4993 7.9217 37.52 11.5225 37.52L12.0626 37.5163C15.1233 37.4582 17.8239 36.541 19.8043 34.8737C19.9843 34.7756 19.9843 34.6848 20.1644 34.594L19.2642 37.0332H27.546L28.8062 32.805C30.2466 33.2918 31.8669 33.5751 33.6673 33.5751C35.4677 33.5751 36.908 33.3008 38.3483 32.8395L39.7886 37.0332H53.1115V28.2626H56.1722C63.1937 28.2626 67.3346 24.6283 67.3346 18.533C67.3346 11.7475 63.3738 8.63262 54.5518 8.63262ZM33.6673 27.2328C32.5871 27.2328 31.6869 27.0439 30.7867 26.7133L33.6673 17.574L36.5479 26.7424C35.6477 27.0548 34.7475 27.2328 33.6673 27.2328ZM55.092 21.9766H53.1115V14.6081H55.092C57.7925 14.6081 59.953 15.4998 59.953 18.2551C59.953 21.0884 57.7925 21.9766 55.092 21.9766Z" fill="white"/>
<path d="M57.7925 42.9959C57.7925 41.5919 58.8728 40.5222 60.1331 40.5222C61.3933 40.5222 62.4736 41.5919 62.4736 42.9959C62.4736 44.4525 61.3933 45.5023 60.1331 45.5023C58.8728 45.5023 57.7925 44.4525 57.7925 42.9959ZM60.1331 46C61.7534 46 63.1937 44.7268 63.1937 42.9959C63.1937 41.2904 61.7534 40.0372 60.1331 40.0372C58.5127 40.0372 57.0724 41.2904 57.0724 42.9959C57.0724 44.7268 58.5127 46 60.1331 46ZM59.5929 43.2447H60.1331L61.0333 44.7268H61.5734L60.6732 43.2157C61.0332 43.1539 61.5734 42.8869 61.5734 42.2767C61.5734 41.5919 61.0332 41.2904 60.3131 41.2904H59.0528V44.7268H59.5929V43.2447ZM59.5929 42.8016V41.7282H60.3131C60.4931 41.7282 61.0333 41.8117 61.0333 42.2458C61.0333 42.767 60.4931 42.8016 60.1331 42.8016H59.5929Z" fill="#515151"/>
</g>
<defs>
<clipPath id="clip0_203_2111">
<rect width="92" height="46" fill="white"/>
</clipPath>
</defs>
</svg>
