<svg width="36" height="36" viewBox="0 0 36 36" fill="none" xmlns="http://www.w3.org/2000/svg">
<path d="M27.4801 8.52002C26.9401 9.06002 26.8951 9.90002 27.3751 10.5C29.5501 13.23 30.6901 16.965 29.6701 20.88C28.4851 25.455 24.9001 28.875 20.3551 29.79C12.7051 31.305 6.00009 25.395 6.00009 18C6.00009 11.88 10.5751 6.84002 16.5001 6.10502V9.13502C14.1685 9.52833 12.0855 10.8237 10.7016 12.741C9.31767 14.6582 8.74416 17.0432 9.10509 19.38C9.69009 23.295 12.9451 26.445 16.8751 26.925C18.5904 27.1402 20.3315 26.8568 21.89 26.1086C23.4485 25.3605 24.7586 24.1793 25.6636 22.7064C26.5686 21.2334 27.0302 19.5309 26.9932 17.8025C26.9562 16.0741 26.4223 14.393 25.4551 12.96C24.9451 12.21 23.8501 12.165 23.2051 12.795L23.1901 12.81C22.6801 13.32 22.6351 14.115 23.0251 14.715C23.9251 16.095 24.2851 17.865 23.7601 19.695C23.4612 20.7173 22.895 21.6414 22.1197 22.3718C21.3445 23.1022 20.3884 23.6125 19.3501 23.85C18.4703 24.0532 17.5559 24.0552 16.6752 23.8558C15.7945 23.6564 14.9701 23.2607 14.2636 22.6984C13.5571 22.1361 12.9866 21.4215 12.5947 20.608C12.2028 19.7945 11.9995 18.903 12.0001 18C12.0001 15.21 13.9201 12.885 16.5001 12.21V15.42C15.6001 15.945 15.0001 16.89 15.0001 18C15.0001 19.65 16.3501 21 18.0001 21C19.6501 21 21.0001 19.65 21.0001 18C21.0001 16.89 20.4001 15.93 19.5001 15.42V4.06502C19.5001 3.48002 19.0201 3.00002 18.4351 3.00002C10.3951 2.70002 3.46509 9.09002 3.03009 17.1C2.49009 26.925 11.1451 34.83 21.0451 32.7C26.8651 31.455 31.3651 27 32.6701 21.195C33.7351 16.455 32.3701 11.955 29.7151 8.64002C29.583 8.47504 29.4176 8.33983 29.2297 8.24324C29.0417 8.14665 28.8355 8.09086 28.6245 8.07953C28.4135 8.0682 28.2024 8.10159 28.0052 8.1775C27.808 8.25341 27.629 8.37013 27.4801 8.52002Z" fill="#CC9866"/>
</svg>
