<svg width="234" height="234" viewBox="0 0 234 234" fill="none" xmlns="http://www.w3.org/2000/svg">
<rect width="234" height="234" rx="16" fill="#F5F5F5"/>
<path d="M154.333 101C154.336 94.5728 152.679 88.2538 149.523 82.6548C146.367 77.0558 141.819 72.3663 136.319 69.0403C130.82 65.7144 124.554 63.8646 118.13 63.67C111.706 63.4754 105.34 64.9427 99.6492 67.9297C93.9583 70.9167 89.1349 75.3224 85.646 80.7201C82.1571 86.1179 80.1207 92.325 79.7341 98.7406C79.3475 105.156 80.6237 111.563 83.4392 117.341C86.2547 123.118 90.5141 128.071 95.8052 131.72L79.6665 159.667L91.6985 160.163L98.1412 170.333L116.627 138.312C116.755 138.312 116.872 138.333 117 138.333C117.128 138.333 117.245 138.317 117.373 138.312L135.859 170.333L142.429 160.381L154.333 159.667L138.195 131.72C143.174 128.292 147.245 123.704 150.056 118.352C152.868 113 154.335 107.045 154.333 101ZM90.3332 101C90.3332 95.7258 91.8971 90.5701 94.8273 86.1848C97.7575 81.7995 101.922 78.3815 106.795 76.3632C111.668 74.3449 117.029 73.8168 122.202 74.8457C127.375 75.8747 132.127 78.4144 135.856 82.1438C139.585 85.8732 142.125 90.6248 143.154 95.7976C144.183 100.97 143.655 106.332 141.637 111.205C139.618 116.078 136.2 120.242 131.815 123.173C127.43 126.103 122.274 127.667 117 127.667C109.927 127.667 103.145 124.857 98.1437 119.856C93.1427 114.855 90.3332 108.072 90.3332 101Z" fill="#0E8080"/>
<path d="M117 117C125.837 117 133 109.837 133 101C133 92.1634 125.837 85 117 85C108.163 85 101 92.1634 101 101C101 109.837 108.163 117 117 117Z" fill="#CC9866"/>
</svg>
