<svg width="36" height="36" viewBox="0 0 36 36" fill="none" xmlns="http://www.w3.org/2000/svg">
<path fill-rule="evenodd" clip-rule="evenodd" d="M12.6967 5.1967C14.1032 3.79018 16.0109 3 18 3C19.9891 3 21.8968 3.79018 23.3033 5.1967C24.7098 6.60322 25.5 8.51088 25.5 10.5C25.5 12.4891 24.7098 14.3968 23.3033 15.8033C21.8968 17.2098 19.9891 18 18 18C16.0109 18 14.1032 17.2098 12.6967 15.8033C11.2902 14.3968 10.5 12.4891 10.5 10.5C10.5 8.51088 11.2902 6.60322 12.6967 5.1967ZM18 6C16.8065 6 15.6619 6.47411 14.818 7.31802C13.9741 8.16193 13.5 9.30653 13.5 10.5C13.5 11.6935 13.9741 12.8381 14.818 13.682C15.6619 14.5259 16.8065 15 18 15C19.1935 15 20.3381 14.5259 21.182 13.682C22.0259 12.8381 22.5 11.6935 22.5 10.5C22.5 9.30653 22.0259 8.16193 21.182 7.31802C20.3381 6.47411 19.1935 6 18 6ZM15 24C13.8065 24 12.6619 24.4741 11.818 25.318C10.9741 26.1619 10.5 27.3065 10.5 28.5V31.5C10.5 32.3284 9.82843 33 9 33C8.17157 33 7.5 32.3284 7.5 31.5V28.5C7.5 26.5109 8.29018 24.6032 9.6967 23.1967C11.1032 21.7902 13.0109 21 15 21H15.75C16.5784 21 17.25 21.6716 17.25 22.5C17.25 23.3284 16.5784 24 15.75 24H15Z" fill="#0E8080"/>
<path fill-rule="evenodd" clip-rule="evenodd" d="M26.6999 23.6421L25.8886 25.2804C25.6697 25.7223 25.2476 26.0284 24.7596 26.0992L22.9563 26.3606L24.2576 27.6249C24.6126 27.9697 24.7746 28.4675 24.6906 28.9552L24.3824 30.746L26.0037 29.8965C26.4397 29.6681 26.96 29.6681 27.396 29.8965L29.0167 30.7457L28.709 28.9547C28.6253 28.4671 28.7873 27.9696 29.1421 27.6249L30.4434 26.3606L28.6402 26.0992C28.1521 26.0284 27.73 25.7223 27.5112 25.2804L26.6999 23.6421ZM25.6002 19.8121C25.9305 19.6074 26.3113 19.499 26.6999 19.499C27.0884 19.499 27.4693 19.6074 27.7995 19.8121C28.1298 20.0167 28.3965 20.3094 28.5695 20.6573L28.5706 20.6596L29.85 23.2432L32.711 23.658C32.7106 23.658 32.7113 23.658 32.711 23.658C32.7112 23.658 32.7124 23.6582 32.7126 23.6582C33.0971 23.7139 33.4585 23.8758 33.7559 24.1259C34.0537 24.3763 34.2755 24.7051 34.3962 25.075C34.5169 25.4449 34.5317 25.8412 34.4389 26.219C34.3461 26.5969 34.1494 26.9413 33.8711 27.2132L33.8681 27.2161L31.7995 29.2258L32.2864 32.0602C32.2864 32.0598 32.2865 32.0605 32.2864 32.0602C32.2865 32.0603 32.2867 32.0616 32.2867 32.0618C32.3527 32.4455 32.31 32.84 32.1634 33.2007C32.0165 33.5619 31.7713 33.8747 31.4556 34.1035C31.1399 34.3324 30.7664 34.4681 30.3774 34.4953C29.99 34.5224 29.6028 34.4408 29.2593 34.2596C29.2579 34.2589 29.2566 34.2582 29.2552 34.2574L26.6999 32.9186L24.138 34.2609L24.1344 34.2628C23.7911 34.4415 23.4048 34.5212 23.0188 34.4931C22.6328 34.465 22.2622 34.3302 21.9483 34.1036C21.6345 33.8771 21.3898 33.5678 21.2416 33.2103C21.0934 32.8527 21.0474 32.461 21.1089 32.0789L21.1115 32.0628L21.6 29.2256L19.5343 27.2187C19.5337 27.2181 19.5331 27.2175 19.5325 27.2169C19.2526 26.9456 19.0543 26.6013 18.9604 26.2229C18.8662 25.8438 18.8805 25.4458 19.0017 25.0744C19.1229 24.703 19.3461 24.3731 19.6458 24.1225C19.9439 23.8732 20.3057 23.7122 20.6904 23.6578L23.5497 23.2432L24.8303 20.6573C25.0033 20.3094 25.2699 20.0167 25.6002 19.8121Z" fill="#CC9866"/>
</svg>
